<svg width="32" height="32" viewBox="0 0 32 32" fill="none" xmlns="http://www.w3.org/2000/svg">
<rect width="32" height="32" rx="8" fill="#004FFE" fill-opacity="0.05"/>
<path d="M16.2093 19.0003V16.6033C16.2093 16.4375 16.1233 16.3513 15.9513 16.3447H12.4783C12.3526 16.3513 12.2434 16.4077 12.1508 16.5138C12.0582 16.6132 11.9888 16.7326 11.9425 16.8718C11.9028 17.0045 11.8829 17.1404 11.8829 17.2796C11.8829 17.4122 11.9028 17.5482 11.9425 17.6874C11.9888 17.82 12.0582 17.9394 12.1508 18.0455C12.2434 18.1449 12.3526 18.1947 12.4783 18.1947H15.0185C15.2038 18.1947 15.3592 18.261 15.4849 18.3936C15.6172 18.5196 15.6834 18.6754 15.6834 18.861C15.6834 19.0467 15.6172 19.2025 15.4849 19.3285C15.3592 19.4611 15.2038 19.5274 15.0185 19.5274H12.518C12.0549 19.5208 11.6712 19.3915 11.3669 19.1395C11.0692 18.8809 10.8542 18.5925 10.7219 18.2742C10.5963 17.9493 10.5334 17.6145 10.5334 17.2697C10.5334 16.9381 10.5996 16.6132 10.7319 16.295C10.8642 15.9701 11.0792 15.6816 11.3769 15.4297C11.6745 15.1711 12.1144 15.0318 12.6966 15.0119H16.8642C17.0494 15.0119 17.2082 15.0749 17.3405 15.2009C17.4728 15.3203 17.5422 15.4728 17.5489 15.6584V19.0003C17.5489 19.1859 17.4794 19.3418 17.3405 19.4677C17.2082 19.5871 17.0494 19.6468 16.8642 19.6468C16.4673 19.6136 16.249 19.3981 16.2093 19.0003Z" fill="#004BA5"/>
<path d="M24.1525 19.0003V16.6033C24.1525 16.4375 24.0665 16.3513 23.8945 16.3447H20.4215C20.2958 16.3513 20.1866 16.4077 20.094 16.5138C20.0014 16.6132 19.9319 16.7326 19.8856 16.8718C19.8459 17.0045 19.8261 17.1404 19.8261 17.2796C19.8261 17.4122 19.8459 17.5482 19.8856 17.6874C19.9319 17.82 20.0014 17.9394 20.094 18.0455C20.1866 18.1449 20.2958 18.1947 20.4215 18.1947H22.9617C23.1469 18.1947 23.3024 18.261 23.4281 18.3936C23.5604 18.5196 23.6265 18.6754 23.6265 18.861C23.6265 19.0467 23.5604 19.2025 23.4281 19.3285C23.3024 19.4611 23.1469 19.5274 22.9617 19.5274H20.4612C19.9981 19.5208 19.6144 19.3915 19.3101 19.1395C19.0124 18.8809 18.7974 18.5925 18.6651 18.2742C18.5394 17.9493 18.4766 17.6145 18.4766 17.2697C18.4766 16.9381 18.5427 16.6132 18.675 16.295C18.8073 15.9701 19.0223 15.6816 19.32 15.4297C19.6177 15.1711 20.0576 15.0318 20.6398 15.0119H24.8074C24.9926 15.0119 25.1513 15.0749 25.2837 15.2009C25.416 15.3203 25.4854 15.4728 25.492 15.6584V19.0003C25.492 19.1859 25.4226 19.3418 25.2837 19.4677C25.1513 19.5871 24.9926 19.6468 24.8074 19.6468C24.4104 19.6136 24.1921 19.3981 24.1525 19.0003Z" fill="#004BA5"/>
<path d="M27.3451 13.5001C27.5237 13.5068 27.6759 13.5731 27.8015 13.6991C27.9272 13.8184 27.9934 13.9676 28 14.1466V19.0202C27.9603 19.418 27.742 19.6335 27.3451 19.6667C27.1599 19.6667 26.9978 19.607 26.8589 19.4876C26.7266 19.3617 26.6604 19.2058 26.6604 19.0202V14.1466C26.667 13.961 26.7365 13.8085 26.8688 13.6891C27.0011 13.5631 27.1599 13.5001 27.3451 13.5001Z" fill="#004BA5"/>
<path d="M6.53188 15.4278C6.41667 15.3333 6.24078 15.3333 6.05556 15.3333C5.87694 15.34 5.75 15.3333 5.59913 15.4377C5.47344 15.5571 5.40729 15.7063 5.40067 15.8853V16.8062V16.4601V16.7784C5.40729 17.2492 5.47344 17.6934 5.59913 18.1112C5.73143 18.5289 5.94643 18.8836 6.24411 19.1754C6.54841 19.4605 6.9321 19.6163 7.39516 19.6428H8.98403C9.16264 19.6362 9.31148 19.5732 9.43056 19.4539C9.55625 19.3279 9.6224 19.1754 9.62901 18.9963C9.62901 18.8107 9.56617 18.6516 9.44048 18.5189C9.32141 18.3863 9.16926 18.3167 8.98403 18.3101H7.73254C7.48116 18.2968 7.27278 18.2007 7.1074 18.0216C6.94202 17.8426 6.83618 17.6404 6.78987 17.4149C6.75018 17.1829 6.73364 16.9309 6.74026 16.659V16.8062V15.8853C6.73364 15.6996 6.66418 15.5471 6.53188 15.4278Z" fill="#004BA5"/>
<path d="M9.15216 13.6863C9.14554 13.8653 9.07939 14.0178 8.9537 14.1438C8.83463 14.2698 8.68579 14.3361 8.50717 14.3427L6.9548 14.5016C6.87699 14.5084 6.80299 14.5383 6.74234 14.5876L6.4971 14.787C6.41456 14.8541 5.738 14.8536 5.65603 14.7858L5.4217 14.592C5.36068 14.5416 5.28582 14.5109 5.20702 14.504L3.64498 14.3427C3.24807 14.3029 3.03308 14.0841 3 13.6863C3 13.5006 3.05954 13.3382 3.17861 13.1989C3.3043 13.0663 3.45976 13 3.64498 13L5.22902 13.2163C5.29397 13.2239 5.356 13.2476 5.40942 13.2854L5.66917 13.4692C5.74587 13.5235 6.40655 13.5239 6.48366 13.4702L6.75474 13.2814C6.80769 13.2445 6.86893 13.2214 6.93299 13.214L8.50717 13C8.6924 13.0066 8.84455 13.0763 8.96362 13.2089C9.08931 13.3415 9.15216 13.5006 9.15216 13.6863Z" fill="#004BA5"/>
<path d="M9.15216 13.6863C9.14554 13.8653 9.07939 14.0178 8.9537 14.1438C8.83463 14.2698 8.68579 14.3361 8.50717 14.3427L6.9548 14.5016C6.87699 14.5084 6.80299 14.5383 6.74234 14.5876L6.4971 14.787C6.41456 14.8541 5.738 14.8536 5.65603 14.7858L5.4217 14.592C5.36068 14.5416 5.28582 14.5109 5.20702 14.504L3.64498 14.3427C3.24807 14.3029 3.03308 14.0841 3 13.6863C3 13.5006 3.05954 13.3382 3.17861 13.1989C3.3043 13.0663 3.45976 13 3.64498 13L5.22902 13.2163C5.29397 13.2239 5.356 13.2476 5.40942 13.2854L5.66917 13.4692C5.74587 13.5235 6.40655 13.5239 6.48366 13.4702L6.75474 13.2814C6.80769 13.2445 6.86893 13.2214 6.93299 13.214L8.50717 13C8.6924 13.0066 8.84455 13.0763 8.96362 13.2089C9.08931 13.3415 9.15216 13.5006 9.15216 13.6863Z" fill="#004BA5"/>
<path d="M9.15216 13.6863C9.14554 13.8653 9.07939 14.0178 8.9537 14.1438C8.83463 14.2698 8.68579 14.3361 8.50717 14.3427L6.9548 14.5016C6.87699 14.5084 6.80299 14.5383 6.74234 14.5876L6.4971 14.787C6.41456 14.8541 5.738 14.8536 5.65603 14.7858L5.4217 14.592C5.36068 14.5416 5.28582 14.5109 5.20702 14.504L3.64498 14.3427C3.24807 14.3029 3.03308 14.0841 3 13.6863C3 13.5006 3.05954 13.3382 3.17861 13.1989C3.3043 13.0663 3.45976 13 3.64498 13L5.22902 13.2163C5.29397 13.2239 5.356 13.2476 5.40942 13.2854L5.66917 13.4692C5.74587 13.5235 6.40655 13.5239 6.48366 13.4702L6.75474 13.2814C6.80769 13.2445 6.86893 13.2214 6.93299 13.214L8.50717 13C8.6924 13.0066 8.84455 13.0763 8.96362 13.2089C9.08931 13.3415 9.15216 13.5006 9.15216 13.6863Z" fill="#004BA5"/>
<path d="M9.15216 13.6863C9.14554 13.8653 9.07939 14.0178 8.9537 14.1438C8.83463 14.2698 8.68579 14.3361 8.50717 14.3427L6.9548 14.5016C6.87699 14.5084 6.80299 14.5383 6.74234 14.5876L6.4971 14.787C6.41456 14.8541 5.738 14.8536 5.65603 14.7858L5.4217 14.592C5.36068 14.5416 5.28582 14.5109 5.20702 14.504L3.64498 14.3427C3.24807 14.3029 3.03308 14.0841 3 13.6863C3 13.5006 3.05954 13.3382 3.17861 13.1989C3.3043 13.0663 3.45976 13 3.64498 13L5.22902 13.2163C5.29397 13.2239 5.356 13.2476 5.40942 13.2854L5.66917 13.4692C5.74587 13.5235 6.40655 13.5239 6.48366 13.4702L6.75474 13.2814C6.80769 13.2445 6.86893 13.2214 6.93299 13.214L8.50717 13C8.6924 13.0066 8.84455 13.0763 8.96362 13.2089C9.08931 13.3415 9.15216 13.5006 9.15216 13.6863Z" fill="#004BA5"/>
</svg>
