<svg width="22" height="14" viewBox="0 0 22 14" fill="none" xmlns="http://www.w3.org/2000/svg">
<path d="M10.27 5.47006L11.27 2.06006C11.3042 1.94074 11.3121 1.81544 11.2932 1.69276C11.2744 1.57009 11.2292 1.45295 11.1608 1.3494C11.0924 1.24584 11.0024 1.15831 10.8969 1.09283C10.7915 1.02735 10.6731 0.985468 10.55 0.970055L8.05 0.650055C7.91131 0.637522 7.77154 0.654089 7.63963 0.6987C7.50771 0.743312 7.38657 0.814984 7.28396 0.909123C7.18135 1.00326 7.09953 1.11779 7.04374 1.24538C6.98795 1.37297 6.95943 1.5108 6.96 1.65006L7.45 7.16005C7.46222 7.28664 7.5 7.40943 7.56106 7.52099C7.62211 7.63254 7.70517 7.73056 7.8052 7.80908C7.90523 7.88761 8.02016 7.94503 8.14302 7.97785C8.26589 8.01068 8.39413 8.01823 8.52 8.00005L10.4 7.73005L9.39999 12.2401C9.49999 12.6201 9.76 12.7001 10.14 12.5201L13.5 6.70005C13.5799 6.54595 13.6183 6.37371 13.6114 6.20027C13.6046 6.02683 13.5527 5.85816 13.4609 5.71085C13.369 5.56355 13.2405 5.44267 13.0878 5.36013C12.9351 5.27758 12.7635 5.2362 12.59 5.24006L10.27 5.47006Z" stroke="#1D1D1B" stroke-linecap="round" stroke-linejoin="round"/>
<path d="M15.27 9.88995L13.62 12.66L21.45 12.55V9.88995C21.45 9.88995 15.18 9.77995 15.27 9.88995Z" stroke="#1D1D1B" stroke-linecap="round" stroke-linejoin="round"/>
<path d="M5.52002 12.61L7.17002 9.83997L0.77002 9.94997V12.61C0.77002 12.61 5.62002 12.72 5.52002 12.61Z" stroke="#1D1D1B" stroke-linecap="round" stroke-linejoin="round"/>
</svg>
