<svg width="16" height="16" viewBox="0 0 16 16" fill="none" xmlns="http://www.w3.org/2000/svg">
<path fill-rule="evenodd" clip-rule="evenodd" d="M9.00046 9.13323L4.46712 13.6666C3.86712 14.2666 2.93379 14.2666 2.33379 13.6666C1.73379 13.0666 1.73379 12.1332 2.33379 11.5332L6.86712 6.9999C6.33379 5.66656 6.66712 4.13323 7.73379 3.06656C8.86712 1.93323 10.5338 1.73323 11.8671 2.26656C11.9338 2.26656 11.9338 2.33323 11.8671 2.3999L9.46712 4.7999L11.2005 6.53323L13.6671 4.13323C13.6671 4.13323 13.7338 4.13323 13.8005 4.13323C14.4671 5.46656 14.1338 7.13323 13.0005 8.26656C11.8671 9.33323 10.3338 9.5999 9.00046 9.13323Z" stroke="#004FFE" stroke-linecap="round" stroke-linejoin="round"/>
</svg>
