<svg width="24" height="24" viewBox="0 0 24 24" fill="none" xmlns="http://www.w3.org/2000/svg">
<rect width="24" height="24" rx="4" fill="#014FF9" fill-opacity="0.05"/>
<path d="M8.66683 10.6666V13.3333" stroke="#014FF9" stroke-linecap="round" stroke-linejoin="round"/>
<path d="M11.3333 10.6666V13.3333" stroke="#014FF9" stroke-linecap="round" stroke-linejoin="round"/>
<path d="M13.9998 10.6666V13.3333" stroke="#014FF9" stroke-linecap="round" stroke-linejoin="round"/>
<path fill-rule="evenodd" clip-rule="evenodd" d="M15.3333 16H7.33333C6.59667 16 6 15.4033 6 14.6667V9.33333C6 8.59667 6.59667 8 7.33333 8H15.3333C16.07 8 16.6667 8.59667 16.6667 9.33333V14.6667C16.6667 15.4033 16.07 16 15.3333 16Z" stroke="#014FF9" stroke-linecap="round" stroke-linejoin="round"/>
<path d="M16.6665 10H17.3425C17.4458 10 17.5478 10.024 17.6405 10.0707L17.9645 10.2327C18.1905 10.3453 18.3332 10.5767 18.3332 10.8287V13.1713C18.3332 13.424 18.1905 13.6547 17.9645 13.7673L17.6405 13.9293C17.5478 13.976 17.4458 14 17.3425 14H16.6665" stroke="#014FF9" stroke-linecap="round" stroke-linejoin="round"/>
</svg>
