<svg width="131" height="154" viewBox="0 0 131 154" fill="none" xmlns="http://www.w3.org/2000/svg">
<g clip-path="url(#clip0_859_5373)">
<path d="M91.3123 2.01604C91.3123 -0.168954 87.8928 -0.000150346 87.8928 -0.000150346L81.5098 0.524997C82.2651 1.16504 82.8317 1.93931 83.1656 2.78805C83.4996 3.63679 83.5922 4.53732 83.4361 5.42014L85.4422 5.21383C92.5432 4.87623 91.3123 2.01604 91.3123 2.01604Z" fill="#004BA5"/>
<path d="M45.2865 8.06482C46.9278 6.49875 46.5175 4.59507 45.4233 2.69141C40.6589 3.3666 35.8944 3.47913 31.13 3.81672C28.2691 4.03241 26.3656 4.93268 27.5852 7.62407C28.5426 9.86533 30.4462 9.49959 32.8968 9.64026L45.2865 8.06482Z" fill="#00AAA5"/>
<path d="M45.2862 8.06477C46.0508 7.3696 46.526 6.49195 46.6428 5.55934C46.7596 4.62674 46.512 3.68778 45.9358 2.87891C41.1714 3.5541 35.8941 3.47908 31.1183 3.81667C28.2573 4.03236 26.3539 4.93263 27.5735 7.62402C28.5309 9.86528 30.4344 9.49954 32.885 9.64021L45.2862 8.06477Z" fill="#004BA5"/>
<path d="M2.57691 116.114C2.57691 124.207 -3.90855 129.843 -11.7277 130.771C-29.0756 132.844 -31.7314 126.336 -31.7314 118.234C-31.7314 110.131 -26.6934 99.8158 -13.5742 99.8158C-2.71174 99.8158 2.57691 108.021 2.57691 116.114Z" fill="#00AAA5"/>
<path d="M-8.94629 119.106C-7.44174 119.218 -5.9372 120.981 -4.97976 121.919C-2.79132 124.423 -2.70011 126.383 1.17526 127.367C8.1787 129.207 15.2976 130.735 22.5011 131.944C26.0573 132.6 39.3248 135.32 41.65 135.104C43.5649 134.991 43.4282 133.801 44.7959 132.928C46.1637 132.056 47.5315 132.703 49.036 132.272C52.8658 130.959 48.8992 129.327 46.4372 128.783L-8.94629 119.106Z" fill="#004BA5"/>
<path d="M-31.1953 100.36L-13.0494 97.312C-13.0494 97.312 -6.68922 95.1364 -2.58589 102.657C-2.58589 102.657 0.594088 108.753 6.42993 109.85L59.8075 120.419L48.8197 131.428L-6.95146 120.306C-6.95146 120.306 -13.7105 119.218 -16.8906 112.026C-16.8906 112.026 -22.1908 97.8559 -31.1953 100.36Z" fill="white"/>
<path d="M-31.0014 100.491L-22.0653 98.9906L-15.8988 97.9497C-14.8958 97.7809 -13.8585 97.6496 -12.8669 97.4433C-12.0985 97.2372 -11.2926 97.1421 -10.4847 97.162C-9.35884 97.2753 -8.27524 97.5849 -7.30626 98.07C-6.33729 98.5551 -5.50514 99.2047 -4.86538 99.9753C-3.83662 101.299 -2.90789 102.674 -2.0843 104.092C-0.91115 105.831 0.687901 107.351 2.61172 108.556C4.41143 109.507 6.42833 110.145 8.5387 110.431L17.2014 112.148L42.7218 117.202L53.664 119.368L57.3228 120.09C57.9838 120.222 58.6563 120.409 59.3288 120.494L59.6024 120.54L59.42 120.381L49.8 130.012L48.4209 131.39L49.0363 131.334L36.9315 128.924L12.7561 124.104L-5.25301 120.522C-6.19964 120.368 -7.12961 120.151 -8.03409 119.875C-10.0453 119.117 -11.8405 118.02 -13.3034 116.655C-14.7662 115.29 -15.8641 113.687 -16.5258 111.951C-17.4211 109.695 -18.6176 107.528 -20.0934 105.489C-21.9969 102.92 -24.8236 100.107 -28.7788 99.9565C-29.6954 99.9254 -30.6111 100.033 -31.4801 100.275C-31.8791 100.379 -31.1154 100.547 -30.9102 100.491C-26.7841 99.3751 -23.4557 102.282 -21.3927 104.87C-19.7033 107.026 -18.3588 109.352 -17.3921 111.791C-16.1445 115.098 -13.4141 117.891 -9.75522 119.603C-8.91391 119.977 -8.01752 120.261 -7.0881 120.447C-7.29326 120.447 -7.08813 120.447 -6.97414 120.447L-6.37001 120.569L9.97487 123.823L34.1048 128.633L48.3867 131.447H48.6032C48.7627 131.447 49.0819 131.522 49.2073 131.4L58.8274 121.769L60.2065 120.39C60.2863 120.306 60.0925 120.24 60.0241 120.231L45.936 117.418L19.9939 112.429L10.3169 110.46C8.83512 110.159 7.28491 109.944 5.83735 109.522C3.23888 108.636 1.05103 107.092 -0.408808 105.114C-1.24652 104.016 -2.00762 102.879 -2.68843 101.71C-3.8006 99.7121 -5.77456 98.1248 -8.22791 97.2558C-9.62776 96.8277 -11.1493 96.7462 -12.6048 97.0213C-12.775 97.0489 -12.9427 97.0865 -13.1063 97.1339C-13.1633 97.1339 -13.4027 97.2089 -13.2203 97.1339C-13.5053 97.1901 -13.8016 97.2276 -14.0866 97.2745L-19.1473 98.1279L-30.6139 100.06L-31.366 100.182C-31.8562 100.322 -31.2521 100.529 -31.0014 100.491Z" fill="#003F7F"/>
<path d="M96.7367 137.964C97.3408 145.607 93.8531 151.918 82.9906 153.662C68.5036 155.988 65.05 145.935 64.4459 138.292C63.8418 130.65 69.0849 124.667 82.8653 124.123C89.9093 123.841 96.1326 130.321 96.7367 137.964Z" fill="#00AAA5"/>
<path d="M88.7931 139.924C89.3972 147.576 84.1654 153.765 77.0986 153.765C70.0318 153.765 63.8313 147.576 63.2272 139.924C62.6231 132.272 67.8548 126.083 74.9102 126.083C81.9657 126.083 88.189 132.281 88.7931 139.924Z" fill="#00AAA5"/>
<path d="M82.6495 139.924C82.9687 143.9 80.2446 147.126 76.5744 147.126C72.9042 147.126 69.6785 143.9 69.3594 139.924C69.0402 135.948 71.7644 132.731 75.4346 132.731C79.1048 132.731 82.3418 135.957 82.6495 139.924Z" fill="#EBF4FF"/>
<path d="M82.2498 139.858C82.4094 142.25 81.5318 145.044 78.8988 146.376C76.0607 147.811 73.0173 146.376 71.4216 144.257C70.5568 143.122 70.0064 141.845 69.8094 140.516C69.6124 139.187 69.7737 137.839 70.2818 136.567C71.1822 134.438 73.6101 132.394 76.585 132.975C80.1526 133.688 81.9877 137.13 82.284 139.858C82.284 140.084 83.1046 140.14 83.0818 139.99C82.8311 137.223 81.1669 134.251 77.9413 133.06C76.6115 132.552 75.0999 132.468 73.6994 132.825C72.2989 133.182 71.1095 133.954 70.3616 134.991C69.4428 136.332 68.96 137.846 68.96 139.385C68.96 140.924 69.4428 142.437 70.3616 143.778C71.8206 145.945 74.67 147.679 77.8045 147.192C81.7483 146.582 83.2984 142.906 83.0933 139.99C83.0363 139.774 82.2384 139.708 82.2498 139.858Z" fill="#003F7F"/>
<path d="M59.4199 129.027C60.3432 130.115 60.7421 131.756 61.6995 132.956C63.5574 135.245 65.5408 137.533 67.6609 139.708C69.7809 141.884 71.3766 143.309 74.9442 143.197C78.7853 143.084 76.9389 140.384 76.5399 137.964C76.141 135.151 74.8188 130.012 76.2778 127.283C78.1243 123.907 87.4024 124.779 87.4024 124.779C87.4024 120.531 86.6045 113.442 82.3644 110.497C76.2778 106.465 67.9229 108.865 63.8196 113.657C62.886 114.446 62.2046 115.412 61.8363 116.471H62.3607L59.4199 129.027Z" fill="white"/>
<path d="M59.0212 129.055C59.643 129.952 60.1619 130.893 60.5714 131.869C61.1632 132.894 61.8853 133.866 62.7256 134.766C64.334 136.756 66.0927 138.66 67.9915 140.468C69.1534 141.717 70.7404 142.654 72.5508 143.159C73.8958 143.45 76.4034 143.703 77.395 142.634C78.3866 141.565 77.3951 139.933 77.1557 138.883C76.734 137.27 76.5288 135.573 76.2894 133.932C75.9246 132.097 75.9246 130.225 76.2894 128.39C76.4431 127.749 76.7973 127.152 77.3171 126.659C77.8368 126.166 78.5041 125.792 79.2529 125.576C81.8373 124.847 84.596 124.634 87.3001 124.957C87.3912 124.957 87.8243 124.957 87.8243 124.845C87.8443 122.498 87.5885 120.155 87.0606 117.849C86.6368 115.514 85.5255 113.299 83.8236 111.397C80.0166 107.646 73.0409 107.712 68.2423 110.028C66.8072 110.73 65.5149 111.613 64.4125 112.644C63.0569 113.731 62.0369 115.069 61.4376 116.546C61.4376 116.658 61.7795 116.686 61.8365 116.686H62.3723L61.962 116.546L59.329 127.433L58.9756 128.98C58.9756 129.149 59.7394 129.205 59.7964 128.98L62.3495 117.99L62.7028 116.452C62.7028 116.33 62.3609 116.302 62.3039 116.302H61.7682L62.1785 116.452C62.68 115.206 63.5134 114.069 64.6177 113.123C65.51 112.199 66.5533 111.382 67.718 110.694C70.0204 109.278 72.8224 108.521 75.6967 108.537C77.1314 108.571 78.5405 108.858 79.8285 109.379C81.1166 109.9 82.2536 110.643 83.1625 111.557C84.7063 113.369 85.7276 115.447 86.1488 117.633C86.6956 119.966 86.9589 122.338 86.9352 124.714L87.4596 124.592C85.3276 124.393 83.1725 124.434 81.0539 124.714C79.5894 124.859 78.1914 125.3 76.9847 125.998C76.4094 126.444 75.9533 126.984 75.6452 127.583C75.3371 128.182 75.1839 128.827 75.1952 129.477C75.0849 131.328 75.2147 133.182 75.5827 135.01C75.8449 136.567 76.0728 138.114 76.5059 139.652C76.8251 140.768 77.4292 142.587 75.5371 142.934C74.4379 143.074 73.3135 142.974 72.2757 142.645C71.2379 142.316 70.3228 141.769 69.6215 141.059C67.5759 139.248 65.7119 137.303 64.0478 135.245C63.0688 134.218 62.2065 133.119 61.4718 131.962C61.0149 130.909 60.4506 129.89 59.7849 128.915C59.671 128.84 58.8958 128.905 59.0212 129.055Z" fill="#003F7F"/>
<path d="M48.4205 130.443C46.6994 134.194 51.3384 134.916 54.7807 135.132C58.6218 135.348 58.884 133.932 60.0808 131.212C61.0207 128.466 62.1627 125.77 63.5003 123.138C67.6036 116.386 73.3026 111.153 82.9682 111.153C80.9849 106.793 84.3018 100.041 79.4006 96.6555C74.7274 93.4015 70.51 97.0494 67.8086 100.116C64.4057 103.954 61.2847 107.956 58.4622 112.101C56.4448 115.092 54.8604 117.915 52.9228 120.944C50.9851 123.973 49.9023 127.255 48.4205 130.443Z" fill="white"/>
<path d="M48.0216 130.378C47.6999 130.911 47.5823 131.512 47.684 132.101C47.7858 132.69 48.1021 133.24 48.5915 133.679C49.6638 134.399 50.9581 134.86 52.3301 135.01C53.8509 135.319 55.4292 135.386 56.9805 135.207C57.5535 135.103 58.086 134.883 58.5298 134.567C58.9735 134.251 59.3147 133.849 59.5224 133.397C60.3079 131.816 60.974 130.197 61.5171 128.549C62.242 126.507 63.1722 124.518 64.2981 122.604C65.9856 119.745 68.3047 117.169 71.137 115.008C74.464 112.604 78.7459 111.286 83.1735 111.303C83.2419 111.303 83.4356 111.303 83.39 111.182C81.988 108.003 83.0594 104.477 82.5123 101.194C82.3321 99.6319 81.5309 98.1619 80.2327 97.0119C79.5417 96.3988 78.6897 95.9238 77.7414 95.6231C76.7932 95.3225 75.774 95.2041 74.7617 95.277C72.6511 95.6418 70.7608 96.6001 69.4159 97.9872C67.6953 99.6225 66.122 101.359 64.7084 103.182C61.4154 107.151 58.4345 111.289 55.7838 115.57C54.302 117.98 52.6721 120.362 51.3727 122.838C50.0733 125.314 49.0931 127.874 47.9532 130.34C47.8735 130.5 48.6599 130.668 48.7511 130.471C49.7199 128.371 50.5407 126.223 51.5437 124.141C52.5467 122.06 53.8233 120.09 55.0657 118.093C57.5104 113.998 60.2194 110.013 63.1811 106.155C64.6629 104.28 66.2244 102.404 67.8315 100.529C69.0701 98.9918 70.6109 97.6354 72.3908 96.5149C73.2741 95.9696 74.3154 95.6237 75.4113 95.5115C76.0911 95.4921 76.7686 95.586 77.4032 95.7874C78.0378 95.9889 78.6164 96.2937 79.1043 96.6837C80.4763 97.7214 81.3635 99.1215 81.612 100.641C82.3528 104.073 81.099 107.749 82.5808 111.088L82.7973 110.966C79.2412 110.943 75.7506 111.753 72.7328 113.301C69.8244 114.913 67.3715 117.02 65.5405 119.481C64.5044 120.773 63.5937 122.131 62.8165 123.541C61.8648 125.433 61.0353 127.364 60.3316 129.327C59.8794 130.77 59.2691 132.176 58.5079 133.529C58.1779 134.022 57.6755 134.422 57.0659 134.678C56.4563 134.934 55.7675 135.033 55.0885 134.963C53.3428 134.982 51.6165 134.66 50.0505 134.026C48.3977 133.228 48.2268 131.841 48.8423 130.453C48.8879 130.349 48.1013 130.181 48.0216 130.378Z" fill="#003F7F"/>
<path d="M69.4841 6.68631L83.6291 5.25153C83.778 4.39205 83.6859 3.51595 83.3599 2.69025C83.0339 1.86456 82.4828 1.11116 81.7485 0.487671L42.425 3.0759C41.8599 3.89102 41.5091 4.79464 41.3952 5.72832C41.2814 6.662 41.4069 7.60495 41.7638 8.49619L55.0427 7.06141C61.8815 6.5175 61.5395 12.4067 61.5395 12.4067L73.4621 98.6812L77.6338 97.5371C77.6338 97.5371 67.2956 18.0802 66.1102 12.2004C64.9248 6.32057 69.4841 6.68631 69.4841 6.68631Z" fill="white"/>
<path d="M69.7348 6.83634L82.1017 5.57974L83.8799 5.39219C83.8799 5.39219 84.0167 5.39218 84.0281 5.32654C84.2278 3.97666 83.8748 2.61053 83.025 1.44419C82.6489 0.956547 82.2158 0.32825 81.4521 0.337628C80.6884 0.347006 80.1754 0.422027 79.5485 0.468915L69.5752 1.12535L45.2858 2.71018C44.317 2.76644 43.3481 2.81333 42.3792 2.89773C41.7523 2.95399 41.6156 3.61981 41.4218 4.06056C40.806 5.47639 40.806 7.0241 41.4218 8.43993C41.5016 8.59935 41.8891 8.64623 42.0715 8.62748C46.437 8.1586 50.8139 7.64283 55.1907 7.21146C56.5468 7.01485 57.9425 7.26402 59.0775 7.9054C60.0248 8.5656 60.6784 9.46622 60.9354 10.4655C61.0884 11.1309 61.1799 11.8049 61.209 12.4817C61.3686 14.0103 61.6192 15.5294 61.8358 17.0486L63.1808 26.8014L65.0159 40.0989L67.1017 55.1594L69.1763 70.1637L71.0342 83.5831L72.4019 93.5516C72.6299 95.1739 72.8123 96.8056 73.0745 98.4186V98.6343C73.0745 98.8125 73.6443 98.85 73.7924 98.8125L77.9642 97.659C77.9759 97.6581 77.9873 97.6549 77.9974 97.6499C78.0075 97.645 78.0161 97.6382 78.0226 97.6301C78.0292 97.622 78.0334 97.6129 78.0351 97.6033C78.0369 97.5937 78.0361 97.5839 78.0326 97.5746C77.9301 96.7494 77.816 95.9148 77.7135 95.0895C77.4171 92.8577 77.1321 90.6164 76.8358 88.3845C76.4027 85.0929 75.9809 81.8201 75.5478 78.5192L73.9748 66.5908C73.4049 62.2583 72.8312 57.929 72.2537 53.6027L70.544 40.7647C70.0197 36.8761 69.4915 32.9875 68.9596 29.0989C68.5265 25.9668 68.0935 22.8253 67.649 19.7213C67.364 17.6957 67.079 15.6701 66.7485 13.6445C66.4065 11.4689 65.3579 7.77412 68.7089 6.92075C68.9306 6.86079 69.1601 6.823 69.3928 6.80821H69.5638C70.1223 6.80821 69.7803 6.52689 69.427 6.50813C68.8699 6.46838 68.3094 6.54163 67.7948 6.72147C67.2801 6.90131 66.827 7.18224 66.4749 7.53967C65.1299 8.93694 65.4947 10.9156 65.7911 12.5473C66.0874 14.1791 66.3381 16.0264 66.5889 17.7613C67.0334 20.8278 67.4551 23.8943 67.8883 26.9608C68.4354 30.9494 68.9749 34.9412 69.5069 38.9361C70.1148 43.3999 70.715 47.8668 71.3077 52.3368L73.12 66C73.6671 70.195 74.2181 74.3837 74.7728 78.5661C75.2211 81.9983 75.6694 85.4368 76.1177 88.8815C76.414 91.1134 76.699 93.3359 76.9954 95.5678L77.2006 97.1901C77.2117 97.2931 77.2117 97.3966 77.2006 97.4996C76.7324 97.592 76.2747 97.7176 75.8327 97.8747L73.1542 98.6155L73.8723 98.7937L73.4049 95.3521L72.1398 86.2464L70.3617 73.3146L68.2758 58.2447L66.1671 42.8559L64.2522 29.0239L62.7477 18.4084L61.984 12.8568C61.984 12.4348 61.9841 12.2566 61.9157 11.7971C61.9109 10.8607 61.5882 9.9439 60.984 9.15024C60.3798 8.35657 59.5182 7.71755 58.4962 7.30522C56.3876 6.57377 54.1193 6.98639 51.9423 7.22083L43.2912 8.1586L41.5016 8.34615L42.1513 8.54308C41.6312 7.33508 41.5834 6.0235 42.0146 4.79202C42.1063 4.47209 42.2282 4.15855 42.3792 3.85425C42.4515 3.66529 42.5551 3.48542 42.687 3.31972C44.2372 2.0256 42.5844 3.25408 42.687 3.20719C42.7896 3.1603 42.7896 3.20719 42.8124 3.20719C43.0439 3.16333 43.282 3.14753 43.5191 3.1603L44.6589 3.0759L53.5267 2.49449L76.4597 0.984689L81.9764 0.618961L81.3608 0.468915C82.1492 1.13784 82.718 1.96073 83.0136 2.86022C83.2 3.4221 83.2844 4.00353 83.2643 4.58571C83.2643 4.58571 83.2643 5.22339 83.3555 5.12961C83.4467 5.03584 83.2872 5.12961 83.2758 5.12961C83.2644 5.12961 82.5348 5.19525 82.3638 5.21401L80.6884 5.39219L71.5698 6.32995L69.1763 6.57377C68.8115 6.57377 69.5866 6.8551 69.7348 6.83634Z" fill="#003F7F"/>
</g>
<defs>
<clipPath id="clip0_859_5373">
<rect width="199" height="154" fill="white" transform="translate(-68)"/>
</clipPath>
</defs>
</svg>
