<svg width="24" height="15" viewBox="0 0 24 15" fill="none" xmlns="http://www.w3.org/2000/svg">
<path d="M12.31 1.09998V4.17996" stroke="#1D1D1B" stroke-linecap="round" stroke-linejoin="round"/>
<path d="M17.58 1.38L15.52 3.89999" stroke="#1D1D1B" stroke-linecap="round" stroke-linejoin="round"/>
<path d="M7.5 1.38L9.56 3.89999" stroke="#1D1D1B" stroke-linecap="round" stroke-linejoin="round"/>
<path d="M12.7 13.84V10.77" stroke="#1D1D1B" stroke-linecap="round" stroke-linejoin="round"/>
<path d="M7.44 13.5701L9.49001 11.04" stroke="#1D1D1B" stroke-linecap="round" stroke-linejoin="round"/>
<path d="M17.51 13.5701L15.46 11.04" stroke="#1D1D1B" stroke-linecap="round" stroke-linejoin="round"/>
<path d="M10.09 7.49006C10.091 7.08263 10.1797 6.68019 10.35 6.31006H2.58001C2.26705 6.31006 1.96691 6.43438 1.74562 6.65567C1.52433 6.87696 1.40001 7.1771 1.40001 7.49006C1.40265 7.80128 1.52813 8.09885 1.74914 8.31799C1.97015 8.53712 2.26878 8.66007 2.58001 8.66006H10.35C10.1805 8.29319 10.0918 7.89418 10.09 7.49006Z" stroke="#1D1D1B" stroke-linecap="round" stroke-linejoin="round"/>
<path d="M22.17 6.31006H13.88C14.0503 6.68019 14.139 7.08263 14.14 7.49006C14.1382 7.89418 14.0495 8.29319 13.88 8.66006H22.17C22.3237 8.66006 22.4758 8.6298 22.6177 8.571C22.7597 8.5122 22.8887 8.42602 22.9973 8.31737C23.106 8.20873 23.1921 8.07975 23.2509 7.9378C23.3097 7.79585 23.34 7.6437 23.34 7.49006C23.3413 7.33557 23.312 7.18235 23.2538 7.03925C23.1956 6.89614 23.1097 6.76598 23.0009 6.65627C22.8921 6.54656 22.7627 6.45949 22.6201 6.40007C22.4775 6.34064 22.3245 6.31005 22.17 6.31006Z" stroke="#1D1D1B" stroke-linecap="round" stroke-linejoin="round"/>
</svg>
