<svg width="21" height="21" viewBox="0 0 21 21" fill="none" xmlns="http://www.w3.org/2000/svg">
<path d="M3.79999 11.31C3.79999 10.4761 3.1262 9.80005 2.29501 9.80005C1.46382 9.80005 0.790009 10.4761 0.790009 11.31V14.12C0.790009 14.954 1.46382 15.6301 2.29501 15.6301C3.1262 15.6301 3.79999 14.954 3.79999 14.12V11.31Z" stroke="#121212" stroke-linecap="round" stroke-linejoin="round"/>
<path d="M20.28 11.31C20.28 10.4761 19.6062 9.80005 18.775 9.80005C17.9438 9.80005 17.27 10.4761 17.27 11.31V14.12C17.27 14.954 17.9438 15.6301 18.775 15.6301C19.6062 15.6301 20.28 14.954 20.28 14.12V11.31Z" stroke="#121212" stroke-linecap="round" stroke-linejoin="round"/>
<path d="M2.26999 9.73993C2.27789 7.53842 3.15594 5.42933 4.71266 3.87261C6.26938 2.31589 8.37847 1.43784 10.58 1.42993C12.7815 1.43784 14.8906 2.31589 16.4473 3.87261C18.004 5.42933 18.8821 7.53842 18.89 9.73993" stroke="#121212" stroke-linecap="round" stroke-linejoin="round"/>
<path d="M18.92 15.73V17.12C18.92 17.7538 18.6682 18.3618 18.22 18.81C17.7718 19.2582 17.1639 19.51 16.53 19.51H14.69" stroke="#121212" stroke-linecap="round" stroke-linejoin="round"/>
</svg>
