<svg width="24" height="24" viewBox="0 0 24 24" fill="none" xmlns="http://www.w3.org/2000/svg">
<rect width="24" height="24" rx="12" fill="#004FFE"/>
<path d="M5.33301 9.58486C5.33301 9.35131 5.33301 9.23454 5.34275 9.13618C5.43674 8.18755 6.18719 7.43711 7.13582 7.34312C7.23417 7.33337 7.35725 7.33337 7.6034 7.33337C7.69824 7.33337 7.74567 7.33337 7.78593 7.33094C8.30008 7.2998 8.75031 6.97529 8.94244 6.49737C8.95748 6.45995 8.97155 6.41776 8.99967 6.33337C9.0278 6.24899 9.04187 6.2068 9.05691 6.16937C9.24904 5.69146 9.69927 5.36695 10.2134 5.33581C10.2537 5.33337 10.2982 5.33337 10.3871 5.33337H13.6122C13.7012 5.33337 13.7457 5.33337 13.7859 5.33581C14.3001 5.36695 14.7503 5.69146 14.9424 6.16937C14.9575 6.2068 14.9715 6.24899 14.9997 6.33337C15.0278 6.41776 15.0419 6.45995 15.0569 6.49737C15.249 6.97529 15.6993 7.2998 16.2134 7.33094C16.2537 7.33337 16.3011 7.33337 16.396 7.33337C16.6421 7.33337 16.7652 7.33337 16.8635 7.34312C17.8122 7.43711 18.5626 8.18755 18.6566 9.13618C18.6663 9.23454 18.6663 9.35131 18.6663 9.58486V14.8C18.6663 15.9201 18.6663 16.4802 18.4484 16.908C18.2566 17.2843 17.9506 17.5903 17.5743 17.7821C17.1465 18 16.5864 18 15.4663 18H8.53301C7.4129 18 6.85285 18 6.42503 17.7821C6.0487 17.5903 5.74274 17.2843 5.55099 16.908C5.33301 16.4802 5.33301 15.9201 5.33301 14.8V9.58486Z" stroke="white" stroke-linecap="round" stroke-linejoin="round"/>
<path d="M11.9997 15C13.4724 15 14.6663 13.8061 14.6663 12.3334C14.6663 10.8606 13.4724 9.66671 11.9997 9.66671C10.5269 9.66671 9.33301 10.8606 9.33301 12.3334C9.33301 13.8061 10.5269 15 11.9997 15Z" stroke="white" stroke-linecap="round" stroke-linejoin="round"/>
</svg>
