<svg width="24" height="24" viewBox="0 0 24 24" fill="none" xmlns="http://www.w3.org/2000/svg">
<rect width="24" height="24" rx="12" fill="#004FFE"/>
<path d="M5.33301 9.58473C5.33301 9.35119 5.33301 9.23442 5.34275 9.13606C5.43674 8.18743 6.18719 7.43699 7.13582 7.343C7.23417 7.33325 7.35725 7.33325 7.6034 7.33325C7.69824 7.33325 7.74567 7.33325 7.78593 7.33081C8.30008 7.29968 8.75031 6.97517 8.94244 6.49725C8.95748 6.45982 8.97155 6.41763 8.99967 6.33325C9.0278 6.24887 9.04187 6.20668 9.05691 6.16925C9.24904 5.69133 9.69927 5.36683 10.2134 5.33569C10.2537 5.33325 10.2982 5.33325 10.3871 5.33325H13.6122C13.7012 5.33325 13.7457 5.33325 13.7859 5.33569C14.3001 5.36683 14.7503 5.69133 14.9424 6.16925C14.9575 6.20668 14.9715 6.24887 14.9997 6.33325C15.0278 6.41763 15.0419 6.45982 15.0569 6.49725C15.249 6.97517 15.6993 7.29968 16.2134 7.33081C16.2537 7.33325 16.3011 7.33325 16.396 7.33325C16.6421 7.33325 16.7652 7.33325 16.8635 7.343C17.8122 7.43699 18.5626 8.18743 18.6566 9.13606C18.6663 9.23442 18.6663 9.35119 18.6663 9.58473V14.7999C18.6663 15.92 18.6663 16.4801 18.4484 16.9079C18.2566 17.2842 17.9506 17.5902 17.5743 17.7819C17.1465 17.9999 16.5864 17.9999 15.4663 17.9999H8.53301C7.4129 17.9999 6.85285 17.9999 6.42503 17.7819C6.0487 17.5902 5.74274 17.2842 5.55099 16.9079C5.33301 16.4801 5.33301 15.92 5.33301 14.7999V9.58473Z" stroke="white" stroke-linecap="round" stroke-linejoin="round"/>
<path d="M11.9997 14.9999C13.4724 14.9999 14.6663 13.806 14.6663 12.3333C14.6663 10.8605 13.4724 9.66659 11.9997 9.66659C10.5269 9.66659 9.33301 10.8605 9.33301 12.3333C9.33301 13.806 10.5269 14.9999 11.9997 14.9999Z" stroke="white" stroke-linecap="round" stroke-linejoin="round"/>
</svg>
