<svg width="24" height="20" viewBox="0 0 24 20" fill="none" xmlns="http://www.w3.org/2000/svg">
<path d="M17.407 2.66831L16.5548 1.28806C16.501 1.19959 16.4251 1.12657 16.3347 1.0761C16.2443 1.02562 16.1423 0.999407 16.0387 1.00001H7.96127C7.8577 0.999407 7.75574 1.02562 7.66531 1.0761C7.57487 1.12657 7.49903 1.19959 7.44517 1.28806L6.59302 2.66831C6.5411 2.75584 6.46736 2.82839 6.379 2.87888C6.29065 2.92937 6.1907 2.95607 6.08893 2.95636H3.40045C3.08522 2.95636 2.77306 3.01845 2.48183 3.13908C2.1906 3.25971 1.92597 3.43653 1.70307 3.65943C1.48017 3.88233 1.30337 4.14696 1.18274 4.43819C1.0621 4.72943 1 5.04157 1 5.3568V17.0949C1 17.7316 1.2529 18.3421 1.70307 18.7923C2.15324 19.2425 2.76381 19.4954 3.40045 19.4954H20.5996C21.2362 19.4954 21.8468 19.2425 22.2969 18.7923C22.7471 18.3421 23 17.7316 23 17.0949V5.3568C23 4.72016 22.7471 4.1096 22.2969 3.65943C21.8468 3.20926 21.2362 2.95636 20.5996 2.95636H17.9111C17.8093 2.95607 17.7094 2.92937 17.621 2.87888C17.5327 2.82839 17.4589 2.75584 17.407 2.66831Z" stroke="#121212" stroke-linecap="round" stroke-linejoin="round"/>
<path d="M12.0061 16.3389C14.8896 16.3389 17.2271 14.0014 17.2271 11.1179C17.2271 8.23447 14.8896 5.89697 12.0061 5.89697C9.12266 5.89697 6.78516 8.23447 6.78516 11.1179C6.78516 14.0014 9.12266 16.3389 12.0061 16.3389Z" stroke="#121212" stroke-linecap="round" stroke-linejoin="round"/>
</svg>
