<svg width="16" height="16" viewBox="0 0 16 16" fill="none" xmlns="http://www.w3.org/2000/svg">
<path d="M14 10V12.6667C14 13.403 13.403 14 12.6667 14H12" stroke="#004FFE" stroke-linecap="round" stroke-linejoin="round"/>
<path d="M2 6V3.33333C2 2.59695 2.59695 2 3.33333 2H4" stroke="#004FFE" stroke-linecap="round" stroke-linejoin="round"/>
<path fill-rule="evenodd" clip-rule="evenodd" d="M2 9.33333V12.6667C2 13.403 2.59695 14 3.33333 14H8.66667C9.40305 14 10 13.403 10 12.6667V9.33333C10 8.59695 9.40305 8 8.66667 8H3.33333C2.59695 8 2 8.59695 2 9.33333Z" stroke="#004FFE" stroke-linecap="round" stroke-linejoin="round"/>
<ellipse cx="9.99967" cy="4.99992" rx="1.16667" ry="1.16667" stroke="#004FFE" stroke-linecap="round" stroke-linejoin="round"/>
<path d="M12 8H12.6667C13.403 8 14 7.40305 14 6.66667V3.33333C14 2.59695 13.403 2 12.6667 2H7.33333C6.59695 2 6 2.59695 6 3.33333V6" stroke="#004FFE" stroke-linecap="round" stroke-linejoin="round"/>
<path d="M2 10.6666H10" stroke="#004FFE" stroke-linecap="round" stroke-linejoin="round"/>
</svg>
