<svg width="28" height="28" viewBox="0 0 28 28" fill="none" xmlns="http://www.w3.org/2000/svg">
<rect width="28" height="28" rx="4" fill="#004FFE" fill-opacity="0.06"/>
<path d="M5.6665 10.981C5.6665 10.689 5.6665 10.5431 5.67869 10.4201C5.79617 9.23435 6.73423 8.29629 7.92001 8.17881C8.04296 8.16663 8.1968 8.16663 8.50449 8.16663C8.62305 8.16663 8.68233 8.16663 8.73266 8.16358C9.37535 8.12465 9.93813 7.71902 10.1783 7.12162C10.1971 7.07484 10.2147 7.0221 10.2498 6.91663C10.285 6.81115 10.3026 6.75841 10.3214 6.71163C10.5615 6.11423 11.1243 5.7086 11.767 5.66967C11.8173 5.66663 11.8729 5.66663 11.9841 5.66663H16.0156C16.1267 5.66663 16.1823 5.66663 16.2327 5.66967C16.8753 5.7086 17.4381 6.11423 17.6783 6.71163C17.6971 6.75841 17.7147 6.81115 17.7498 6.91663C17.785 7.0221 17.8026 7.07484 17.8214 7.12162C18.0615 7.71902 18.6243 8.12465 19.267 8.16358C19.3173 8.16663 19.3766 8.16663 19.4952 8.16663C19.8029 8.16663 19.9567 8.16663 20.0797 8.17881C21.2654 8.29629 22.2035 9.23435 22.321 10.4201C22.3332 10.5431 22.3332 10.689 22.3332 10.981V17.5C22.3332 18.9001 22.3332 19.6002 22.0607 20.1349C21.821 20.6053 21.4386 20.9878 20.9681 21.2275C20.4334 21.5 19.7333 21.5 18.3332 21.5H9.6665C8.26637 21.5 7.56631 21.5 7.03153 21.2275C6.56112 20.9878 6.17867 20.6053 5.93899 20.1349C5.6665 19.6002 5.6665 18.9001 5.6665 17.5V10.981Z" stroke="#004FFE" stroke-width="1.5" stroke-linecap="round" stroke-linejoin="round"/>
<path d="M13.9998 17.75C15.8408 17.75 17.3332 16.2576 17.3332 14.4166C17.3332 12.5757 15.8408 11.0833 13.9998 11.0833C12.1589 11.0833 10.6665 12.5757 10.6665 14.4166C10.6665 16.2576 12.1589 17.75 13.9998 17.75Z" stroke="#004FFE" stroke-width="1.5" stroke-linecap="round" stroke-linejoin="round"/>
</svg>
