<svg width="14" height="22" viewBox="0 0 14 22" fill="none" xmlns="http://www.w3.org/2000/svg">
<path fill-rule="evenodd" clip-rule="evenodd" d="M0.68934 0.93934C0.68934 0.93934 1.12868 0.5 1.75 0.5H12.25C12.25 0.5 12.8713 0.5 13.3107 0.93934C13.3107 0.93934 13.75 1.37868 13.75 2L13.75 6.24996C13.75 6.24996 13.748 6.74619 13.4505 7.14618L11.5 9.75312V20C11.5 20 11.5 20.6213 11.0607 21.0607C11.0607 21.0607 10.6213 21.5 10 21.5H4C4 21.5 3.37868 21.5 2.93934 21.0607C2.93934 21.0607 2.5 20.6213 2.5 20L2.50001 9.75621L2.49948 9.75243L0.548154 7.1444C0.548154 7.1444 0.252047 6.74619 0.25 6.24688V2C0.25 2 0.25 1.37868 0.68934 0.93934ZM1.75 2V6.24688L3.70052 8.85382C3.70052 8.85382 3.99795 9.25381 3.99999 9.75004L4 20H10V9.75312C10 9.75312 10.002 9.25381 10.2982 8.8556L12.2495 6.24757C12.2495 6.24757 12.25 6.24687 12.25 6.24379L12.25 2H1.75Z" fill="#004BA5"/>
<path d="M6.25 10.25V13.25C6.25 13.6642 6.58579 14 7 14C7.41421 14 7.75 13.6642 7.75 13.25V10.25C7.75 9.83579 7.41421 9.5 7 9.5C6.58579 9.5 6.25 9.83579 6.25 10.25Z" fill="#004BA5"/>
<path d="M1 5.75H13C13.4142 5.75 13.75 5.41421 13.75 5C13.75 4.58579 13.4142 4.25 13 4.25H1C0.585786 4.25 0.25 4.58579 0.25 5C0.25 5.41421 0.585786 5.75 1 5.75Z" fill="#004BA5"/>
</svg>
