<svg width="28" height="28" viewBox="0 0 28 28" fill="none" xmlns="http://www.w3.org/2000/svg">
<rect width="28" height="28" rx="8" fill="#004FFE" fill-opacity="0.05"/>
<path d="M16.6663 14.9163C19.0209 15.3792 20.6663 16.4365 20.6663 17.6667C20.6663 19.3235 17.6816 20.6667 13.9997 20.6667C10.3178 20.6667 7.33301 19.3235 7.33301 17.6667C7.33301 16.4365 8.97847 15.3792 11.333 14.9163M13.9997 17.3333V12M13.9997 12C15.1042 12 15.9997 11.1046 15.9997 10C15.9997 8.89543 15.1042 8 13.9997 8C12.8951 8 11.9997 8.89543 11.9997 10C11.9997 11.1046 12.8951 12 13.9997 12Z" stroke="#004FFE" stroke-linecap="round" stroke-linejoin="round"/>
</svg>
