<svg width="20" height="20" viewBox="0 0 20 20" fill="none" xmlns="http://www.w3.org/2000/svg">
<path d="M8.25001 0.679943C6.4468 0.98804 4.78029 1.83833 3.47254 3.1175C2.16478 4.39667 1.27789 6.04398 0.930018 7.83995C0.564247 9.79999 0.859704 11.826 1.77001 13.5999L0.820017 17.0099C0.759303 17.2231 0.756825 17.4487 0.812861 17.6631C0.868897 17.8776 0.981399 18.0731 1.13864 18.2293C1.29587 18.3855 1.4921 18.4967 1.7069 18.5513C1.92171 18.606 2.14724 18.602 2.36001 18.5399L5.81002 17.5399C7.57324 18.4076 9.57487 18.6644 11.5 18.2699C13.2832 17.9013 14.9126 17.0005 16.1731 15.6865C17.4336 14.3724 18.2659 12.7069 18.56 10.91C18.7709 9.51094 18.6489 8.08191 18.204 6.73886C17.7592 5.3958 17.0039 4.17655 15.9996 3.18003C14.9953 2.18351 13.7702 1.4378 12.4237 1.00341C11.0773 0.56903 9.64734 0.45821 8.25001 0.679943Z" stroke="#121212" stroke-linecap="round" stroke-linejoin="round"/>
<path d="M11.16 9.54005C11.16 8.78895 10.5511 8.18005 9.8 8.18005C9.0489 8.18005 8.44 8.78895 8.44 9.54005V14.0401C8.44 14.7912 9.0489 15.4001 9.8 15.4001C10.5511 15.4001 11.16 14.7912 11.16 14.0401V9.54005Z" stroke="#121212" stroke-linecap="round" stroke-linejoin="round"/>
<path d="M9.81 6.95001C10.6219 6.95001 11.28 6.29187 11.28 5.48001C11.28 4.66815 10.6219 4.01001 9.81 4.01001C8.99814 4.01001 8.34 4.66815 8.34 5.48001C8.34 6.29187 8.99814 6.95001 9.81 6.95001Z" fill="white" stroke="#121212" stroke-linecap="round" stroke-linejoin="round"/>
</svg>
