<svg width="28" height="28" viewBox="0 0 28 28" fill="none" xmlns="http://www.w3.org/2000/svg">
<rect width="28" height="28" rx="8" fill="#004FFE" fill-opacity="0.05"/>
<path d="M20.0025 14C20.0025 17.3151 17.3151 20.0025 14 20.0025" stroke="#004FFE" stroke-linecap="round" stroke-linejoin="round"/>
<path d="M7.99805 13.9998C7.99805 10.6847 10.6855 7.99731 14.0005 7.99731" stroke="#004FFE" stroke-linecap="round" stroke-linejoin="round"/>
<path d="M7.99805 13.9999C7.99814 14.703 8.12319 15.4005 8.36737 16.0598C8.47905 16.366 8.79389 16.5484 9.11509 16.4929L9.77282 16.377C10.3044 16.2832 10.6658 15.7846 10.5895 15.2503L10.3915 13.8645C10.3532 13.5963 10.2077 13.355 9.98824 13.196C9.76883 13.037 9.49429 12.9738 9.22742 13.0208L8.0532 13.2279" stroke="#004FFE" stroke-linecap="round" stroke-linejoin="round"/>
<path d="M20.0025 13.9998C20.0025 10.6847 17.3151 7.99731 14 7.99731" stroke="#004FFE" stroke-linecap="round" stroke-linejoin="round"/>
<path d="M20.0029 13.9999C20.0029 14.703 19.8778 15.4005 19.6336 16.0598C19.5219 16.366 19.2071 16.5484 18.8859 16.4929L18.2282 16.377C17.6966 16.2832 17.3352 15.7846 17.4115 15.2503L17.6095 13.8645C17.6478 13.5963 17.7933 13.355 18.0128 13.196C18.2322 13.037 18.5067 12.9738 18.7736 13.0208L19.9478 13.2279" stroke="#004FFE" stroke-width="1.5" stroke-linecap="round" stroke-linejoin="round"/>
<path d="M14.9956 14.3273C14.9936 14.3273 14.9917 14.3285 14.991 14.3303C14.9902 14.3322 14.9906 14.3343 14.9921 14.3358C14.9935 14.3372 14.9956 14.3376 14.9975 14.3369C14.9993 14.3361 15.0006 14.3343 15.0006 14.3323C15.0006 14.3309 15.0001 14.3296 14.9992 14.3286C14.9982 14.3277 14.9969 14.3272 14.9956 14.3273" stroke="#004FFE" stroke-linecap="round" stroke-linejoin="round"/>
<path d="M13.0053 14.3295C13.0033 14.3295 13.0015 14.3307 13.0007 14.3325C13 14.3344 13.0004 14.3366 13.0018 14.338C13.0032 14.3394 13.0054 14.3398 13.0073 14.3391C13.0091 14.3383 13.0103 14.3365 13.0103 14.3344C13.0104 14.3331 13.0099 14.3318 13.009 14.3308C13.008 14.3299 13.0067 14.3294 13.0053 14.3295" stroke="#004FFE" stroke-linecap="round" stroke-linejoin="round"/>
</svg>
