<svg width="32" height="32" viewBox="0 0 32 32" fill="none" xmlns="http://www.w3.org/2000/svg">
<path d="M20 20.2546H12" stroke="#002148" stroke-width="2" stroke-linecap="round" stroke-linejoin="round"/>
<path d="M11.3879 19.8613C9.01992 18.188 7.59992 15.2667 8.09992 12.0507C8.64125 8.57468 11.5386 5.80001 15.0332 5.39068C19.8839 4.82134 23.9999 8.59734 23.9999 13.3333C23.9999 16.0333 22.6586 18.416 20.6092 19.864C20.2412 20.124 19.9999 20.5267 19.9999 20.9773V24.6667C19.9999 26.508 18.5079 28 16.6666 28H15.3332C13.4919 28 11.9999 26.508 11.9999 24.6667V20.9827C11.9999 20.528 11.7572 20.1227 11.3879 19.8613Z" stroke="#002148" stroke-width="2" stroke-linecap="round" stroke-linejoin="round"/>
<path d="M26.6665 6.66672L28.2572 5.07605" stroke="#002148" stroke-width="2" stroke-linecap="round" stroke-linejoin="round"/>
<path d="M5.33334 20L3.74268 21.5907" stroke="#002148" stroke-width="2" stroke-linecap="round" stroke-linejoin="round"/>
<path d="M6.66684 5.33334L5.07617 3.74268" stroke="#002148" stroke-width="2" stroke-linecap="round" stroke-linejoin="round"/>
<path d="M26.6665 20L28.2572 21.5907" stroke="#002148" stroke-width="2" stroke-linecap="round" stroke-linejoin="round"/>
<path d="M28 13.3334H30.2493" stroke="#002148" stroke-width="2" stroke-linecap="round" stroke-linejoin="round"/>
<path d="M1.75073 13.3334L4.00007 13.3347" stroke="#002148" stroke-width="2" stroke-linecap="round" stroke-linejoin="round"/>
<path d="M12 24H19.8307" stroke="#002148" stroke-width="2" stroke-linecap="round" stroke-linejoin="round"/>
</svg>
