<svg width="40" height="40" viewBox="0 0 40 40" fill="none" xmlns="http://www.w3.org/2000/svg">
<path fill-rule="evenodd" clip-rule="evenodd" d="M20 5C20 5 23.0509 5 25.8391 6.17929C25.8391 6.17929 28.5311 7.31794 30.6066 9.3934C30.6066 9.3934 32.6821 11.4689 33.8207 14.1609C33.8207 14.1609 35 16.9491 35 20C35 20 35 23.0509 33.8207 25.8391C33.8207 25.8391 32.6821 28.5312 30.6066 30.6066C30.6066 30.6066 28.5311 32.6821 25.8391 33.8207C25.8391 33.8207 23.0509 35 20 35C20 35 16.9491 35 14.1609 33.8207C14.1609 33.8207 11.4688 32.6821 9.3934 30.6066C9.3934 30.6066 7.31794 28.5311 6.17929 25.8391C6.17929 25.8391 5 23.0509 5 20C5 20 5 16.9491 6.17929 14.1609C6.17929 14.1609 7.31794 11.4689 9.3934 9.3934C9.3934 9.3934 11.4689 7.31794 14.1609 6.17929C14.1609 6.17929 16.9491 5 20 5ZM20 7.5C20 7.5 17.4561 7.5 15.1348 8.4818C15.1348 8.4818 12.8918 9.4305 11.1612 11.1612C11.1612 11.1612 9.43051 12.8918 8.4818 15.1348C8.4818 15.1348 7.5 17.456 7.5 20C7.5 20 7.5 22.5439 8.4818 24.8652C8.4818 24.8652 9.4305 27.1082 11.1612 28.8388C11.1612 28.8388 12.8918 30.5695 15.1348 31.5182C15.1348 31.5182 17.4561 32.5 20 32.5C20 32.5 22.5439 32.5 24.8652 31.5182C24.8652 31.5182 27.1082 30.5695 28.8388 28.8388C28.8388 28.8388 30.5695 27.1082 31.5182 24.8652C31.5182 24.8652 32.5 22.5439 32.5 20C32.5 20 32.5 17.4561 31.5182 15.1348C31.5182 15.1348 30.5695 12.8918 28.8388 11.1612C28.8388 11.1612 27.1082 9.4305 24.8652 8.4818C24.8652 8.4818 22.5439 7.5 20 7.5Z" fill="#1A1A1A"/>
<path d="M18.75 3.125V9.375C18.75 10.0654 19.3096 10.625 20 10.625C20.6904 10.625 21.25 10.0654 21.25 9.375V3.125C21.25 2.43464 20.6904 1.875 20 1.875C19.3096 1.875 18.75 2.43464 18.75 3.125Z" fill="#1A1A1A"/>
<path d="M3.125 21.25H9.375C10.0654 21.25 10.625 20.6904 10.625 20C10.625 19.3096 10.0654 18.75 9.375 18.75H3.125C2.43464 18.75 1.875 19.3096 1.875 20C1.875 20.6904 2.43464 21.25 3.125 21.25Z" fill="#1A1A1A"/>
<path d="M21.25 36.875V30.625C21.25 29.9346 20.6904 29.375 20 29.375C19.3096 29.375 18.75 29.9346 18.75 30.625V36.875C18.75 37.5654 19.3096 38.125 20 38.125C20.6904 38.125 21.25 37.5654 21.25 36.875Z" fill="#1A1A1A"/>
<path d="M36.875 18.75H30.625C29.9346 18.75 29.375 19.3096 29.375 20C29.375 20.6904 29.9346 21.25 30.625 21.25H36.875C37.5654 21.25 38.125 20.6904 38.125 20C38.125 19.3096 37.5654 18.75 36.875 18.75Z" fill="#1A1A1A"/>
<path fill-rule="evenodd" clip-rule="evenodd" d="M20 13.75C20 13.75 22.5888 13.75 24.4194 15.5806C24.4194 15.5806 26.25 17.4112 26.25 20C26.25 20 26.25 22.5888 24.4194 24.4194C24.4194 24.4194 22.5888 26.25 20 26.25C20 26.25 17.4112 26.25 15.5806 24.4194C15.5806 24.4194 13.75 22.5888 13.75 20C13.75 20 13.75 17.4112 15.5806 15.5806C15.5806 15.5806 17.4112 13.75 20 13.75ZM20 16.25C20 16.25 18.4467 16.25 17.3484 17.3483C17.3484 17.3483 16.25 18.4467 16.25 20C16.25 20 16.25 21.5533 17.3484 22.6517C17.3484 22.6517 18.4467 23.75 20 23.75C20 23.75 21.5533 23.75 22.6517 22.6517C22.6517 22.6517 23.75 21.5533 23.75 20C23.75 20 23.75 18.4467 22.6517 17.3483C22.6517 17.3483 21.5533 16.25 20 16.25Z" fill="#1A1A1A"/>
</svg>
