<svg width="16" height="16" viewBox="0 0 16 16" fill="none" xmlns="http://www.w3.org/2000/svg">
<g clip-path="url(#clip0_1185_5155)">
<path d="M3.41267 1.98486H12.4355C13.2412 1.98486 14.0139 2.30493 14.5836 2.87467C15.1534 3.4444 15.4734 4.21712 15.4734 5.02284C15.4734 5.82856 15.1534 6.60128 14.5836 7.17101C14.0139 7.74074 13.2412 8.06081 12.4355 8.06081H3.52406C2.71834 8.06081 1.94562 8.38088 1.37589 8.95061C0.806156 9.52034 0.486084 10.2931 0.486084 11.0988C0.486084 11.9045 0.806156 12.6772 1.37589 13.247C1.94562 13.8167 2.71834 14.1368 3.52406 14.1368H13.6506" stroke="#004BA5" stroke-linecap="round" stroke-linejoin="round"/>
<path d="M4.00002 4.04051L0.506348 2.02532L4.00002 0V4.04051Z" fill="#004BA5"/>
<path d="M13.5492 16C13.9275 15.9999 14.2971 15.8871 14.611 15.6761C14.9249 15.4651 15.1688 15.1653 15.3117 14.8151C15.4545 14.4648 15.4898 14.08 15.413 13.7096C15.3362 13.3393 15.1508 13.0002 14.8805 12.7356C14.6101 12.471 14.2671 12.293 13.8952 12.2242C13.5233 12.1553 13.1393 12.1989 12.7922 12.3492C12.4451 12.4995 12.1507 12.7498 11.9464 13.0682C11.7422 13.3865 11.6374 13.7585 11.6455 14.1367C11.656 14.6346 11.8613 15.1084 12.2172 15.4568C12.5731 15.8051 13.0513 16.0001 13.5492 16Z" fill="#004BA5"/>
</g>
<defs>
<clipPath id="clip0_1185_5155">
<rect width="15.9696" height="16" fill="white"/>
</clipPath>
</defs>
</svg>
