<svg width="20" height="16" viewBox="0 0 20 16" fill="none" xmlns="http://www.w3.org/2000/svg">
<g clip-path="url(#clip0_1185_5161)">
<path d="M2.12962 14.9993C3.04082 14.9993 3.7795 14.2608 3.7795 13.3497C3.7795 12.4387 3.04082 11.7002 2.12962 11.7002C1.21841 11.7002 0.479736 12.4387 0.479736 13.3497C0.479736 14.2608 1.21841 14.9993 2.12962 14.9993Z" fill="#004BA5" stroke="#004BA5" stroke-linecap="round" stroke-linejoin="round"/>
<path d="M17.8706 15.0759C18.7818 15.0759 19.5205 14.3374 19.5205 13.4264C19.5205 12.5154 18.7818 11.7769 17.8706 11.7769C16.9594 11.7769 16.2207 12.5154 16.2207 13.4264C16.2207 14.3374 16.9594 15.0759 17.8706 15.0759Z" fill="#004BA5" stroke="#004BA5" stroke-linecap="round" stroke-linejoin="round"/>
<path d="M2.12939 9.77255C3.075 9.77508 3.98115 10.1518 4.6498 10.8203C5.31845 11.4888 5.69521 12.3948 5.69774 13.3402H13.5155L16.8152 7.72021" stroke="#004BA5" stroke-linecap="round" stroke-linejoin="round"/>
<path d="M12.9304 0.479492H15.7026L17.5731 11.5659" stroke="#004BA5" stroke-linecap="round" stroke-linejoin="round"/>
</g>
<defs>
<clipPath id="clip0_1185_5161">
<rect width="20" height="15.5556" fill="white"/>
</clipPath>
</defs>
</svg>
