<svg width="24" height="24" viewBox="0 0 24 24" fill="none" xmlns="http://www.w3.org/2000/svg">
<g clip-path="url(#clip0_3819_4668)">
<path d="M12 11.5C13.3807 11.5 14.5 10.3807 14.5 9C14.5 7.61929 13.3807 6.5 12 6.5C10.6193 6.5 9.5 7.61929 9.5 9C9.5 10.3807 10.6193 11.5 12 11.5Z" stroke="#C0BFC7" stroke-width="1.5" stroke-linecap="round" stroke-linejoin="round"/>
<path d="M7.5 15.5C7.69423 15.0544 8.01424 14.6751 8.42081 14.4087C8.82738 14.1423 9.30285 14.0002 9.78894 14H14.2111C14.6972 14.0002 15.1726 14.1423 15.5792 14.4087C15.9858 14.6751 16.3058 15.0544 16.5 15.5" stroke="#C0BFC7" stroke-width="1.5" stroke-linecap="round" stroke-linejoin="round"/>
<path d="M10.9409 20.8951C8.70166 20.4473 6.68674 19.2374 5.23896 17.4714C3.79119 15.7054 3 13.4924 3 11.2088V8C3 6.67392 3.52678 5.40215 4.46447 4.46447C5.40215 3.52678 6.67392 3 8 3H16C17.3261 3 18.5979 3.52678 19.5355 4.46447C20.4732 5.40215 21 6.67392 21 8V11.2088C21 13.4923 20.2088 15.7053 18.7611 17.4713C17.3134 19.2373 15.2985 20.4472 13.0593 20.8951C12.3602 21.0349 11.64 21.0349 10.9409 20.8951Z" stroke="#C0BFC7" stroke-width="1.5" stroke-linecap="round" stroke-linejoin="round"/>
</g>
<defs>
<clipPath id="clip0_3819_4668">
<rect width="24" height="24" fill="white"/>
</clipPath>
</defs>
</svg>
