<svg width="13" height="14" viewBox="0 0 13 14" fill="none" xmlns="http://www.w3.org/2000/svg">
<path fill-rule="evenodd" clip-rule="evenodd" d="M6.5 0.5C6.5 0.5 7.82209 0.5 9.03025 1.01101C9.03025 1.01101 10.1968 1.50442 11.0962 2.40381C11.0962 2.40381 11.9956 3.30319 12.489 4.46975C12.489 4.46975 13 5.67791 13 7C13 7 13 8.32208 12.489 9.53025C12.489 9.53025 11.9956 10.6968 11.0962 11.5962C11.0962 11.5962 10.1968 12.4956 9.03025 12.989C9.03025 12.989 7.82208 13.5 6.5 13.5C6.5 13.5 5.17791 13.5 3.96975 12.989C3.96975 12.989 2.80319 12.4956 1.90381 11.5962C1.90381 11.5962 1.00442 10.6968 0.511008 9.53025C0.511008 9.53025 0 8.32209 0 7C0 7 0 5.67791 0.511008 4.46975C0.511008 4.46975 1.00442 3.30319 1.90381 2.40381C1.90381 2.40381 2.80319 1.50442 3.96975 1.01101C3.96975 1.01101 5.17791 0.5 6.5 0.5ZM6.5 1.5C6.5 1.5 5.3807 1.5 4.35931 1.93201C4.35931 1.93201 3.37238 2.34945 2.61091 3.11091C2.61091 3.11091 1.84945 3.87238 1.43201 4.85931C1.43201 4.85931 1 5.8807 1 7C1 7 1 8.1193 1.43201 9.14069C1.43201 9.14069 1.84945 10.1276 2.61091 10.8891C2.61091 10.8891 3.37238 11.6506 4.35931 12.068C4.35931 12.068 5.3807 12.5 6.5 12.5C6.5 12.5 7.6193 12.5 8.6407 12.068C8.6407 12.068 9.62762 11.6506 10.3891 10.8891C10.3891 10.8891 11.1506 10.1276 11.568 9.14069C11.568 9.14069 12 8.1193 12 7C12 7 12 5.8807 11.568 4.85931C11.568 4.85931 11.1506 3.87238 10.3891 3.11091C10.3891 3.11091 9.62762 2.34945 8.6407 1.93201C8.6407 1.93201 7.6193 1.5 6.5 1.5Z" fill="#004BA5"/>
<path d="M4 7.5H9C9.27614 7.5 9.5 7.27614 9.5 7C9.5 6.72386 9.27614 6.5 9 6.5H4C3.72386 6.5 3.5 6.72386 3.5 7C3.5 7.27614 3.72386 7.5 4 7.5Z" fill="#004BA5"/>
<path d="M6 4.5V9.5C6 9.77614 6.22386 10 6.5 10C6.77614 10 7 9.77614 7 9.5V4.5C7 4.22386 6.77614 4 6.5 4C6.22386 4 6 4.22386 6 4.5Z" fill="#004BA5"/>
</svg>
