<svg enable-background="new 0 0 217 231" viewBox="0 0 217 231" xmlns="http://www.w3.org/2000/svg" xmlns:xlink="http://www.w3.org/1999/xlink"><linearGradient id="a"><stop offset="0" stop-color="#004ba5" stop-opacity=".4"/><stop offset="1" stop-color="#d1d1e7"/></linearGradient><linearGradient id="b" gradientUnits="userSpaceOnUse" x1="93.7811" x2="113.6864" xlink:href="#a" y1="11.0653" y2="11.0653"/><linearGradient id="c" gradientUnits="userSpaceOnUse" x1="115.5087" x2="118.032" xlink:href="#a" y1="11.0653" y2="11.0653"/><path d="m107.5 200c-15.8-.1-97.7 16.4-104.3-62.1-6.7-78.5 62.4-78.9 84.8-72.5s31.6-30 52.8-32.7 49.4 15.4 59.7 61.6-15.3 90.9-29.7 99.1c-14.4 8.3-63.3 6.6-63.3 6.6z" fill="#ebf4ff"/><path d="m27.5 75.5c-1.3-1.4-2.7-2.7-4-4.2-1.3-1.4-2.5-2.9-3.7-4.4s-2.3-3-3.3-4.7c-.2-.4-.5-.8-.7-1.3-.2-.4-.4-.9-.5-1.3-.1-.5-.3-1-.2-1.5 0-.3.1-.5.3-.8.1-.1.2-.2.3-.3s.3-.1.4-.1h.8c.2 0 .5.1.7.2.5.2.9.4 1.3.7.8.5 1.6 1.2 2.3 1.8 1.4 1.4 2.5 2.9 3.5 4.6 1.9 3.3 3.1 7.2 3.2 11v-.1l5.5 13.8 5.5 13.8 5.4 13.8 5.4 13.8c3.6 9.2 7.2 18.4 10.7 27.7l2.7 6.9 1.3 3.5 1.3 3.5c1.8 4.6 3.5 9.2 5.3 13.9-1.9-4.6-3.7-9.2-5.6-13.7l-1.4-3.4-1.4-3.4-2.8-6.9c-3.7-9.2-7.3-18.4-11-27.6l-5.4-13.8-5.4-13.8-5.4-13.8-5.3-13.8c-.1-3.8-1.2-7.5-3.1-10.8-.9-1.6-2.1-3.2-3.4-4.5-.7-.7-1.4-1.3-2.2-1.8-.4-.3-.8-.5-1.2-.7-.2-.1-.4-.2-.7-.2-.2 0-.4-.1-.7 0-.1 0-.2 0-.3.1-.1 0-.2.1-.2.2-.1.2-.2.4-.2.6 0 .4.1.9.2 1.4.1.4.3.9.5 1.3s.4.9.7 1.3c.9 1.7 2.1 3.2 3.2 4.7 2.4 2.6 5 5.5 7.6 8.3z" fill="#cbebff"/><path d="m28.6 78c-2.9-1.5-5.9-3-8.9-4.2-1.5-.6-3-1.2-4.6-1.6-.8-.2-1.6-.4-2.4-.4-.4 0-.8 0-1.1.1-.2 0-.3.1-.3.2-.1.1-.1.2 0 .3 0 .1.1.3.2.5s.2.3.3.5c.2.3.5.6.8.8.6.5 1.3 1 2 1.4 1.4.8 2.9 1.4 4.4 1.9.8.2 1.6.4 2.4.5s1.6.2 2.4.2c1.6.1 3.2-.1 4.8-.5l-.3.2c2.1-3.1 3.5-6.5 4.3-10.1.4-1.8.6-3.7.5-5.5 0-.9-.1-1.8-.3-2.7-.1-.4-.2-.9-.4-1.3-.1-.2-.2-.4-.3-.6s-.2-.3-.4-.4c-.1-.1-.2-.1-.3-.1s-.3.2-.4.3c-.3.3-.5.7-.6 1.1-.3.8-.6 1.7-.7 2.6-.4 1.8-.6 3.7-.7 5.5-.4 3.8-.4 7.6-.4 11.3-.2-3.7-.3-7.5-.2-11.3.1-1.9.2-3.8.6-5.6.2-.9.4-1.9.7-2.8.2-.5.4-.9.7-1.3.2-.2.4-.4.7-.5.2-.1.3-.1.5-.1s.3.1.5.2c.3.2.4.4.6.6.1.2.3.4.4.7.2.5.3.9.4 1.4.2.9.3 1.9.3 2.9.1 1.9-.1 3.8-.5 5.7-.8 3.7-2.2 7.3-4.4 10.5l-.1.1h-.2c-3.3.8-6.8.6-10-.3-1.6-.5-3.2-1.2-4.6-2-.7-.4-1.4-.9-2-1.5-.3-.3-.6-.6-.9-.9-.1-.2-.3-.4-.4-.6s-.2-.4-.3-.7c0-.1 0-.3 0-.4s.1-.3.2-.4l.3-.3c.1-.1.2-.1.4-.2.5-.1.9-.1 1.3-.1.9.1 1.7.3 2.5.5 1.6.5 3.1 1.1 4.6 1.8 3.2 1.4 6.1 3 8.9 4.6z" fill="#cbebff"/><path d="m30.5 82.2c-1.1-.2-2.1-.4-3.2-.5-1.1-.2-2.1-.3-3.2-.5-2.1-.3-4.3-.6-6.4-.9-2.2-.2-4.3-.4-6.5-.5-1.1 0-2.2 0-3.2 0-.5 0-1.1.1-1.5.2-.2.1-.5.2-.6.3s-.1.1-.1.1v.1c0 .2.2.4.4.5s.4.3.7.4c.5.2 1 .4 1.5.6 1 .3 2 .6 3.1.8 2.1.4 4.2.7 6.4.7 2.1.1 4.3 0 6.4-.3s4.2-.8 6.2-1.5h-.1c3.4-2.3 6.7-4.9 9.5-7.9 1.4-1.5 2.7-3.1 3.8-4.9.5-.9 1-1.8 1.3-2.7.2-.5.3-1 .4-1.4 0-.2 0-.5 0-.7s-.1-.4-.2-.5-.3-.2-.5-.2-.4.1-.6.1c-.4.2-.9.4-1.3.7-.8.6-1.5 1.3-2.2 2.1-1.4 1.5-2.6 3.2-3.8 4.9s-2.2 3.5-3.3 5.3c-.5.9-1 1.8-1.5 2.7-.5 1.1-1 2-1.5 3 .4-1 .9-1.9 1.3-2.8.5-.9.9-1.9 1.4-2.8 1-1.9 2-3.7 3.1-5.4 1.1-1.8 2.3-3.5 3.7-5.1.7-.8 1.4-1.6 2.3-2.2.4-.3.9-.6 1.4-.9.3-.1.6-.2.9-.2.2 0 .3 0 .5.1s.3.2.5.3c.3.3.4.6.4.9.1.3 0 .6 0 .9-.1.6-.2 1.1-.4 1.6-.4 1-.8 2-1.4 2.9-1.1 1.8-2.4 3.5-3.8 5s-3 3-4.6 4.3-3.3 2.6-5.1 3.8h-.1c-2.1.7-4.2 1.2-6.4 1.5s-4.4.4-6.6.3-4.4-.3-6.5-.8c-1.1-.2-2.1-.5-3.2-.9-.5-.2-1-.4-1.5-.7-.3-.1-.5-.3-.7-.4-.1-.1-.2-.2-.4-.3-.1-.1-.2-.2-.3-.4 0-.1-.1-.2-.1-.3s0-.2 0-.4c.1-.2.2-.4.4-.5.3-.2.6-.3.9-.4.6-.1 1.1-.2 1.7-.2 1.1-.1 2.2 0 3.3 0 2.2.1 4.3.4 6.5.7s4.3.7 6.4 1.1c1.1.2 2.1.4 3.2.6s2.2.4 3.2.7z" fill="#cbebff"/><path d="m128.8 221s-20-125.4 12.3-135.5 8.6 112 8.6 112 12.3-139.2 52.8-124.1-35.7 146.5-48.6 149.9c-13 3.4-25.1-2.3-25.1-2.3z" fill="#d6e9ff"/><path d="m142.9 85.1v4.3 4.3l-.1 8.6c-.1 5.8-.1 11.5-.2 17.3s-.2 11.5-.3 17.3l-.3 17.3-.4 17.3c-.1 5.8-.3 11.5-.4 17.3l-.2 8.6-.2 8.6-.3 8.6-.1 4.3-.2 4.3v-4.3-4.3l.1-8.6.1-8.6.1-8.6c.1-5.8.2-11.5.3-17.3l.3-17.3.4-17.3c.1-5.8.3-11.5.4-17.3s.3-11.5.5-17.3l.3-8.6.1-4.3z" fill="#fff"/><path d="m125.4 111.6c1.5 1.9 2.9 3.8 4.3 5.8l2.1 2.9 2.1 2.9c.7 1 1.4 1.9 2.1 2.9s1.4 1.9 2.1 2.9c1.4 2 2.8 3.9 4.1 5.9h-.7c1.4-1.5 2.7-3 4.1-4.5l2-2.2 2.1-2.2c.7-.7 1.4-1.5 2.1-2.2s1.4-1.5 2.1-2.2c1.4-1.5 2.8-2.9 4.2-4.4-1.3 1.6-2.6 3.1-3.9 4.7-.7.8-1.3 1.5-2 2.3s-1.3 1.5-2 2.3l-2 2.3-2 2.3c-1.3 1.5-2.7 3-4 4.6l-.4.4-.3-.5c-1.4-2-2.7-3.9-4.1-5.9-.7-1-1.4-2-2-3-.7-1-1.4-2-2-3l-2-3-2-3c-1.4-2.1-2.7-4.1-4-6.1z" fill="#fff"/><path d="m122.9 160.3c1.6.3 3.1.6 4.7 1 1.5.3 3.1.7 4.6 1.1l2.3.5 2.3.6c1.5.4 3.1.8 4.6 1.2l-.4.1.9-.9 1-.9 1.9-1.9c.6-.6 1.3-1.2 1.9-1.9.6-.6 1.3-1.2 1.9-1.9l1.9-1.9 2-1.8c1.3-1.2 2.6-2.4 4-3.6-1.2 1.3-2.4 2.6-3.7 3.9l-1.9 1.9-1.9 1.9c-.6.6-1.3 1.3-1.9 1.9s-1.3 1.3-1.9 1.9l-1.9 1.9-.9.9-1 .9-.2.2-.2-.1c-1.5-.4-3.1-.8-4.6-1.2l-2.3-.6-2.1-.5c-1.5-.4-3.1-.9-4.6-1.3-1.5-.5-3-.9-4.5-1.4z" fill="#fff"/><path d="m124.6 186.8c1.4.2 2.7.4 4.1.6.7.1 1.4.2 2 .4.7.1 1.4.2 2 .4l2 .4 2 .4 2 .4 2 .4-.4.2c1.1-1.3 2.1-2.6 3.2-3.9.5-.7 1.1-1.3 1.6-1.9l1.6-1.9 1.6-1.9 1.7-1.9c1.1-1.3 2.2-2.5 3.4-3.8-1 1.4-2 2.7-3 4.1l-1.5 2-1.5 2-1.6 2c-.5.7-1 1.3-1.6 2-1.1 1.3-2.1 2.6-3.2 3.9l-.2.2-.3-.1-2-.4-2-.4-2-.5-2-.5c-.7-.2-1.3-.3-2-.5s-1.3-.3-2-.5c-1.2-.5-2.5-.9-3.9-1.2z" fill="#fff"/><path d="m202.5 72.2-1.7 4.8-1.8 4.8-3.5 9.5c-2.4 6.4-4.7 12.7-7.1 19.1s-4.8 12.7-7.1 19l-7.2 19-7.2 19c-2.4 6.3-4.8 12.7-7.3 19l-3.7 9.5-3.7 9.5-3.7 9.5-1.9 4.7-1.9 4.7 1.7-4.8 1.8-4.8 3.5-9.5 3.5-9.5 3.6-9.5c2.4-6.4 4.8-12.7 7.1-19l7.2-19 7.2-19c2.4-6.3 4.8-12.7 7.3-19 2.4-6.3 4.9-12.7 7.3-19l3.7-9.5 1.9-4.7z" fill="#fff"/><path d="m174.2 91.6c.9 2.5 1.7 5 2.5 7.5l1.2 3.7c.4 1.3.8 2.5 1.2 3.8.8 2.5 1.6 5 2.4 7.5l1.2 3.8 1.2 3.8-.7-.2 3.8-3.6 3.8-3.6c2.5-2.4 5.1-4.7 7.7-7.1l3.9-3.5c1.3-1.2 2.6-2.3 3.9-3.5 2.6-2.3 5.2-4.7 7.8-7-2.5 2.5-5 4.9-7.5 7.3-1.3 1.2-2.5 2.4-3.8 3.6l-3.8 3.6c-2.5 2.4-5.1 4.8-7.6 7.2l-3.8 3.6-3.8 3.6-.5.5-.2-.7-1.2-3.8-1.2-3.8c-.8-2.5-1.5-5-2.3-7.6-.4-1.3-.8-2.5-1.1-3.8l-1.1-3.8c-.5-2.4-1.3-5-2-7.5z" fill="#fff"/><path d="m159.7 134.7c.9 2 1.8 4 2.6 6.1l1.3 3 1.3 3.1c.4 1 .8 2 1.2 3.1l1.2 3.1 2.4 6.1-.4-.3c2.1.2 4.1.4 6.2.6s4.1.4 6.2.6 4.1.4 6.2.7c2.1.2 4.1.5 6.2.7-2.1-.1-4.1-.2-6.2-.3s-4.1-.3-6.2-.4-4.1-.3-6.2-.5-4.1-.3-6.2-.5h-.3l-.1-.3-2.4-6.2-1.2-3.1c-.4-1-.8-2.1-1.2-3.1l-1.2-3.1-1.1-3.1c-.6-2-1.4-4.1-2.1-6.2z" fill="#fff"/><path d="m179.5 189.3c-1.8.3-3.7.5-5.5.7-.9.1-1.8.2-2.8.3-.9.1-1.8.2-2.8.3l-2.8.2-2.8.2-1.4.1-1.4.1-2.8.2h-.3l-.1-.3-1.3-3.1-1.3-3.1c-.4-1-.9-2.1-1.3-3.1-.2-.5-.4-1-.6-1.6-.2-.5-.4-1.1-.6-1.6.3.5.5 1 .8 1.5s.5 1 .8 1.5l1.5 3 1.4 3 1.4 3.1-.4-.3 2.8-.2 1.4-.1 1.4-.1 2.8-.2 2.8-.2c.9-.1 1.8-.1 2.8-.2.9-.1 1.8-.1 2.8-.1 1.8.1 3.6.1 5.5 0z" fill="#fff"/><path d="m61.4 225.1s-55-5.5-53.1-34.7 40.9 11.6 40.9 11.6-40.6-37.4-21.7-50.9 30.8 47 30.8 47-12.9-50.4 4.4-48.7 4.2 75.7 4.2 75.7z" fill="#d6e9ff"/><path d="m61.8 151.1-.2 2.2c-.1.7-.2 1.5-.2 2.2l-.2 2.2c0 .4-.1.7-.1 1.1l-.1 1.1-.1 2.2v.6.6 1.1l-.1 2.2v2.2c0 5.9.2 11.9.5 17.8s.8 11.8 1.4 17.7 1.2 11.8 1.8 17.7l.8-.3c-3.1-5.1-6.3-10.3-9.3-15.4-.8-1.3-1.5-2.6-2.3-3.9s-1.5-2.6-2.2-3.9c-.4-.7-.7-1.3-1.1-2l-1.1-2-1.1-2-1.1-2-1.1-2-1.1-2-1.1-2-1-2-1-2-1-2c-.3-.7-.7-1.3-1-2l-1-2-.5-1-.2-.5-.2-.5-1-2c-.7-1.4-1.2-2.7-1.9-4.1l-.5-1-.4-1-.9-2.1-.2-.5-.2-.5-.4-1-.8-2.1.8 2.1.4 1.1.2.5.2.5.8 2.1.4 1 .4 1c.6 1.4 1.2 2.8 1.8 4.1l.9 2.1.2.5.2.5.5 1 1 2c.3.7.7 1.4 1 2l1 2 1 2 1 2 1 2 1 2 1.1 2 1.1 2 1.1 2 1.1 2c.4.7.7 1.3 1.1 2 .7 1.3 1.5 2.6 2.2 3.9s1.5 2.6 2.3 3.9c3 5.2 6.1 10.4 9.3 15.5l1.1 1.7-.2-2c-.7-5.9-1.3-11.8-1.9-17.7s-1.1-11.8-1.5-17.7-.7-11.8-.8-17.7v-2.2-2.2-1.1-.6-.6l.1-2.2v-1.1c0-.4 0-.7.1-1.1l.1-2.2c0-.7.1-1.5.1-2.2z" fill="#fff"/><path d="m13.7 189.6c3.2 3.8 6.9 7.2 10.7 10.4l1.5 1.2c.5.4 1 .8 1.5 1.2l1.5 1.1c.5.4 1 .8 1.5 1.1l1.5 1.1.8.5c.3.2.5.3.8.5l1.6 1 .8.5c.3.2.5.3.8.5l1.6 1 .8.5c.3.2.5.3.8.5l1.6.9c.5.3 1.1.6 1.6.9l1.6.9c.5.3 1.1.6 1.6.9 1.1.6 2.2 1.2 3.3 1.7 4.5 2.2 9 4.2 13.7 6-4.5-2.1-9-4.3-13.3-6.6-.6-.3-1.1-.6-1.6-.9l-1.6-.9c-.5-.3-1.1-.6-1.6-.9l-1.6-.9c-.3-.2-.5-.3-.8-.5l-.8-.5-1.6-.9c-.3-.2-.5-.3-.8-.5l-.8-.5-1.6-1c-.3-.2-.5-.3-.8-.5l-.8-.5-1.6-1c-.3-.2-.5-.3-.8-.5l-.8-.5-1.5-1.1c-.5-.3-1-.7-1.5-1.1l-1.5-1.1c-.5-.4-1-.7-1.5-1.1l-1.5-1.1c-4-3-7.7-6.2-11.2-9.8z" fill="#fff"/><path d="m45.1 169.5c-.2 1.4-.3 2.7-.4 4.1s-.2 2.7-.3 4.1-.1 2.7-.1 4.1 0 2.7.1 4.1c.2-1.4.3-2.7.4-4.1s.2-2.7.3-4.1.1-2.7.1-4.1c-.1-1.4-.1-2.8-.1-4.1z" fill="#fff"/><path d="m38.7 157c-.2 1.4-.3 2.7-.4 4.1s-.2 2.7-.3 4.1-.1 2.7-.1 4.1 0 2.7.1 4.1c.2-1.4.3-2.7.4-4.1s.2-2.7.3-4.1.1-2.7.1-4.1c-.1-1.4-.1-2.8-.1-4.1z" fill="#fff"/><path d="m50.2 178.5c-.2 1.4-.2 2.8-.3 4.1-.1 1.4-.1 2.8-.1 4.1v4.1c0 1.4.1 2.8.2 4.1.2-1.4.2-2.8.3-4.1.1-1.4.1-2.8.1-4.1 0-1.4 0-2.8 0-4.1-.1-1.3-.1-2.7-.2-4.1z" fill="#fff"/><path d="m17.8 184.8c0 .9.1 1.8.3 2.8.1.9.3 1.8.4 2.7.2.9.4 1.8.6 2.7s.5 1.8.8 2.7c0-.9-.1-1.8-.3-2.8-.1-.9-.3-1.8-.4-2.7-.2-.9-.4-1.8-.6-2.7-.3-.9-.5-1.8-.8-2.7z" fill="#fff"/><path d="m24.3 188.5c-.1.9-.1 1.9-.1 2.8v2.8c0 .9.1 1.8.2 2.8.1.9.2 1.8.4 2.8.1-.9.1-1.9.1-2.8s0-1.9 0-2.8-.1-1.8-.2-2.8c-.1-.9-.2-1.8-.4-2.8z" fill="#fff"/><path d="m30.5 191.5c-.1 1-.1 2-.1 3s0 2 .1 3c0 1 .1 2 .2 3s.2 2 .4 3c.1-1 .1-2 .1-3s0-2-.1-3c0-1-.1-2-.2-3s-.2-2-.4-3z" fill="#fff"/><path d="m37.8 195.5c-.1 1.2-.1 2.3 0 3.5 0 1.2.1 2.3.1 3.5.1 1.2.2 2.3.3 3.5s.3 2.3.5 3.5c.1-1.2.1-2.3 0-3.5 0-1.2-.1-2.3-.1-3.5-.1-1.2-.2-2.3-.3-3.5s-.3-2.4-.5-3.5z" fill="#fff"/><path d="m45.2 201.1c-.1 1-.2 1.9-.2 2.9v2.9c0 1 .1 1.9.1 2.9.1 1 .2 1.9.3 2.9.1-1 .2-1.9.2-2.9s0-1.9 0-2.9-.1-1.9-.1-2.9-.1-1.9-.3-2.9z" fill="#fff"/><path d="m67.5 162c-.6 1-1.2 2.1-1.8 3.2s-1.1 2.2-1.6 3.2c-.5 1.1-1 2.2-1.5 3.3s-.9 2.2-1.3 3.4c.6-1 1.2-2.1 1.8-3.2s1.1-2.2 1.6-3.2l1.5-3.3c.4-1.1.9-2.2 1.3-3.4z" fill="#fff"/><path d="m68.8 176.4c-.7 1.1-1.3 2.2-1.9 3.3s-1.2 2.3-1.8 3.4-1.1 2.3-1.6 3.5-1 2.3-1.5 3.6c.7-1.1 1.3-2.2 1.9-3.3s1.2-2.3 1.8-3.4 1.1-2.3 1.6-3.5 1-2.4 1.5-3.6z" fill="#fff"/><path d="m67.6 191.1c-.5.6-1 1.2-1.4 1.9-.4.6-.9 1.3-1.3 2s-.8 1.4-1.1 2c-.4.7-.7 1.4-1 2.1.5-.6 1-1.2 1.4-1.9.4-.6.9-1.3 1.3-2s.8-1.4 1.1-2c.4-.7.7-1.4 1-2.1z" fill="#fff"/><path d="m132.7 129.6c2.1 1.1 4.3 2.2 6.6 1.8 3.7-.6 5.9-5.1 5.2-8.8s-3.3-6.8-6-9.4c-5.9-5.7-13.1-10.8-21.2-11.4-7.8-.6-18 3.8-12 12 5.4 7.4 19.6 11.7 27.4 15.8z" fill="#ebf4ff"/><path d="m160.8 17.6v195.9c0 7.9-6.4 14.3-14.3 14.3h-81.2c-7.9 0-14.3-6.4-14.3-14.3v-195.9c0-5 2.5-9.4 6.4-11.9 2.3-1.5 5-2.4 7.9-2.4h81.1c8-.1 14.4 6.3 14.4 14.3z" fill="#ebf4ff" stroke="#003f7f" stroke-miterlimit="10" stroke-width=".5978"/><path d="m144.7 223.2h-77.6c-6 0-10.9-4.9-10.9-10.9v-193c0-6 4.9-10.9 10.9-10.9h77.6c6 0 10.9 4.9 10.9 10.9v192.9c0 6.1-4.9 11-10.9 11z" fill="#fff"/><path d="m127.1 4.7v7.5c0 1.6-1.3 2.9-2.9 2.9h-36.6c-1.6 0-2.9-1.3-2.9-2.9v-7.5z" fill="#ebf4ff"/><g opacity=".2"><path d="m112.4 12.3h-17.4c-.7 0-1.3-.6-1.3-1.3 0-.7.6-1.3 1.3-1.3h17.4c.7 0 1.3.6 1.3 1.3 0 .8-.6 1.3-1.3 1.3z" fill="url(#b)" opacity=".5"/><path d="m118 11.1c0 .7-.6 1.3-1.3 1.3s-1.3-.6-1.3-1.3.6-1.3 1.3-1.3c.8 0 1.3.6 1.3 1.3z" fill="url(#c)" opacity=".5"/></g><path d="m69 47.5h73.8v5.9h-73.8z" fill="#00aaa5"/><path d="m69 58.6h73.8v5.9h-73.8z" fill="#00aaa5"/><path d="m75.1 81.2v20.4h20.4v-20.4zm17.5 17.5h-14.6v-14.7h14.7v14.7z" fill="#004ba5"/><path d="m81 87.1h8.6v8.6h-8.6z" fill="#004ba5"/><path d="m75.1 122.2v20.4h20.4v-20.4zm17.5 17.5h-14.6v-14.7h14.7v14.7z" fill="#004ba5"/><path d="m81 128.1h8.6v8.6h-8.6z" fill="#d96098"/><path d="m115.8 81.2v20.4h20.4v-20.4zm17.5 17.5h-14.7v-14.7h14.7z" fill="#004ba5"/><path d="m121.7 87.1h8.6v8.6h-8.6z" fill="#d96098"/><g fill="#004ba5"><path d="m75.1 104.8h5.5v8.1h-5.5z"/><path d="m83.5 113.2h3.1v3.1h-3.1z"/><path d="m98 107.1h3.1v3.1h-3.1z"/><path d="m101.1 110.2h3.1v3.1h-3.1z"/><path d="m95.5 113.2h3.1v3.1h-3.1z"/><path d="m75.1 104.5h14.3v3.1h-14.3z"/><path d="m70.7 108.9h11.8v3.1h-11.8z" transform="matrix(0 -1 1 0 -33.7832 187.0562)"/><path d="m86.5 116.3h8.9v3.1h-8.9z"/><path d="m89.6 110.2h5.9v3.1h-5.9z"/><path d="m92.5 104.5h8.6v3.1h-8.6z"/><path d="m104.2 107.1h3.1v3.1h-3.1z" transform="matrix(0 1 -1 0 214.3992 2.9304)"/><path d="m105.8 79.8h5.5v8.1h-5.5z" transform="matrix(0 1 -1 0 192.4504 -24.6795)"/><path d="m101.1 89.5h3.1v3.1h-3.1z" transform="matrix(0 1 -1 0 193.7282 -11.5943)"/><path d="m107.3 104.1h3.1v3.1h-3.1z" transform="matrix(0 1 -1 0 214.3992 -3.2159)"/><path d="m101.1 101.5h3.1v3.1h-3.1z" transform="matrix(0 1 -1 0 205.6973 .3748)"/><path d="m104.2 86.7h14.3v3.1h-14.3z" transform="matrix(0 1 -1 0 199.6319 -23.0944)"/><path d="m101.1 81.1h11.8v3.1h-11.8z"/><path d="m95.1 95.5h8.9v3.1h-8.9z" transform="matrix(0 1 -1 0 196.6194 -2.5568)"/><path d="m102.8 97h5.9v3.1h-5.9z" transform="matrix(0 1 -1 0 204.2861 -7.1827)"/><path d="m107.1 101.3h8.6v3.1h-8.6z" transform="matrix(0 1 -1 0 214.2031 -8.5232)"/><path d="m105.8 115.3h5.5v8.1h-5.5z" transform="matrix(0 1 -1 0 227.913 10.7831)"/><path d="m101.1 125h3.1v3.1h-3.1z" transform="matrix(0 1 -1 0 229.1908 23.8683)"/><path d="m107.3 139.5h3.1v3.1h-3.1z" transform="matrix(0 1 -1 0 249.8617 32.2467)"/><path d="m101.1 137h3.1v3.1h-3.1z" transform="matrix(0 1 -1 0 241.1599 35.8374)"/><path d="m104.2 122.2h14.3v3.1h-14.3z" transform="matrix(0 1 -1 0 235.0945 12.3682)"/><path d="m101.1 116.6h11.8v3.1h-11.8z"/><path d="m95.1 131h8.9v3.1h-8.9z" transform="matrix(0 1 -1 0 232.0819 32.9058)"/><path d="m102.8 132.5h5.9v3.1h-5.9z" transform="matrix(0 1 -1 0 239.7486 28.2799)"/><path d="m107.1 136.8h8.6v3.1h-8.6z" transform="matrix(0 1 -1 0 249.6656 26.9394)"/><path d="m129.1 102.8h5.5v8.1h-5.5z" transform="matrix(0 1 -1 0 238.7014 -25.0596)"/><path d="m124.4 112.5h3.1v3.1h-3.1z" transform="matrix(0 1 -1 0 239.9792 -11.9744)"/><path d="m118.3 104.1h3.1v3.1h-3.1z" transform="matrix(0 1 -1 0 225.4626 -14.2793)"/><path d="m112.9 104.1h3.1v3.1h-3.1z" transform="matrix(0 1 -1 0 220.0279 -8.8446)"/><path d="m130.6 127h3.1v3.1h-3.1z" transform="matrix(0 1 -1 0 260.6501 -3.596)"/><path d="m114.3 135h5.8v3.1h-5.8z" transform="matrix(0 1 -1 0 253.6729 19.3535)"/><path d="m117.9 127.1h3.1v10h-3.1z" transform="matrix(0 1 -1 0 251.5399 12.6634)"/><path d="m130.5 139.7h3.1v3.1h-3.1z" transform="matrix(0 1 -1 0 273.2015 9.198)"/><path d="m121.4 139.7h3.1v3.1h-3.1z" transform="matrix(0 1 -1 0 264.1034 18.2961)"/><path d="m124.4 133.6h6v6h-6z" transform="matrix(0 1 -1 0 264.1034 9.198)"/><path d="m127.5 109.7h14.3v3.1h-14.3z" transform="matrix(0 1 -1 0 245.8828 -23.4744)"/><path d="m124.4 104.1h11.8v3.1h-11.8z"/><path d="m118.4 118.4h8.9v3.1h-8.9z" transform="matrix(0 1 -1 0 242.8704 -2.9369)"/><path d="m126.1 120h5.9v3.1h-5.9z" transform="matrix(0 1 -1 0 250.5371 -7.5628)"/><path d="m130.4 124.2h8.6v3.1h-8.6z" transform="matrix(0 1 -1 0 260.454 -8.9033)"/><path d="m141.7 185.7h-70.1c-2.2 0-4-1.8-4-4v-10.1c0-2.2 1.8-4 4-4h70.1c2.2 0 4 1.8 4 4v10.1c0 2.2-1.8 4-4 4z"/></g><text fill="#fff" font-family="'Metropolis-SemiBold'" font-size="12.3755" transform="translate(92.044 180.6708)">Scan</text><path d="m86.5 74.3h-16.5-2.1v2 16.6h2.1v-16.6h16.5z" fill="#d96098"/><path d="m124 149.9h16.5 2.1v-2.1-16.5h-2.1v16.5h-16.5z" fill="#d96098"/></svg>