<svg fill="none" height="210" viewBox="0 0 238 210" width="238" xmlns="http://www.w3.org/2000/svg" xmlns:xlink="http://www.w3.org/1999/xlink"><linearGradient id="a" gradientUnits="userSpaceOnUse" x1="125.72" x2="159.72" y1="80.8899" y2="46.8799"><stop offset="0" stop-color="#0065e0"/><stop offset="1" stop-color="#004ba5"/></linearGradient><radialGradient id="b" cx="142.719" cy="63.89" gradientUnits="userSpaceOnUse" r="21.86"><stop offset=".71" stop-color="#fff"/><stop offset=".84" stop-color="#fdfdfd"/><stop offset=".89" stop-color="#f6f6f6"/><stop offset=".92" stop-color="#ebebeb"/><stop offset=".95" stop-color="#dadada"/><stop offset=".97" stop-color="#c4c4c4"/><stop offset=".99" stop-color="#a9a9a9"/><stop offset="1" stop-color="#999"/></radialGradient><clipPath id="c"><path d="m0 0h237.54v209.49h-237.54z"/></clipPath><g clip-path="url(#c)"><path d="m133.341 192.71c-15.83-.15-97.6704 16.4-104.3304-62.06-6.66-78.4599 62.45-78.9399 84.8204-72.5399 22.37 6.4 31.64-30 52.82-32.66s49.37 15.37 59.72 61.62c10.35 46.2499-15.35 90.8699-29.75 99.1499s-63.28 6.49-63.28 6.49z" fill="#ebf4ff"/><path d="m200.399 38.05c1.788-3.3635 3.407-6.8145 4.85-10.34.721-1.7667 1.319-3.581 1.79-5.43.11-.46.21-.93.28-1.39.083-.4655.127-.9372.13-1.41.028-.4606-.033-.9223-.18-1.36-.07-.1975-.195-.371-.36-.5-.08-.0599-.172-.1009-.27-.12-.099-.015-.2-.015-.3 0-.218.0357-.428.1103-.62.22-.201.1091-.392.2363-.57.3801-.366.2989-.701.6339-1 1-.607.7243-1.14 1.5083-1.59 2.3399-.894 1.6721-1.567 3.4538-2 5.3-.9 3.6926-.9 7.5474 0 11.24v.1l-1.32 14.78-1.36 14.78-1.4 14.77-1.43 14.78c-.96 9.84-1.943 19.683-2.95 29.53l-.77 7.38-.38 3.69-.4 3.69c-.53 4.92-1 9.84-1.6 14.76.39-4.93.82-9.86 1.24-14.79l.31-3.7.32-3.7.65-7.39c.88-9.847 1.784-19.7 2.71-29.5599l1.4-14.7701 1.43-14.77 1.51-14.85 1.51-14.77v.1c-.9-3.7829-.88-7.7267.06-11.5.47-1.8779 1.182-3.6865 2.12-5.38.473-.8468 1.029-1.6442 1.66-2.38.322-.3653.677-.7001 1.06-1 .196-.154.407-.288.63-.4.226-.1264.474-.2079.73-.24.281-.0364.566.0311.8.19.214.1672.374.3931.46.65.155.4739.219.9725.19 1.47-.023.4862-.076.9705-.16 1.45-.08.48-.18.95-.3 1.41-.505 1.8402-1.133 3.6442-1.88 5.4-.74 1.7734-1.54 3.5134-2.4 5.22-.83 1.78-1.72 3.44-2.6 5.12z" fill="#cbebff"/><path d="m200.03 40.83c2.244-2.4064 4.614-4.6929 7.1-6.85 1.255-1.078 2.574-2.0798 3.95-3 .703-.4639 1.45-.8591 2.23-1.18.418-.178.865-.2764 1.32-.29.128.0025.255.0193.38.05.146.038.282.1061.4.2.123.0957.222.219.29.36.055.1275.092.2622.11.4.021.245.001.4918-.06.73-.049.2197-.119.4341-.21.64-.165.399-.362.7836-.59 1.15-.454.713-.973 1.3825-1.55 2-1.148 1.2268-2.445 2.3052-3.86 3.21-2.828 1.853-6.103 2.91-9.48 3.06h-.17l-.14-.12c-2.926-2.4554-5.336-5.4669-7.09-8.86-.866-1.6992-1.536-3.4905-2-5.34-.239-.9308-.393-1.8814-.46-2.84-.045-.4923-.045-.9877 0-1.48.034-.2537.087-.5045.16-.75.083-.2737.219-.5285.4-.75.112-.1293.252-.2318.41-.3.163-.0704.342-.0979.52-.08.295.0385.575.156.81.34.401.306.755.67 1.05 1.08.551.7814 1.036 1.6077 1.45 2.47.806 1.709 1.507 3.4656 2.1 5.26 1.169 3.5729 2.15 7.2045 2.94 10.88-1-3.62-2.07-7.22-3.37-10.73-.634-1.7526-1.372-3.4657-2.21-5.13-.415-.8207-.9-1.6036-1.45-2.34-.257-.3498-.563-.6598-.91-.92-.137-.1063-.299-.1751-.47-.2-.062-.0067-.125.0037-.181.0301-.057.0265-.105.068-.139.1199-.114.1448-.195.3117-.24.49-.057.2029-.098.4103-.12.62-.035.446-.035.894 0 1.34.078.9087.235 1.8087.47 2.69.472 1.7827 1.143 3.5068 2 5.14 1.724 3.2759 4.067 6.1863 6.9 8.57l-.3-.1c1.601-.0502 3.187-.3298 4.71-.83.765-.2481 1.513-.5453 2.24-.89 2.19-1.0261 4.173-2.4464 5.85-4.19.551-.5738 1.05-1.1963 1.49-1.86.216-.3161.403-.6507.56-1 .076-.1682.14-.3421.19-.52.045-.1627.061-.3317.05-.5 0-.0564-.011-.1122-.033-.1639-.023-.0517-.056-.0981-.097-.1361-.111-.0793-.245-.1182-.38-.11-.37.0093-.736.0837-1.08.22-.744.2919-1.46.65-2.14 1.07-1.394.8627-2.73 1.8147-4 2.85-2.53 2.02-4.98 4.23-7.35 6.49z" fill="#cbebff"/><path d="m199.3 45.3401 2.88-1.52c1-.5 1.93-1 2.9-1.47 1.95-1 3.91-1.9 5.89-2.79s4-1.71 6.06-2.43c1.029-.373 2.081-.6803 3.15-.92.547-.1325 1.107-.2096 1.67-.23.314-.0206.629.0167.93.11.2.0644.375.1903.5.36.067.1015.109.2184.12.34.016.1027.016.2073 0 .31-.041.1698-.108.3319-.2.48-.075.1342-.162.2614-.26.38-.181.2242-.379.4348-.59.63-.411.3775-.845.7282-1.3 1.05-.895.6391-1.834 1.2139-2.81 1.72-1.94 1.0253-3.964 1.8818-6.05 2.56-2.084.6967-4.226 1.2054-6.4 1.52-2.177.3316-4.383.4288-6.58.29h-.06-.05c-2.004-.6299-3.97-1.3711-5.89-2.22-1.929-.8392-3.799-1.8046-5.6-2.89-1.815-1.0879-3.514-2.3578-5.07-3.79-.787-.7257-1.497-1.5298-2.12-2.4-.319-.4491-.588-.932-.8-1.44-.11-.2728-.184-.5584-.22-.85-.05-.3429.01-.6926.17-1 .094-.1608.224-.2977.38-.4.143-.0964.302-.1674.47-.21.297-.0545.602-.0545.9 0 .545.0781 1.079.2225 1.59.43.982.4099 1.923.9121 2.81 1.5 1.762 1.1609 3.434 2.4547 5 3.87 1.56 1.39 3 2.87 4.48 4.38.72.76 1.42 1.53 2.12 2.3s1.37 1.57 2 2.37c-.71-.77-1.42-1.52-2.15-2.27s-1.45-1.5-2.19-2.23c-1.48-1.46-3-2.87-4.6-4.21-1.571-1.3557-3.242-2.5893-5-3.69-.859-.5517-1.77-1.0173-2.72-1.39-.456-.1837-.933-.308-1.42-.37-.216-.0355-.435-.0355-.65 0-.084.0134-.163.0456-.233.0941-.069.0485-.126.112-.167.1859-.078.1651-.103.3503-.07.53.035.2271.099.4488.19.66.192.4506.437.8769.73 1.27.589.8186 1.259 1.5758 2 2.26 1.54 1.3748 3.215 2.591 5 3.63 3.568 2.0967 7.366 3.7745 11.32 5h-.11c2.136.1384 4.281.0513 6.4-.26 2.123-.3087 4.217-.7937 6.26-1.45 2.046-.6452 4.033-1.4649 5.94-2.45.952-.4842 1.871-1.0321 2.75-1.64.438-.3049.856-.639 1.25-1 .189-.1708.366-.3546.53-.55.146-.1609.255-.3521.32-.56.009-.0293.009-.0607 0-.09-.04-.0447-.092-.0762-.15-.09-.22-.069-.45-.0994-.68-.09-.522.0189-1.04.0824-1.55.19-1.051.2294-2.089.5131-3.11.85-2.05.66-4.07 1.45-6.07 2.28s-4 1.7-6 2.6l-2.94 1.38c-.95.43-1.92.9-2.9 1.37z" fill="#cbebff"/><path d="m78.06 21.4001c-.09-3.82-.29-7.65-.76-11.44003-.2243-1.89612-.5819-3.77409-1.07-5.61999-.12-.46-.27-.91002-.43-1.36002-.1548-.44468-.3455-.87607-.57-1.28998-.2037-.41373-.4816-.786577-.82-1.100002-.1518-.141683-.3441-.232566-.55-.26001-.0956-.020243-.1943-.020243-.29 0-.0975.030452-.1889.077857-.27.140015-.1717.138931-.3203.304328-.44.48999-.1211.193807-.2248.397917-.31.609987-.1752.43308-.3091.88176-.4 1.34003-.1733.92647-.257 1.86748-.25 2.80999.0239 1.89735.2962 3.78337.81 5.61002 1.0182 3.6653 2.9009 7.0329 5.49 9.82v.05l6 13.57 6 13.58 5.94 13.6 5.92 13.61c3.94 9.0733 7.857 18.16 11.75 27.2599l2.91 6.82 1.45 3.42 1.45 3.41c1.92 4.56 3.86 9.12 5.76 13.68-2.06-4.5-4.07-9-6.1-13.53l-1.52-3.38-1.51-3.39-3-6.78c-4-9.0466-8-18.0999-12-27.1599l-5.85-13.55-5.95-13.65-5.88-13.63-5.84-13.64.05.08c-2.6257-2.8697-4.5194-6.3312-5.52-10.09-.5079-1.86754-.7635-3.79468-.76-5.73004.0008-.97106.1013-1.93946.3-2.88998.0959-.47995.2399-.94899.43-1.39999.0967-.23003.2138-.450923.35-.660008.1414-.21999.3209-.413017.53-.570008.1139-.077769.2385-.1384071.37-.17999218.1384-.02973152.2816-.02973152.42 0 .2652.04028198.5124.15864518.71.33999618.3704.33738.6696.745352.88 1.199982.2248.43108.4153.87915.57 1.34003.16.45.3.91997.42 1.37997.4681 1.86374.8023 3.75859 1 5.67001.22 1.90003.36 3.81003.44 5.72003s.13 3.84.14 5.75z" fill="#cbebff"/><path d="m79.1195 23.99c.7946-3.1926 1.7593-6.3404 2.89-9.43.5693-1.5543 1.2373-3.0708 2-4.54.3932-.7471.8587-1.45381 1.39-2.10996.2756-.35578.6146-.65754 1-.89002.1174-.06364.2415-.11394.37-.14999.1455-.0256.2944-.0256.44 0 .1528.02414.2972.086.42.17999.119.07898.221.181.3.30002.1344.20268.2357.42544.3.65997.0577.21692.1011.4374.13.66001.0397.42908.0397.86092 0 1.29001-.0451.84367-.1724 1.68097-.38 2.49997-.4045 1.6298-1.0126 3.2022-1.81 4.68-1.5752 2.9941-3.9275 5.5088-6.81 7.28l-.15.09h-.17c-3.7506-.7383-7.3209-2.2024-10.51-4.31-1.5917-1.0567-3.0578-2.2913-4.37-3.68-.6615-.7006-1.2573-1.4605-1.78-2.27-.2678-.4105-.4955-.8459-.68-1.3-.1021-.238-.1792-.486-.23-.74-.0609-.28-.0609-.5699 0-.85.034-.1673.1058-.3247.21-.46.1102-.1368.2505-.2463.41-.32.2762-.1092.5762-.1437.87-.1.4986.077.9835.2252 1.44.44.8677.4134 1.6975.902 2.48 1.46 1.5347 1.099 2.9976 2.2948 4.38 3.58 2.7594 2.5509 5.3798 5.2481 7.85 8.08-2.64-2.67-5.31-5.31-8.15-7.74-1.4027-1.2297-2.8823-2.3687-4.43-3.41-.7535-.5225-1.5535-.9744-2.39-1.35-.3948-.1859-.8168-.3074-1.25-.36-.1715-.0279-.3472-.0107-.51.05-.0567.0266-.1057.0672-.1424.1179-.0367.0508-.06.11-.0676.1721-.0334.1785-.0334.3616 0 .54.0531.2043.1199.4048.2.6.1797.4075.3938.7989.64 1.17.5084.7601 1.084 1.473 1.72 2.13 1.2834 1.3306 2.7162 2.5084 4.27 3.51 3.0934 2.0349 6.5551 3.4447 10.19 4.15l-.32.06c1.376-.8185 2.6285-1.8286 3.72-3 .5481-.5876 1.0591-1.2089 1.53-1.86.466-.6427.8967-1.3104 1.29-2 .7797-1.41 1.381-2.9115 1.79-4.47.2076-.7688.3415-1.5557.4-2.35.035-.38918.035-.78076 0-1.16998-.017-.18593-.0504-.36998-.1-.54999.0045-.19473-.0295-.38843-.1-.57-.0568-.09841-.1503-.17032-.26-.20002-.1363-.01319-.2732.01844-.39.09003-.3178.18389-.5991.42453-.83.70999-.5164.62152-.9718 1.29127-1.36 1.99997-.8078 1.4219-1.5291 2.8913-2.16 4.4-1.24 3-2.28 6.15-3.28 9.28z" fill="#cbebff"/><path d="m80.6704 28.2899c.59-.91 1.18-1.82 1.78-2.72s1.21-1.8 1.83-2.7c1.23-1.78 2.49-3.55 3.79-5.29s2.67-3.44 4.12-5.07c.7266-.8216 1.4978-1.6028 2.31-2.34.4208-.371.8725-.70554 1.35-.99998.2662-.16179.5565-.27996.86-.35001.2064-.04496.4221-.01666.61.08002.1099.05393.2057.13268.28.23001.0538.09161.0974.18884.13.28998.0484.16544.0687.33785.06.51001.0108.14977.0108.30017 0 .44997-.0523.2842-.1224.5647-.21.84-.1771.5295-.3875 1.0472-.63 1.55-.4741.9976-1.0188 1.96-1.63 2.88-1.1857 1.8327-2.5238 3.5621-4 5.17-1.4882 1.6151-3.1144 3.0974-4.86 4.43-1.747 1.3442-3.6307 2.5006-5.62 3.45h-.06c-2.0581.4213-4.138.7284-6.23.92-2.0938.1983-4.1981.2618-6.3.19-2.1139-.0715-4.2149-.3597-6.27-.86-1.035-.2498-2.0406-.6085-3-1.07-.501-.2307-.9713-.523-1.4-.87-.2321-.1808-.4345-.3967-.6-.64-.2092-.2692-.325-.5991-.33-.94.0012-.1856.0494-.368.14-.53.0778-.1513.1829-.2869.31-.4.2256-.2051.4865-.3677.77-.48.5134-.2014 1.0516-.3325 1.6-.39 1.0558-.1197 2.1205-.1398 3.18-.06 2.0922.1769 4.168.5112 6.21 1 2 .46 4.05 1 6.05 1.66 1 .31 2 .64 3 1s2 .71 2.93 1.08c-1-.32-2-.64-3-.94s-2-.61-3-.88c-2-.56-4-1.06-6.06-1.46-2.0277-.4184-4.0831-.6891-6.15-.81-1.0212-.0588-2.0457-.022-3.06.11-.488.058-.9658.1825-1.42.37-.2013.0858-.387.2041-.55.35-.0657.0507-.1188.1159-.1552.1905-.0365.0746-.0552.1565-.0548.2395.0133.1864.0831.3643.2.51.1366.1818.2982.3434.48.48.3903.2996.8129.5545 1.26.76.9214.4271 1.8827.7621 2.87 1 2.0055.4622 4.0526.7202 6.11.77 4.1361.1026 8.2702-.2732 12.32-1.12h-.1c1.9347-.9158 3.768-2.0319 5.47-3.33 3.4185-2.6074 6.3848-5.7595 8.78-9.33.5919-.8901 1.1295-1.8151 1.61-2.77.2364-.4687.4402-.9532.61-1.45.0886-.2402.1555-.4879.2-.74.0442-.2144.0442-.43557 0-.64998v-.07999c-.0585-.01909-.1215-.01909-.18 0-.2257.05258-.4416.1403-.64.25998-.4442.27209-.8656.57979-1.26.91999-.8089.7055-1.58 1.4532-2.31 2.24-1.47 1.58-2.85 3.25-4.2 4.94s-2.66 3.42-3.94 5.17c-.64.87-1.28 1.75-1.91 2.63s-1.46 1.72-2.09 2.6z" fill="#cbebff"/><path d="m184.4 199.76s55-5.53 53.07-34.75-40.86 11.63-40.86 11.63 40.56-37.36 21.67-50.88-30.82 47-30.82 47 12.93-50.44-4.37-48.7-4.21 75.65-4.21 75.65z" fill="#d6e9ff"/><path d="m184 125.76.23 2.21c.08.74.17 1.47.22 2.21l.16 2.22c0 .37.06.74.08 1.11v1.11l.11 2.22v.56.56 1.11l.06 2.22v2.23c0 5.93-.19 11.87-.54 17.79s-.83 11.84-1.38 17.74-1.19 11.81-1.84 17.7l-.82-.28c3.153-5.12 6.253-10.267 9.3-15.44.77-1.3 1.52-2.6 2.28-3.89s1.5-2.61 2.24-3.91c.37-.65.75-1.3 1.12-2l1.1-2 1.1-2 1.08-2 1.09-2 1.06-2 1.06-2 1-2 1-2 1-2c.34-.67.68-1.34 1-2l1-2 .49-1 .25-.5.24-.51 1-2c.65-1.36 1.25-2.74 1.87-4.1l.46-1 .44-1 .88-2.07.22-.52.21-.52.43-1 .84-2.09-.78 2.12-.39 1.05-.2.53-.2.53-.84 2.09-.42 1-.43 1c-.59 1.38-1.16 2.78-1.78 4.15l-.92 2.06-.22.52-.24.51-.47 1-1 2c-.32.68-.65 1.35-1 2l-1 2-1 2-1 2-1 2-1 2-1.06 2-1.06 2-1.08 2-1.09 2c-.36.66-.73 1.31-1.1 2-.74 1.31-1.47 2.62-2.22 3.92s-1.49 2.62-2.26 3.91c-3.034 5.2-6.124 10.363-9.27 15.49l-1 1.71.22-2c.666-5.893 1.296-11.787 1.89-17.68.593-5.893 1.103-11.793 1.53-17.7.41-5.91.71-11.83.79-17.75v-2.22-4.45l-.06-2.22v-1.11c0-.37 0-.74-.05-1.11l-.12-2.22c0-.74-.09-1.48-.15-2.22z" fill="#fff"/><path d="m232.119 164.28c-3.272 3.773-6.859 7.262-10.72 10.43l-1.46 1.17c-.48.39-1 .79-1.47 1.16l-1.49 1.12c-.5.38-1 .75-1.51 1.11l-1.53 1.07-.77.54c-.26.18-.52.34-.78.51l-1.56 1-.78.51c-.27.18-.53.34-.8.5l-1.59 1-.8.49-.8.47-1.62.94c-.54.31-1.08.63-1.63.92l-1.64.89c-.55.3-1.09.6-1.65.88-1.11.57-2.21 1.15-3.33 1.7-4.46 2.2-9 4.22-13.66 6 4.49-2.15 8.95-4.33 13.34-6.65.56-.28 1.1-.58 1.64-.88l1.64-.88c.55-.29 1.09-.6 1.63-.9l1.62-.92c.27-.15.54-.3.8-.46l.81-.47 1.6-.94c.27-.16.54-.31.8-.48l.79-.49 1.58-1 .79-.49.78-.5 1.56-1 .77-.51.77-.53 1.53-1c.52-.35 1-.71 1.52-1.08l1.5-1.09c.51-.35 1-.74 1.48-1.12l1.48-1.12c3.918-3.071 7.645-6.377 11.16-9.9z" fill="#fff"/><path d="m200.75 144.13c.2 1.35.33 2.71.44 4.07s.19 2.72.25 4.08.11 2.72.12 4.09 0 2.72-.07 4.09c-.19-1.35-.32-2.71-.43-4.07s-.19-2.72-.26-4.08-.1-2.72-.11-4.09-.01-2.73.06-4.09z" fill="#fff"/><path d="m207.15 131.63c.19 1.35.32 2.71.43 4.07s.2 2.72.26 4.08.1 2.72.11 4.08 0 2.73-.06 4.1c-.19-1.36-.33-2.71-.43-4.07s-.2-2.72-.26-4.08-.1-2.73-.12-4.09 0-2.73.07-4.09z" fill="#fff"/><path d="m195.65 153.14c.16 1.38.25 2.75.31 4.13s.12 2.76.14 4.14 0 2.75 0 4.13-.07 2.76-.19 4.14c-.15-1.38-.24-2.75-.31-4.13s-.11-2.76-.13-4.13 0-2.76 0-4.14.07-2.76.18-4.14z" fill="#fff"/><path d="m228.01 159.44c0 .93-.14 1.85-.26 2.76s-.27 1.82-.44 2.73-.36 1.8-.57 2.7-.46 1.79-.76 2.67c0-.93.14-1.85.26-2.76s.27-1.82.44-2.73.36-1.8.58-2.7.45-1.79.75-2.67z" fill="#fff"/><path d="m221.49 163.19c.1.93.13 1.86.15 2.79s0 1.85 0 2.77-.09 1.85-.18 2.77-.19 1.85-.35 2.77c-.1-.93-.13-1.86-.15-2.79s0-1.85 0-2.77.09-1.85.17-2.77.19-1.85.36-2.77z" fill="#fff"/><path d="m215.27 166.13c.08 1 .11 2 .11 3s0 2-.07 3-.12 2-.21 3-.21 2-.39 3c-.09-1-.11-2-.11-3s0-2 .07-3 .11-2 .21-3 .21-2 .39-3z" fill="#fff"/><path d="m207.97 170.11c.06 1.17.06 2.35 0 3.52s-.08 2.34-.15 3.51-.16 2.34-.28 3.5-.26 2.33-.46 3.49c-.06-1.17-.06-2.35 0-3.52s.08-2.34.15-3.51.16-2.34.28-3.5.26-2.33.46-3.49z" fill="#fff"/><path d="m200.569 175.71c.11 1 .15 1.93.18 2.89s0 1.92 0 2.88-.06 1.92-.13 2.88-.17 1.91-.33 2.87c-.11-1-.15-1.92-.18-2.89s0-1.92 0-2.88.07-1.92.14-2.87.15-1.88.32-2.88z" fill="#fff"/><path d="m178.4 136.71c.64 1 1.22 2.09 1.79 3.16s1.11 2.15 1.63 3.24 1 2.19 1.51 3.3.94 2.23 1.34 3.38c-.64-1-1.23-2.09-1.79-3.16s-1.11-2.15-1.64-3.24-1-2.19-1.5-3.3-.99-2.25-1.34-3.38z" fill="#fff"/><path d="m177.051 151.04c.69 1.09 1.32 2.21 1.92 3.33s1.2 2.27 1.77 3.42 1.11 2.3 1.63 3.47 1 2.34 1.48 3.55c-.69-1.09-1.32-2.2-1.92-3.33s-1.2-2.26-1.77-3.41-1.11-2.31-1.63-3.48-1.03-2.34-1.48-3.55z" fill="#fff"/><path d="m178.211 165.71c.505.606.979 1.236 1.42 1.89.43.65.85 1.31 1.25 2s.78 1.35 1.14 2.05c.372.695.705 1.409 1 2.14-.504-.604-.975-1.235-1.41-1.89-.44-.667-.86-1.333-1.26-2-.4-.67-.78-1.35-1.14-2.05s-.71-1.36-1-2.14z" fill="#fff"/><path d="m74.3998 200.97s-91.37-88.2-71.57997-115.69c19.78997-27.49 74.22997 84.36 74.22997 84.36s-73.90996-118.64-32.43-130.93c41.48-12.29 59.4802 138.53 51.2 149-8.28 10.47-21.42 13.26-21.42 13.26z" fill="#d6e9ff"/><path d="m3.9707 83.8801 2.57999 3.46 2.56001 3.47 5.14 6.94c3.4067 4.6669 6.8067 9.3099 10.2 13.9299 3.41 4.64 6.78 9.3 10.17 13.95l10.12 14 10.08 14c3.3333 4.667 6.6833 9.333 10.05 14l5 7 5 7 5 7.06 2.49 3.53 2.47 3.54-2.58-3.46-2.57-3.47-5.13-6.94-5.11-7-5.1-7c-3.4-4.667-6.7867-9.333-10.16-14l-10.12-14-10.09-14c-3.3333-4.667-6.6667-9.333-10-14s-6.6667-9.357-10-14.0699l-5-7.06-2.57-3.34z" fill="#fff"/><path d="m5.91992 115.53c2.31.64 4.59998 1.32 6.89998 2l3.44 1 3.43 1.06 3.42 1.07 3.43 1.09c2.28.74 4.56 1.46 6.83 2.22l-.58.38c.18-2 .35-4 .54-6.05l.29-3 .3-3c.1-1 .2-2 .31-3s.21-2 .32-3c.22-2 .45-4 .71-6-.08 2-.19 4.05-.3 6.07-.06 1-.12 2-.19 3s-.12 2-.19 3l-.21 3-.22 3c-.15 2-.32 4-.48 6v.56l-.53-.17c-2.29-.73-4.56-1.49-6.83-2.24-1.14-.37-2.27-.76-3.41-1.14l-3.4-1.15-3.39-1.17-3.4-1.18c-2.31-.71-4.54998-1.51-6.78998-2.35z" fill="#fff"/><path d="m33.1895 156.02c1.43-.69 2.87-1.35 4.31-2s2.9-1.31 4.35-1.94l2.18-1 2.19-.94c1.45-.63 2.92-1.23 4.38-1.85l-.27.34.19-1.32.2-1.33.4-2.66c.13-.88.28-1.77.41-2.65s.28-1.77.43-2.65l.44-2.65.47-2.65c.32-1.76.64-3.52 1-5.28-.15 1.79-.35 3.57-.55 5.35l-.3101 2.67-.3299 2.66c-.11.89-.23 1.78-.35 2.67s-.23 1.77-.36 2.66l-.38 2.66-.19 1.32-.19 1.33v.25l-.2301.1c-1.47.6-2.9299 1.21-4.4099 1.79l-2.21.88-2.21.87c-1.48.58-3 1.14-4.45 1.7s-3.01 1.15-4.51 1.67z" fill="#fff"/><path d="m50.5293 176.09c1.2-.66 2.42-1.3 3.64-1.93l1.84-.94 1.84-.92 1.85-.92 1.85-.9 1.86-.9 1.86-.88-.25.38c.05-1.68.13-3.36.2-5 0-.84.08-1.68.12-2.52l.14-2.51.15-2.52.18-2.52c.13-1.67.26-3.35.43-5 .05 1.69 0 3.37 0 5v2.52 2.52l-.06 2.52c0 .84 0 1.68-.07 2.52-.06 1.68-.12 3.36-.2 5v.27l-.24.11-1.87.87-1.87.85-1.88.85-1.89.83-1.89.82c-.63.27-1.26.55-1.9.81-1.29.56-2.56 1.08-3.84 1.59z" fill="#fff"/><path d="m43.8496 37.71 1.48 4.87 1.46 4.87 2.93 9.74c1.94 6.5 3.87 13.0033 5.79 19.51 1.92 6.5066 3.8334 13.0133 5.74 19.52l5.69 19.54 5.64 19.54c1.86 6.52 3.74 13 5.59 19.56l2.78 9.79 2.76 9.79 2.74 9.8 1.36 4.9 1.35 4.9-1.48-4.86-1.46-4.87-2.93-9.75-2.9-9.75-2.89-9.75c-1.93-6.5-3.82-13-5.74-19.52l-5.68-19.54-5.68-19.53c-1.8733-6.52-3.74-13.0434-5.6-19.57-1.86-6.5267-3.7067-13.05-5.54-19.57l-2.73-9.8-1.37-4.9z" fill="#fff"/><path d="m32.9395 70.2299c2.19 1.47 4.36 3 6.53 4.45l3.25 2.24 3.24 2.26c2.16 1.51 4.3199 3 6.4599 4.54l3.2301 2.28 3.21 2.29-.68.28.89-5.15.9099-5.15c.6-3.44 1.2401-6.87 1.8601-10.3l1-5.15c.31-1.71.65-3.42 1-5.14.67-3.42 1.33-6.85 2-10.26-.49 3.45-1 6.9-1.56 10.35-.28 1.72-.54 3.44-.82 5.16l-.85 5.17c-.58 3.44-1.14 6.88-1.74 10.32l-.8901 5.15-.9099 5.15-.1201.69-.5599-.41-3.24-2.29-3.19-2.32c-2.1267-1.5466-4.25-3.1033-6.37-4.67l-3.19-2.37-3.17-2.36c-2.1-1.5733-4.1967-3.16-6.29-4.76z" fill="#fff"/><path d="m47.2793 113.4c1.93 1.07 3.84 2.17 5.75 3.27l2.85 1.67 2.85 1.69 2.83 1.69 2.84 1.71 5.64 3.45h-.47c1.76-1.09 3.52-2.2 5.29-3.28s3.53-2.17 5.31-3.24 3.56-2.14 5.35-3.2 3.58-2.1 5.38-3.12c-1.7 1.18-3.43 2.34-5.16 3.49s-3.46 2.29-5.2 3.41-3.49 2.25-5.24 3.37-3.51 2.22-5.26 3.33l-.24.14-.23-.14-5.62-3.48-2.8-1.76c-.93-.59-1.87-1.17-2.79-1.77l-2.79-1.78-2.78-1.79c-1.84-1.21-3.69-2.42-5.51-3.66z" fill="#fff"/><path d="m95.8698 145.2c-1.31 1.31-2.64 2.58-4 3.85-.67.63-1.34 1.26-2 1.88s-1.35 1.25-2 1.87l-2.0499 1.85-2.0701 1.84-1 .92-1 .9-2.0899 1.82-.2301.2-.26-.15-2.92-1.68-2.91-1.71c-1-.58-1.93-1.15-2.89-1.74l-1.43-.89-1.43-.9 1.52.73 1.51.75c1 .5 2 1 3 1.53l3 1.57 3 1.6h-.48l2.07-1.84 1-.92 1-.91 2.09-1.81 2.1101-1.8 2.1099-1.78 2.13-1.77c1.32-1.12 2.75-2.28 4.22-3.41z" fill="#fff"/><path d="m159.769 81.2501-31.28-4.11-31.2896 4.11-32.4-4.64-1.69 127.9199 32.41 4.64 31.2796-4.12 31.28 4.12 32.63-4.64 1.69-127.9199z" fill="#ebf4ff" stroke="#003f7f" stroke-miterlimit="10" stroke-width=".64"/><path d="m158.98 84.65 28.3-3.69v121.16l-28.3 3.69z" fill="#fafdff"/><path d="m96.4199 84.88 31.2801-3.92v121.16l-31.2801 3.91z" fill="#fafdff"/><path d="m158.979 84.7701-31.28-3.69v121.1499l31.28 3.69z" fill="#fff"/><path d="m96.4191 84.88-28.3-3.92v121.16l28.3 3.91z" fill="#fff"/><g fill="#ebf4ff"><path d="m93.1091 84.4199-2.53 8.7-.59 2.05-6.24 21.4201-.37.85-1.82-.69-13.44-5.1v-2.28l14.16 5.38 8.9-30.5901z"/><path d="m122.35 81.6399-1.15.69-1.99 1.21-12.48 7.58-1.7 1.03-8.5004 5.17-.11-.04-6.43-2.11-.89-.29.54-2.07.94.31 5.73 1.88.11-.06 20.8404-12.67h.01l2.1-.26 1.1-.14z"/><path d="m152.991 84.0601-1.62 6.83-.55 2.3-9.01 37.6799-.5 2.09v.02l-6.68-2.61-2.32-.96-4.64-1.93-.58-.24-.94-1.49-21.12-33.5999-.48-.77 1.55-1.26.63 1 9.33 14.8399 1.25 2 11 17.48 11.69 4.7 6.04-25.23.54-2.25 4.49-18.8299z"/><path d="m187.271 111.82v2.34l-4.97-2.35-1.78-.84-22.05-10.4-7.65-7.3799-1.26-1.2 1.24-1.65.57.55 8.12 7.82z"/><path d="m168.911 171.5-1.85-.53 13.66-60.9 1.85.53z"/><path d="m158.87 139.83-18.53-7.22.61-2.04 18.14 7.07 16.49-1.74.18 2.14z"/><path d="m117.07 108.54-1.72-.95 9.4-21.7199 1.71.95z"/><path d="m140.389 191.14-.26 2.14-2.15-.32-10.66-1.61-30.9999-10.88-28.2 3.15v-2.18l19.08-2.12 2.51-.28 6.81-.76.18.06 17.7099 6.22 2 .7 11.32 3.97 12.24 1.85z"/><path d="m74.9091 137.07-6.79 15.71v-4.93l13.44-31.1.48-1.11 1.71.95-.37.85-7.56 17.51z"/><path d="m90.0291 179.38-1.32 1.56-1.51-1.62-19.08-20.5v-2.98l14.84 15.95 1.53 1.63 5.22 5.62z"/><path d="m96.5393 138.19-22.26-1.16.09-2.15 21.93 1.14 31.1197-10.71.56 2.06z"/><path d="m84.2905 174.08-1.81-.7 11.14-36.89 1.8.7z"/><path d="m187.269 147.39v2.17l-13.07-1.64-.83-.1.21-2.15 1.09.14z"/><path d="m148.92 183.57-16.76-54.65 1.81-.7 16.75 54.64z"/><path d="m115.42 186.51-1.42-1.44 13.09-16.6 15.15-9.41.92 1.89-14.86 9.23z"/><path d="m158.87 139.83-18.53-7.22.61-2.04 18.14 7.07 16.49-1.74.18 2.14z"/><path d="m140.389 191.14-.26 2.14-2.16-.32-10.65-1.61-12.27-4.31h-.01l-12.5-4.39-6.2199-2.18-28.2 3.15v-2.18l19.08-2.12 2.51-.28 6.8-.76.19.06 5.8399 2.06 11.87 4.16 2 .7.03.01 11.29 3.96 12.24 1.85z"/><path d="m143.16 160.95-.99.62-13.87 8.61-11.89 15.08-.99 1.25-1.42-1.43.41-.52 12.68-16.09 14.44-8.97.71-.44z"/><path d="m177.38 203.41-2.03.26-13.23-29.04-.37-.81 1.7-.99.52 1.14z"/><path d="m104.431 129.77 16.26-5.6-10.63-16.9-8.93 3.02z"/><path d="m163.52 132.46 9.28-.98 4.24-18.59-10-4.72z"/></g><path d="m187.271 106.44-20.89-9.36v-13.39l20.9-2.73z" fill="#00aaa5"/><path d="m98.8691 99.11 5.1999-3.15 4.66 7.43-8.3 2.85z" fill="#ebf4ff"/><path d="m132.83 171.85 8.48-5.26 4.54 14.81-6.07 5.71-6.95-1.05z" fill="#ebf4ff"/><path d="m132.301 85.5701v-3.97l16.84 2-3.27 13.72z" fill="#ebf4ff"/><path d="m71.2891 153.49 10.81 11.62 6.99-23.26-12.54-.65z" fill="#00aaa5"/><path d="m71.0996 106.8v-18.9101l15.28 2.21-5.9 20.2701z" fill="#ebf4ff"/><path d="m71.0996 85.5699 15.28 2.21 1.21-4.12-16.49-2.28z" fill="#00aaa5"/><path d="m99.6094 202.83v-17.72l11.1996 3.95v12.37z" fill="#ebf4ff"/><path d="m180.111 199.47-9.72-21.32 13.47-5.96v26.35z" fill="#ebf4ff"/><path d="m141.73 122.95-1.72 7.17z" fill="#ebf4ff"/><path d="m132.601 127.17-4.29-1.73-11-17.48-1.25-2-9.33-14.8399-.63-1-1.55 1.26.48.77 21.12 33.5999.94 1.49.58.24 4.64 1.93.07-.57z" fill="#ebf4ff"/><path d="m141.311 132.96.25-1.04-.25 1.06z" fill="#ebf4ff"/><path d="m151.069 83.8301-4.49 18.8299-.54 2.25-2.84 11.88 1.81.71-1.27 5.31 7.08-29.6199.55-2.3 1.62-6.83z" fill="#d96098"/><path d="m143.2 116.79-1.47 6.16z" fill="#00aaa5"/><path d="m140.01 130.12-7.4-2.96v.01h-.01l7.4 2.97z" fill="#00aaa5"/><path d="m141.561 131.92 2.18-9.11-1.93 8.06z" fill="#00aaa5"/><path d="m137.34 145.83 4.19 13.67h.01z" fill="#00aaa5"/><path d="m143.87 160.51-.71.44-.99.61v.01l6.75 22 1.8-.7z" fill="#d96098"/><path d="m132.31 129.41 2.31.96h.01l-.66-2.15-1.59.62-.22.08z" fill="#00aaa5"/><path d="m142.101 154.75-7.47-24.38z" fill="#00aaa5"/><path d="m143.87 160.51-1.77-5.76z" fill="#00aaa5"/><path d="m134.631 130.37 6.68 2.61z" fill="#00aaa5"/><path d="m132.311 129.41 5.03 16.42z" fill="#00aaa5"/><path d="m141.529 159.5-14.43 8.97-12.7 16.09-11.86-4.16v2.25l12.5 4.39h.01l1.39-1.77 11.86-15.09 13.87-8.61v-.01z" fill="#ebf4ff"/><path d="m142.171 161.56.99-.61.71-.44-1.77-5.76-7.47-24.38h-.01l-2.31-.96 5.03 16.42 4.2 13.67h-.01l.64 2.06v.01z" fill="#d96098"/><path d="m143.201 116.79-1.47 6.16-1.72 7.17-.01.02-7.4-2.97-.22 1.67-.07.57 2.31.96 6.69 2.61.25-1.06.25-1.05 1.93-8.06 1.27-5.31z" fill="#d96098"/><path d="m187.27 163.5v2.26l-23.3 8.21-1.85.66-2.68.94-28.71 27.02-2.66-.32 9.91-9.31 1.99-1.88 8.73-8.21 1.58-1.48 8.23-7.75 8.63-3.04 2.14-.76z" fill="#d96098"/><path d="m147.49 103.45-1.16 1.71-.29-.25-18.34-15.8799-.53-.46-1.15-.73-1.67-1.05-5.14-3.25-.46-.29.62-1.24 1.1-.14.73.46 6.5 4.11.57.37 18.31 15.8499z" fill="#d96098"/><path d="m172.859 63.89c0 21.43-22.51 44.65-28.62 50.56-.406.382-.942.594-1.5.594-.557 0-1.094-.212-1.5-.594-6.11-5.91-28.62-29.13-28.62-50.56 0-7.9936 3.176-15.6599 8.828-21.3122 5.652-5.6524 13.318-8.8278 21.312-8.8278s15.66 3.1754 21.312 8.8278c5.653 5.6523 8.828 13.3186 8.828 21.3122z" fill="#004ba5"/><path d="m166.77 63.8899c0 4.7566-1.411 9.4065-4.053 13.3615-2.643 3.955-6.399 7.0375-10.794 8.8578-4.394 1.8203-9.23 2.2966-13.895 1.3686s-8.951-3.2185-12.314-6.582c-3.363-3.3634-5.654-7.6487-6.582-12.314-.928-4.6652-.452-9.5009 1.369-13.8954 1.82-4.3946 4.902-8.1507 8.857-10.7933 3.955-2.6427 8.605-4.0532 13.362-4.0532 3.16-.0066 6.29.611 9.211 1.8173 2.921 1.2062 5.575 2.9775 7.81 5.2121 2.234 2.2345 4.005 4.8884 5.212 7.8092 1.206 2.9209 1.824 6.0512 1.817 9.2114z" fill="url(#a)"/><path d="m164.579 63.89c-.002 4.3231-1.285 8.5485-3.689 12.1421-2.403 3.5935-5.818 6.3938-9.812 8.0468-3.995 1.653-8.39 2.0845-12.629 1.2399-4.24-.8446-8.134-2.9274-11.191-5.985-3.056-3.0575-5.137-6.9526-5.979-11.1928-.843-4.2401-.409-8.6349 1.245-12.6287 1.655-3.9938 4.457-7.4073 8.052-9.8089 3.594-2.4016 7.82-3.6834 12.143-3.6834 2.872 0 5.715.5658 8.368 1.665s5.063 2.7103 7.093 4.7412c2.03 2.031 3.64 4.442 4.738 7.0953s1.663 5.497 1.661 8.3685z" fill="url(#b)"/><path d="m151.859 68.33v-1.6199c0-.8408-.334-1.6471-.928-2.2416-.595-.5945-1.401-.9285-2.242-.9285h-4c-.265 0-.519.1054-.707.2929-.187.1876-.293.4419-.293.7071v3.4201c0 .2652.106.5195.293.707.188.1876.442.293.707.293h3.6c.079.0013.157-.013.229-.0421.073-.029.139-.0722.195-.1272.056-.0549.1-.1204.131-.1926.03-.0723.045-.1498.045-.2281v-.7901c.003-.0791-.01-.158-.039-.2319-.028-.0739-.071-.1413-.126-.1982-.055-.057-.121-.1022-.194-.1331s-.151-.0468-.231-.0467h-2.63v-1.4601h4.07c.019 0 .037.0074.05.0205.013.0132.02.031.02.0495v2.7301c0 .1574.062.3085.173.4207.11.1123.26.1766.417.1793h.81c.082.0083.164-.0004.242-.0257s.15-.0665.211-.1211c.061-.0545.111-.1212.145-.1958.033-.0746.051-.1555.052-.2375z" fill="#0049aa"/><path d="m159.209 68.93h-2.5c-.841 0-1.647-.334-2.241-.9285-.595-.5944-.929-1.4008-.929-2.2415v-6c0-.0783.016-.1559.046-.2281.03-.0723.075-.1377.13-.1926.056-.055.122-.0982.195-.1273.073-.029.151-.0433.229-.042h.81c.078-.0013.156.013.229.042.073.0291.139.0723.195.1273.056.0549.1.1203.13.1926.03.0722.046.1498.046.2281v7.08c0 .0196.007.0386.02.0533.013.0148.031.0243.05.0267h3.59c.078-.0013.156.013.229.042.073.0291.139.0723.195.1273.056.0549.1.1203.13.1926.03.0722.046.1498.046.2281v.82c.001.0792-.013.1578-.043.2312s-.074.1401-.13.1961-.122.1001-.196.1298c-.073.0297-.152.0443-.231.0429z" fill="#0049aa"/><path d="m134.5 59.3401h-1.92c-.417-.0013-.83.0797-1.216.2384-.386.1588-.736.392-1.032.6865-.295.2945-.529.6444-.689 1.0297-.16.3852-.243.7983-.243 1.2154v5.86c0 .1591.064.3117.176.4243.113.1125.265.1757.424.1757h.81c.16 0 .312-.0632.425-.1757.112-.1126.175-.2652.175-.4243v-7c0-.0196.007-.0386.02-.0533.013-.0148.031-.0243.05-.0267h3c.079.0013.157-.013.229-.042.073-.0291.139-.0723.195-.1272.056-.055.1-.1205.131-.1927.03-.0722.045-.1498.045-.2281v-.82c-.012-.1459-.078-.2821-.185-.3819-.108-.0998-.248-.1561-.395-.1581z" fill="#0049aa"/><path d="m126.231 59.3401h2.43c.265 0 .519.1053.707.2929.188.1875.293.4419.293.7071s-.105.5196-.293.7071-.442.2929-.707.2929h-2.43c-.079 0-.157-.0155-.23-.0457-.073-.0301-.139-.0743-.194-.13-.056-.0558-.1-.1219-.13-.1947-.031-.0728-.046-.1508-.046-.2296v-.79c0-.1591.063-.3118.176-.4243.112-.1125.265-.1757.424-.1757z" fill="#0049aa"/><path d="m142.57 68.33v-1.6199c0-.8408-.334-1.6471-.928-2.2416-.595-.5945-1.401-.9285-2.242-.9285h-4c-.265 0-.519.1054-.707.2929-.187.1876-.293.4419-.293.7071v3.4201c0 .2652.106.5195.293.707.188.1876.442.293.707.293h3.61c.158 0 .309-.0619.421-.1722.112-.1104.177-.2605.179-.4178v-.7901c.002-.0796-.013-.1587-.042-.2326-.03-.074-.074-.1413-.13-.1981s-.122-.1019-.196-.1326c-.073-.0308-.152-.0466-.232-.0466h-2.61v-1.4601h4.08c.019 0 .037.0074.05.0205.013.0132.02.031.02.0495v2.7301c0 .1574.062.3085.173.4207.11.1123.26.1766.417.1793h.81c.079.0026.158-.0103.232-.038.073-.0277.141-.0697.199-.1235.057-.0539.104-.1186.136-.1904.033-.0718.051-.1493.053-.2282z" fill="#0049aa"/></g></svg>