<svg width="201" height="236" viewBox="0 0 201 236" fill="none" xmlns="http://www.w3.org/2000/svg">
<g clip-path="url(#clip0_787_6494)">
<path d="M105.43 205.51C89.6096 205.36 7.76967 221.91 1.09967 143.45C-5.57033 64.9901 63.5597 64.5501 85.9197 70.9001C108.28 77.2501 117.57 40.9001 138.74 38.2401C159.91 35.5801 188.11 53.6101 198.46 99.8601C208.81 146.11 183.12 190.73 168.72 199.01C154.32 207.29 105.43 205.51 105.43 205.51Z" fill="#EBF4FF"/>
<path d="M157.45 77.45C159.563 74.2578 161.512 70.9602 163.29 67.57C164.173 65.8782 164.938 64.1274 165.58 62.33C165.73 61.88 165.87 61.4299 165.99 60.9699C166.111 60.5138 166.198 60.0491 166.25 59.58C166.316 59.1269 166.295 58.6654 166.19 58.2199C166.149 58.0128 166.044 57.8238 165.89 57.68C165.812 57.618 165.724 57.5705 165.63 57.54C165.53 57.5249 165.429 57.5249 165.33 57.54C165.112 57.5542 164.898 57.6084 164.7 57.7C164.488 57.7889 164.284 57.896 164.09 58.02C163.705 58.2854 163.344 58.5832 163.01 58.9099C162.338 59.574 161.735 60.3044 161.21 61.09C160.159 62.6656 159.321 64.3738 158.72 66.17C157.497 69.7699 157.154 73.6103 157.72 77.37V77.4699L155.02 92.06L152.28 106.65L149.51 121.23L146.71 135.8C144.83 145.52 142.93 155.233 141.01 164.94L139.56 172.21L138.83 175.85L138.09 179.49C137.09 184.34 136.09 189.19 135.09 194.03C135.94 189.15 136.83 184.29 137.7 179.42L138.35 175.77L139.02 172.12L140.36 164.82C142.16 155.087 143.98 145.36 145.82 135.64L148.59 121.06L151.4 106.49L154.24 91.92L157.12 77.36V77.46C156.579 73.6104 156.97 69.687 158.26 66.02C158.901 64.1933 159.778 62.4585 160.87 60.86C161.419 60.0574 162.049 59.3135 162.75 58.64C163.102 58.2988 163.487 57.994 163.9 57.73C164.109 57.5935 164.33 57.4764 164.56 57.38C164.798 57.2812 165.052 57.2238 165.31 57.21C165.449 57.2095 165.587 57.2297 165.72 57.27C165.855 57.3161 165.981 57.3874 166.09 57.48C166.286 57.6654 166.422 57.9059 166.48 58.17C166.58 58.6616 166.58 59.1683 166.48 59.66C166.421 60.1395 166.328 60.6141 166.2 61.08C166.07 61.55 165.92 62.01 165.76 62.46C165.091 64.259 164.299 66.0098 163.39 67.7C162.49 69.3866 161.533 71.0533 160.52 72.7C159.57 74.26 158.52 75.86 157.45 77.45Z" fill="#CBEBFF"/>
<path d="M156.861 80.18C159.327 77.9988 161.904 75.9461 164.581 74.03C165.926 73.0704 167.333 72.1986 168.791 71.42C169.531 71.0073 170.312 70.6722 171.121 70.42C171.549 70.2801 172.001 70.2224 172.451 70.25C172.581 70.2608 172.709 70.2912 172.831 70.34C172.973 70.3872 173.103 70.4658 173.211 70.57C173.322 70.6757 173.408 70.8058 173.461 70.95C173.507 71.0851 173.531 71.2271 173.531 71.37C173.533 71.6152 173.493 71.8589 173.411 72.09C173.342 72.3006 173.255 72.5048 173.151 72.7C172.943 73.0816 172.706 73.4461 172.441 73.79C171.927 74.463 171.348 75.0828 170.711 75.64C169.456 76.7522 168.068 77.706 166.581 78.48C163.591 80.0632 160.229 80.8095 156.851 80.64H156.671L156.551 80.51C153.869 77.788 151.752 74.5629 150.321 71.02C149.602 69.2511 149.089 67.4057 148.791 65.52C148.634 64.5684 148.567 63.6041 148.591 62.64C148.607 62.1489 148.667 61.6603 148.771 61.18C148.82 60.9288 148.897 60.6839 149.001 60.45C149.1 60.1796 149.257 59.934 149.461 59.73C149.589 59.6161 149.739 59.5278 149.901 59.47C150.072 59.4303 150.25 59.4303 150.421 59.47C150.71 59.5407 150.978 59.6815 151.201 59.88C151.568 60.2276 151.884 60.6248 152.141 61.06C152.623 61.8879 153.028 62.7582 153.351 63.66C154.001 65.4335 154.535 67.2474 154.951 69.09C155.785 72.7532 156.423 76.4585 156.861 80.19C156.201 76.5 155.481 72.81 154.511 69.19C154.041 67.3835 153.464 65.607 152.781 63.87C152.449 63.0169 152.044 62.1938 151.571 61.41C151.346 61.0369 151.066 60.6998 150.741 60.41C150.615 60.2888 150.46 60.2026 150.291 60.16C150.23 60.1511 150.168 60.1574 150.111 60.1783C150.053 60.1993 150.001 60.2342 149.961 60.28C149.836 60.4156 149.74 60.5756 149.681 60.75C149.603 60.9476 149.543 61.1518 149.501 61.36C149.422 61.7991 149.378 62.2439 149.371 62.69C149.361 63.6043 149.432 64.5178 149.581 65.42C149.895 67.2386 150.411 69.0163 151.121 70.72C152.533 74.1429 154.594 77.2602 157.191 79.9L156.901 79.77C158.501 79.8656 160.107 79.7342 161.671 79.38C162.454 79.2056 163.226 78.9819 163.981 78.71C164.734 78.4327 165.471 78.1156 166.191 77.76C167.63 77.0366 168.974 76.1363 170.191 75.08C170.789 74.5553 171.344 73.9835 171.851 73.37C172.094 73.0545 172.311 72.7201 172.501 72.37C172.594 72.2079 172.671 72.0371 172.731 71.86C172.795 71.7047 172.829 71.5383 172.831 71.37C172.84 71.3141 172.836 71.2566 172.819 71.2026C172.802 71.1486 172.771 71.0997 172.731 71.06C172.63 70.9732 172.504 70.9206 172.371 70.91C172 70.8876 171.628 70.9282 171.271 71.03C170.501 71.2475 169.754 71.5388 169.041 71.9C167.582 72.6324 166.169 73.4539 164.811 74.36C162.081 76.18 159.451 78.16 156.861 80.18Z" fill="#CBEBFF"/>
<path d="M155.711 84.6101C156.711 84.1901 157.711 83.7701 158.711 83.3701L161.711 82.1701C163.711 81.3901 165.781 80.6401 167.831 79.9501C169.881 79.2601 171.971 78.6101 174.091 78.0901C175.154 77.8172 176.232 77.6101 177.321 77.4701C177.88 77.3929 178.446 77.3661 179.011 77.3901C179.323 77.4079 179.63 77.4755 179.921 77.5901C180.113 77.6749 180.274 77.8184 180.381 78.0001C180.44 78.1073 180.47 78.2277 180.471 78.3501C180.487 78.4528 180.487 78.5574 180.471 78.6601C180.415 78.822 180.334 78.974 180.231 79.1101C180.145 79.2351 180.047 79.3522 179.941 79.4601C179.736 79.6669 179.519 79.8606 179.291 80.0401C178.845 80.372 178.381 80.6791 177.901 80.9601C176.933 81.5097 175.931 81.9973 174.901 82.4201C172.873 83.2592 170.779 83.9282 168.641 84.4201C166.501 84.911 164.323 85.2188 162.131 85.3401C159.932 85.4601 157.727 85.3495 155.551 85.0101H155.491C153.557 84.1892 151.668 83.2679 149.831 82.2501C147.991 81.2313 146.22 80.0922 144.531 78.8401C142.824 77.59 141.252 76.1657 139.841 74.5901C139.121 73.7992 138.488 72.9344 137.951 72.0101C137.668 71.5363 137.447 71.029 137.291 70.5001C137.201 70.2185 137.154 69.9254 137.151 69.6301C137.125 69.2772 137.217 68.9258 137.411 68.6301C137.517 68.4797 137.658 68.3564 137.821 68.2701C137.974 68.1899 138.14 68.1359 138.311 68.1101C138.608 68.0593 138.913 68.0593 139.211 68.1101C139.747 68.2369 140.264 68.4318 140.751 68.6901C141.692 69.1898 142.583 69.7792 143.411 70.4501C145.042 71.7715 146.573 73.2121 147.991 74.7601C149.411 76.2901 150.751 77.9001 151.991 79.5401C152.657 80.3601 153.287 81.1901 153.881 82.0301C154.501 82.8701 155.101 83.7201 155.691 84.5801C155.057 83.7467 154.417 82.9267 153.771 82.1201C153.121 81.3001 152.461 80.4901 151.771 79.7001C150.431 78.1001 149.051 76.5501 147.591 75.0701C146.157 73.5758 144.613 72.1919 142.971 70.9301C142.165 70.3023 141.301 69.7531 140.391 69.2901C139.952 69.0636 139.484 68.8987 139.001 68.8001C138.785 68.7658 138.566 68.7658 138.351 68.8001C138.267 68.8061 138.186 68.8308 138.113 68.8724C138.041 68.9139 137.978 68.9712 137.931 69.0401C137.842 69.2023 137.801 69.3857 137.811 69.5701C137.827 69.7978 137.87 70.0228 137.941 70.2401C138.096 70.7069 138.301 71.1561 138.551 71.5801C139.074 72.4492 139.684 73.2633 140.371 74.0101C141.765 75.5227 143.31 76.8897 144.981 78.0901C148.337 80.4995 151.962 82.5128 155.781 84.0901H155.671C157.786 84.425 159.932 84.5356 162.071 84.4201C164.21 84.3119 166.338 84.0276 168.431 83.5701C170.531 83.118 172.589 82.4857 174.581 81.6801C175.575 81.2845 176.544 80.8269 177.481 80.3101C177.939 80.0561 178.38 79.7722 178.801 79.4601C179.007 79.3093 179.201 79.1421 179.381 78.9601C179.541 78.8139 179.67 78.6371 179.761 78.4401C179.763 78.4101 179.763 78.38 179.761 78.3501C179.728 78.2959 179.679 78.2538 179.621 78.2301C179.406 78.1489 179.18 78.1017 178.951 78.0901C178.428 78.0454 177.903 78.0454 177.381 78.0901C176.381 78.2101 175.271 78.4101 174.211 78.6401C172.111 79.1101 170.031 79.7101 167.961 80.3401C165.891 80.9701 163.831 81.6701 161.781 82.3401L158.721 83.4401L155.711 84.6101Z" fill="#CBEBFF"/>
<path d="M66.6102 209.39C66.6102 209.39 -18.1598 114.83 3.61016 88.8399C25.3802 62.8499 71.5102 178.39 71.5102 178.39C71.5102 178.39 6.36018 54.7299 48.6302 45.4599C90.9002 36.1899 97.9902 187.9 88.9902 197.76C79.9902 207.62 66.6102 209.39 66.6102 209.39Z" fill="#D6E9FF"/>
<path d="M4.82031 87.5601L7.14032 91.2L9.45032 94.8401L14.0703 102.14C17.137 107.013 20.197 111.887 23.2503 116.76C26.2503 121.64 29.3303 126.53 32.3803 131.42L41.4603 146.1L50.4603 160.81C53.4603 165.72 56.4603 170.62 59.4603 175.54L63.9503 182.92L68.4203 190.3L72.8703 197.7L75.0903 201.4L77.3003 205.11L74.9703 201.47L72.6603 197.83L68.0403 190.53L63.4503 183.22L58.8703 175.91C55.8103 171.03 52.7803 166.14 49.7403 161.25L40.6503 146.57L31.6503 131.86C28.6503 126.95 25.6503 122.05 22.6503 117.13C19.6503 112.21 16.6503 107.29 13.7003 102.37L9.25031 94.97L7.03027 91.2701L4.82031 87.5601Z" fill="white"/>
<path d="M4.48047 119.27C6.74047 120.07 8.98046 120.92 11.2205 121.77L14.5705 123.05L17.9205 124.36C19.0405 124.79 20.1505 125.24 21.2605 125.68C22.3705 126.12 23.4905 126.56 24.5905 127.01C26.8105 127.91 29.0405 128.8 31.2505 129.71L30.6505 130.05C30.9705 128.05 31.2805 126.05 31.6505 124.05L32.1505 121.05L32.6705 118.05C32.8405 117.05 33.0105 116.05 33.2005 115.05C33.3905 114.05 33.5505 113.05 33.7405 112.05C34.1105 110.05 34.4805 108.05 34.8805 106.05C34.6605 108.05 34.4005 110.05 34.1405 112.05C34.0105 113.05 33.8705 114.05 33.7405 115.05C33.6105 116.05 33.4705 117.05 33.3205 118.05L32.9005 121.05L32.4604 124.05C32.1704 126.05 31.8505 128.05 31.5505 130.05L31.4604 130.6L30.9405 130.39C28.7205 129.5 26.5105 128.58 24.3005 127.67C23.1905 127.22 22.0905 126.75 20.9805 126.29C19.8705 125.83 18.7705 125.37 17.6705 124.89L14.3705 123.49L11.0705 122.06C8.8505 121.23 6.66047 120.27 4.48047 119.27Z" fill="white"/>
<path d="M28.7598 161.62C30.2398 161.04 31.7231 160.477 33.2097 159.93C34.6997 159.38 36.2097 158.83 37.6797 158.31L39.9297 157.51L42.1697 156.74C43.6697 156.21 45.1697 155.74 46.6797 155.21L46.3798 155.53L46.6697 154.22L46.9597 152.91L47.5497 150.29C47.7497 149.42 47.9597 148.55 48.1597 147.67C48.3597 146.79 48.5597 145.93 48.7797 145.06L49.4097 142.45L50.0698 139.85C50.5098 138.11 50.9598 136.38 51.4498 134.65C51.1598 136.42 50.8398 138.18 50.5098 139.95L50.0098 142.58L49.4897 145.22L48.9498 147.85C48.7598 148.72 48.5897 149.6 48.3997 150.48L47.8298 153.1L47.5397 154.41L47.2498 155.72L47.1898 155.97L46.9597 156.05C45.4497 156.54 43.9597 157.05 42.4297 157.52L40.1697 158.24L37.8898 158.94C36.3798 159.42 34.8897 159.87 33.3397 160.32C31.7897 160.77 30.2898 161.21 28.7598 161.62Z" fill="white"/>
<path d="M44.5996 182.89C45.8596 182.32 47.1196 181.77 48.3796 181.23C49.0096 180.95 49.6496 180.69 50.2796 180.43L52.1796 179.63L54.0896 178.85L56.0096 178.09L57.9196 177.33L59.8396 176.58L59.5596 176.94C59.7296 175.27 59.9296 173.6 60.1296 171.94C60.2196 171.11 60.3296 170.27 60.4296 169.44L60.7496 166.94L61.0896 164.44L61.4396 161.94C61.6896 160.28 61.9396 158.62 62.2396 156.94C62.1596 158.62 62.0396 160.3 61.9096 161.94L61.7096 164.45L61.4896 166.96L61.2396 169.47C61.1596 170.31 61.0796 171.14 60.9896 171.98C60.8096 173.65 60.6396 175.32 60.4296 176.98V177.25L60.1896 177.34L58.2596 178.07L56.3196 178.78L54.3896 179.49L52.4496 180.19L50.4996 180.87L48.4996 181.54C47.2196 182.04 45.9196 182.48 44.5996 182.89Z" fill="white"/>
<path d="M47.9199 44.3899L49.0499 49.3899L50.1599 54.3899L52.3799 64.3199C53.8399 70.9399 55.2966 77.5632 56.7499 84.1899C58.1999 90.8099 59.6199 97.4399 61.0599 104.07L65.3199 123.97L69.5399 143.87C70.9333 150.537 72.3232 157.173 73.7099 163.78L75.77 173.78L77.8199 183.78L79.8199 193.78L80.8199 198.78L81.8199 203.78L80.7 198.78L79.5899 193.78L77.3699 183.85L75.1799 173.92L72.9999 163.98C71.5499 157.36 70.1299 150.72 68.6899 144.1L64.4299 124.2L60.2099 104.3C58.8166 97.6332 57.4266 90.9932 56.0399 84.3799C54.6533 77.7665 53.3033 71.1032 51.9899 64.3899L49.9899 54.3899L48.9899 49.3899L47.9199 44.3899Z" fill="white"/>
<path d="M34.6992 76.0399C36.7692 77.6599 38.8392 79.2999 40.8892 80.9399L43.9892 83.3899L47.0592 85.8699C49.0592 87.5399 51.1492 89.1899 53.1792 90.8699L56.2292 93.3799L59.2292 95.8899L58.5292 96.1199L59.7892 91.0499L61.0692 85.9699C61.9192 82.5899 62.7992 79.2099 63.6692 75.8399L64.9892 70.7799C65.4292 69.0899 65.8892 67.3999 66.3392 65.7199C67.2492 62.3499 68.1592 58.9799 69.1092 55.6299C68.3792 59.0399 67.5892 62.4399 66.8092 65.8399C66.4092 67.5299 66.0192 69.2299 65.6092 70.9299L64.3992 76.0199C63.5692 79.4099 62.7592 82.7999 61.9192 86.1799L60.6592 91.2599L59.3992 96.3899L59.2292 97.0599L58.6892 96.6099L55.6892 94.0799L52.6892 91.5299L46.6892 86.4099L43.6892 83.8399L40.6892 81.2599C38.6692 79.5266 36.6726 77.7866 34.6992 76.0399Z" fill="white"/>
<path d="M45.8906 120.13C47.7406 121.33 49.5606 122.57 51.3906 123.81L54.1106 125.68L56.8306 127.57L59.5306 129.46L62.2406 131.37L67.6106 135.22H67.1406L72.6606 132.33C74.5006 131.38 76.3406 130.42 78.1906 129.48L83.7506 126.68C85.6106 125.76 87.4706 124.84 89.3506 123.96C87.5639 125.013 85.764 126.047 83.9506 127.06C82.1373 128.073 80.324 129.073 78.5106 130.06C76.7006 131.06 74.8706 132.06 73.0506 133.06L67.5606 136L67.3206 136.13L67.0906 135.97L61.7406 132.09L59.0706 130.14L56.4106 128.14L53.7606 126.14L51.1206 124.14C49.3706 122.83 47.6206 121.5 45.8906 120.13Z" fill="white"/>
<path d="M92.0609 155.39C90.6609 156.6 89.2308 157.78 87.8008 158.94C87.0808 159.52 86.3709 160.1 85.6409 160.67C84.9109 161.24 84.2008 161.83 83.4708 162.39L81.2908 164.09L79.0908 165.77L77.9908 166.61L76.8909 167.44L74.6708 169.1L74.4308 169.28L74.1808 169.12L71.3909 167.23L68.6108 165.32L65.8508 163.37L64.4908 162.37L63.1309 161.37C63.6209 161.64 64.1308 161.93 64.5908 162.21L66.0508 163.07L68.9308 164.81L71.8008 166.59L74.6508 168.4H74.1608L76.3508 166.72L77.4509 165.88L78.5609 165.05L80.7709 163.39L83.0009 161.75C83.7409 161.2 84.4908 160.66 85.2408 160.12L87.4908 158.51C88.9908 157.39 90.5209 156.39 92.0609 155.39Z" fill="white"/>
<path d="M129.559 214.15C129.559 214.15 184.559 208.62 182.619 179.4C180.679 150.18 141.769 191.03 141.769 191.03C141.769 191.03 182.329 153.67 163.429 140.15C144.529 126.63 132.609 187.15 132.609 187.15C132.609 187.15 145.549 136.7 128.249 138.45C110.949 140.2 124.009 214.18 124.009 214.18L129.559 214.15Z" fill="#D6E9FF"/>
<path d="M129.119 140.15L129.359 142.36C129.429 143.1 129.529 143.84 129.569 144.58L129.739 146.79C129.739 147.16 129.799 147.53 129.819 147.9L129.869 149.02L129.979 151.24V151.79V152.35V153.46L130.039 155.69V157.91C130.039 163.85 129.859 169.78 129.509 175.7C129.159 181.62 128.679 187.54 128.129 193.45C127.579 199.36 126.939 205.25 126.289 211.15L125.469 210.86C128.609 205.74 131.709 200.593 134.769 195.42C135.539 194.13 136.289 192.83 137.039 191.53C137.789 190.23 138.549 188.93 139.289 187.62C139.659 186.97 140.039 186.32 140.409 185.62L141.509 183.62L142.609 181.62L143.689 179.62L144.769 177.62L145.839 175.62L146.899 173.62L147.899 171.62L148.899 169.62L149.899 167.62C150.239 166.95 150.579 166.28 150.899 165.62L151.899 163.62L152.399 162.62L152.649 162.11L152.889 161.6L153.889 159.6C154.539 158.25 155.129 156.87 155.749 155.5L156.209 154.5L156.649 153.5L157.539 151.43L157.759 150.91L157.969 150.39L158.399 149.39L159.239 147.3L158.459 149.42L158.069 150.48L157.869 151.01L157.659 151.53L156.829 153.63L156.409 154.63L155.969 155.63C155.379 157.02 154.819 158.41 154.199 159.78L153.279 161.84L153.049 162.36L152.819 162.87L152.339 163.87L151.339 165.87C151.019 166.55 150.689 167.23 150.339 167.87L149.339 169.87L148.339 171.87L147.339 173.87L146.339 175.87L145.339 177.87L144.279 179.87L143.219 181.87L142.139 183.87L141.049 185.87C140.689 186.53 140.309 187.18 139.949 187.87C139.209 189.18 138.479 190.49 137.719 191.8C136.959 193.11 136.229 194.41 135.469 195.71C132.443 200.91 129.353 206.07 126.199 211.19L125.199 212.91L125.419 210.91C126.086 205.023 126.716 199.13 127.309 193.23C127.903 187.33 128.413 181.427 128.839 175.52C129.249 169.61 129.549 163.69 129.629 157.77V155.55V151.66V151.11V148.89V147.77C129.629 147.4 129.629 147.03 129.569 146.67L129.459 144.45C129.459 143.7 129.369 142.97 129.309 142.23L129.119 140.15Z" fill="white"/>
<path d="M177.24 178.68C173.975 182.445 170.396 185.924 166.54 189.08L165.08 190.26C164.6 190.65 164.08 191.04 163.61 191.41L162.11 192.53C161.62 192.91 161.11 193.29 160.61 193.64L159.07 194.71L158.31 195.25L157.53 195.77L155.96 196.77L155.18 197.29L154.39 197.78L152.8 198.78L152 199.27C151.74 199.44 151.46 199.59 151.19 199.74L149.58 200.68C149.04 201 148.5 201.31 147.95 201.6L146.31 202.5C145.76 202.79 145.22 203.1 144.66 203.38C143.55 203.95 142.45 204.53 141.33 205.07C136.857 207.283 132.303 209.283 127.67 211.07C132.16 208.92 136.67 206.73 141.01 204.42C141.56 204.14 142.11 203.83 142.65 203.54L144.29 202.65C144.84 202.37 145.38 202.06 145.92 201.75L147.53 200.84L148.34 200.38L149.14 199.9L150.75 198.96L151.55 198.49L152.34 198L153.92 197L154.71 196.51L155.48 196L157.04 195C157.3 194.83 157.57 194.67 157.82 194.49L158.59 193.96L160.12 192.91C160.63 192.57 161.12 192.2 161.63 191.84L163.14 190.75C163.65 190.39 164.14 190 164.62 189.63L166.1 188.5C170.013 185.46 173.733 182.181 177.24 178.68Z" fill="white"/>
<path d="M145.879 158.52C146.069 159.88 146.199 161.23 146.309 162.59C146.419 163.95 146.509 165.31 146.569 166.67C146.629 168.03 146.669 169.4 146.689 170.76C146.709 172.12 146.689 173.49 146.619 174.85C146.429 173.5 146.299 172.14 146.189 170.78C146.079 169.42 145.989 168.06 145.929 166.7C145.869 165.34 145.829 163.98 145.819 162.62C145.809 161.26 145.809 159.89 145.879 158.52Z" fill="white"/>
<path d="M152.28 146.02C152.47 147.37 152.6 148.73 152.71 150.09C152.82 151.45 152.9 152.81 152.97 154.17C153.04 155.53 153.07 156.89 153.08 158.26C153.09 159.63 153.08 160.98 153.02 162.35C152.82 161 152.69 159.64 152.58 158.28C152.47 156.92 152.39 155.56 152.33 154.2C152.27 152.84 152.22 151.48 152.21 150.11C152.2 148.74 152.21 147.39 152.28 146.02Z" fill="white"/>
<path d="M140.781 167.53C140.931 168.91 141.021 170.29 141.091 171.67C141.161 173.05 141.201 174.42 141.231 175.8C141.261 177.18 141.231 178.56 141.231 179.93C141.231 181.3 141.151 182.69 141.041 184.07C140.891 182.7 140.801 181.32 140.731 179.94C140.661 178.56 140.621 177.19 140.601 175.81C140.581 174.43 140.601 173.05 140.601 171.67C140.601 170.29 140.671 168.92 140.781 167.53Z" fill="white"/>
<path d="M173.139 173.83C173.139 174.76 172.999 175.68 172.879 176.59C172.759 177.5 172.609 178.42 172.439 179.32C172.269 180.22 172.079 181.13 171.869 182.02C171.659 182.91 171.409 183.81 171.109 184.69C171.109 183.76 171.249 182.85 171.369 181.93C171.489 181.01 171.639 180.11 171.809 179.2C171.979 178.29 172.169 177.4 172.389 176.5C172.609 175.6 172.839 174.71 173.139 173.83Z" fill="white"/>
<path d="M166.621 177.59C166.721 178.52 166.751 179.44 166.761 180.37C166.771 181.3 166.761 182.22 166.761 183.15C166.761 184.08 166.661 184.99 166.581 185.92C166.501 186.85 166.391 187.76 166.221 188.68C166.131 187.75 166.091 186.82 166.081 185.9C166.071 184.98 166.081 184.05 166.081 183.12C166.081 182.19 166.171 181.27 166.251 180.35C166.331 179.43 166.451 178.51 166.621 177.59Z" fill="white"/>
<path d="M160.401 180.52C160.481 181.52 160.51 182.52 160.51 183.52C160.51 184.52 160.51 185.52 160.44 186.52C160.37 187.52 160.32 188.52 160.22 189.52C160.12 190.52 160.01 191.52 159.83 192.52C159.75 191.52 159.73 190.52 159.73 189.52C159.73 188.52 159.731 187.52 159.801 186.52C159.871 185.52 159.91 184.52 160.01 183.52C160.11 182.52 160.221 181.53 160.401 180.52Z" fill="white"/>
<path d="M153.101 184.5C153.161 185.68 153.161 186.85 153.101 188.02C153.041 189.19 153.021 190.36 152.951 191.53C152.881 192.7 152.791 193.87 152.671 195.03C152.551 196.19 152.411 197.37 152.211 198.53C152.141 197.35 152.151 196.18 152.211 195C152.271 193.82 152.281 192.66 152.351 191.49C152.421 190.32 152.521 189.16 152.641 187.99C152.761 186.82 152.901 185.66 153.101 184.5Z" fill="white"/>
<path d="M145.7 190.15C145.81 191.15 145.85 192.07 145.88 193.03C145.91 193.99 145.88 194.95 145.88 195.91C145.88 196.87 145.81 197.83 145.74 198.79C145.67 199.75 145.58 200.71 145.42 201.66C145.31 200.66 145.27 199.74 145.24 198.78C145.21 197.82 145.24 196.86 145.24 195.9C145.24 194.94 145.31 193.98 145.38 193.02C145.45 192.06 145.54 191.1 145.7 190.15Z" fill="white"/>
<path d="M123.471 151.08C124.121 152.08 124.701 153.18 125.271 154.25C125.841 155.32 126.381 156.4 126.901 157.49C127.421 158.58 127.901 159.67 128.401 160.79C128.901 161.91 129.351 163.02 129.751 164.16C129.101 163.16 128.521 162.07 127.951 161C127.381 159.93 126.851 158.85 126.321 157.76C125.791 156.67 125.321 155.57 124.821 154.46C124.321 153.35 123.881 152.23 123.471 151.08Z" fill="white"/>
<path d="M122.18 165.44C122.86 166.52 123.49 167.64 124.1 168.77C124.71 169.9 125.3 171.03 125.87 172.18C126.44 173.33 126.98 174.48 127.5 175.65C128.02 176.82 128.5 178 128.98 179.2C128.29 178.12 127.66 177 127.05 175.87C126.44 174.74 125.86 173.61 125.29 172.46C124.72 171.31 124.18 170.16 123.66 168.99C123.14 167.82 122.63 166.64 122.18 165.44Z" fill="white"/>
<path d="M123.34 180.14C123.85 180.75 124.34 181.39 124.75 182.03C125.16 182.67 125.61 183.34 126.01 184.03C126.41 184.72 126.79 185.38 127.15 186.03C127.51 186.68 127.84 187.43 128.15 188.17C127.645 187.568 127.171 186.94 126.73 186.29C126.3 185.64 125.88 184.98 125.48 184.29C125.08 183.6 124.7 182.93 124.34 182.24C123.98 181.55 123.63 180.88 123.34 180.14Z" fill="white"/>
<path d="M118.74 104.66C118.684 105.175 118.782 105.695 119.021 106.155C119.26 106.614 119.631 106.993 120.085 107.242C120.539 107.491 121.057 107.6 121.573 107.554C122.09 107.509 122.581 107.312 122.985 106.988C123.389 106.663 123.688 106.226 123.843 105.732C123.999 105.238 124.005 104.709 123.86 104.211C123.715 103.714 123.426 103.271 123.029 102.937C122.632 102.604 122.145 102.396 121.63 102.34C120.94 102.267 120.248 102.47 119.707 102.905C119.166 103.339 118.818 103.97 118.74 104.66Z" fill="#EBF4FF"/>
<path d="M58.1602 42.17C58.1602 42.17 64.7102 48.86 74.1602 46.63C83.6102 44.4 80.3602 34.48 80.3602 34.48C80.3602 34.48 68.1002 36.17 58.1602 42.17Z" fill="white"/>
<path d="M57.8495 42.1999C58.875 43.2066 60.0363 44.0649 61.2995 44.7499C63.9733 46.3039 66.9977 47.1537 70.0895 47.2199C73.1695 47.2199 76.6995 46.5999 78.9595 44.3399C80.458 42.73 81.2689 40.5987 81.2195 38.3999C81.2542 37.0765 81.0753 35.7562 80.6896 34.4899C80.6396 34.3499 80.3895 34.3399 80.2795 34.3599C74.9095 35.1472 69.661 36.6122 64.6595 38.7199C62.3198 39.6789 60.0537 40.8086 57.8796 42.0999C57.6896 42.2199 58.2896 42.3299 58.4396 42.2399C64.7599 38.5959 71.6774 36.1038 78.8695 34.8799C79.3895 34.7799 79.8696 34.6799 80.4496 34.6099L80.0395 34.4799C80.5208 35.8687 80.708 37.3424 80.5892 38.8074C80.4704 40.2724 80.0483 41.6968 79.3495 42.9899C77.7395 45.5899 74.6995 46.6099 71.7895 46.8899C68.5572 47.1614 65.3157 46.4873 62.4595 44.9499C60.9893 44.225 59.64 43.2771 58.4595 42.1399C58.3295 41.9999 57.7395 42.0999 57.8495 42.1999Z" fill="#003F7F"/>
<path d="M43.7697 198.39C38.4097 198.23 37.6297 189.39 40.6197 186.1C46.7597 179.64 56.9996 186.41 57.1596 194.29C57.1596 194.61 57.1597 195.08 56.9997 195.29L43.7697 198.39Z" fill="#EBF4FF"/>
<path d="M43.8392 198.23C41.4692 198.13 40.0393 196.05 39.5093 193.93C38.9363 191.732 39.1411 189.404 40.0892 187.34C40.7224 186.189 41.6602 185.235 42.7997 184.583C43.9393 183.93 45.2365 183.604 46.5492 183.64C49.2196 183.809 51.724 184.993 53.5492 186.95C54.6031 188.017 55.4477 189.272 56.0392 190.65C56.3293 191.346 56.5472 192.069 56.6893 192.81C56.8093 193.46 57.0693 194.63 56.6893 195.22L56.8992 195.1L45.2992 197.86L43.6692 198.25C43.2392 198.35 43.5992 198.55 43.8692 198.48L51.6893 196.62L56.2092 195.54C56.5082 195.496 56.8026 195.426 57.0892 195.33C57.8192 195.06 57.4592 193.47 57.3592 192.88C56.9356 190.671 55.8928 188.627 54.3525 186.988C52.8122 185.348 50.8378 184.18 48.6592 183.62C44.6592 182.68 40.0692 184.62 38.9292 188.76C37.9292 192.46 38.9293 198.3 43.6993 198.5C43.9893 198.51 44.2892 198.25 43.8392 198.23Z" fill="#003F7F"/>
<path d="M70.6004 199.05C70.6004 206.85 65.4604 212.28 59.2604 213.17C45.5004 215.17 43.4004 208.9 43.4004 201.1C43.4004 193.3 47.3904 183.39 57.7904 183.39C66.4004 183.39 70.6004 191.25 70.6004 199.05Z" fill="#00AAA5"/>
<path d="M63.6702 199.05C63.6702 206.85 58.5903 213.17 52.3303 213.17C46.0703 213.17 40.9902 206.85 40.9902 199.05C40.9902 191.25 46.0703 184.92 52.3303 184.92C58.5903 184.92 63.6702 191.25 63.6702 199.05Z" fill="#00AAA5"/>
<path d="M58.7399 199.05C58.7399 203.46 55.87 207.05 52.33 207.05C48.79 207.05 45.9199 203.48 45.9199 199.05C45.9199 194.62 48.79 191.05 52.33 191.05C55.87 191.05 58.7399 194.64 58.7399 199.05Z" fill="#EBF4FF"/>
<path d="M58.4096 199.05C58.4096 201.9 57.1396 205.05 54.4596 206.38C51.7796 207.71 48.9896 206.2 47.5396 203.84C46.7777 202.535 46.3369 201.067 46.2535 199.558C46.17 198.049 46.4463 196.541 47.0596 195.16C48.1796 192.71 50.6996 190.59 53.5296 191.37C56.8096 192.27 58.3796 195.93 58.4096 199.05C58.4096 199.24 59.0596 199.23 59.0596 199.05C59.0596 195.95 57.5496 192.56 54.4996 191.36C53.2 190.883 51.7781 190.857 50.4616 191.285C49.1452 191.713 48.0106 192.57 47.2396 193.72C46.2865 195.119 45.7239 196.747 45.6096 198.437C45.4953 200.126 45.8336 201.815 46.5896 203.33C47.1732 204.642 48.1801 205.721 49.4491 206.393C50.7181 207.066 52.1759 207.294 53.5896 207.04C57.1996 206.27 59.0596 202.47 59.0896 199.04C59.0596 198.86 58.4096 198.86 58.4096 199.05Z" fill="#003F7F"/>
<path d="M61.4707 201.94C62.6607 202.04 63.8507 203.72 64.6107 204.67C66.3507 207.08 66.4507 208.97 69.4907 209.92C75.0428 211.697 80.6878 213.169 86.4007 214.33C89.2207 214.96 99.7307 217.59 101.571 217.33C103.091 217.22 102.981 216.07 104.071 215.23C105.161 214.39 106.241 215.02 107.431 214.6C110.431 213.33 107.321 211.76 105.371 211.23L61.4707 201.94Z" fill="#004BA5"/>
<path d="M43.8203 183.87L58.2103 180.93C58.2103 180.93 63.2103 178.83 66.5103 186.08C66.5103 186.08 69.0303 191.96 73.6503 193.01L115.99 203.2L107.28 213.81L63.0403 203.09C63.0403 203.09 57.6903 202.04 55.1703 195.09C55.1703 195.11 50.9903 181.46 43.8203 183.87Z" fill="#EBF4FF"/>
<path d="M43.991 183.98L50.991 182.55L55.991 181.55C56.781 181.38 57.601 181.26 58.391 181.06C58.9937 180.862 59.6271 180.774 60.261 180.8C61.1776 180.922 62.0573 181.24 62.8405 181.732C63.6237 182.223 64.2923 182.878 64.801 183.65C65.701 184.88 66.221 186.3 66.991 187.65C67.9365 189.35 69.2398 190.824 70.811 191.97C72.2187 192.81 73.7727 193.377 75.391 193.64L82.301 195.3L102.571 200.18L111.161 202.25L114.031 202.94C114.556 203.1 115.09 203.226 115.631 203.32H115.831L115.681 203.18L108.051 212.46L106.961 213.78L107.441 213.7L97.771 211.36L78.631 206.72L64.391 203.27C63.6432 203.118 62.9078 202.911 62.191 202.65C60.6007 201.916 59.1819 200.857 58.0261 199.541C56.8704 198.225 56.0033 196.682 55.4809 195.01C54.7537 192.811 53.788 190.699 52.6009 188.71C51.0909 186.25 48.851 183.58 45.741 183.47C45.018 183.456 44.2978 183.564 43.611 183.79C43.301 183.9 43.921 184.02 44.081 183.97C47.381 182.89 50.081 185.83 51.691 188.33C52.9929 190.395 54.0373 192.611 54.801 194.93C55.7997 198.135 57.9952 200.832 60.931 202.46C61.7602 202.869 62.6368 203.175 63.5409 203.37L76.4609 206.5L95.6509 211.15C99.4109 212.06 103.171 213.03 106.941 213.89H107.111C107.192 213.913 107.277 213.918 107.36 213.904C107.443 213.89 107.522 213.858 107.591 213.81L115.221 204.53L116.311 203.2C116.371 203.12 116.201 203.06 116.161 203.05L104.991 200.39L84.441 195.39L76.751 193.54C75.561 193.25 74.301 193.04 73.141 192.64C71.0981 191.786 69.3764 190.309 68.2209 188.42C67.5426 187.32 66.9217 186.185 66.361 185.02C64.821 182.13 61.981 179.81 58.551 180.61C58.011 180.74 57.921 180.79 57.331 180.91L53.331 181.73L44.331 183.58L43.7209 183.7C43.2509 183.85 43.801 184.02 43.991 183.98Z" fill="#003F7F"/>
<path d="M133.359 87.6299L109.619 89.9799L112.189 93.9799C117.649 93.4599 117.339 99.1299 117.339 99.1299L126.789 182.31L130.099 181.21C130.099 181.21 121.909 104.64 120.959 98.9699C120.009 93.2999 123.639 93.6199 123.639 93.6199L134.849 92.2299C134.97 91.4002 134.898 90.5539 134.64 89.7563C134.382 88.9587 133.943 88.2312 133.359 87.6299Z" fill="#EBF4FF"/>
<path d="M133.27 87.51L125.27 88.31L112.48 89.57L109.55 89.86C109.49 89.86 109.26 89.92 109.33 90.03L111.9 94.03C111.9 94.11 112.14 94.12 112.22 94.11C112.83 94.0157 113.453 94.0563 114.046 94.2291C114.638 94.4019 115.186 94.7026 115.65 95.11C116.253 95.7363 116.669 96.5193 116.85 97.37C116.962 97.9772 117.026 98.5926 117.04 99.21C117.12 100.36 117.3 101.5 117.43 102.64L118.31 110.34L119.52 121.03L120.95 133.61L122.46 146.85L123.89 159.46L125.13 170.39L126.03 178.32L126.32 180.83C126.344 181.269 126.394 181.707 126.47 182.14C126.47 182.2 126.47 182.26 126.47 182.31C126.47 182.36 126.86 182.44 126.96 182.4L130.27 181.3C130.27 181.3 130.43 181.3 130.43 181.18L130.1 178.12C129.81 175.41 129.51 172.69 129.22 169.97L127.99 158.31C127.503 153.73 127.006 149.15 126.5 144.57L124.94 130.33C124.46 125.93 123.97 121.53 123.47 117.13C123.076 113.59 122.676 110.057 122.27 106.53C122.01 104.34 121.76 102.15 121.47 99.96C121.169 98.6484 121.108 97.2933 121.29 95.96C121.357 95.5361 121.524 95.1341 121.775 94.7866C122.027 94.4391 122.358 94.1559 122.74 93.96C122.949 93.8653 123.171 93.8046 123.4 93.78H123.59C124.93 93.72 126.27 93.47 127.59 93.3L133.81 92.54L134.99 92.39C135.07 92.39 135.22 92.39 135.23 92.26C135.329 91.4272 135.246 90.5828 134.987 89.7851C134.728 88.9874 134.299 88.2555 133.73 87.64C133.59 87.5 132.99 87.64 133.1 87.73C133.664 88.3343 134.088 89.0549 134.344 89.8409C134.6 90.627 134.68 91.4596 134.58 92.28L134.81 92.15L124.47 93.39L123.72 93.48C123.28 93.4725 122.842 93.5471 122.43 93.7C120.32 94.51 120.43 97.15 120.68 99C120.94 100.65 121.12 102.32 121.32 104C121.7 107.21 122.07 110.43 122.43 113.64C122.91 117.88 123.383 122.117 123.85 126.35C124.376 131.103 124.9 135.847 125.42 140.58C125.94 145.313 126.453 150.033 126.96 154.74C127.406 158.893 127.853 163.047 128.3 167.2C128.64 170.31 128.97 173.41 129.3 176.52C129.4 177.52 129.51 178.52 129.61 179.52C129.631 180.047 129.688 180.571 129.78 181.09C129.79 181.156 129.79 181.224 129.78 181.29L129.94 181.17L126.63 182.27L127.13 182.37L126.82 179.69L125.99 172.39L124.8 161.91L123.38 149.39L121.86 136.05L120.4 123.14L119.12 111.94L118.12 103.59L117.65 99.38C117.65 99.06 117.65 98.75 117.65 98.44C117.634 97.646 117.427 96.8675 117.046 96.171C116.665 95.4744 116.12 94.8805 115.46 94.44C114.451 93.9286 113.312 93.7302 112.19 93.87L112.51 93.96L109.93 89.96L109.71 90.12L117.71 89.33L130.49 88.07L133.42 87.78C133.9 87.71 133.55 87.48 133.27 87.51Z" fill="#003F7F"/>
<path d="M140.991 89.04C140.991 87.04 138.311 87.15 138.311 87.15L133.381 87.63C133.964 88.2302 134.401 88.9561 134.659 89.7518C134.918 90.5475 134.99 91.3919 134.871 92.22L136.421 92.03C141.911 91.71 140.991 89.04 140.991 89.04Z" fill="#00AAA5"/>
<path d="M89.9897 195.95C87.1597 195.32 87.2597 198.05 87.3697 200.36C88.6026 200.679 89.8807 200.787 91.1497 200.68C90.9397 206.68 97.2397 207.4 101.86 207.5C103.75 207.5 106.59 207.92 108.48 207.08C109.32 206.66 110.48 205.3 110.05 204.25C109.62 203.2 107.95 203.51 106.9 203.51C104.38 203.41 101.13 203.83 98.7097 202.88C96.6097 202.04 96.0797 199.31 95.1397 197.42L89.9897 195.95Z" fill="white"/>
<path d="M90.6605 186.39C89.5105 186.6 89.6605 188.18 89.5105 189.23C89.4005 191.75 89.0905 194.23 88.9805 196.69C91.2905 197.63 91.7105 198.05 92.7605 200.36C93.7605 202.46 95.9105 203.3 98.1205 203.93C102.12 204.93 105.68 204.14 109.57 203.83C109.78 202.25 109.991 200.05 109.041 198.83C107.681 197.15 105.04 196.52 103.48 194.94C101.59 193.16 98.8605 188.22 99.8005 186.01L90.6605 186.39Z" fill="#004BA5"/>
<path d="M64.8299 192.27C61.9899 191.64 62.0999 194.38 62.1999 196.69C63.4335 197.005 64.7114 197.11 65.9799 197C65.7699 203 72.0699 203.72 76.6999 203.83C78.5899 203.83 81.4199 204.25 83.3099 203.41C84.1499 202.99 85.3099 201.62 84.8899 200.57C84.4699 199.52 82.7899 199.84 81.7399 199.84C79.2199 199.73 75.9599 200.15 73.5499 199.21C71.4399 198.37 70.9199 195.64 69.9699 193.75L64.8299 192.27Z" fill="white"/>
<path d="M65.4593 182.72C64.2993 182.93 64.4093 184.5 64.2993 185.55C64.1993 188.07 63.8793 190.55 63.7793 193.01C66.0893 194.01 66.5093 194.38 67.5593 196.69C68.4993 198.79 70.7093 199.63 72.9193 200.26C76.9193 201.2 80.4793 200.47 84.3593 200.15C84.5693 198.58 84.7793 196.37 83.8393 195.15C82.4693 193.47 79.8393 192.84 78.2693 191.26C76.3793 189.48 73.6493 184.54 74.5993 182.34L65.4593 182.72Z" fill="#004BA5"/>
<path d="M105.99 105.74C99.9903 105.89 86.1303 106.28 85.1903 106.37C82.8803 106.58 80.3603 106.16 78.0503 106.79C78.0503 106.79 68.6703 107.12 63.7703 107.63C64.5603 114.08 64.7103 120.86 65.5003 127.48C65.8203 130.31 66.6002 133.3 66.2902 136.14C66.1302 137.72 65.3403 139.14 65.5003 140.71C65.6603 141.34 66.6002 141.65 66.6002 142.6C66.6002 143.39 65.5002 143.54 65.3402 144.33C65.1902 146.22 66.6003 147.64 66.4503 149.69C66.2903 151.11 65.8203 152.69 65.4503 154.26C64.6603 158.19 64.3502 162.13 63.7202 166.07C63.0061 172.293 62.6889 178.556 62.7703 184.82L64.3502 185.45C65.6102 185.76 67.1802 186.24 68.6002 186.55C71.5597 187.039 74.5949 186.767 77.4203 185.76C77.4203 185.76 77.4203 185.65 77.4203 180.41C77.4203 179.11 76.3203 179.3 76.6403 177.73C76.9503 176.73 78.2102 176.47 78.5302 175.68C79.1602 174.26 78.2103 172.22 78.0503 170.68C77.9003 167.37 79.7903 158.55 80.5703 155.24C83.8403 143.45 83.7003 130.36 82.6303 117.89C83.1403 117.89 83.6302 117.89 84.0902 117.89C85.9502 117.95 87.7702 118.08 89.5902 118.18C90.1502 122.71 90.7003 127.18 91.0803 130.39C91.3903 133.23 92.1803 136.22 91.8603 139.06C91.7103 140.63 90.9203 142.06 91.0803 143.62C91.2303 144.25 92.1803 144.62 92.1803 145.51C92.1803 146.4 91.0803 146.51 90.9203 147.25C90.7603 149.14 92.1803 150.56 92.0203 152.6C91.8603 154.02 91.3903 155.6 91.0803 157.17C90.2903 161.11 89.9702 165.05 89.3402 168.99C88.6342 175.211 88.3202 181.47 88.4002 187.73L89.9702 188.36C91.2302 188.68 92.8102 189.15 94.2302 189.47C97.1899 189.953 100.224 189.682 103.05 188.68C103.05 188.68 103.05 188.56 103.05 183.32C103.05 182.02 101.95 182.22 102.26 180.64C102.58 179.7 103.84 179.38 104.15 178.64C104.78 177.22 103.84 175.17 103.68 173.64C103.52 170.33 105.41 161.51 106.2 158.2C110.36 143.23 107.73 120.86 105.99 105.74Z" fill="white"/>
<path d="M145.25 220.11C145.73 227.47 142.96 233.55 134.35 235.23C122.86 237.47 120.13 227.79 119.65 220.42C119.17 213.05 123.33 207.29 134.25 206.77C139.84 206.5 144.77 212.74 145.25 220.11Z" fill="#00AAA5"/>
<path d="M138.989 222C139.469 229.36 135.319 235.33 129.719 235.33C124.119 235.33 119.199 229.33 118.719 222C118.239 214.67 122.389 208.66 127.989 208.66C133.589 208.66 138.469 214.63 138.989 222Z" fill="#00AAA5"/>
<path d="M135.109 221.93C135.399 226.33 132.919 229.93 129.579 229.93C126.239 229.93 123.299 226.37 123.009 221.93C122.719 217.49 125.209 213.93 128.549 213.93C131.889 213.93 134.829 217.54 135.109 221.93Z" fill="#EBF4FF"/>
<path d="M134.76 221.86C134.91 224.54 134.05 227.66 131.59 229.1C129.13 230.54 126.39 229.1 124.93 226.84C124.109 225.552 123.592 224.093 123.418 222.576C123.245 221.058 123.42 219.52 123.93 218.08C124.8 215.76 126.99 213.65 129.65 214.25C132.92 214.99 134.55 218.86 134.78 221.86C134.78 222.06 135.5 222.24 135.49 222C135.26 218.91 133.69 215.63 130.73 214.31C129.518 213.748 128.139 213.663 126.868 214.073C125.597 214.483 124.526 215.356 123.87 216.52C123.054 218.003 122.63 219.67 122.641 221.363C122.651 223.056 123.095 224.717 123.93 226.19C125.26 228.59 127.93 230.55 130.76 229.98C134.32 229.28 135.67 225.2 135.49 221.98C135.46 221.8 134.74 221.62 134.76 221.86Z" fill="#003F7F"/>
<path d="M115.66 211.49C116.39 212.49 116.66 214.12 117.44 215.27C118.91 217.48 120.44 219.69 122.17 221.79C123.9 223.89 125.11 225.25 127.95 225.15C130.95 225.04 129.52 222.42 129.21 220.15C128.89 217.42 127.84 212.48 129 209.85C130.47 206.6 137.82 207.44 137.82 207.44C137.82 203.34 137.19 196.52 133.82 193.68C128.99 189.79 122.37 192.1 119.11 196.68C118.368 197.445 117.828 198.384 117.54 199.41H117.96L115.66 211.49Z" fill="#EBF4FF"/>
<path d="M115.341 211.51C115.837 212.373 116.252 213.28 116.581 214.22C117.064 215.217 117.647 216.161 118.321 217.04C119.587 218.943 120.973 220.764 122.471 222.49C123.371 223.68 124.603 224.577 126.011 225.07C127.071 225.36 129.011 225.61 129.831 224.63C130.651 223.65 129.941 222.12 129.721 221.12C129.407 219.536 129.174 217.937 129.021 216.33C128.741 214.554 128.741 212.746 129.021 210.97C129.123 210.333 129.392 209.734 129.801 209.235C130.211 208.735 130.746 208.354 131.351 208.13C132.709 207.638 134.147 207.401 135.591 207.43C136.111 207.43 136.591 207.43 137.151 207.43H137.641H137.781C137.841 207.43 138.191 207.43 138.191 207.32C138.213 205.052 138.009 202.787 137.581 200.56C137.252 198.312 136.369 196.181 135.011 194.36C132.011 190.76 126.521 190.8 122.731 193.01C121.559 193.689 120.508 194.557 119.621 195.58C118.554 196.62 117.748 197.898 117.271 199.31C117.271 199.42 117.551 199.46 117.591 199.46H118.011L117.691 199.31L115.691 209.85L115.391 211.39C115.391 211.55 116.011 211.62 116.041 211.39L118.041 200.85L118.331 199.31C118.331 199.2 118.071 199.17 118.021 199.17H117.601L117.911 199.31C118.325 198.09 119.008 196.979 119.911 196.06C120.626 195.157 121.468 194.362 122.411 193.7C124.231 192.369 126.436 191.667 128.691 191.7C129.851 191.725 130.99 192.007 132.028 192.526C133.066 193.045 133.975 193.787 134.691 194.7C135.869 196.434 136.648 198.408 136.971 200.48C137.394 202.708 137.598 204.972 137.581 207.24L138.001 207.14C136.338 206.942 134.655 206.976 133.001 207.24C131.841 207.371 130.73 207.779 129.761 208.43C129.304 208.825 128.936 209.313 128.682 209.861C128.429 210.41 128.295 211.006 128.291 211.61C128.164 213.374 128.248 215.146 128.541 216.89C128.704 218.422 128.947 219.944 129.271 221.45C129.511 222.45 130.091 224.29 128.731 224.76C126.981 225.36 125.161 224.35 123.961 223.15C122.295 221.382 120.783 219.475 119.441 217.45C118.693 216.507 118.024 215.503 117.441 214.45C117.049 213.386 116.577 212.353 116.031 211.36C115.871 211.31 115.251 211.39 115.341 211.51Z" fill="#003F7F"/>
<path d="M106.99 212.86C105.63 216.43 109.3 217.16 111.99 217.38C114.99 217.59 115.25 216.22 116.19 213.59C116.946 210.948 117.857 208.354 118.92 205.82C122.18 199.31 126.7 194.27 134.36 194.27C132.79 190.07 135.41 183.56 131.53 180.27C127.82 177.14 124.53 180.65 122.34 183.61C119.646 187.308 117.171 191.161 114.93 195.15C113.33 198.03 112.08 200.75 110.54 203.67C109 206.59 108.12 209.79 106.99 212.86Z" fill="#EBF4FF"/>
<path d="M106.619 212.81C106.366 213.321 106.274 213.896 106.354 214.46C106.435 215.024 106.684 215.551 107.069 215.97C107.9 216.654 108.904 217.093 109.969 217.24C111.159 217.537 112.393 217.612 113.609 217.46C114.069 217.385 114.502 217.192 114.866 216.902C115.231 216.611 115.514 216.232 115.689 215.8C116.315 214.335 116.836 212.828 117.249 211.29C117.812 209.291 118.545 207.344 119.439 205.47C120.766 202.713 122.582 200.219 124.8 198.11C127.435 195.725 130.865 194.406 134.42 194.41C134.48 194.41 134.71 194.41 134.67 194.28C133.54 191.17 134.439 187.73 133.959 184.51C133.792 183.053 133.166 181.687 132.17 180.61C131.613 180.016 130.926 179.56 130.162 179.278C129.398 178.997 128.578 178.898 127.769 178.99C126.149 179.361 124.699 180.262 123.65 181.55C122.285 183.12 121.041 184.792 119.929 186.55C117.297 190.39 114.918 194.399 112.809 198.55C111.629 200.87 110.349 203.15 109.319 205.55C108.289 207.95 107.539 210.43 106.619 212.85C106.569 212.99 107.189 213.14 107.259 212.95C108.009 210.95 108.64 208.95 109.4 207.03C110.16 205.11 111.209 203.13 112.179 201.21C114.14 197.204 116.314 193.305 118.689 189.53C119.869 187.697 121.093 185.9 122.359 184.14C123.31 182.697 124.481 181.411 125.829 180.33C126.545 179.765 127.397 179.399 128.3 179.27C128.836 179.246 129.372 179.33 129.875 179.517C130.379 179.704 130.839 179.991 131.229 180.36C132.33 181.375 133.037 182.745 133.229 184.23C133.799 187.54 132.819 191.08 133.989 194.3L134.239 194.17C131.461 194.142 128.73 194.887 126.349 196.32C124.034 197.835 122.076 199.834 120.609 202.18C119.818 203.377 119.11 204.626 118.489 205.92C117.703 207.756 117.035 209.639 116.489 211.56C116.107 213.01 115.613 214.427 115.009 215.8C114.774 216.293 114.392 216.701 113.916 216.97C113.44 217.238 112.893 217.353 112.349 217.3C110.939 217.338 109.539 217.036 108.269 216.42C106.909 215.66 106.759 214.31 107.269 212.95C107.319 212.76 106.689 212.62 106.619 212.81Z" fill="#003F7F"/>
<path d="M96.4204 55.4999C96.4212 55.5021 96.4219 55.5042 96.4225 55.5064L96.5004 55.4999V55.5699H96.3804H96.1704H96.0504H95.9704C95.9576 55.5661 95.9457 55.5596 95.9354 55.5511C95.9339 55.5499 95.9326 55.5486 95.9312 55.5474C95.9228 55.5395 95.9157 55.5302 95.9104 55.52V55.45H95.9904H96.2304H96.3404H96.4204V55.4999Z" fill="#003F7F"/>
<path d="M137.46 86.9C137.46 86.4161 137.41 85.9335 137.31 85.46C137.265 85.0256 137.154 84.6007 136.98 84.2L136.91 84.09C136.552 83.7983 136.141 83.5777 135.7 83.44C134.792 82.9529 133.849 82.5318 132.88 82.18C131.69 81.79 130.45 81.4 129.32 80.96C129.214 80.916 129.111 80.8659 129.01 80.81C122.76 73.73 115.27 63.01 110.92 60.75C106.92 58.75 105.25 53.36 102.49 50.25L96.1504 55.46C96.3504 55.73 102.57 64.26 104.67 68.62C112.46 72.7 118.67 77.07 122.67 81.77C122.66 81.9265 122.66 82.0835 122.67 82.24C122.58 84.64 121.6 85.74 119.51 86.82C119.657 87.5255 119.851 88.2204 120.09 88.9L126.4 88.29V90.29C126.97 90.17 127.55 90.06 128.13 89.96C128.13 90.03 128.13 90.09 128.13 90.15C128.122 91.0753 128.169 92.0003 128.27 92.92C128.35 93.92 128.43 94.73 129.56 95.01C130.04 95.1157 130.538 95.0998 131.01 94.9635C131.481 94.8273 131.911 94.5751 132.26 94.23C132.88 95.33 134.45 94.48 134.8 93.62C137.65 95.74 137.47 88.18 137.46 86.9Z" fill="white"/>
<path d="M137.77 86.96C137.752 86.419 137.688 85.8804 137.58 85.35C137.556 84.9318 137.436 84.5247 137.23 84.16C136.82 83.59 135.89 83.38 135.29 83.08C134.322 82.593 133.32 82.1786 132.29 81.84L130.72 81.32C130.132 81.1932 129.582 80.9332 129.11 80.56C127.83 79.23 126.7 77.73 125.53 76.3C124.36 74.87 123.14 73.3 121.95 71.87C119.77 69.18 117.59 66.48 115.18 64C114.31 63.0785 113.367 62.2291 112.36 61.46C111.244 60.7926 110.172 60.0544 109.15 59.25C106.47 56.69 105.25 53.03 102.82 50.25C102.72 50.13 102.39 49.98 102.25 50.1L95.9102 55.31C95.9102 55.31 95.9102 55.38 95.9102 55.42C98.5624 58.9453 101.013 62.6178 103.25 66.42C103.57 66.98 103.88 67.53 104.17 68.1C104.242 68.3005 104.343 68.4892 104.47 68.66C104.876 68.955 105.32 69.1938 105.79 69.37C107.59 70.37 109.36 71.37 111.09 72.45C114.194 74.3559 117.104 76.5597 119.78 79.03C120.45 79.66 121.1 80.32 121.72 81.03C122.04 81.38 122.34 81.62 122.33 82.11C122.324 82.5335 122.277 82.9555 122.19 83.37C121.984 84.1252 121.606 84.8225 121.086 85.4072C120.565 85.9918 119.916 86.448 119.19 86.74C119.183 86.7502 119.179 86.7625 119.179 86.775C119.179 86.7876 119.183 86.7998 119.19 86.81C119.34 87.51 119.55 88.2 119.77 88.89C119.77 89.05 120.12 89.12 120.27 89.11L126.58 88.5L126.08 88.24V90.24C126.08 90.45 126.49 90.52 126.64 90.49C127.21 90.37 127.79 90.26 128.37 90.16L127.81 89.95C127.81 91.04 127.87 92.13 127.99 93.22C127.982 93.533 128.047 93.8436 128.181 94.1267C128.315 94.4098 128.513 94.6576 128.76 94.85C129.35 95.2056 130.041 95.3553 130.725 95.2757C131.409 95.1961 132.048 94.8916 132.54 94.41L131.97 94.26C132.76 95.48 134.57 94.94 135.11 93.77L134.55 93.69C134.807 93.9225 135.122 94.0807 135.462 94.1476C135.802 94.2145 136.154 94.1877 136.48 94.07C137.046 93.5974 137.404 92.923 137.48 92.19C137.808 90.5077 137.932 88.792 137.85 87.08C137.85 86.86 137.23 86.74 137.23 86.88C137.23 87.88 137.23 95.2 135 93.65C134.91 93.58 134.53 93.39 134.45 93.57C134.17 94.16 133.05 95.14 132.45 94.3C132.39 94.2 131.98 94.02 131.88 94.15C131.15 95.05 129.09 95.45 128.65 94.15C128.515 93.6103 128.444 93.0564 128.44 92.5C128.37 91.7 128.37 90.91 128.34 90.11C128.34 89.93 127.91 89.88 127.78 89.9L126.05 90.23L126.61 90.48L126.66 88.48C126.66 88.29 126.3 88.21 126.16 88.22L119.84 88.83L120.35 89.05C120.2 88.58 119.57 87.27 119.98 86.91C120.39 86.55 120.87 86.4 121.26 86.09C121.93 85.5662 122.425 84.8514 122.68 84.04C122.825 83.5458 122.906 83.0349 122.92 82.52C122.95 82.3212 122.95 82.1189 122.92 81.92C122.92 81.72 122.59 81.52 122.45 81.37C121.74 80.56 120.98 79.8 120.2 79.06C116.356 75.5732 112.101 72.5677 107.53 70.11L105.53 69.05C105.257 68.9463 105.011 68.7822 104.81 68.57C104.704 68.392 104.607 68.2085 104.52 68.02C104.12 67.25 103.69 66.51 103.24 65.77C102.24 64.04 101.09 62.35 99.9601 60.68C99.0401 59.3467 98.1069 58.0134 97.1602 56.68C96.9472 56.3305 96.71 55.9964 96.4502 55.68C96.3302 55.55 96.4502 55.62 96.3902 55.68C96.4721 55.5904 96.5663 55.5129 96.6702 55.45L102.67 50.45L102.09 50.3C104.2 52.71 105.41 55.75 107.44 58.22C108.368 59.3479 109.506 60.2852 110.79 60.98C111.768 61.5647 112.669 62.2703 113.47 63.08C115.831 65.4187 118.042 67.9037 120.09 70.52C122.44 73.41 124.75 76.34 127.16 79.18L128.16 80.32C128.374 80.6187 128.646 80.8705 128.96 81.06C130.049 81.5275 131.168 81.9217 132.31 82.24C133.51 82.63 134.58 83.24 135.73 83.71C136.05 83.8039 136.339 83.9797 136.57 84.22C136.723 84.4646 136.816 84.7424 136.84 85.03C136.967 85.6529 137.044 86.2849 137.07 86.92C137.16 87.01 137.78 87.17 137.77 86.96Z" fill="#003F7F"/>
<path d="M135.311 85.04C135.371 86.9 136.031 95.22 132.891 94.55L135.311 85.04Z" fill="#FAEEE7"/>
<path d="M135.311 85.04C135.664 86.8236 135.778 88.6463 135.651 90.4601C135.596 91.3844 135.401 92.295 135.071 93.16C134.901 93.6159 134.619 94.0217 134.251 94.3401C134.061 94.4883 133.836 94.5855 133.598 94.6222C133.36 94.659 133.116 94.6341 132.891 94.55C133.104 94.5719 133.32 94.5425 133.52 94.4642C133.72 94.386 133.899 94.2611 134.041 94.1C134.304 93.7754 134.492 93.3962 134.591 92.9901C134.811 92.139 134.945 91.268 134.991 90.39C135.161 88.64 135.141 86.85 135.311 85.04Z" fill="#003F7F"/>
<path d="M132.99 85.3201C133.02 87.2114 132.92 89.1025 132.69 90.9801C132.53 92.6401 132.49 94.8401 130.07 95.1701" fill="#FAEEE7"/>
<path d="M132.989 85.3201C133.254 87.174 133.254 89.0561 132.989 90.9101C132.96 91.87 132.764 92.8176 132.409 93.7101C132.192 94.1699 131.844 94.5559 131.409 94.8201C130.987 95.0524 130.512 95.1729 130.029 95.1701C130.463 95.0798 130.866 94.8799 131.201 94.5892C131.535 94.2986 131.789 93.927 131.939 93.5101C132.179 92.6427 132.313 91.7496 132.339 90.8501L132.989 85.3201Z" fill="#003F7F"/>
<path d="M131.24 85.97C129.82 86.81 129.88 90.43 129.77 91.82C129.7 93 130.25 95.11 128.77 95.59C128.181 95.7502 127.568 95.8043 126.96 95.75C126.11 95.75 126.05 95.56 125.96 94.75C125.55 91.94 126.46 88.75 123.32 87.32" fill="#FAEEE7"/>
<path d="M131.241 85.97C130.604 86.6356 130.247 87.5192 130.241 88.44C130.127 89.3521 130.073 90.2708 130.081 91.19C130.056 91.6463 130.056 92.1037 130.081 92.56C130.106 93.033 130.106 93.507 130.081 93.98C130.084 94.5186 129.9 95.0416 129.561 95.46C129.161 95.8336 128.638 96.0471 128.091 96.06C127.605 96.0999 127.116 96.0999 126.631 96.06C126.482 96.0443 126.336 96.0037 126.201 95.94C126.031 95.8545 125.897 95.7132 125.821 95.54C125.731 95.2951 125.674 95.0396 125.651 94.78C125.556 93.8464 125.516 92.9082 125.531 91.97C125.566 91.0627 125.431 90.1569 125.131 89.3C124.783 88.4516 124.135 87.761 123.311 87.36C124.223 87.6652 124.98 88.3147 125.421 89.17C125.799 90.0494 126.006 90.9929 126.031 91.95C126.111 92.88 126.101 93.81 126.241 94.69C126.258 94.8957 126.305 95.0979 126.381 95.29C126.381 95.39 126.481 95.41 126.711 95.44C127.15 95.4799 127.592 95.4799 128.031 95.44C128.423 95.4456 128.804 95.3148 129.111 95.07C129.358 94.7566 129.492 94.369 129.491 93.97C129.515 93.517 129.515 93.063 129.491 92.61C129.476 92.3702 129.476 92.1297 129.491 91.89L129.551 91.2C129.608 90.2635 129.724 89.3315 129.901 88.41C129.994 87.9455 130.138 87.4928 130.331 87.06C130.5 86.6033 130.822 86.2185 131.241 85.97Z" fill="#003F7F"/>
<path d="M106.99 100.39C106.52 98.4999 105.42 97.0799 105.26 95.1899C105.248 93.5128 105.091 91.8399 104.79 90.1899C103.79 86.4099 103.21 82.4699 102.58 78.5299C101.32 71.1299 94.3901 37.7299 88.2501 35.2099C85.5319 34.2661 82.6248 33.9984 79.78 34.4299C79.98 38.5099 74.78 42.5499 71.6 43.6099C67.76 44.8899 61.69 44.6599 58.1 42.0099C53.97 44.3799 50.2301 47.4999 49.3301 51.4399C48.4301 55.3799 52.33 57.8999 54.22 60.7299C56.377 64.0478 58.1707 67.5882 59.5701 71.2899C60.9238 74.7945 61.8765 78.441 62.41 82.1599C62.57 83.7299 63.51 86.0899 63.35 87.6699C63.2 89.8699 61.35 90.6699 62.41 92.8699C62.88 93.6599 64.3 93.9699 64.41 95.0699C64.52 96.1699 63.3001 96.6499 62.9901 97.2799C62.2001 98.8499 62.3601 99.7999 62.5201 101.85C62.6983 104.683 62.6448 107.526 62.3601 110.35L63.15 110.04C63.7313 110.066 64.3135 110.012 64.8801 109.88C71.6501 108.94 78.5901 110.2 85.6701 109.57C89.4601 109.25 93.2401 108.31 97.1701 108.15C100.33 107.99 105.37 106.57 108.36 107.36C107.73 105.11 107.57 102.74 106.99 100.39Z" fill="#D96098"/>
<path d="M105.471 94.71C106.731 93.24 106.471 91.45 105.581 89.71C101.901 90.34 98.2306 90.4399 94.5806 90.7599C92.3706 90.9699 90.9005 91.81 91.8505 94.33C92.5805 96.43 94.0606 96.1099 95.9406 96.2199L105.471 94.71Z" fill="#00AAA5"/>
<path d="M115.12 93.1001C114.688 91.4342 114.014 89.8406 113.12 88.3701C112.62 87.3701 111.94 85.2701 110.7 84.8801C108.107 84.3135 105.482 83.8995 102.84 83.6401C100.1 82.8101 96.2603 82.0901 95.3703 81.6901C90.5403 79.4801 88.4403 78.4301 82.9803 77.8001C80.5603 77.5901 78.0403 77.5901 76.1503 76.0101C76.1503 76.0101 66.3803 65.0901 66.0703 65.0901L60.0703 70.7601C63.0103 75.3801 72.3603 85.3601 73.4103 85.6801C74.4603 86.0001 91.3503 87.0901 97.7303 87.4901C97.9862 88.0376 98.3233 88.5433 98.7303 88.9901C99.5203 89.9901 99.9703 90.9901 101.15 91.4701C102.052 91.8065 103.034 91.8657 103.97 91.6401C103.91 92.8201 104.76 93.9501 105.04 95.0801C103.97 95.0801 102.22 95.0801 101.77 96.2001C101.15 97.9501 103.57 97.9501 104.64 97.8901C105.71 97.8301 107.4 97.5001 107.91 96.4801C108.091 96.1073 108.167 95.6926 108.13 95.2801C108.208 95.4142 108.306 95.5356 108.42 95.6401C109.26 96.4301 110.22 95.8101 110.5 94.8501C111.5 95.8501 112.81 95.9201 113.04 94.2901C113.099 94.444 113.19 94.5831 113.308 94.6977C113.426 94.8122 113.568 94.8993 113.724 94.9527C113.879 95.0062 114.045 95.0247 114.209 95.007C114.372 94.9892 114.53 94.9357 114.67 94.8501C115.29 94.5101 115.17 93.6701 115.12 93.1001Z" fill="white"/>
<path d="M112.49 95.3C114.31 94.44 110.95 88.9901 110.49 87.8101L112.49 95.3Z" fill="#FAEEE7"/>
<path d="M112.49 95.3C112.62 95.2033 112.722 95.0735 112.785 94.9241C112.849 94.7746 112.871 94.611 112.849 94.45C112.837 94.1271 112.779 93.8074 112.679 93.5C112.481 92.8616 112.24 92.237 111.959 91.63C111.376 90.3888 110.868 89.1131 110.439 87.8101C110.839 88.3701 111.249 88.9301 111.599 89.5201C111.973 90.1144 112.307 90.7324 112.599 91.3701C112.887 92.009 113.095 92.6806 113.219 93.3701C113.284 93.7338 113.284 94.1062 113.219 94.47C113.193 94.6648 113.109 94.8475 112.98 94.9951C112.85 95.1427 112.679 95.2488 112.49 95.3Z" fill="#003F7F"/>
<path d="M109.591 95.9199C111.971 95.3199 109.031 89.2099 108.301 88.1399L109.591 95.9199Z" fill="#FAEEE7"/>
<path d="M109.591 95.9199C110.311 95.5999 110.321 94.8299 110.241 94.1799C110.143 93.499 109.979 92.8291 109.751 92.1799C109.551 91.5099 109.301 90.8499 109.061 90.1799C108.821 89.5099 108.581 88.8299 108.301 88.1799C108.787 88.7255 109.198 89.3343 109.521 89.9899C109.867 90.6292 110.155 91.2986 110.381 91.9899C110.616 92.6966 110.741 93.4352 110.751 94.1799C110.759 94.5701 110.677 94.9568 110.511 95.3099C110.423 95.4824 110.292 95.6292 110.131 95.7361C109.97 95.843 109.784 95.9064 109.591 95.9199Z" fill="#003F7F"/>
<path d="M107.4 97.05C109.27 96.05 107 90.96 106.4 89.05L107.4 97.05Z" fill="#FAEEE7"/>
<path d="M107.4 97.0501C107.626 96.8033 107.787 96.5037 107.867 96.1788C107.947 95.8538 107.945 95.5139 107.86 95.1901C107.764 94.514 107.621 93.8456 107.43 93.1901C107.08 91.8501 106.61 90.5201 106.43 89.1001C107.151 90.3304 107.712 91.6478 108.1 93.0201C108.303 93.7191 108.41 94.4423 108.42 95.1701C108.423 95.5461 108.355 95.9192 108.22 96.2701C108.146 96.451 108.035 96.6142 107.894 96.7487C107.753 96.8833 107.584 96.986 107.4 97.0501Z" fill="#003F7F"/>
<path d="M51.99 46.8201C50.795 47.95 49.8867 49.3487 49.3406 50.9001C48.7945 52.4514 48.6263 54.1107 48.85 55.7401C49.38 58.4801 51.38 60.6801 52.74 62.9901C54.1 65.3001 53.58 67.0901 54.74 69.2901C55.4376 70.4983 56.033 71.7627 56.5201 73.0701C61.0401 73.1801 67.44 68.4501 69.86 64.8801C66.29 61.7301 64.71 55.9501 61.98 52.2801" fill="#D96098"/>
<path d="M73.9891 19.6399C76.4191 20.4299 76.9891 14.7899 76.7391 13.4499C76.1091 10.1599 72.3491 8.04987 69.3691 10.1599L73.9891 19.6399Z" fill="#004BA5"/>
<path d="M60.9303 30.3901C61.1703 31.3901 58.1903 33.9101 57.4103 34.3901C56.6303 34.8701 54.5903 35.7201 53.8003 34.9401C53.1003 34.3101 53.4903 32.5901 53.4903 31.7301C50.9103 32.5101 49.0303 32.0401 46.6703 30.8701C45.9703 30.4001 44.1703 29.6901 45.1903 28.5901C45.7303 28.0501 47.3003 28.2001 48.0103 28.1201C46.2103 27.8901 43.5403 26.7101 43.3103 24.6001C43.0803 22.4901 47.0703 23.0301 48.4803 22.0101C52.4803 19.0101 44.6403 11.9101 51.7703 10.8901C53.4103 10.6601 54.8203 10.2601 56.4703 10.7301C54.9803 8.54008 57.7203 6.42008 59.6803 5.95008C62.0303 5.41008 64.3003 6.50007 66.6803 6.35007C69.5003 6.19007 71.3803 3.84009 73.0303 1.80009C74.6703 -0.0799135 77.1003 -0.859928 79.0303 1.41007C80.2803 2.90007 79.5803 5.48007 79.1903 7.13007C80.1303 6.42007 82.3203 6.19008 82.6303 7.29008C83.1003 9.17008 80.5203 10.5001 79.1903 11.0501C76.3551 11.7376 73.4276 11.9638 70.5203 11.7201L60.9303 30.3901Z" fill="#004BA5"/>
<path d="M75.4199 38.4399L71.83 29.1499C73.0222 28.1382 73.9818 26.8808 74.6428 25.4637C75.3039 24.0467 75.6508 22.5035 75.6599 20.9399C75.643 19.1462 75.1876 17.3839 74.3336 15.8065C73.4795 14.2291 72.2527 12.8845 70.7599 11.8899C69.4599 11.7899 68.15 11.7299 66.89 11.5699C65.8973 11.3629 64.8701 11.3903 63.89 11.6499C62.64 12.1999 62.89 13.2999 62.89 14.4699C62.6545 14.2189 62.3583 14.0329 62.0299 13.9299C60.1499 13.4499 57.09 12.2799 56.7 15.1799C56.31 17.8399 59.1299 20.2699 59.1299 22.8599C59.0699 26.3199 55.1299 24.5899 52.4199 23.5799C53.0214 25.7422 54.2388 27.6828 55.9238 29.1654C57.6088 30.648 59.6887 31.6085 61.9099 31.9299C61.9099 35.3399 62.0299 41.1799 62.0299 41.3399" fill="white"/>
<path d="M75.7408 38.48L74.0808 34.18L72.8708 31.04L72.4308 29.9C72.3127 29.6973 72.2251 29.4783 72.1708 29.25C72.1708 29.11 72.2708 29.12 72.4208 28.99C72.7517 28.6799 73.0592 28.3456 73.3408 27.99C73.8998 27.3332 74.3829 26.6153 74.7808 25.85C75.6264 24.2222 76.0364 22.4032 75.9708 20.57C75.8892 18.8843 75.4277 17.2388 74.6208 15.7566C73.8138 14.2743 72.6823 12.9935 71.3108 12.01C70.5208 11.44 69.3108 11.61 68.3908 11.54C67.4708 11.47 66.2408 11.26 65.1608 11.24C64.748 11.1911 64.3294 11.2378 63.9375 11.3765C63.5456 11.5152 63.1909 11.7423 62.9008 12.04C62.5505 12.7597 62.4351 13.5712 62.5708 14.36L63.1808 14.42C62.6038 13.9473 61.9152 13.6306 61.1808 13.5C60.5025 13.3 59.8055 13.1694 59.1008 13.11C58.7914 13.0468 58.4722 13.0497 58.164 13.1185C57.8559 13.1874 57.5657 13.3206 57.3127 13.5095C57.0596 13.6983 56.8493 13.9386 56.6956 14.2144C56.5419 14.4902 56.4483 14.7955 56.4208 15.11C56.1608 17.03 57.4208 18.74 58.1908 20.39C58.7408 21.56 59.5508 24.12 57.7508 24.68C56.9036 24.8441 56.0267 24.7536 55.2308 24.42C54.3308 24.15 53.4508 23.8 52.5708 23.47C52.5008 23.47 52.1008 23.37 52.1508 23.55C52.7942 25.7547 54.0568 27.7285 55.7886 29.2369C57.5204 30.7454 59.6487 31.7252 61.9208 32.06L61.6308 31.87C61.6308 35 61.7408 38.14 61.7508 41.28C61.7508 41.48 62.3908 41.57 62.3908 41.41C62.3908 38.27 62.3108 35.14 62.2608 32C62.2608 31.88 62.0608 31.82 61.9708 31.8C59.8135 31.4635 57.7991 30.5118 56.169 29.0591C54.539 27.6065 53.3626 25.7145 52.7808 23.61L52.3508 23.68C53.9308 24.27 58.4708 26.5 59.3508 23.83C59.9008 22.17 58.8208 20.42 58.0808 19C57.3408 17.58 56.2708 15.27 57.6308 13.92C57.9527 13.6789 58.3269 13.5171 58.723 13.4476C59.1191 13.3781 59.5261 13.4029 59.9108 13.52C60.8915 13.6136 61.8317 13.9579 62.6408 14.52C62.7108 14.58 63.2508 14.78 63.2508 14.58C63.1129 13.8181 63.2142 13.0321 63.5408 12.33C64.2008 11.43 65.5408 11.6 66.4608 11.7C67.6008 11.82 68.7408 11.93 69.8908 12C70.3498 11.9786 70.801 12.1243 71.1608 12.41C71.5549 12.7194 71.9289 13.0534 72.2808 13.41C73.6002 14.7503 74.5441 16.4138 75.018 18.2338C75.4919 20.0539 75.479 21.9665 74.9808 23.78C74.3801 25.8391 73.1957 27.6799 71.5708 29.08C71.5635 29.0902 71.5595 29.1025 71.5595 29.115C71.5595 29.1276 71.5635 29.1398 71.5708 29.15L75.1608 38.44C75.2308 38.62 75.8508 38.67 75.7908 38.51L75.7408 38.48Z" fill="#003F7F"/>
<path d="M54.9095 24.8999C54.7395 22.4399 51.2795 22.1299 50.9095 24.2399C50.4395 27.1399 53.9995 30.7999 55.9095 28.6899" fill="white"/>
<path d="M55.2291 24.8699C55.1954 24.3923 55.0135 23.9372 54.7088 23.5679C54.404 23.1986 53.9916 22.9337 53.5291 22.8099C53.0881 22.668 52.6168 22.6488 52.1658 22.7545C51.7148 22.8602 51.301 23.0868 50.9691 23.4099C50.2491 24.2199 50.4891 25.5399 50.8591 26.4599C51.2732 27.53 52.029 28.4334 53.0091 29.0299C53.4922 29.3445 54.0676 29.486 54.6414 29.4316C55.2153 29.3771 55.7538 29.1297 56.1691 28.7299C56.3391 28.5399 55.7091 28.5199 55.5991 28.6499C55.4761 28.8004 55.3243 28.9248 55.1526 29.0158C54.9808 29.1068 54.7927 29.1626 54.5991 29.1799C54.2432 29.1642 53.898 29.0538 53.5991 28.8599C52.7234 28.3525 52.0252 27.5879 51.5991 26.6699C51.3594 26.2434 51.2091 25.7724 51.1576 25.2858C51.106 24.7993 51.1542 24.3073 51.2991 23.8399C51.4283 23.5371 51.6581 23.2882 51.9496 23.1352C52.2411 22.9821 52.5764 22.9344 52.8991 22.9999C53.3489 23.0955 53.755 23.3361 54.0549 23.6847C54.3548 24.0334 54.5319 24.4709 54.5591 24.9299C54.5591 25.1099 55.2191 25.0599 55.1991 24.8699H55.2291Z" fill="#003F7F"/>
<path d="M94.4199 58.07C98.7899 58.25 104.61 53.38 106.52 49.69C104.52 49.22 96.2299 41.38 94.5199 38.98C92.8099 36.58 91.4099 34.92 88.1999 34.7C86.6999 34.64 81.5898 34.8 81.5898 34.8L81.6999 35.01L94.4199 58.07Z" fill="#D96098"/>
</g>
<defs>
<clipPath id="clip0_787_6494">
<rect width="200.86" height="235.56" fill="white"/>
</clipPath>
</defs>
</svg>
