<svg width="45" height="45" viewBox="0 0 45 45" fill="none" xmlns="http://www.w3.org/2000/svg">
<rect y="5" width="40" height="40" rx="8" fill="#004BA5"/>
<path d="M20 1H36C40.4183 1 44 4.58172 44 9V25" stroke="#004BA5" stroke-width="2"/>
<path d="M30.0607 26.0607C30.6464 25.4749 30.6464 24.5251 30.0607 23.9393L20.5147 14.3934C19.9289 13.8076 18.9792 13.8076 18.3934 14.3934C17.8076 14.9792 17.8076 15.9289 18.3934 16.5147L26.8787 25L18.3934 33.4853C17.8076 34.0711 17.8076 35.0208 18.3934 35.6066C18.9792 36.1924 19.9289 36.1924 20.5147 35.6066L30.0607 26.0607ZM11 26.5L18 26.5L18 23.5L11 23.5L11 26.5ZM18 26.5L29 26.5L29 23.5L18 23.5L18 26.5Z" fill="white"/>
</svg>
