<svg width="49" height="32" viewBox="0 0 49 32" fill="none" xmlns="http://www.w3.org/2000/svg">
<g clip-path="url(#clip0_1182_4081)">
<path d="M47.8667 8.32458H16.2578V30.3313H47.8667V8.32458Z" stroke="black" stroke-width="1.5" stroke-linecap="round" stroke-linejoin="round"/>
<path d="M47.5577 23.614H16.0312V26.8697H47.5577V23.614Z" fill="black"/>
<path d="M24.3868 16.0517L15.2379 12.8373L14.9907 8.201H26.6534L19.8742 2.80235C18.5205 1.72639 16.8435 1.13836 15.1143 1.1333H2.13281V14.4651L22.4087 21.6358C22.7753 21.7711 23.1651 21.8329 23.5556 21.8176C23.9461 21.8022 24.3298 21.7102 24.6847 21.5466C25.0397 21.383 25.3589 21.1511 25.6242 20.8641C25.8895 20.5771 26.0957 20.2407 26.231 19.874C26.3663 19.5074 26.4281 19.1177 26.4127 18.7271C26.3974 18.3366 26.3053 17.9529 26.1417 17.598C25.9782 17.2431 25.7462 16.9238 25.4593 16.6585C25.1723 16.3932 24.8359 16.187 24.4692 16.0517H24.3868Z" fill="white" stroke="black" stroke-width="1.5" stroke-linecap="round" stroke-linejoin="round"/>
</g>
<defs>
<clipPath id="clip0_1182_4081">
<rect width="49" height="31.4853" fill="white"/>
</clipPath>
</defs>
</svg>
