<svg width="24" height="16" viewBox="0 0 24 16" fill="none" xmlns="http://www.w3.org/2000/svg">
<path d="M23.2 4.44995H7.85999V15.13H23.2V4.44995Z" stroke="#121212" stroke-linecap="round" stroke-linejoin="round"/>
<path d="M23.06 11.87H7.76001V13.45H23.06V11.87Z" fill="#121212"/>
<path d="M11.33 8.19996L6.89 6.63996L6.77 4.38996H12.43L9.14 1.76996C8.48304 1.24779 7.6692 0.962414 6.83 0.959961H0.529999V7.42995L10.37 10.91C10.5479 10.9731 10.7365 11.0005 10.925 10.9904C11.1135 10.9803 11.2982 10.933 11.4683 10.8512C11.6384 10.7693 11.7907 10.6547 11.9163 10.5137C12.0418 10.3728 12.1383 10.2084 12.2 10.03C12.2634 9.8527 12.2912 9.66466 12.2818 9.47664C12.2723 9.28861 12.2259 9.10431 12.1451 8.93428C12.0642 8.76426 11.9506 8.61186 11.8107 8.48585C11.6709 8.35983 11.5075 8.26268 11.33 8.19996Z" fill="white" stroke="#121212" stroke-linecap="round" stroke-linejoin="round"/>
</svg>
