<svg width="24" height="24" viewBox="0 0 24 24" fill="none" xmlns="http://www.w3.org/2000/svg">
<path d="M21 13.067V18.972C21 20.092 20.099 21 18.987 21H5.013C3.901 21 3 20.092 3 18.972V6.028C3 4.908 3.901 4 5.013 4H12" stroke="#004FFE" stroke-width="1.5" stroke-linecap="round" stroke-linejoin="round"/>
<path d="M7.82812 17.172L11.5591 16.239C11.7351 16.195 11.8951 16.104 12.0241 15.976L20.4141 7.58599C21.1951 6.80499 21.1951 5.53899 20.4141 4.75799L20.2421 4.58599C19.4611 3.80499 18.1951 3.80499 17.4141 4.58599L9.02412 12.976C8.89612 13.104 8.80513 13.265 8.76113 13.441L7.82813 17.172" stroke="#004FFE" stroke-width="1.5" stroke-linecap="round" stroke-linejoin="round"/>
<path d="M15.8301 6.16992L18.8301 9.16992" stroke="#004FFE" stroke-width="1.5" stroke-linecap="round" stroke-linejoin="round"/>
<path d="M11.5458 16.2419C11.5598 16.1359 11.5778 16.0309 11.5778 15.9209C11.5778 14.5399 10.4588 13.4209 9.07784 13.4209C8.96784 13.4209 8.86284 13.4399 8.75684 13.4529" stroke="#004FFE" stroke-width="1.5" stroke-linecap="round" stroke-linejoin="round"/>
</svg>
