<svg width="12" height="20" viewBox="0 0 12 20" fill="none" xmlns="http://www.w3.org/2000/svg">
<g clip-path="url(#clip0_1872_367)">
<path d="M11.4999 0.784912H0.629883V19.2149H11.4999V0.784912Z" stroke="#939393" stroke-linecap="round" stroke-linejoin="round"/>
<path d="M6.05996 17.6749C6.5294 17.6749 6.90996 17.2943 6.90996 16.8249C6.90996 16.3554 6.5294 15.9749 6.05996 15.9749C5.59052 15.9749 5.20996 16.3554 5.20996 16.8249C5.20996 17.2943 5.59052 17.6749 6.05996 17.6749Z" fill="#939393"/>
<path d="M5.38965 2.96484H8.15965" stroke="#939393" stroke-linecap="round" stroke-linejoin="round"/>
<path d="M3.7998 3.46484C4.07595 3.46484 4.2998 3.24099 4.2998 2.96484C4.2998 2.6887 4.07595 2.46484 3.7998 2.46484C3.52366 2.46484 3.2998 2.6887 3.2998 2.96484C3.2998 3.24099 3.52366 3.46484 3.7998 3.46484Z" fill="#939393"/>
</g>
<defs>
<clipPath id="clip0_1872_367">
<rect x="0.129883" y="0.284912" width="11.87" height="19.43" rx="1" fill="white"/>
</clipPath>
</defs>
</svg>
