<svg width="32" height="32" viewBox="0 0 32 32" fill="none" xmlns="http://www.w3.org/2000/svg">
<rect x="1" y="1" width="30" height="30" rx="15" fill="#00AAA5"/>
<path d="M23.9717 9.001H19.8674C19.4377 9.00087 19.0123 9.08671 18.6153 9.25361C18.2183 9.42051 17.8575 9.66522 17.5536 9.97373C17.2498 10.2822 17.0088 10.6485 16.8444 11.0516C16.6801 11.4547 16.5956 11.8868 16.5957 12.3231V13.6192V21.9038H15.3954V13.7296C15.3994 13.6929 15.4013 13.6561 15.4013 13.6192V12.3221C15.4014 11.8858 15.3169 11.4539 15.1526 11.0508C14.9883 10.6478 14.7474 10.2816 14.4437 9.97308C14.1399 9.66458 13.7793 9.41986 13.3824 9.2529C12.9855 9.08594 12.5601 9 12.1305 9H8.0263C7.75411 9 7.49305 9.1098 7.30058 9.30523C7.10811 9.50066 7 9.76572 7 10.0421V13.6282C7 13.9046 7.10811 14.1697 7.30058 14.3651C7.49305 14.5605 7.75411 14.6703 8.0263 14.6703H11.3722C11.5096 14.6746 11.6464 14.6509 11.7746 14.6005C11.9028 14.5501 12.0197 14.4741 12.1184 14.3769C12.2171 14.2798 12.2956 14.1635 12.3491 14.035C12.4027 13.9064 12.4303 13.7683 12.4303 13.6287C12.4303 13.4891 12.4027 13.351 12.3491 13.2225C12.2956 13.0939 12.2171 12.9776 12.1184 12.8805C12.0197 12.7833 11.9028 12.7073 11.7746 12.6569C11.6464 12.6065 11.5096 12.5828 11.3722 12.5871H9.05164V11.1033H13.2538C13.2737 11.1033 13.2928 11.1113 13.3069 11.1256C13.321 11.1399 13.3289 11.1593 13.3289 11.1796V13.3029C13.3249 13.3396 13.323 13.3765 13.323 13.4134V22.9509C13.3233 23.2213 13.4261 23.4813 13.6103 23.6767C13.7944 23.8721 14.0457 23.9879 14.3118 24H17.7001C17.9627 23.9832 18.2091 23.8654 18.3892 23.6708C18.5694 23.4761 18.6698 23.219 18.67 22.9519V11.1756C18.67 11.1553 18.678 11.1359 18.692 11.1216C18.7061 11.1073 18.7253 11.0993 18.7453 11.0993H22.9484V12.5831H20.6268C20.3602 12.5915 20.1074 12.7049 19.9218 12.8993C19.7362 13.0938 19.6323 13.3539 19.6323 13.6247C19.6323 13.8955 19.7362 14.1556 19.9218 14.35C20.1074 14.5445 20.3602 14.6579 20.6268 14.6663H23.9747C24.1094 14.6663 24.2428 14.6393 24.3673 14.5869C24.4917 14.5346 24.6048 14.4578 24.7 14.361C24.7952 14.2642 24.8708 14.1493 24.9223 14.0229C24.9737 13.8965 25.0001 13.761 25 13.6242V10.0381C24.999 9.76214 24.89 9.49791 24.6972 9.30345C24.5044 9.10899 24.2434 9.0002 23.9717 9.001Z" fill="white"/>
<rect x="1" y="1" width="30" height="30" rx="15" stroke="white" stroke-width="2"/>
</svg>
