<svg width="72" height="78" viewBox="0 0 72 78" fill="none" xmlns="http://www.w3.org/2000/svg">
<g filter="url(#filter0_d_560_3104)">
<path d="M39.0729 51.3125C37.6488 53.0214 36.9367 53.8759 36 53.8759C35.0632 53.8759 34.3512 53.0214 32.9271 51.3125L26 43L46 43L39.0729 51.3125Z" fill="white"/>
<rect x="21" y="17" width="30" height="30" rx="15" fill="#00AAA5"/>
<path d="M31.7089 38.5423C32.3673 38.0174 33.0775 37.4167 33.9195 37.4167H37.6666C38.1268 37.4167 38.4999 37.0436 38.4999 36.5834V36.5834C38.4999 34.7417 39.9916 33.25 41.8332 33.25V33.25C42.1494 33.25 42.3839 32.9568 42.3145 32.6484L40.8666 26.2167C40.6916 25.4584 40.0166 24.9167 39.2416 24.9167H36.8332C36.373 24.9167 35.9999 25.2898 35.9999 25.75V25.75C35.9999 26.2103 36.373 26.5834 36.8332 26.5834H37.8001C38.6426 26.5834 39.3725 27.1678 39.5567 27.99L40.4066 31.7844C40.4074 31.7881 40.4046 31.7917 40.4008 31.7917V31.7917C40.4002 31.7917 40.3996 31.7918 40.3991 31.7919C39.1409 32.1708 38.0904 33.0302 37.464 34.1593C36.99 35.0138 36.1923 35.75 35.2152 35.75H33.9246C33.0801 35.75 32.369 35.1445 31.7069 34.6201C31.1654 34.1913 30.4427 33.9841 29.6666 34.1334C28.6832 34.325 27.8916 35.1334 27.7082 36.1167C27.4166 37.7 28.6332 39.0834 30.1666 39.0834C30.7498 39.0834 31.2847 38.8805 31.7089 38.5423ZM30.1666 37.4167C29.7082 37.4167 29.3332 37.0417 29.3332 36.5834C29.3332 36.125 29.7082 35.75 30.1666 35.75C30.6249 35.75 30.9999 36.125 30.9999 36.5834C30.9999 37.0417 30.6249 37.4167 30.1666 37.4167ZM41.8332 34.0834C40.4499 34.0834 39.3332 35.2 39.3332 36.5834C39.3332 37.9667 40.4499 39.0834 41.8332 39.0834C43.2166 39.0834 44.3332 37.9667 44.3332 36.5834C44.3332 35.2 43.2166 34.0834 41.8332 34.0834ZM41.8332 37.4167C41.3749 37.4167 40.9999 37.0417 40.9999 36.5834C40.9999 36.125 41.3749 35.75 41.8332 35.75C42.2916 35.75 42.6666 36.125 42.6666 36.5834C42.6666 37.0417 42.2916 37.4167 41.8332 37.4167Z" fill="white"/>
<rect x="21" y="17" width="30" height="30" rx="15" stroke="white" stroke-width="2"/>
</g>
<defs>
<filter id="filter0_d_560_3104" x="0" y="0" width="72" height="79" filterUnits="userSpaceOnUse" color-interpolation-filters="sRGB">
<feFlood flood-opacity="0" result="BackgroundImageFix"/>
<feColorMatrix in="SourceAlpha" type="matrix" values="0 0 0 0 0 0 0 0 0 0 0 0 0 0 0 0 0 0 127 0" result="hardAlpha"/>
<feOffset dy="4"/>
<feGaussianBlur stdDeviation="10"/>
<feComposite in2="hardAlpha" operator="out"/>
<feColorMatrix type="matrix" values="0 0 0 0 0.283333 0 0 0 0 0.283333 0 0 0 0 0.283333 0 0 0 0.25 0"/>
<feBlend mode="normal" in2="BackgroundImageFix" result="effect1_dropShadow_560_3104"/>
<feBlend mode="normal" in="SourceGraphic" in2="effect1_dropShadow_560_3104" result="shape"/>
</filter>
</defs>
</svg>
