<svg width="21" height="21" viewBox="0 0 21 21" fill="none" xmlns="http://www.w3.org/2000/svg">
<path d="M10.2 0.999976C10.7629 0.992046 11.3218 1.09524 11.8448 1.30366C12.3678 1.51207 12.8445 1.82161 13.2476 2.21454C13.6508 2.60747 13.9724 3.07607 14.1942 3.59351C14.416 4.11095 14.5335 4.66705 14.54 5.22997C14.5322 5.79205 14.4137 6.34707 14.1914 6.86336C13.969 7.37964 13.6471 7.84707 13.2441 8.23894C12.8411 8.63082 12.3648 8.93946 11.8425 9.14725C11.3202 9.35504 10.7621 9.45791 10.2 9.44997C9.63543 9.4619 9.07408 9.36199 8.5483 9.15599C8.02251 8.94999 7.54269 8.64199 7.13648 8.24972C6.73027 7.85746 6.4057 7.38868 6.18147 6.87041C5.95724 6.35213 5.83779 5.79461 5.83 5.22997C5.83648 4.66448 5.95497 4.10588 6.17861 3.58646C6.40225 3.06703 6.72662 2.59707 7.13297 2.20374C7.53931 1.81042 8.01958 1.50152 8.54601 1.2949C9.07244 1.08828 9.6346 0.988047 10.2 0.999976Z" stroke="#121212" stroke-linecap="round" stroke-linejoin="round"/>
<path d="M0.520004 20.07L0.750004 19C1.3173 16.3542 2.62878 13.9255 4.53001 12L5.36 11.15L5.93 11.37C7.35211 11.9321 8.87255 12.2032 10.4013 12.1671C11.93 12.1311 13.436 11.7886 14.83 11.16L15.25 11.53C17.753 13.7423 19.396 16.7662 19.89 20.07H0.520004Z" stroke="#121212" stroke-linecap="round" stroke-linejoin="round"/>
</svg>
