<svg width="80" height="77" viewBox="0 0 80 77" fill="none" xmlns="http://www.w3.org/2000/svg">
<path d="M34.75 8.75H24.25C22.317 8.75 20.75 10.317 20.75 12.25V22.75C20.75 24.683 22.317 26.25 24.25 26.25H34.75C36.683 26.25 38.25 24.683 38.25 22.75V12.25C38.25 10.317 36.683 8.75 34.75 8.75Z" fill="#333333"/>
<path d="M34.75 29.75H24.25C22.317 29.75 20.75 31.317 20.75 33.25V43.75C20.75 45.683 22.317 47.25 24.25 47.25H34.75C36.683 47.25 38.25 45.683 38.25 43.75V33.25C38.25 31.317 36.683 29.75 34.75 29.75Z" fill="#333333"/>
<path d="M55.75 8.75H45.25C43.317 8.75 41.75 10.317 41.75 12.25V22.75C41.75 24.683 43.317 26.25 45.25 26.25H55.75C57.683 26.25 59.25 24.683 59.25 22.75V12.25C59.25 10.317 57.683 8.75 55.75 8.75Z" fill="#333333"/>
<path d="M43.5 40.25C43.9641 40.25 44.4092 40.0656 44.7374 39.7374C45.0656 39.4092 45.25 38.9641 45.25 38.5V31.5C45.25 31.0359 45.0656 30.5908 44.7374 30.2626C44.4092 29.9344 43.9641 29.75 43.5 29.75C43.0359 29.75 42.5908 29.9344 42.2626 30.2626C41.9344 30.5908 41.75 31.0359 41.75 31.5V38.5C41.75 38.9641 41.9344 39.4092 42.2626 39.7374C42.5908 40.0656 43.0359 40.25 43.5 40.25Z" fill="#333333"/>
<path d="M57.5 33.25H52.25V31.5C52.25 31.0359 52.0656 30.5908 51.7374 30.2626C51.4092 29.9344 50.9641 29.75 50.5 29.75C50.0359 29.75 49.5908 29.9344 49.2626 30.2626C48.9344 30.5908 48.75 31.0359 48.75 31.5V43.75H43.5C43.0359 43.75 42.5908 43.9344 42.2626 44.2626C41.9344 44.5908 41.75 45.0359 41.75 45.5C41.75 45.9641 41.9344 46.4092 42.2626 46.7374C42.5908 47.0656 43.0359 47.25 43.5 47.25H50.5C50.9641 47.25 51.4092 47.0656 51.7374 46.7374C52.0656 46.4092 52.25 45.9641 52.25 45.5V36.75H57.5C57.9641 36.75 58.4092 36.5656 58.7374 36.2374C59.0656 35.9092 59.25 35.4641 59.25 35C59.25 34.5359 59.0656 34.0908 58.7374 33.7626C58.4092 33.4344 57.9641 33.25 57.5 33.25Z" fill="#333333"/>
<path d="M57.5 40.25C57.0359 40.25 56.5908 40.4344 56.2626 40.7626C55.9344 41.0908 55.75 41.5359 55.75 42V45.5C55.75 45.9641 55.9344 46.4092 56.2626 46.7374C56.5908 47.0656 57.0359 47.25 57.5 47.25C57.9641 47.25 58.4092 47.0656 58.7374 46.7374C59.0656 46.4092 59.25 45.9641 59.25 45.5V42C59.25 41.5359 59.0656 41.0908 58.7374 40.7626C58.4092 40.4344 57.9641 40.25 57.5 40.25Z" fill="#333333"/>
<rect x="8" y="64" width="64" height="5" rx="2.5" fill="black" fill-opacity="0.7"/>
</svg>
