<svg width="21" height="23" viewBox="0 0 21 23" fill="none" xmlns="http://www.w3.org/2000/svg">
<g clip-path="url(#clip0_1625_1555)">
<path d="M10.1201 0.5V3.71" stroke="#121212" stroke-linecap="round" stroke-linejoin="round"/>
<path d="M16.3604 1.75C18.5103 3.99661 19.7196 6.98046 19.7403 10.09" stroke="#121212" stroke-linecap="round" stroke-linejoin="round"/>
<path d="M0.5 10.0899C0.519447 6.95088 1.75208 3.94096 3.94 1.68994" stroke="#121212" stroke-linecap="round" stroke-linejoin="round"/>
<path d="M13.0402 19.12H18.0402C18.1952 19.1221 18.3474 19.0791 18.4784 18.9963C18.6095 18.9135 18.7136 18.7945 18.7782 18.6536C18.8428 18.5127 18.8651 18.3561 18.8424 18.2028C18.8197 18.0495 18.7529 17.9061 18.6502 17.79L17.7702 16.79C16.5952 15.4438 15.9485 13.7169 15.9502 11.93V9.58001C15.9476 8.03553 15.3322 6.55522 14.2391 5.46404C13.1461 4.37286 11.6647 3.76001 10.1202 3.76001C8.57748 3.76265 7.09868 4.37668 6.00779 5.46757C4.9169 6.55846 4.30287 8.03726 4.30022 9.58001V11.92C4.30194 13.7069 3.65527 15.4338 2.48023 16.78L1.60023 17.78C1.49754 17.8961 1.43078 18.0395 1.40806 18.1928C1.38534 18.3461 1.40764 18.5027 1.47225 18.6436C1.53686 18.7845 1.641 18.9035 1.77201 18.9863C1.90302 19.0691 2.05526 19.1121 2.21023 19.11H13.0402V19.12Z" stroke="#121212" stroke-linecap="round" stroke-linejoin="round"/>
<path d="M10.1202 21.96C10.8802 21.9578 11.6096 21.6603 12.1544 21.1304C12.6992 20.6005 13.0168 19.8796 13.0402 19.12H7.2002C7.22354 19.8796 7.54115 20.6005 8.08597 21.1304C8.63079 21.6603 9.36019 21.9578 10.1202 21.96Z" stroke="#121212" stroke-linecap="round" stroke-linejoin="round"/>
</g>
<defs>
<clipPath id="clip0_1625_1555">
<rect width="20.24" height="22.45" fill="white"/>
</clipPath>
</defs>
</svg>
