<svg width="12" height="13" viewBox="0 0 12 13" fill="none" xmlns="http://www.w3.org/2000/svg">
<g clip-path="url(#clip0_1288_1074)">
<path d="M2.56435 2.2229H9.34431C9.94975 2.2229 10.5304 2.46341 10.9585 2.89152C11.3866 3.31963 11.6271 3.90028 11.6271 4.50572C11.6271 5.11116 11.3866 5.6918 10.9585 6.11991C10.5304 6.54802 9.94975 6.78853 9.34431 6.78853H2.64805C2.04261 6.78853 1.46197 7.02904 1.03386 7.45715C0.605745 7.88526 0.365234 8.46591 0.365234 9.07135C0.365234 9.67679 0.605745 10.2574 1.03386 10.6855C1.46197 11.1137 2.04261 11.3542 2.64805 11.3542H10.2574" stroke="#121212" stroke-linecap="round" stroke-linejoin="round"/>
<path d="M3.00561 3.76759L0.380371 2.25332L3.00561 0.731445V3.76759Z" fill="#121212"/>
<path d="M10.1814 12.7542C10.4656 12.7541 10.7434 12.6694 10.9792 12.5108C11.2151 12.3522 11.3984 12.127 11.5057 11.8638C11.613 11.6006 11.6395 11.3115 11.5818 11.0332C11.5241 10.7549 11.3848 10.5001 11.1817 10.3013C10.9786 10.1024 10.7208 9.96866 10.4413 9.91695C10.1619 9.86523 9.87332 9.89794 9.6125 10.0109C9.35169 10.1239 9.13044 10.3119 8.97697 10.5512C8.8235 10.7904 8.74476 11.0699 8.75081 11.3541C8.75877 11.7282 8.913 12.0843 9.18043 12.346C9.44785 12.6077 9.80718 12.7543 10.1814 12.7542Z" fill="#121212"/>
</g>
<defs>
<clipPath id="clip0_1288_1074">
<rect width="12" height="12.0228" fill="white" transform="translate(0 0.731445)"/>
</clipPath>
</defs>
</svg>
