<svg width="16" height="16" viewBox="0 0 16 16" fill="none" xmlns="http://www.w3.org/2000/svg">
<path fill-rule="evenodd" clip-rule="evenodd" d="M5.87101 13.14H4.31434C3.51167 13.14 2.86034 12.4893 2.86034 11.686V10.7313C2.86034 10.346 2.70701 9.97598 2.43434 9.70331L1.75901 9.02798C1.19101 8.45998 1.19101 7.53997 1.75901 6.97197L2.43434 6.29664C2.70701 6.02398 2.86034 5.65464 2.86034 5.26864V4.31398C2.86034 3.51131 3.51101 2.85998 4.31434 2.85998H5.26901C5.65434 2.85998 6.02434 2.70664 6.29701 2.43397L6.97234 1.75864C7.54034 1.19064 8.46034 1.19064 9.02834 1.75864L9.70367 2.43397C9.97634 2.70664 10.3463 2.85998 10.7317 2.85998H11.6863C12.489 2.85998 13.1403 3.51064 13.1403 4.31398V5.26864C13.1403 5.65397 13.2937 6.02398 13.5663 6.29664L14.2417 6.97197C14.8097 7.53997 14.8097 8.45998 14.2417 9.02798L13.5663 9.70331C13.2937 9.97598 13.1403 10.346 13.1403 10.7313V11.686C13.1403 12.4886 12.4897 13.14 11.6863 13.14H10.7317C10.3463 13.14 9.97634 13.2933 9.70367 13.566L9.02834 14.2413C8.46034 14.8093 7.54034 14.8093 6.97234 14.2413L5.87101 13.14Z" stroke="#004FFE" stroke-linecap="round" stroke-linejoin="round"/>
<path d="M6 10L10 6" stroke="#004FFE" stroke-linecap="round" stroke-linejoin="round"/>
<path d="M6.16568 6.00004C6.07368 6.00004 5.99901 6.07471 5.99968 6.16671C5.99968 6.25871 6.07434 6.33337 6.16634 6.33337C6.25834 6.33337 6.33301 6.25871 6.33301 6.16671C6.33301 6.07471 6.25834 6.00004 6.16568 6.00004" stroke="#004FFE" stroke-linecap="round" stroke-linejoin="round"/>
<path d="M9.83267 9.66667C9.74067 9.66667 9.666 9.74133 9.66667 9.83333C9.66667 9.92533 9.74134 10 9.83334 10C9.92534 10 10 9.92533 10 9.83333C10 9.74133 9.92534 9.66667 9.83267 9.66667" stroke="#004FFE" stroke-linecap="round" stroke-linejoin="round"/>
</svg>
