<svg width="212" height="165" viewBox="0 0 212 165" fill="none" xmlns="http://www.w3.org/2000/svg">
<g clip-path="url(#clip0_860_6297)">
<path d="M8.06016 59.9599C14.5502 38.4699 35.9402 22.8299 58.3702 21.6499C84.8401 20.2899 111.06 36.5799 136.75 30.2899C145.5 28.1499 153.83 23.4099 162.84 23.7599C176.35 24.2899 186.84 36.1399 192.26 48.5099C196.837 59.0873 199.061 70.5325 198.78 82.0541C198.498 93.5756 195.718 104.899 190.63 115.24C185.98 124.52 179.02 133.24 169.36 137C154.48 142.85 137.92 135.84 121.94 135.54C109.86 135.32 98.1002 138.99 86.3902 141.93C74.6802 144.87 62.2901 147.1 50.6001 144.03C41.8101 141.72 33.6802 135.76 29.6802 127.48C26.3202 120.55 25.8501 115.39 20.5401 109.34C8.63014 95.7799 2.71016 77.7499 8.06016 59.9599Z" fill="#EBF4FF"/>
<path d="M141.9 19.4599C146.9 19.1999 152.71 17.8199 154.46 13.1699C155.8 9.59989 153.9 5.41989 150.84 3.16989C147.78 0.919894 143.84 0.169899 140.02 0.0498988C136.04 -0.264318 132.043 0.401782 128.38 1.9899C123.32 4.4399 117.46 13.0399 123.1 18.0499C126.78 21.2899 137.41 19.6999 141.9 19.4599Z" fill="#EBF4FF"/>
<path d="M7.80003 44.54C8.01979 45.3024 8.00786 46.1129 7.76579 46.8684C7.52371 47.624 7.06241 48.2905 6.44053 48.7832C5.81865 49.2759 5.06432 49.5725 4.27341 49.6354C3.48251 49.6982 2.69076 49.5245 1.99888 49.1362C1.30699 48.7479 0.746226 48.1626 0.387856 47.4547C0.029485 46.7469 -0.110298 45.9484 -0.0136946 45.1609C0.0829083 44.3734 0.4115 43.6324 0.930336 43.0322C1.44917 42.4319 2.13484 41.9996 2.90006 41.79C3.91433 41.5122 4.99717 41.6451 5.91422 42.1598C6.83128 42.6744 7.50874 43.5295 7.80003 44.54Z" fill="#EBF4FF"/>
<path d="M211.8 98.8901C212.02 99.6525 212.008 100.463 211.766 101.219C211.524 101.974 211.062 102.641 210.441 103.133C209.819 103.626 209.064 103.923 208.273 103.985C207.483 104.048 206.691 103.875 205.999 103.486C205.307 103.098 204.746 102.513 204.388 101.805C204.029 101.097 203.89 100.299 203.986 99.511C204.083 98.7235 204.412 97.9825 204.93 97.3823C205.449 96.782 206.135 96.3497 206.9 96.1401C207.914 95.8623 208.997 95.9952 209.914 96.5099C210.831 97.0245 211.509 97.8796 211.8 98.8901Z" fill="#EBF4FF"/>
<path d="M45.2098 109.66C37.2998 109.43 36.1398 96.4 40.5598 91.51C49.6298 81.97 64.7598 91.97 64.9898 103.61C64.9898 104.07 64.9898 104.77 64.7598 105.01L45.2098 109.66Z" fill="#EBF4FF"/>
<path d="M45.0599 109.44C42.4199 109.34 40.5499 107.36 39.5699 105.06C38.5479 102.524 38.2569 99.7528 38.7299 97.06C38.9009 95.7507 39.2825 94.4776 39.8599 93.2901C40.559 92.0177 41.5409 90.9229 42.7299 90.09C43.9723 89.1689 45.3923 88.5155 46.9001 88.1713C48.408 87.827 49.9709 87.7994 51.4899 88.09C57.6899 89.26 62.9299 94.79 64.2199 100.9C64.3948 101.696 64.4952 102.506 64.52 103.32C64.52 103.64 64.6 104.6 64.4 104.78C64.2 104.96 64.06 104.86 63.96 104.89L63.0999 105.09L57.0599 106.57C53.0599 107.51 49.1299 108.44 45.1699 109.4H44.9399C44.4499 109.52 45.2999 109.87 45.5399 109.82L56.89 107.12L63.5999 105.52C64.0824 105.433 64.5598 105.319 65.0299 105.18C65.4399 105.03 65.4599 104.58 65.4799 104.18C65.515 103.333 65.4546 102.484 65.2999 101.65C64.6657 98.3804 63.1243 95.3552 60.8519 92.9202C58.5796 90.4851 55.668 88.7385 52.45 87.8801C49.3832 87.0445 46.1138 87.4019 43.2999 88.8801C41.8506 89.6373 40.5869 90.7062 39.5999 92.0101C38.8567 93.0956 38.321 94.3094 38.02 95.59C36.79 100.45 37.8499 107.87 43.4399 109.53C44.0907 109.718 44.7628 109.822 45.4399 109.84C45.6199 109.84 45.7399 109.79 45.6699 109.63C45.5999 109.47 45.1599 109.45 45.0599 109.44Z" fill="#003F7F"/>
<path d="M84.8499 110.67C84.8499 122.19 77.25 130.2 68.09 131.53C47.77 134.53 44.6699 125.21 44.6699 113.69C44.6699 102.17 50.5599 87.48 65.9199 87.48C78.6399 87.48 84.8499 99.14 84.8499 110.67Z" fill="#004BA5"/>
<path d="M74.61 110.67C74.61 122.19 67.11 131.53 57.85 131.53C48.59 131.53 41.0601 122.19 41.0601 110.67C41.0601 99.15 48.5601 89.8 57.8101 89.8C67.0601 89.8 74.61 99.14 74.61 110.67Z" fill="#004BA5"/>
<path d="M67.3201 110.67C67.3201 117.18 63.0801 122.45 57.8501 122.45C52.6201 122.45 48.3901 117.18 48.3901 110.67C48.3901 104.16 52.6301 98.8799 57.8501 98.8799C63.0701 98.8799 67.3201 104.16 67.3201 110.67Z" fill="#EBF4FF"/>
<path d="M66.85 110.57C66.85 114.76 65.0001 119.34 61.1201 121.37C60.2631 121.832 59.3212 122.114 58.3515 122.2C57.3819 122.286 56.4049 122.174 55.48 121.87C53.5492 121.124 51.9254 119.751 50.8701 117.97C49.6933 116.03 49.0056 113.833 48.8662 111.569C48.7269 109.304 49.14 107.04 50.0701 104.97C51.6901 101.39 55.4101 98.25 59.5601 99.24C64.4401 100.4 66.82 105.98 66.85 110.54C66.85 110.85 67.79 110.96 67.79 110.73C67.79 106.18 65.6101 101.28 61.2301 99.38C59.2975 98.5825 57.1477 98.4827 55.1496 99.0976C53.1515 99.7126 51.4297 101.004 50.28 102.75C48.8988 104.822 48.09 107.222 47.9354 109.707C47.7809 112.192 48.2862 114.673 49.4001 116.9C51.3201 120.68 55.3501 123.34 59.6801 122.47C65.0001 121.4 67.76 115.73 67.79 110.73C67.79 110.46 66.85 110.34 66.85 110.57Z" fill="#003F7F"/>
<path d="M71.3501 114.93C73.1101 115.09 74.8701 117.57 75.9901 118.93C78.5601 122.49 78.7201 125.29 83.2001 126.68C91.4083 129.308 99.7541 131.484 108.2 133.2C112.37 134.13 127.9 138.01 130.62 137.7C132.86 137.54 132.7 135.83 134.3 134.59C135.74 133.35 137.5 134.28 139.3 133.66C143.78 131.8 139.14 129.47 136.3 128.66L71.3501 114.93Z" fill="#EBF4FF" stroke="#003F7F" stroke-width="0.96" stroke-miterlimit="10"/>
<path d="M45.29 88.2899L66.54 83.9499C66.54 83.9499 73.99 80.8499 78.8 91.5499C78.8 91.5499 82.5201 100.24 89.3401 101.79L151.86 116.79L138.98 132.46L73.6801 116.64C73.6801 116.64 65.77 115.09 62.04 104.85C62.06 104.85 55.84 84.6899 45.29 88.2899Z" fill="#EBF4FF"/>
<path d="M45.58 88.47L56.06 86.34L63.34 84.85C64.5 84.61 65.7 84.43 66.86 84.13C67.7537 83.8535 68.6845 83.7152 69.62 83.72C70.8867 83.8467 72.1116 84.2434 73.2121 84.8833C74.3127 85.5233 75.2633 86.3917 76 87.43C77.45 89.27 78.2399 91.43 79.4099 93.43C80.7894 95.9293 82.6684 98.118 84.93 99.86C86.3445 100.873 87.9451 101.597 89.64 101.99L92.01 102.56L102.16 105L116.7 108.5L132.06 112.23L144.87 115.29L151.5 116.89L151.81 116.96L151.43 116.6L140.16 130.29L138.55 132.29H139.06L135.06 131.29L124.88 128.82L111.21 125.51L96.67 121.99L83.86 118.88L75.52 116.88L73.83 116.47H73.73H73.61C73.1849 116.36 72.7673 116.224 72.36 116.06C67.58 114.15 64.07 109.65 62.46 104.87C61.4299 101.731 60.0618 98.7134 58.38 95.87C56.14 92.13 52.82 88.07 48.13 87.71C47.0392 87.6284 45.9433 87.7713 44.9099 88.13C44.5799 88.24 45.4099 88.62 45.6599 88.54C46.6856 88.1897 47.7785 88.0824 48.8527 88.2264C49.9269 88.3704 50.9528 88.7619 51.8499 89.37C53.7695 90.7187 55.3984 92.4395 56.64 94.43C58.6716 97.537 60.2822 100.9 61.43 104.43C62.8934 109.133 66.065 113.118 70.32 115.6C71.3856 116.195 72.5256 116.646 73.71 116.94H73.81L74.5 117.11L81.58 118.82L93.58 121.72L107.9 125.19L121.9 128.59L133.01 131.28L138.69 132.66L138.94 132.72C139.05 132.72 139.34 132.82 139.43 132.72L150.69 119.01L152.3 117.01C152.45 116.83 152.02 116.67 151.92 116.65L147.23 115.52L135.53 112.7L120.36 109.05L105.25 105.42L93.79 102.66C92.09 102.25 90.32 101.93 88.65 101.4C85.59 100.4 83.1999 97.93 81.4099 95.4C80.4016 93.8252 79.4997 92.1849 78.71 90.49C77.27 87.71 75.16 85.11 72.17 83.96C70.509 83.309 68.6922 83.1663 66.95 83.55C66.7462 83.588 66.5456 83.6415 66.3499 83.71C66.2899 83.71 66.09 83.8 66.25 83.71C65.92 83.8 65.56 83.85 65.25 83.92L59.32 85.13L45.89 87.88L45.0399 88.05C44.5099 88.13 45.34 88.52 45.58 88.47Z" fill="#003F7F"/>
<path d="M113.54 106.09C109.36 105.16 109.54 109.19 109.67 112.61C111.37 113.23 113.39 113.07 115.25 113.07C114.94 121.91 124.25 123 131.07 123.16C133.87 123.16 138.07 123.78 140.85 122.53C142.09 121.91 143.79 119.9 143.17 118.35C142.55 116.64 140.07 117.26 138.52 117.26C134.8 117.11 129.99 117.73 126.42 116.33C123.32 115.09 122.54 111.06 121.15 108.26L113.54 106.09Z" fill="#004BA5"/>
<path d="M114.47 91.9801C112.77 92.2901 112.92 94.6101 112.77 96.1601C112.61 99.8901 112.15 103.61 111.99 107.16C115.41 108.55 115.99 109.16 117.58 112.59C118.97 115.69 122.23 116.93 125.49 117.86C131.38 119.26 136.66 118.17 142.4 117.71C142.71 115.38 143.02 112.12 141.62 110.26C139.62 107.78 135.73 106.85 133.4 104.52C130.61 101.88 126.57 94.5901 127.97 91.3401L114.47 91.9801Z" fill="#D96098"/>
<path d="M82.2202 136.14C78.3002 134.41 77.6702 138.4 77.1602 141.78C78.7102 142.72 80.7202 142.96 82.5402 143.32C80.5402 151.93 89.4402 154.8 96.1102 156.32C98.8502 156.86 102.83 158.32 105.81 157.61C107.15 157.24 109.22 155.61 108.91 153.95C108.6 152.29 106.08 152.28 104.56 151.95C100.93 151.08 96.1002 150.75 92.8702 148.69C90.0602 146.87 90.0902 142.77 89.2602 139.75L82.2202 136.14Z" fill="#004BA5"/>
<path d="M85.8802 122.47C84.1402 122.47 83.8803 124.76 83.3903 126.25C82.5203 129.87 81.3402 133.43 80.4902 136.9C83.5702 138.9 84.0602 139.66 84.9202 143.31C85.6802 146.63 88.6403 148.48 91.6503 150.02C97.1603 152.54 102.55 152.49 108.27 153.15C109.03 150.93 109.96 147.79 108.95 145.7C107.46 142.87 103.83 141.21 102 138.47C99.7802 135.34 97.2402 127.41 99.2402 124.47L85.8802 122.47Z" fill="#D96098"/>
<path d="M195.06 141.77C195.77 152.65 191.68 161.62 178.96 164.11C161.96 167.42 157.96 153.11 157.25 142.23C156.54 131.35 162.68 122.84 178.81 122.07C187.11 121.67 194.39 130.89 195.06 141.77Z" fill="#004BA5"/>
<path d="M185.79 144.56C186.5 155.44 180.37 164.26 172.1 164.26C163.83 164.26 156.56 155.44 155.85 144.56C155.14 133.68 161.27 124.86 169.54 124.86C177.81 124.86 185.06 133.68 185.79 144.56Z" fill="#004BA5"/>
<path d="M178.6 144.56C178.97 150.22 175.78 154.8 171.49 154.8C167.2 154.8 163.41 150.22 163.04 144.56C162.67 138.9 165.86 134.29 170.16 134.29C174.46 134.29 178.23 138.91 178.6 144.56Z" fill="#EBF4FF"/>
<path d="M178.12 144.62C178.32 148.06 177.22 152.2 173.98 153.97C170.74 155.74 167.32 153.44 165.54 150.73C164.482 149.079 163.811 147.211 163.577 145.265C163.343 143.318 163.553 141.344 164.19 139.49C165.33 136.41 168.19 133.7 171.67 134.78C175.74 136.05 177.84 140.68 178.12 144.62C178.12 144.88 179.12 144.78 179.12 144.5C178.83 140.56 176.8 136.17 172.92 134.63C171.304 134.016 169.521 134.004 167.898 134.598C166.275 135.191 164.919 136.349 164.08 137.86C163.067 139.75 162.545 141.864 162.562 144.008C162.58 146.152 163.136 148.257 164.18 150.13C165.93 153.34 169.36 155.74 173.13 154.79C177.59 153.65 179.36 148.66 179.13 144.5C179.06 144.29 178.11 144.34 178.12 144.62Z" fill="#003F7F"/>
<path d="M151.39 129.05C152.48 130.6 152.94 132.93 154.03 134.63C156.2 137.89 158.53 141.15 161.03 144.25C163.67 147.2 165.37 149.37 169.56 149.25C174.06 149.1 171.89 145.25 171.42 141.81C170.96 137.81 169.42 130.48 171.11 126.61C173.29 121.8 184.11 123.04 184.11 123.04C184.11 116.99 183.18 106.91 178.22 102.72C171.08 96.98 161.31 100.39 156.5 107.22C155.408 108.341 154.611 109.716 154.18 111.22H154.8L151.39 129.05Z" fill="#EBF4FF"/>
<path d="M150.97 129.04C151.724 130.382 152.36 131.787 152.87 133.24C153.591 134.647 154.438 135.985 155.4 137.24C157.284 140.06 159.345 142.759 161.57 145.32C163.09 147.01 164.73 148.58 167 149.15C168.202 149.459 169.454 149.52 170.68 149.33C171.077 149.292 171.459 149.157 171.792 148.938C172.125 148.718 172.399 148.42 172.59 148.07C172.856 147.282 172.884 146.433 172.67 145.63C172.48 144.63 172.18 143.57 171.98 142.53C171.53 140.15 171.26 137.69 170.98 135.28C170.547 132.664 170.642 129.988 171.26 127.41C171.553 126.569 172.047 125.813 172.699 125.206C173.35 124.6 174.14 124.162 175 123.93C177.971 123.023 181.102 122.771 184.18 123.19C184.24 123.19 184.57 123.19 184.57 123.1C184.59 119.838 184.309 116.58 183.73 113.37C183.251 110.075 182.008 106.938 180.1 104.21C177.922 101.588 174.793 99.9376 171.4 99.6199C168.049 99.2945 164.682 100.048 161.79 101.77C160.079 102.751 158.542 104.008 157.24 105.49C156.54 106.28 155.89 107.14 155.24 107.98C154.504 108.885 153.975 109.939 153.69 111.07C153.69 111.31 154.21 111.41 154.35 111.41H154.97L154.31 111.07L151.31 126.69L150.89 128.91C150.83 129.19 151.77 129.41 151.82 129.15L154.82 113.52L155.24 111.31C155.24 111.07 154.73 110.97 154.58 110.97H153.96L154.62 111.31C155.04 109.41 156.41 107.9 157.62 106.42C158.642 105.157 159.826 104.034 161.14 103.08C163.803 101.101 167.023 100.013 170.34 99.9699C171.998 99.9675 173.636 100.324 175.143 101.014C176.65 101.705 177.989 102.713 179.07 103.97C180.918 106.489 182.148 109.408 182.66 112.49C183.348 115.907 183.683 119.385 183.66 122.87L184.05 122.78C181.51 122.474 178.939 122.545 176.42 122.99C174.725 123.206 173.12 123.873 171.77 124.92C170.25 126.25 169.95 128.4 169.87 130.32C169.825 132.915 170.016 135.509 170.44 138.07C170.75 140.26 171.05 142.41 171.54 144.55C171.828 145.457 171.92 146.415 171.81 147.36C171.715 147.791 171.481 148.179 171.142 148.463C170.804 148.747 170.381 148.911 169.94 148.93C168.668 149.125 167.367 148.966 166.18 148.47C165.11 147.951 164.149 147.231 163.35 146.35C160.97 143.791 158.8 141.046 156.86 138.14C155.715 136.674 154.711 135.104 153.86 133.45C153.316 131.93 152.647 130.459 151.86 129.05C151.68 128.85 150.76 128.73 150.97 129.04Z" fill="#003F7F"/>
<path d="M138.52 131.07C136.52 136.34 141.93 137.42 145.96 137.74C150.46 138.05 150.77 136.03 152.17 132.15C153.274 128.247 154.61 124.414 156.17 120.67C160.98 111.05 167.65 103.61 178.97 103.61C176.65 97.4 180.53 87.79 174.79 82.98C169.32 78.35 164.39 83.5399 161.22 87.8999C157.222 93.3626 153.549 99.0558 150.22 104.95C147.86 109.21 146.01 113.23 143.74 117.54C141.47 121.85 140.25 126.52 138.52 131.07Z" fill="#EBF4FF"/>
<path d="M138.06 131.03C137.45 132.67 137.41 134.45 138.76 135.72C140.078 136.776 141.671 137.432 143.35 137.61C145.16 138.049 147.043 138.09 148.87 137.73C149.536 137.512 150.139 137.138 150.63 136.639C151.121 136.139 151.484 135.529 151.69 134.86C152.69 132.51 153.33 130.04 154.1 127.63C154.957 124.767 156.068 121.986 157.42 119.32C159.392 115.38 162.073 111.837 165.33 108.87C169.172 105.57 174.076 103.77 179.14 103.8C179.25 103.8 179.55 103.8 179.49 103.59C178.798 101.325 178.517 98.9541 178.66 96.5899C178.77 94.1987 178.71 91.8027 178.48 89.4199C178.28 87.2252 177.379 85.1532 175.91 83.5099C175.061 82.5667 173.99 81.8512 172.793 81.4284C171.597 81.0057 170.313 80.8893 169.06 81.0899C166.61 81.5699 164.61 83.2799 162.98 85.0899C160.951 87.4713 159.09 89.9907 157.41 92.6299C153.59 98.2569 150.133 104.122 147.06 110.19C146.16 111.96 145.28 113.74 144.38 115.5C143.48 117.26 142.63 118.85 141.89 120.59C140.45 124.01 139.37 127.59 138.05 131.03C137.98 131.23 138.9 131.39 139.05 131.1C140.18 128.1 141.14 125.1 142.31 122.1C143.48 119.1 145.14 116.1 146.64 113.1C149.503 107.281 152.681 101.623 156.16 96.1499C157.933 93.4099 159.777 90.7199 161.69 88.0799C163.127 85.8969 164.963 84.0039 167.1 82.4999C168.093 81.823 169.251 81.4289 170.45 81.3599C171.943 81.4236 173.364 82.0236 174.45 83.0499C176.094 84.5299 177.158 86.5471 177.45 88.7399C178.29 93.6299 176.84 98.8799 178.58 103.63L178.93 103.41C174.688 103.365 170.522 104.542 166.93 106.8C163.522 109.121 160.651 112.146 158.51 115.67C157.257 117.575 156.167 119.582 155.25 121.67C154.09 124.4 153.25 127.22 152.32 130.05C151.95 131.24 151.57 132.43 151.14 133.61C150.882 134.388 150.547 135.138 150.14 135.85C149.2 137.38 147.63 137.64 145.94 137.52C143.991 137.5 142.072 137.035 140.33 136.16C139.563 135.735 138.976 135.046 138.68 134.22C138.417 133.172 138.515 132.065 138.96 131.08C139.06 130.9 138.15 130.74 138.06 131.03Z" fill="#003F7F"/>
<path d="M160.64 34.14L167.84 85.93L172.72 84.3C172.72 84.3 169.54 65.16 166.15 34.14C162.84 31.47 160.64 34.14 160.64 34.14Z" fill="#EBF4FF"/>
<path d="M160.18 34.0801L160.89 39.22L162.61 51.5801L164.69 66.5801L166.48 79.4501L167.08 83.7401C167.11 84.4141 167.204 85.0838 167.36 85.7401C167.365 85.7665 167.365 85.7936 167.36 85.8201C167.36 86.0801 168.02 86.1401 168.21 86.0801L173.06 84.4901C173.074 84.4879 173.088 84.4826 173.1 84.4746C173.112 84.4665 173.123 84.456 173.13 84.4436C173.138 84.4312 173.143 84.4173 173.144 84.4029C173.146 84.3885 173.145 84.3739 173.14 84.3601C172.52 80.6201 171.98 76.8601 171.44 73.1101C169.98 62.8701 168.663 52.6134 167.49 42.34C167.27 40.45 167.05 38.5501 166.84 36.6601C166.79 36.1701 166.73 35.66 166.68 35.19C166.694 34.8122 166.622 34.4362 166.47 34.09C166.18 33.8053 165.841 33.575 165.47 33.4101C165.151 33.2392 164.816 33.0986 164.47 32.9901C163.729 32.7078 162.921 32.6521 162.148 32.8302C161.375 33.0082 160.673 33.412 160.13 33.9901C159.95 34.2101 160.83 34.52 161.01 34.31C161.377 33.8986 161.836 33.5799 162.35 33.3801C162.853 33.1831 163.402 33.1379 163.93 33.25C164.367 33.3529 164.78 33.536 165.15 33.7901C165.67 34.1201 165.66 34.5101 165.72 35.0801C166.133 38.7401 166.553 42.4067 166.98 46.0801C167.7 52.0801 168.46 58.1101 169.26 64.1701C170.13 70.6101 171.03 77.0601 172.06 83.4801C172.071 83.6971 172.108 83.912 172.17 84.12C172.17 84.12 172.17 84.21 172.17 84.25C172.17 84.29 172.31 84.1201 172.17 84.1301L171.92 84.22L167.32 85.75L168.16 86.0101L167.44 80.8601L165.73 68.5101L163.64 53.5101L161.85 40.6401L161.26 36.3501L161.07 35.03C161.062 34.7905 161.028 34.5525 160.97 34.3201C160.975 34.2903 160.975 34.2599 160.97 34.2301C161.06 33.9401 160.14 33.7801 160.18 34.0801Z" fill="#003F7F"/>
<path d="M84.9102 35.8C85.0702 37.57 85.2502 39.34 85.4602 41.1C85.9202 45.29 87.0902 49.71 86.6202 53.9C86.3902 56.23 85.2202 58.32 85.4602 60.65C85.6902 61.58 87.0902 62.05 87.0902 63.44C87.0902 64.6 85.4602 64.84 85.2202 66C84.9902 68.79 87.0902 70.89 86.8502 73.91C86.6202 76.01 85.9202 78.33 85.4602 80.66C84.2902 86.48 83.8302 92.29 82.9002 98.11C81.8447 107.301 81.3771 116.55 81.5002 125.8L83.8302 126.73C85.6902 127.2 88.0202 127.89 90.1102 128.36C94.4719 129.078 98.9445 128.679 103.11 127.2C103.11 127.2 103.11 127.02 103.11 119.29C103.11 117.37 101.48 117.66 101.95 115.29C102.41 113.89 104.27 113.43 104.74 112.29C105.67 110.2 104.27 107.18 104.04 104.85C103.81 99.96 106.6 86.93 107.76 82.05C111.76 67.42 112.31 51.45 111.44 35.79L84.9102 35.8Z" fill="white"/>
<path d="M114.94 34.0399C114.71 36.8299 116.8 38.92 116.57 41.95C116.34 44.04 115.64 46.37 115.17 48.7C114.01 54.51 113.54 60.3299 112.61 66.1499C111.563 75.3413 111.098 84.5898 111.22 93.8399L113.54 94.77C115.41 95.23 117.73 95.9299 119.83 96.3999C124.193 97.1081 128.664 96.7057 132.83 95.2299C132.83 95.2299 132.83 95.0599 132.83 87.3199C132.83 85.3999 131.2 85.6899 131.66 83.3699C132.13 81.9699 133.99 81.4999 134.46 80.3699C135.39 78.2799 133.99 75.25 133.76 72.92C133.52 68.04 136.32 55.0099 137.48 50.1199C138.861 44.8798 139.758 39.524 140.16 34.1199C131.5 33.7499 124.77 33.8499 114.94 34.0399Z" fill="white"/>
</g>
<defs>
<clipPath id="clip0_860_6297">
<rect width="211.95" height="164.6" fill="white"/>
</clipPath>
</defs>
</svg>
