<svg width="211" height="158" viewBox="0 0 211 158" fill="none" xmlns="http://www.w3.org/2000/svg">
<g clip-path="url(#clip0_860_6392)">
<path d="M8.73353 118.883C0.253029 102.428 -1.72347 83.0525 1.38248 64.8062C3.44662 52.6745 7.82804 40.6791 15.7925 31.2931C30.222 14.2932 55.498 8.38313 76.8112 14.9261C94.8335 20.4467 111.395 33.9317 130.119 31.741C140.985 30.4655 150.711 23.9518 161.587 22.7055C173.534 21.3619 185.558 26.8143 194.156 35.217C208.984 49.7341 214.135 72.6539 209.169 92.7987C204.204 112.944 189.988 130.167 172.307 141.043C154.625 151.919 133.731 156.816 112.992 157.537C91.5718 158.277 70.6091 153.428 49.5003 151.773C32.1401 150.419 16.2404 133.449 8.73353 118.883Z" fill="#EBF4FF"/>
<path d="M157.547 14.8871C155.852 14.595 153.954 14.1471 153.107 12.6574C152.133 10.8659 153.194 8.61675 154.528 7.04917C157.353 3.85663 161.121 1.64738 165.286 0.74219C169.452 -0.163002 173.797 0.282966 177.692 2.01538C182.414 4.23531 192.102 13.5045 185.773 18.1001C180.291 22.0726 163.515 15.9289 157.547 14.8871Z" fill="#EBF4FF"/>
<path d="M33.8732 13.6797C33.9426 14.3153 33.822 14.9572 33.5266 15.5242C33.2311 16.0912 32.7742 16.5579 32.2136 16.8652C31.6529 17.1726 31.0137 17.3067 30.3767 17.2508C29.7398 17.1948 29.1338 16.9512 28.6354 16.5508C28.1369 16.1504 27.7684 15.6111 27.5764 15.0013C27.3844 14.3914 27.3776 13.7383 27.5568 13.1246C27.736 12.5109 28.0932 11.9641 28.5832 11.5533C29.0732 11.1426 29.674 10.8864 30.3096 10.8172C30.7317 10.7699 31.1591 10.8065 31.5671 10.925C31.975 11.0434 32.3555 11.2413 32.6867 11.5074C33.0178 11.7734 33.2932 12.1023 33.4968 12.4751C33.7004 12.8479 33.8283 13.2573 33.8732 13.6797Z" fill="#EBF4FF"/>
<path d="M203.63 26.4931C203.712 27.2441 203.57 28.0026 203.221 28.6727C202.872 29.3428 202.332 29.8943 201.67 30.2573C201.007 30.6203 200.252 30.7785 199.499 30.7118C198.746 30.6452 198.031 30.3567 197.442 29.8829C196.854 29.4092 196.419 28.7714 196.193 28.0504C195.968 27.3294 195.961 26.5577 196.174 25.8329C196.387 25.1081 196.811 24.4629 197.391 23.979C197.971 23.4951 198.682 23.1942 199.433 23.1146C199.931 23.0605 200.434 23.1051 200.914 23.2457C201.394 23.3862 201.842 23.6201 202.232 23.9339C202.622 24.2477 202.946 24.6352 203.185 25.0744C203.425 25.5135 203.576 25.9956 203.63 26.4931Z" fill="#EBF4FF"/>
<path d="M163.895 65.3613L107.364 70.9501L113.489 80.4529C126.497 79.2067 125.747 92.7014 125.747 92.7014L132.689 149.699L140.566 147.08C140.566 147.08 136.671 105.826 134.373 92.3315C132.076 78.8366 140.741 79.5766 140.741 79.5766L167.439 76.276C167.723 74.3068 167.551 72.2987 166.936 70.4064C166.322 68.514 165.281 66.788 163.895 65.3613Z" fill="#EBF4FF"/>
<path d="M163.418 65.0108L157.78 65.5658L144.256 66.8997L127.967 68.5159L113.878 69.9082L109.186 70.3756C108.455 70.4438 107.706 70.4632 106.995 70.5898H106.888C106.673 70.5898 106.557 70.7261 106.683 70.9208L112.038 79.2358L112.807 80.4237C113.002 80.7352 113.645 80.8229 113.966 80.7937C115.952 80.5183 117.974 80.8015 119.808 81.6115C121.133 82.3052 122.25 83.3405 123.041 84.6104C124.267 86.6762 124.938 89.0241 124.988 91.4259C124.988 92.0978 124.988 92.7306 125.095 93.3732L125.708 98.3973L128.006 117.237L130.547 138.122L131.521 145.697C131.667 146.934 131.735 148.219 131.979 149.426C131.979 149.485 131.979 149.543 131.979 149.592C131.979 150.001 133.03 150.127 133.322 150.03L141.199 147.401C141.222 147.397 141.245 147.387 141.264 147.374C141.284 147.361 141.3 147.343 141.313 147.323C141.326 147.303 141.335 147.281 141.338 147.257C141.342 147.234 141.341 147.21 141.335 147.187C141.199 145.756 141.063 144.324 140.917 142.883C140.566 139.268 140.203 135.656 139.826 132.047C139.346 127.367 138.853 122.683 138.346 117.997C137.83 113.265 137.295 108.533 136.711 103.811C136.263 100.15 135.805 96.4792 135.211 92.8475C134.617 89.2157 134.082 83.8801 137.412 81.1636C138.179 80.5562 139.086 80.1511 140.05 79.9855L140.566 79.9174H141.258C143.361 79.7713 145.473 79.3916 147.567 79.1385L159.329 77.6877L167.507 76.7141H167.945C168.014 76.7141 168.208 76.6654 168.218 76.5583C168.47 74.5563 168.278 72.5233 167.653 70.6045C167.029 68.6857 165.988 66.9286 164.606 65.4586C164.341 65.213 163.993 65.0773 163.632 65.0789C163.457 65.0789 163.009 65.1568 163.252 65.4197C164.587 66.8378 165.591 68.5332 166.194 70.3848C166.796 72.2363 166.982 74.1981 166.738 76.1299L167.011 75.9741L161.003 76.7238L149.164 78.1843L140.79 79.2163C140.712 79.2163 140.216 79.2748 140.401 79.265H140.079C139.207 79.2827 138.346 79.4609 137.538 79.7908C134.286 81.1734 133.303 84.7759 133.293 88.0279C133.382 90.2437 133.632 92.45 134.043 94.6293C134.315 96.4597 134.569 98.2967 134.802 100.14C135.396 104.707 135.922 109.273 136.438 113.849C136.983 118.691 137.506 123.534 138.006 128.376C138.414 132.387 138.82 136.405 139.223 140.43C139.437 142.533 139.641 144.626 139.846 146.729V147.012L139.982 146.807L132.105 149.426L133.449 149.864L132.28 140.225L129.749 119.428L127.344 99.702L126.653 94.0256C126.653 93.6556 126.546 93.2954 126.516 92.9254C126.516 92.7696 126.516 93.0422 126.516 92.9254C126.516 92.8085 126.516 92.4775 126.516 92.2633C126.499 89.9379 125.942 87.6482 124.89 85.5743C124.056 84.0662 122.863 82.7875 121.415 81.8516C119.968 80.9157 118.313 80.3517 116.595 80.2095C115.413 80.0878 114.223 80.0878 113.041 80.2095L114.2 80.5795L108.845 72.2645L108.076 71.0766L107.861 71.4077L113.489 70.8527L127.013 69.5188L143.312 67.9025L157.401 66.5102L162.094 66.0428C162.824 65.9747 163.564 65.9455 164.284 65.8286H164.382C164.693 65.8286 164.713 65.5852 164.499 65.4002C164.204 65.133 163.815 64.993 163.418 65.0108Z" fill="#003F7F"/>
<path d="M182.005 68.7008C182.005 63.8325 175.627 64.2025 175.627 64.2025L163.943 65.3611C165.33 66.7879 166.371 68.5139 166.985 70.4062C167.6 72.2985 167.771 74.3066 167.487 76.2758L171.168 75.8279C184.254 75.0782 182.005 68.7008 182.005 68.7008Z" fill="#004BA5"/>
<path d="M97.492 82.2053C100.491 78.7002 99.7411 74.4161 97.7452 70.2002C88.9823 71.6996 80.2194 71.9528 71.4565 72.7025C66.2085 73.199 62.6937 75.2048 64.9525 81.2025C66.7051 86.207 70.2102 85.4573 74.689 85.7007L97.492 82.2053Z" fill="#004BA5"/>
<path d="M95.8074 101.62C95.8074 101.62 84.4547 102.214 80.4043 91.6692" stroke="#004BA5" stroke-width="0.55" stroke-miterlimit="10"/>
<path d="M79.3914 88.0083L83.0036 92.5163L80.55 91.9224L78.8169 93.7528L79.3914 88.0083Z" fill="#004BA5"/>
<path d="M161.217 93.8794C161.217 93.8794 172.57 94.4734 176.62 83.9287" stroke="#004BA5" stroke-width="0.55" stroke-miterlimit="10"/>
<path d="M177.633 80.2678L178.207 86.0124L176.474 84.1722L174.021 84.7758L177.633 80.2678Z" fill="#004BA5"/>
<path d="M72.6636 77.2786L74.4064 83.6365L93.9671 81.4653C95.4323 81.3057 96.9051 81.6904 98.1051 82.546C99.2746 83.3726 100.7 83.7557 102.126 83.6268L105.047 83.3639L104.307 71.4854L101.172 71.7677C99.8831 71.8798 98.6661 72.4097 97.7059 73.2769L97.3359 73.6079C96.4073 74.4452 95.239 74.9697 93.9962 75.1073L72.6636 77.2786Z" fill="#D96098"/>
<path d="M71.7388 77.2689L73.4719 83.6268C73.579 84.0358 74.3287 84.0358 74.6501 84.0066L84.9123 82.8674L91.7279 82.1079C93.061 81.8121 94.4371 81.7626 95.788 81.9619C96.9272 82.2929 97.7937 83.14 98.9037 83.5489C100.023 83.9466 101.216 84.096 102.399 83.9871C103.373 83.9189 104.346 83.8118 105.32 83.7242C105.476 83.7242 106.021 83.6366 106.002 83.3737L105.359 72.9848L105.262 71.4951C105.262 71.0862 104.288 71.0959 104.093 71.1154L101.094 71.388C99.4086 71.5406 97.8205 72.2457 96.5766 73.3938C95.7262 74.1657 94.6519 74.6465 93.5096 74.7666L91.6791 74.9613L76.8213 76.4705L72.469 76.9184C72.2451 76.9184 71.6609 77.0255 71.8069 77.3663C71.953 77.707 72.7027 77.6681 72.9462 77.6486L84.0847 76.5094L91.4845 75.75C92.9498 75.7023 94.4057 75.4966 95.8269 75.1366C96.8064 74.7951 97.7048 74.2547 98.4656 73.5495C99.2827 72.7715 100.326 72.2737 101.445 72.128C102.487 72.0209 103.528 71.943 104.57 71.8456L103.402 71.4659L104.045 81.8645L104.142 83.3445L104.833 83.0037L102.049 83.2471C101.303 83.3185 100.551 83.1944 99.8676 82.8869C98.8939 82.4682 98.1442 81.7964 97.1413 81.4556C95.4245 81.0181 93.6319 80.9682 91.8934 81.3095L78.2623 82.8284L74.2313 83.2763L75.4095 83.656L73.6667 77.2981C73.4427 76.7139 71.6219 76.9086 71.7388 77.2689Z" fill="#003F7F"/>
<path d="M181.605 72.459L179.872 66.1011L160.302 68.2723C158.838 68.4375 157.364 68.0561 156.164 67.2013C154.999 66.372 153.577 65.9854 152.152 66.1108L149.231 66.3835L149.971 78.262L153.107 77.9796C154.396 77.86 155.611 77.3273 156.573 76.4607L156.933 76.1394C157.865 75.302 159.037 74.7776 160.282 74.64L181.605 72.459Z" fill="#D96098"/>
<path d="M182.54 72.4786L180.807 66.1207C180.69 65.7117 179.941 65.702 179.629 65.7409L169.367 66.8801L162.551 67.6298C161.219 67.9308 159.842 67.9803 158.491 67.7759C157.352 67.4546 156.485 66.5977 155.375 66.1985C154.255 65.8024 153.064 65.6497 151.88 65.7507L148.959 66.0135C148.803 66.0135 148.248 66.1012 148.268 66.3641L148.92 76.7627L149.008 78.2426C149.008 78.6613 149.981 78.6516 150.186 78.6223L153.175 78.3497C154.864 78.1999 156.456 77.4946 157.702 76.344C158.55 75.574 159.621 75.0932 160.76 74.9712L162.6 74.7862L177.458 73.2673L181.81 72.8291C182.024 72.8291 182.608 72.7123 182.472 72.3812C182.336 72.0502 181.567 72.0697 181.323 72.0989L170.184 73.2381L162.795 73.9878C161.327 74.0451 159.869 74.2507 158.442 74.6012C157.465 74.945 156.569 75.4888 155.813 76.1979C154.997 76.9752 153.953 77.4701 152.834 77.6097C151.792 77.7266 150.741 77.8045 149.699 77.9018L150.877 78.2816L150.225 67.883L150.137 66.3933L149.446 66.7438L152.221 66.4906C152.97 66.4193 153.725 66.5435 154.411 66.8509C155.295 67.3741 156.205 67.8518 157.138 68.2822C158.854 68.7197 160.647 68.7696 162.386 68.4282L176.017 66.9093L180.057 66.4614L178.879 66.0817L180.612 72.4494C180.836 73.0141 182.647 72.8778 182.54 72.4786Z" fill="#003F7F"/>
<path d="M172.541 63.6086C172.543 62.4598 172.422 61.3141 172.181 60.191C172.077 59.151 171.814 58.1331 171.402 57.1727C171.347 57.0806 171.285 56.9927 171.217 56.9098C170.574 56.1406 169.269 55.8096 168.296 55.3617C166.133 54.2046 163.887 53.2087 161.577 52.3824C158.754 51.4087 155.804 50.5324 153.107 49.4614C152.853 49.3518 152.606 49.2283 152.367 49.0914C137.499 32.2472 119.662 6.7181 109.312 1.38249C99.77 -3.3884 89.4299 9.73643 94.4248 20.135C112.924 29.8715 127.665 40.2507 137.187 51.4184C137.126 51.792 137.09 52.1694 137.08 52.5479C136.886 58.2632 134.549 60.8823 129.554 63.4528C129.924 65.1255 130.386 66.7767 130.937 68.3989L145.97 66.9482L145.853 71.6412C147.206 71.3588 148.589 71.0959 149.972 70.8623C149.972 71.0083 149.972 71.1738 149.972 71.3101C149.956 73.5119 150.066 75.7127 150.303 77.9017C150.507 80.3067 150.692 82.1956 153.379 82.8771C155.424 83.3153 158.579 82.7116 159.796 81.0272C161.276 83.6366 165.024 81.6211 165.842 79.557C172.989 84.6978 172.57 66.6561 172.541 63.6086Z" fill="white"/>
<path d="M173.29 63.8034C173.258 61.9472 173.01 60.1011 172.55 58.3023C172.122 56.686 170.885 56.0726 169.435 55.4787C167.633 54.7485 165.939 53.7553 164.148 52.9959C162.356 52.2364 160.321 51.6328 158.393 50.9902C157.42 50.6689 156.446 50.3378 155.473 50.0165L154.09 49.5102C153.651 49.3975 153.244 49.1841 152.902 48.8871C151.802 47.6992 150.77 46.4335 149.718 45.1969C147.531 42.6005 145.373 40.0041 143.244 37.4077C138.891 32.0624 134.607 26.6976 130.206 21.362C126.416 16.6321 122.386 12.0987 118.133 7.77952C116.502 6.1354 114.766 4.60021 112.934 3.18389C111.26 1.81795 109.315 0.82242 107.228 0.262933C102 -0.905449 97.1606 2.14209 94.5707 6.5722C93.1705 8.92788 92.44 11.6211 92.4578 14.3614C92.4852 15.7718 92.7248 17.1701 93.1686 18.5091C93.2911 19.2363 93.6842 19.8902 94.2688 20.3396C95.1548 20.8264 96.0603 21.3133 96.9464 21.7611C103.832 25.4255 110.494 29.4961 116.896 33.9513C122.426 37.7743 127.613 42.0714 132.397 46.7937C133.481 47.8842 134.533 49.0007 135.552 50.1431L136.262 50.961C136.584 51.331 136.457 51.6231 136.428 52.0904C136.428 52.8401 136.35 53.5898 136.243 54.3298C135.905 56.8781 134.602 59.1994 132.601 60.8143C131.496 61.6876 130.302 62.4415 129.038 63.0634C128.941 63.1121 128.872 63.1511 128.902 63.2776C129.27 64.954 129.732 66.6086 130.284 68.2335C130.401 68.623 131.17 68.7301 131.501 68.7009L144.675 67.4254L146.525 67.2404L145.308 66.6854L145.191 71.3784C145.191 71.8068 146.096 72.0016 146.408 71.9334C147.781 71.6511 149.154 71.3979 150.526 71.1545L149.309 70.5995C149.397 72.4884 149.378 74.3675 149.543 76.2564C149.551 77.6941 149.747 79.1247 150.127 80.5113C151.101 83.072 154.294 83.5783 156.67 83.2083C158.167 83.0709 159.557 82.3758 160.565 81.261L159.124 80.8715C160.906 83.8412 165.452 82.5657 166.66 79.7226L165.326 79.5961C166.494 80.4237 168.149 81.1734 169.6 80.5697C170.136 80.2899 170.609 79.9038 170.991 79.4351C171.372 78.9664 171.655 78.4248 171.82 77.8435C173.047 74.7083 173.193 71.1058 173.281 67.7759C173.281 66.4323 173.281 65.0984 173.281 63.7547C173.281 63.2582 171.781 63.005 171.781 63.3555C171.781 65.9454 171.781 68.5451 171.567 71.1447C171.445 72.7865 171.184 74.4151 170.788 76.013C170.545 77.2546 169.997 78.4159 169.191 79.3916C168.852 79.7678 168.389 80.0097 167.887 80.0731C167.729 80.0814 167.572 80.0513 167.429 79.9855C167.083 79.8489 166.756 79.6689 166.455 79.45C166.222 79.2845 165.297 78.9048 165.121 79.3234C164.671 80.2837 163.895 81.0531 162.931 81.4947C162.508 81.7235 162.038 81.8502 161.558 81.8646C161.345 81.8257 161.145 81.7352 160.975 81.6012C160.806 81.4671 160.671 81.2934 160.584 81.0955C160.419 80.8131 159.416 80.3457 159.143 80.706C158.654 81.2647 158.057 81.7185 157.388 82.0398C156.718 82.3611 155.99 82.5433 155.249 82.5754C153.983 82.7117 152.591 82.5754 151.851 81.407C151.289 80.1872 151.012 78.8552 151.042 77.5124C150.945 76.4025 150.848 75.2925 150.799 74.1826C150.75 73.0726 150.799 72.0697 150.741 71.0084C150.741 70.58 149.855 70.395 149.514 70.4535C148.141 70.6969 146.768 70.95 145.395 71.2324L146.622 71.7874L146.729 67.1041C146.729 66.6465 145.833 66.5102 145.512 66.5491L132.339 67.8246L130.489 67.9999L131.696 68.4672C131.151 66.8407 130.693 65.1864 130.323 63.5113L130.177 63.7255C133.351 62.08 136.272 59.9673 137.314 56.3842C137.569 55.4713 137.732 54.5352 137.801 53.5898C137.801 53.0348 137.801 52.4799 137.908 51.9346C137.96 51.7566 137.96 51.5674 137.908 51.3894C137.757 51.1598 137.577 50.9504 137.372 50.7662C135.99 49.1792 134.539 47.6505 133.04 46.1803C126.271 39.6906 118.825 33.9457 110.831 29.0441C105.651 25.7726 100.325 22.764 94.9115 19.9307L95.2035 20.2033C92.1657 13.7772 94.8627 5.21881 101.191 1.84024C102.571 1.07608 104.123 0.677239 105.699 0.681596C107.13 0.746776 108.519 1.18299 109.73 1.94736C112.047 3.42874 114.19 5.16627 116.118 7.12716C121.652 12.6903 126.854 18.5749 131.696 24.7503C137.275 31.5658 142.727 38.5177 148.443 45.2456C149.124 46.0538 149.816 46.8619 150.517 47.6603C150.835 48.0368 151.159 48.4165 151.49 48.7995C151.849 49.1761 152.288 49.4659 152.775 49.6465C155.18 50.6883 157.741 51.4186 160.224 52.2267C162.753 53.0823 165.213 54.127 167.585 55.3521C168.53 55.6831 169.437 56.1139 170.291 56.6373C171.1 57.3189 171.158 58.5846 171.324 59.5583C171.578 60.8227 171.731 62.1056 171.781 63.3945C171.801 63.9008 173.3 64.1539 173.29 63.8034Z" fill="#003F7F"/>
<path d="M167.429 59.1785C167.565 63.6086 169.123 83.4224 161.665 81.8256L167.429 59.1785Z" fill="white"/>
<path d="M167.429 59.1785C168.258 63.4253 168.53 67.7622 168.237 72.0793C168.098 74.2844 167.632 76.4566 166.855 78.5249C166.442 79.6006 165.774 80.5597 164.907 81.3193C164.46 81.6836 163.925 81.9224 163.355 82.0114C162.785 82.1003 162.202 82.0362 161.665 81.8256C162.171 81.8755 162.681 81.8054 163.155 81.621C163.629 81.4366 164.052 81.1431 164.391 80.7643C165.011 79.9789 165.462 79.074 165.715 78.1063C165.996 77.1128 166.208 76.101 166.348 75.0782C166.504 74.0461 166.621 73.0043 166.689 71.9528C166.874 69.8594 166.942 67.7369 167.04 65.6046C167.137 63.4723 167.195 61.3302 167.429 59.1785Z" fill="#003F7F"/>
<path d="M161.947 59.8503C162.026 64.3565 161.788 68.8625 161.237 73.3354C160.847 77.2787 160.769 82.5169 154.996 83.3153" fill="white"/>
<path d="M161.947 59.8503C162.33 62.0521 162.5 64.2856 162.454 66.5198C162.454 68.7495 162.259 70.9694 162.025 73.1699C161.792 75.3703 161.675 77.6681 160.633 79.8297C160.129 80.9185 159.316 81.8358 158.296 82.4682C157.291 83.0381 156.151 83.3304 154.996 83.3153C156.043 83.0398 157.021 82.5491 157.868 81.8743C158.64 81.1994 159.221 80.333 159.552 79.3623C160.13 77.2929 160.457 75.1615 160.526 73.0141L161.947 59.8503Z" fill="#003F7F"/>
<path d="M157.722 61.3887C154.353 63.3944 154.499 72.021 154.226 75.3314C154.061 78.1355 155.365 83.1692 151.967 84.2889C150.571 84.6749 149.117 84.8069 147.674 84.6784C145.639 84.62 145.502 84.2403 145.181 82.3514C144.207 75.6527 146.379 67.9608 138.911 64.6504" fill="white"/>
<path d="M157.722 61.3887C156.882 62.0888 156.271 63.025 155.969 64.076C155.638 65.1152 155.413 66.1851 155.298 67.2695C155.061 69.4492 154.938 71.6396 154.928 73.8319L154.869 75.4969C154.869 75.9837 154.869 76.5387 154.928 77.0839C155.026 78.2105 155.065 79.3415 155.044 80.4722C155.015 81.0824 154.913 81.687 154.743 82.2735C154.569 82.9239 154.234 83.52 153.769 84.0066C153.535 84.2631 153.266 84.4859 152.971 84.6687C152.673 84.818 152.367 84.9513 152.055 85.0679C151.474 85.2436 150.878 85.361 150.273 85.4184C149.117 85.5254 147.954 85.5254 146.797 85.4184C146.437 85.3835 146.085 85.2881 145.756 85.136C145.349 84.9278 145.028 84.5831 144.85 84.1624C144.629 83.5773 144.488 82.9647 144.432 82.3416C144.229 80.1147 144.141 77.8789 144.169 75.6429C144.223 73.4859 143.893 71.3363 143.195 69.2947C142.368 67.2737 140.831 65.6251 138.872 64.6602C141.04 65.4014 142.84 66.9496 143.896 68.9831C144.807 71.0708 145.3 73.3169 145.347 75.5942C145.512 77.8142 145.522 80.0243 145.853 82.1274C145.914 82.6052 146.025 83.0751 146.184 83.5295C146.262 83.6755 146.282 83.7048 146.389 83.7632C146.571 83.8285 146.761 83.871 146.953 83.8898C147.996 83.9871 149.046 83.9871 150.088 83.8898C151.023 83.905 151.932 83.5836 152.649 82.9843C153.223 82.2423 153.538 81.3324 153.545 80.3943C153.603 79.3176 153.603 78.2386 153.545 77.1618C153.545 76.5971 153.545 76.0519 153.545 75.4385L153.691 73.793C153.816 71.5628 154.096 69.344 154.528 67.1527C154.76 66.0519 155.106 64.9784 155.56 63.9494C155.977 62.8795 156.737 61.9786 157.722 61.3887Z" fill="#003F7F"/>
<path d="M117.549 78.379C116.544 74.4115 114.963 70.6128 112.856 67.1041C111.649 64.6992 110.042 59.7336 107.082 58.7892C104.424 57.9031 93.9088 56.4719 88.359 55.8682C81.8453 53.9209 72.6929 52.1878 70.5801 51.2141C59.0813 45.9661 54.0865 43.4249 41.0785 41.9644C35.3339 41.4679 32.374 43.5418 27.8758 39.7932C27.8758 39.7932 15.2183 42.2663 14.897 56.17C17.4479 57.095 61.0383 64.0761 76.237 65.0205C76.8561 66.3278 77.6666 67.5354 78.642 68.6036C80.5211 71.0182 81.5629 73.2966 84.4157 74.5039C86.8304 75.5846 88.5732 75.1757 91.1242 74.9128C90.9879 77.7267 93.0033 80.414 93.6751 83.0915C91.1242 83.0915 86.9667 83.0915 85.8859 85.7788C84.406 89.9362 90.17 89.9362 92.7015 89.7999C95.233 89.6636 99.2736 88.8263 100.491 86.4506C100.924 85.5623 101.106 84.5723 101.017 83.588C101.194 83.9072 101.424 84.1937 101.698 84.4351C103.713 86.3143 105.992 84.8343 106.664 82.556C109.078 84.8343 112.165 85.107 112.7 81.2124C112.973 82.6923 115.388 83.4907 116.595 82.556C117.802 81.6213 117.685 79.7227 117.549 78.379Z" fill="white"/>
<path d="M118.328 78.3886C117.609 75.3364 116.496 72.3906 115.017 69.6257C114.423 68.4768 113.751 67.3572 113.216 66.1693C112.778 65.1956 112.359 64.222 111.892 63.2483C111.006 61.4568 109.837 59.3538 107.88 58.604C106.375 58.0947 104.822 57.7391 103.246 57.5427C98.689 56.7346 94.0934 56.1309 89.5075 55.5954C88.33 55.3972 87.1684 55.1141 86.0316 54.7484C84.6977 54.3881 83.3638 54.0571 82.0299 53.7747C79.586 53.171 77.1616 52.6258 74.6886 52.0124C73.8318 51.7982 72.9749 51.584 72.1279 51.3211C71.3232 51.0452 70.5363 50.72 69.7716 50.3475C67.3375 49.2278 64.9034 48.1081 62.44 47.0663C58.1198 45.1935 53.6169 43.7741 49.0036 42.8309C46.2174 42.2298 43.394 41.8167 40.5524 41.5943C38.2253 41.4386 35.9373 41.828 33.62 41.7501C32.6074 41.7192 31.6125 41.4771 30.699 41.0394C30.1643 40.7802 29.6557 40.4705 29.1801 40.1144C28.97 39.8829 28.7072 39.7055 28.414 39.597C28.1209 39.4886 27.8058 39.4523 27.4957 39.4913C27.0534 39.5828 26.6176 39.7032 26.191 39.8515C23.8998 40.5776 21.7729 41.7452 19.9304 43.2885C17.1088 45.6913 15.1921 48.9854 14.4974 52.6258C14.2818 53.7793 14.1581 54.9481 14.1274 56.1212C14.1274 56.2283 14.2735 56.316 14.3514 56.3452C14.9868 56.5554 15.638 56.7149 16.2987 56.8222C17.6034 57.0851 18.9081 57.3285 20.1933 57.5622C24.1755 58.273 28.1675 58.9156 32.1692 59.5582C37.2322 60.3566 42.3017 61.1258 47.3777 61.8657C52.4796 62.596 57.5815 63.297 62.6932 63.9299C66.7533 64.4362 70.8135 64.9035 74.8931 65.2151L76.188 65.3027L75.448 65.0593C76.188 66.8216 77.5608 68.2042 78.6708 69.7329C79.4999 71.0352 80.4803 72.2346 81.5917 73.3061C82.869 74.3948 84.4225 75.1092 86.0803 75.3703C87.8074 75.5427 89.5498 75.4805 91.2601 75.1853L90.2865 74.864C90.1989 77.785 92.1169 80.2872 92.8374 83.0524L93.6163 82.7506C91.3574 82.7506 88.8455 82.7506 86.8008 83.8313C85.243 84.6784 84.0162 86.9762 85.3987 88.5146C86.6158 89.868 88.865 90.0432 90.5494 90.1016C92.6021 90.2058 94.6586 89.989 96.6445 89.4591C97.9362 89.157 99.1458 88.5753 100.188 87.7552C100.754 87.2271 101.19 86.5753 101.462 85.8506C101.734 85.126 101.835 84.3482 101.756 83.5782L100.227 83.6269C100.646 84.3283 101.271 84.884 102.016 85.2184C102.762 85.5528 103.592 85.6498 104.395 85.4963C105.114 85.3293 105.775 84.969 106.305 84.4543C106.835 83.9395 107.215 83.2899 107.403 82.5753L105.953 82.7019C106.546 83.312 107.263 83.7883 108.056 84.099C108.848 84.4096 109.698 84.5474 110.548 84.5031C112.349 84.3084 113.187 82.8966 113.469 81.2317H111.911C112.33 83.0816 114.891 83.6171 116.468 83.179C118.6 82.5169 118.483 80.258 118.298 78.4762C118.298 78.0089 116.702 78.0478 116.741 78.4762C116.867 79.6738 117.179 81.4653 116.117 82.3708C115.938 82.554 115.707 82.6795 115.456 82.7315C115.205 82.7835 114.943 82.7597 114.706 82.663C114.41 82.5608 114.143 82.3889 113.928 82.1618C113.713 81.9347 113.555 81.6591 113.469 81.3583C113.372 80.9201 111.989 80.8714 111.911 81.3583C111.775 82.3319 111.346 83.8703 110.178 84.0553C109.204 84.2111 107.997 83.1887 107.325 82.5656C107.053 82.3222 106.011 82.2735 105.875 82.7019C105.75 83.19 105.525 83.647 105.215 84.0441C104.905 84.4412 104.517 84.7699 104.073 85.0095C103.1 85.4281 102.214 84.4058 101.756 83.6756C101.581 83.3932 100.218 83.2764 100.237 83.734C100.367 85.0076 99.997 86.2818 99.2052 87.2878C98.4932 88.0077 97.618 88.5454 96.6541 88.8554C94.999 89.4177 93.2612 89.6975 91.5133 89.683C90.1404 89.683 88.4658 89.683 87.2974 88.8651C85.8856 87.8915 86.3237 85.7981 87.4824 84.805C89.1084 83.4419 91.6398 83.5587 93.6358 83.5587C93.7526 83.5587 94.4829 83.5587 94.4148 83.2666C93.6943 80.5112 91.7762 78.0186 91.8638 75.0782C91.8638 74.7472 91.0654 74.7472 90.8901 74.7666C89.3953 75.0565 87.8641 75.1091 86.3529 74.9224C84.8585 74.5803 83.5015 73.7966 82.4583 72.6733C81.525 71.6118 80.6631 70.4896 79.8782 69.3142C78.7391 68.0345 77.7584 66.6223 76.9572 65.108C76.8598 64.9036 76.3827 64.8841 76.2075 64.8744C72.4686 64.6309 68.5156 64.183 64.7086 63.7254C59.7333 63.1218 54.7677 62.4499 49.802 61.7781C44.8364 61.1063 39.6274 60.2884 34.5449 59.49C30.3875 58.8377 26.2299 58.1659 22.0822 57.4454C19.8135 57.0559 17.7592 56.7638 15.5392 56.1894C15.494 56.1838 15.4482 56.1838 15.4029 56.1894C15.2277 56.1894 15.4808 56.1894 15.4029 56.1894L15.6268 56.4133C15.6183 52.1719 17.2029 48.082 20.0668 44.9534C21.9488 43.0345 24.2524 41.5809 26.7947 40.7083C27.2527 40.5318 27.725 40.395 28.2065 40.2994L27.1549 40.1728C28.4487 41.289 30.0022 42.0623 31.6727 42.4219C33.179 42.6686 34.7117 42.7112 36.2293 42.5485C38.0903 42.3959 39.9614 42.4187 41.8181 42.6167C43.8335 42.8601 45.849 43.1619 47.845 43.5903C51.1871 44.2355 54.4699 45.1571 57.6594 46.3457C61.038 47.6115 64.3095 49.1207 67.5907 50.6103C68.8487 51.2439 70.1502 51.7873 71.4853 52.2364C72.8679 52.6453 74.2797 52.9763 75.6817 53.3171C79.3913 54.2031 83.1204 55.0307 86.7911 56.0823C87.5675 56.3125 88.3623 56.4754 89.1668 56.5691L91.4062 56.8417C93.1393 57.0559 94.8659 57.2864 96.586 57.533C99.5069 57.9614 102.554 58.3606 105.475 59.0422C106.605 59.2434 107.634 59.8196 108.396 60.6779C109.389 61.9085 110.199 63.276 110.801 64.738C111.493 66.2375 112.184 67.659 112.953 69.1487C114.053 71.1583 115 73.2478 115.786 75.3995C116.166 76.4653 116.475 77.5549 116.711 78.6612C116.877 78.856 118.396 78.7489 118.328 78.3886Z" fill="#003F7F"/>
<path d="M111.317 83.6171C115.631 81.5627 107.637 68.5839 106.449 65.77L111.317 83.6171Z" fill="white"/>
<path d="M111.317 83.6171C111.617 83.3774 111.853 83.0667 112.003 82.7131C112.152 82.3595 112.211 81.9741 112.174 81.5919C112.135 80.8205 111.994 80.0577 111.756 79.3233C111.278 77.807 110.709 76.3211 110.052 74.8737L108.104 70.4143C107.426 68.9111 106.863 67.3586 106.42 65.77C107.394 67.1039 108.367 68.4476 109.185 69.8594C110.044 71.2725 110.806 72.7429 111.463 74.2603C112.15 75.7961 112.64 77.412 112.924 79.0701C113.084 79.9292 113.084 80.8106 112.924 81.6698C112.829 82.1134 112.647 82.5337 112.388 82.9063C112.112 83.2468 111.739 83.4948 111.317 83.6171Z" fill="#003F7F"/>
<path d="M104.405 85.0873C110.052 83.6657 103.061 69.1194 101.318 66.5879L104.405 85.0873Z" fill="white"/>
<path d="M104.405 85.0875C104.771 84.9232 105.095 84.6772 105.352 84.3684C105.608 84.0595 105.791 83.696 105.885 83.3057C106.044 82.5302 106.067 81.7329 105.953 80.9494C105.709 79.3143 105.318 77.7045 104.785 76.1396C104.298 74.5428 103.704 72.9558 103.129 71.3687C102.555 69.7817 101.961 68.1752 101.318 66.5784C102.476 67.8751 103.459 69.3188 104.239 70.8721C105.049 72.4119 105.727 74.0177 106.265 75.6723C106.831 77.3548 107.13 79.1158 107.151 80.891C107.165 81.8177 106.973 82.736 106.586 83.5783C106.387 83.9994 106.081 84.3606 105.698 84.6256C105.315 84.8905 104.869 85.0498 104.405 85.0875Z" fill="#003F7F"/>
<path d="M99.1764 87.765C103.636 85.5256 98.2027 73.2771 96.7617 68.8567L99.1764 87.765Z" fill="white"/>
<path d="M99.1764 87.765C99.8017 87.2553 100.203 86.5217 100.296 85.7203C100.403 84.9385 100.403 84.1459 100.296 83.3641C100.057 81.7521 99.709 80.1581 99.2542 78.5932C98.8356 76.9964 98.3487 75.4093 97.9008 73.7931C97.4191 72.1735 97.042 70.5246 96.7715 68.8567C98.4783 71.7899 99.8158 74.9228 100.754 78.1843C101.226 79.8511 101.475 81.5733 101.494 83.3057C101.502 84.2033 101.344 85.0948 101.026 85.9345C100.88 86.3619 100.637 86.7496 100.316 87.0672C99.9954 87.3848 99.6052 87.6236 99.1764 87.765Z" fill="#003F7F"/>
</g>
<defs>
<clipPath id="clip0_860_6392">
<rect width="211" height="157.615" fill="white"/>
</clipPath>
</defs>
</svg>
