<svg width="211" height="185" viewBox="0 0 211 185" fill="none" xmlns="http://www.w3.org/2000/svg">
<g clip-path="url(#clip0_860_6454)">
<path d="M210.981 82.6128C210.399 98.4078 201.822 113.262 189.792 123.517C177.761 133.772 162.568 139.748 147.103 142.843C132.288 145.812 116.172 146.627 104.132 155.747C98.2527 160.2 93.7995 166.351 87.794 170.63C76.3553 178.789 60.5409 178.925 47.5208 173.657C34.5007 168.389 23.9254 158.415 15.019 147.549C5.7341 136.207 -2.44471 121.887 0.718157 107.566C4.38553 90.8305 21.5581 81.1866 31.7064 67.3903C44.1541 50.4506 46.114 26.8358 60.9581 11.9529C75.8022 -2.93005 101.804 -4.0943 117.89 9.15869C127.233 16.8621 132.957 28.2814 142.339 35.946C148.894 41.1852 156.862 44.3504 165.226 45.0369C172.842 45.7063 181.593 41.156 188.753 43.0964C203.559 47.1034 211.476 69.1561 210.981 82.6128Z" fill="#EBF4FF"/>
<path d="M108.158 171.289C106.46 172.609 104.656 174.064 104.074 176.141C103.104 179.517 106.014 183.019 109.458 183.902C112.903 184.785 116.434 183.728 119.704 182.466C126.777 179.73 133.772 175.675 137.429 168.99C140.922 162.655 141.194 152.438 131.957 154.33C123.682 156.009 114.639 166.254 108.158 171.289Z" fill="#EBF4FF"/>
<path d="M161.335 28.621C163.972 28.621 166.109 26.4839 166.109 23.8476C166.109 21.2113 163.972 19.0742 161.335 19.0742C158.699 19.0742 156.562 21.2113 156.562 23.8476C156.562 26.4839 158.699 28.621 161.335 28.621Z" fill="#EBF4FF"/>
<path d="M125.263 173.065V19.1616C125.263 18.4206 124.969 17.7098 124.445 17.1858C123.921 16.6618 123.21 16.3674 122.469 16.3674C121.728 16.3674 121.017 16.6618 120.493 17.1858C119.969 17.7098 119.675 18.4206 119.675 19.1616V173.065C119.697 173.31 119.784 173.544 119.928 173.744C120.071 173.943 120.265 174.101 120.49 174.2C121.103 174.511 121.781 174.673 122.469 174.673C123.157 174.673 123.835 174.511 124.448 174.2C124.673 174.101 124.867 173.943 125.01 173.744C125.154 173.544 125.241 173.31 125.263 173.065Z" fill="white"/>
<path d="M125.758 173.191V22.9258C125.758 21.1698 126.204 18.4047 124.788 17.1046C123.129 15.5717 119.937 15.853 119.238 18.2106C119.143 18.5581 119.1 18.9178 119.112 19.2779C119.112 19.9861 119.112 20.6944 119.112 21.4026V166.875C119.112 168.815 119.063 170.824 119.112 172.793C119.107 173.019 119.153 173.243 119.245 173.45C119.337 173.656 119.474 173.839 119.645 173.987C120.61 174.72 121.815 175.067 123.022 174.957C124.05 174.889 125.651 174.481 125.767 173.23C125.767 172.9 124.729 172.696 124.7 172.968C124.526 174.831 120.344 175.122 120.179 173.172C120.169 172.994 120.169 172.816 120.179 172.638V25.3707C120.179 23.4303 120.179 21.4899 120.179 19.4816C120.161 18.9939 120.257 18.5087 120.46 18.0651C120.613 17.6906 120.867 17.366 121.194 17.128C121.521 16.8899 121.907 16.7477 122.311 16.7175C122.714 16.6873 123.118 16.7701 123.476 16.9568C123.835 17.1434 124.135 17.4265 124.341 17.774C124.552 18.1718 124.665 18.6142 124.671 19.0644C124.671 19.5495 124.671 20.0346 124.671 20.5294V172.929C124.691 173.288 125.758 173.453 125.758 173.191Z" fill="#003F7F"/>
<path d="M123.148 77.1409C136.367 77.1409 147.083 66.4248 147.083 53.2059C147.083 39.987 136.367 29.271 123.148 29.271C109.929 29.271 99.2129 39.987 99.2129 53.2059C99.2129 66.4248 109.929 77.1409 123.148 77.1409Z" fill="#EBF4FF" stroke="#003F7F" stroke-width="1.13" stroke-miterlimit="10"/>
<path d="M123.148 73.716C134.475 73.716 143.658 64.5333 143.658 53.2059C143.658 41.8785 134.475 32.6958 123.148 32.6958C111.82 32.6958 102.638 41.8785 102.638 53.2059C102.638 64.5333 111.82 73.716 123.148 73.716Z" fill="#D96098"/>
<path d="M127.98 50.4505V48.2675C127.98 46.9321 127.449 45.6513 126.505 44.707C125.561 43.7627 124.28 43.2322 122.944 43.2322C121.609 43.2322 120.328 43.7627 119.384 44.707C118.44 45.6513 117.909 46.9321 117.909 48.2675V50.4505H116.939V59.813H128.931V50.4505H127.98ZM124.099 55.4082V57.3486C124.099 57.5802 124.007 57.8023 123.843 57.9661C123.68 58.1298 123.457 58.2218 123.226 58.2218H123.08C122.849 58.2218 122.627 58.1298 122.463 57.9661C122.299 57.8023 122.207 57.5802 122.207 57.3486V55.4956C121.994 55.3427 121.823 55.1376 121.712 54.8999C121.6 54.6623 121.552 54.4 121.571 54.1382C121.59 53.8763 121.676 53.6238 121.82 53.4048C121.965 53.1857 122.164 53.0074 122.397 52.8871C122.63 52.7667 122.89 52.7082 123.153 52.7173C123.415 52.7264 123.671 52.8027 123.895 52.9389C124.119 53.0751 124.305 53.2666 124.434 53.4951C124.563 53.7236 124.632 53.9815 124.633 54.244C124.64 54.4614 124.6 54.6779 124.516 54.8787C124.433 55.0795 124.307 55.2601 124.148 55.4082H124.099ZM126.039 50.4505H119.685V48.3355C119.73 47.5231 120.084 46.7588 120.675 46.1996C121.266 45.6404 122.048 45.3288 122.862 45.3288C123.676 45.3288 124.458 45.6404 125.049 46.1996C125.64 46.7588 125.995 47.5231 126.039 48.3355V50.4505Z" fill="white"/>
<path d="M101.008 58.6198C101.008 56.0584 97.6609 56.2621 97.6609 56.2621L91.5 56.8637C92.2281 57.6155 92.7745 58.524 93.0974 59.5195C93.4203 60.515 93.5111 61.5712 93.3628 62.6073L95.3032 62.3647C102.172 61.9669 101.008 58.6198 101.008 58.6198Z" fill="#004BA5"/>
<path d="M56.6114 65.7118C58.1929 63.8782 57.7951 61.6467 56.7473 59.4055C52.1485 60.2011 47.5595 60.3272 42.9607 60.725C40.2053 60.9869 38.3716 62.0348 39.5456 65.1879C40.4673 67.8172 42.301 67.4194 44.6683 67.5552L56.6114 65.7118Z" fill="#00AAA5"/>
<path d="M56.6114 65.7119C58.1929 63.8782 58.2899 61.8311 57.2421 59.6384C52.6433 60.4243 47.5401 60.3273 42.9607 60.7251C40.2053 60.987 38.3716 62.0348 39.5456 65.188C40.4673 67.8172 42.301 67.4195 44.6683 67.5553L56.6114 65.7119Z" fill="#004BA5"/>
<path d="M79.9448 64.0918L93.5276 62.4036C93.6735 61.3977 93.5867 60.3716 93.2738 59.4045C92.961 58.4374 92.4304 57.5549 91.7231 56.825L53.7977 59.8617C53.2535 60.8179 52.9171 61.878 52.8101 62.9729C52.7031 64.0679 52.828 65.1731 53.1767 66.2165L65.9738 64.5381C72.61 63.8977 72.2316 70.7959 72.2316 70.7959L83.7285 171.959L87.7451 170.62C87.7451 170.62 77.7909 77.4806 76.6363 70.6018C75.4818 63.7231 79.9448 64.0918 79.9448 64.0918Z" fill="white"/>
<path d="M80.2845 64.3342L92.218 62.8595L93.9158 62.646C93.9158 62.646 94.1099 62.646 94.1099 62.5393C94.3118 60.9471 93.9699 59.3335 93.1397 57.9599C92.7128 57.2905 92.2471 56.5435 91.3739 56.5823C90.7433 56.5823 90.1127 56.689 89.4918 56.7375L79.7897 57.5136L66.9345 58.5421L56.437 59.3861L53.8173 59.5899C53.6797 59.582 53.5417 59.5984 53.4098 59.6384C53.1382 59.7548 53.0218 60.2011 52.9054 60.4631C52.7209 60.8824 52.5747 61.3175 52.4687 61.7631C52.2736 62.5691 52.1984 63.3995 52.2456 64.2275C52.2739 64.8914 52.4082 65.5464 52.6434 66.1679C52.7502 66.4395 53.2741 66.5074 53.5166 66.4783C57.7273 65.9253 61.9477 65.3335 66.1293 64.8193C67.3276 64.6001 68.5642 64.8502 69.5832 65.5178C70.5038 66.2513 71.1443 67.2789 71.3974 68.4284C71.5586 69.2342 71.6528 70.052 71.6788 70.8733C71.8535 72.6488 72.0863 74.4146 72.2804 76.1804L73.5804 87.6288L75.3559 103.152L77.3545 120.79L79.3628 138.419L81.1577 154.194L82.4772 165.837L83.1272 171.561V171.804C83.1272 172.095 83.8839 172.163 84.0974 172.095L88.114 170.746C88.2013 170.746 88.2208 170.678 88.2111 170.601C88.1044 169.63 88.0073 168.66 87.9006 167.69L87.0565 159.812L85.8049 148.228L84.2915 134.218L82.6325 119.054C82.0892 114.028 81.5393 109.006 80.9831 103.986C80.4785 99.4588 79.9676 94.9021 79.4502 90.3162C79.0427 86.6359 78.6222 82.9589 78.1889 79.285C77.9172 76.9177 77.6358 74.5504 77.3254 72.1831C76.9955 69.6703 75.9962 65.3238 79.2658 64.3633C79.4708 64.3003 79.6824 64.2613 79.8964 64.2469C79.7509 64.2469 80.3137 64.2469 79.9644 64.2469C80.7115 64.3148 80.2651 63.8103 79.78 63.7715C79.2524 63.7239 78.7209 63.798 78.2264 63.9881C77.7319 64.1781 77.2876 64.4791 76.9277 64.8678C75.5306 66.4686 75.8507 68.865 76.1417 70.786C76.4328 72.707 76.6365 74.5213 76.8597 76.3841C77.2575 79.7119 77.6359 83.0397 78.0143 86.3772C78.5123 90.7625 79.0038 95.1446 79.4889 99.5235C80.0387 104.491 80.5885 109.458 81.1383 114.426C81.701 119.555 82.2605 124.687 82.8168 129.823C83.3407 134.7 83.8678 139.577 84.3982 144.454C84.8574 148.606 85.307 152.762 85.7468 156.921C86.067 159.928 86.3968 162.946 86.717 165.963C86.8237 166.933 86.9207 167.903 87.0274 168.796C87.045 169.297 87.0969 169.796 87.1827 170.29C87.1827 170.348 87.1827 170.407 87.1827 170.475L87.2797 170.319L83.2533 171.658L84.2235 171.949L83.7675 167.942L82.5645 157.27L80.8375 142.096L78.8292 124.467L76.7918 106.48L74.9387 90.2289L73.532 77.7909L72.7849 71.2615C72.7267 70.7278 72.7848 70.6211 72.7169 70.039C72.7157 68.9201 72.4004 67.8241 71.807 66.8756C71.2135 65.927 70.3657 65.1642 69.36 64.6738C67.2547 63.7812 65.0135 64.2663 62.8403 64.5476L54.5353 65.6343L52.7987 65.8671L53.6718 66.1776C53.3253 65.1448 53.2023 64.0502 53.311 62.9663C53.4198 61.8824 53.7577 60.834 54.3024 59.8907L54.1084 60.0071L66.9539 58.969L87.3864 57.339L92.0337 56.9606L91.1993 56.7181C91.8772 57.4407 92.387 58.3042 92.6923 59.2468C92.9976 60.1894 93.0907 61.1878 92.965 62.1706L93.1592 62.0542L81.2256 63.5289L79.5278 63.7424C79.2949 63.7424 79.3143 63.9073 79.4502 64.0431C79.5593 64.15 79.6906 64.2316 79.8348 64.2819C79.9791 64.3322 80.1326 64.35 80.2845 64.3342Z" fill="#003F7F"/>
<path d="M125.176 103.385C126.621 103.938 129.163 105.102 129.289 107.004C129.266 107.474 129.13 107.931 128.892 108.336C128.654 108.742 128.321 109.084 127.921 109.332C126.711 110.223 125.382 110.938 123.973 111.457C122.07 112.213 120.127 112.861 118.151 113.398C113.417 114.688 108.585 115.629 103.754 116.454C99.31 117.22 94.8569 117.86 90.3842 118.394C88.8804 118.588 87.3086 118.782 85.8436 118.947C85.1283 118.984 84.4156 119.061 83.7092 119.18H83.6121L84.1069 119.345L83.6218 114.339L83.486 114.484C86.2025 113.165 88.9871 111.962 91.7716 110.797C97.5368 108.334 103.458 106.253 109.497 104.569C112.789 103.625 116.165 103.008 119.578 102.725C120.14 102.725 120.131 102.298 119.578 102.337C113.271 102.754 107.062 104.656 101.144 106.713C95.9435 108.527 90.8402 110.594 85.8242 112.864C84.854 113.32 83.8256 113.776 82.836 114.251C82.836 114.251 82.6905 114.329 82.7002 114.397L83.1853 119.403C83.1853 119.578 83.5831 119.578 83.6801 119.568C85.6205 119.374 87.5609 119.141 89.5013 118.899C93.9545 118.346 98.3981 117.715 102.832 116.958C107.828 116.124 112.825 115.173 117.734 113.892C119.84 113.354 121.916 112.707 123.953 111.952C125.526 111.409 127.025 110.672 128.416 109.759C129.351 109.244 130.047 108.384 130.357 107.363C130.58 106.15 129.6 105.122 128.707 104.452C127.863 103.855 126.943 103.372 125.971 103.016C125.738 102.919 124.826 103.152 125.302 103.327L125.176 103.385Z" fill="#003F7F"/>
<path d="M83.6715 110.137L74.2783 111.076L75.623 124.524L85.0162 123.585L83.6715 110.137Z" fill="white"/>
<path d="M84.9316 123.216L75.5302 124.186L76.1317 124.409L74.9578 112.631L74.7929 110.962L74.4242 111.127L83.8255 110.157L83.2143 109.934L84.3979 121.712L84.5629 123.381C84.5629 123.672 85.5331 123.672 85.5331 123.381L84.3493 111.603L84.1845 109.934C84.1845 109.72 83.7188 109.701 83.583 109.72L74.1913 110.691C74.1137 110.691 73.8032 110.691 73.8226 110.856L74.9966 122.634L75.1712 124.303C75.1712 124.506 75.6369 124.535 75.7728 124.516L85.1644 123.546C85.8241 123.565 85.3487 123.216 84.9316 123.216Z" fill="#003F7F"/>
</g>
<defs>
<clipPath id="clip0_860_6454">
<rect width="211" height="184.222" fill="white"/>
</clipPath>
</defs>
</svg>
