<svg width="211" height="138" viewBox="0 0 211 138" fill="none" xmlns="http://www.w3.org/2000/svg">
<g clip-path="url(#clip0_860_6240)">
<path d="M2.74692 60.3351C9.81561 35.7677 33.5454 18.1239 58.5818 16.9625C88.0738 15.589 120.324 40.3127 148.967 33.3222C158.716 30.9324 164.601 25.5946 174.651 26.0748C189.727 26.7895 201.452 40.4132 207.683 54.6064C218.203 78.7159 201.419 83.7299 190.106 107.091C185.003 117.655 178.627 126.779 164.333 131.793C147.527 137.678 134.83 130.196 117.007 129.727C103.529 129.369 96.0247 132.351 82.9816 135.612C69.9386 138.872 60.6477 137.968 47.5376 134.361C37.7219 131.647 28.5538 124.769 24.087 115.277C20.2902 107.326 19.7207 105.885 13.7352 98.9281C0.312511 83.406 -3.10458 80.6143 2.74692 60.3351Z" fill="#EBF4FF"/>
<path d="M133.222 1.63045C127.203 1.94312 120.112 3.62933 118.001 9.26865C116.382 13.5903 118.683 18.6601 122.39 21.4072C126.098 24.1542 130.888 25.0029 135.511 25.1927C140.324 25.3937 145.282 24.9359 149.615 22.8365C155.746 19.8773 162.848 9.43616 156.014 3.37249C151.547 -0.580618 138.66 1.35127 133.222 1.63045Z" fill="#EBF4FF"/>
<path d="M9.54776 111.189C9.80435 112.109 9.78258 113.083 9.48523 113.99C9.18788 114.897 8.62829 115.695 7.87725 116.283C7.12621 116.872 6.21747 117.225 5.26595 117.297C4.31444 117.369 3.3629 117.157 2.5317 116.689C1.7005 116.22 1.027 115.515 0.596359 114.664C0.165715 113.812 -0.00272746 112.852 0.11237 111.905C0.227468 110.958 0.620937 110.066 1.24297 109.342C1.86501 108.618 2.68767 108.095 3.60692 107.839C4.83888 107.499 6.15537 107.661 7.2686 108.289C8.38183 108.916 9.20128 109.959 9.54776 111.189Z" fill="#EBF4FF"/>
<path d="M42.6913 3.51761C42.9479 4.43671 42.9261 5.41127 42.6288 6.31801C42.3314 7.22474 41.7719 8.02292 41.0208 8.61159C40.2698 9.20025 39.361 9.55296 38.4095 9.62509C37.458 9.69723 36.5065 9.48557 35.6753 9.01685C34.8441 8.54813 34.1706 7.84343 33.7399 6.99188C33.3093 6.14034 33.1408 5.18017 33.2559 4.23289C33.371 3.28561 33.7645 2.39376 34.3865 1.67012C35.0086 0.946479 35.8312 0.423548 36.7505 0.167514C37.3605 -0.00392633 37.9984 -0.0531938 38.6276 0.0225087C39.2567 0.0982112 39.8647 0.297404 40.4167 0.608666C40.9687 0.919928 41.4537 1.33713 41.8441 1.83632C42.2344 2.33552 42.5223 2.90687 42.6913 3.51761Z" fill="#EBF4FF"/>
<path d="M34.0925 71.2007C24.8686 70.9327 23.5063 55.7456 28.6654 50.0393C39.2517 38.8723 56.8844 50.5865 57.1524 64.1544C57.1524 64.6904 57.1523 65.5056 56.8843 65.7848L34.0925 71.2007Z" fill="white"/>
<path d="M34.2155 70.9884C30.1954 70.832 27.7275 67.3033 26.7895 63.7187C25.7411 59.8483 26.1053 55.7312 27.8168 52.105C28.9027 50.1849 30.4833 48.591 32.3943 47.4893C34.3052 46.3875 36.4766 45.8181 38.6823 45.8403C43.331 46.0831 47.7052 48.1161 50.8878 51.5132C52.7475 53.3788 54.2299 55.5854 55.2541 58.0123C55.7644 59.2023 56.139 60.446 56.3708 61.7198C56.4936 62.3801 56.5719 63.0479 56.6053 63.7187C56.741 64.4197 56.6552 65.1457 56.3596 65.7957L56.7282 65.5947L36.7281 70.363L33.9364 71.0219C33.1993 71.2005 33.8135 71.5244 34.2937 71.4127L47.5712 68.2524L55.3881 66.3876C55.9353 66.2647 56.5048 66.1531 57.0297 65.9967C57.5545 65.8404 57.6438 65.5054 57.6997 65.014C57.7799 64.0032 57.7311 62.9863 57.5545 61.9878C56.8712 58.1847 55.1237 54.6533 52.5147 51.8032C49.9057 48.953 46.5421 46.9009 42.8141 45.885C39.2213 44.9259 35.401 45.3234 32.0826 47.0017C30.3747 47.8702 28.874 49.0967 27.6828 50.5975C26.7775 51.8449 26.1215 53.2554 25.751 54.7516C24.2658 60.2792 25.2931 69.1011 31.7253 71.0777C32.4514 71.2903 33.2023 71.4067 33.9587 71.4239C34.4612 71.4574 34.9749 70.9884 34.2155 70.9884Z" fill="#003F7F"/>
<path d="M80.3015 72.3844C80.3015 85.7847 71.4461 95.165 60.7705 96.706C37.0741 100.145 33.4561 89.347 33.4561 75.9131C33.4561 62.4793 40.3907 45.3044 58.2579 45.3044C73.0765 45.3044 80.3015 58.9505 80.3015 72.3844Z" fill="#004BA5"/>
<path d="M68.3643 72.3844C68.3643 85.7847 59.6206 96.706 48.8333 96.706C38.046 96.706 29.3022 85.8182 29.3022 72.3844C29.3022 58.9505 38.046 48.0515 48.8333 48.0515C59.6206 48.0515 68.3643 58.9505 68.3643 72.3844Z" fill="#004BA5"/>
<path d="M59.8662 72.3842C59.8662 79.9666 54.9304 86.1196 48.8333 86.1196C42.7361 86.1196 37.8003 79.9666 37.8003 72.3842C37.8003 64.8019 42.7361 58.6377 48.8333 58.6377C54.9304 58.6377 59.8662 64.7907 59.8662 72.3842Z" fill="#EBF4FF"/>
<path d="M59.3076 72.4179C59.3076 77.3313 57.0742 82.7808 52.4622 85.0477C47.8503 87.3146 43.149 84.7015 40.6587 80.7261C39.2947 78.4404 38.5086 75.8566 38.3685 73.1986C38.2284 70.5405 38.7385 67.8884 39.8547 65.472C41.8089 61.3067 46.1529 57.7891 51.0217 59.185C56.6052 60.8042 59.3188 67.0019 59.3523 72.4179C59.3523 72.7194 60.469 72.6747 60.469 72.3509C60.469 67.0466 57.9005 61.2844 52.7526 59.1627C50.4645 58.2977 47.949 58.2438 45.626 59.01C43.303 59.7762 41.3132 61.3161 39.9887 63.3726C38.4037 65.777 37.4768 68.5551 37.3004 71.4295C37.1241 74.304 37.7045 77.1744 38.9837 79.7546C41.2171 84.2884 46.0189 87.2699 51.1445 86.0862C57.264 84.6569 60.4355 78.2024 60.469 72.3509C60.4243 72.1052 59.3076 72.1052 59.3076 72.4179Z" fill="#003F7F"/>
<path d="M64.5674 77.3538C66.6221 77.5324 68.6768 80.4358 69.9834 82.055C72.9761 86.2203 73.1548 89.4699 78.3809 91.1003C87.9434 94.1622 97.6657 96.7009 107.504 98.705C112.362 99.8217 130.475 104.289 133.646 103.942C136.259 103.764 136.07 101.776 137.934 100.324C139.621 98.8837 141.675 99.9669 143.73 99.2075C148.956 97.0411 143.54 94.3275 140.179 93.423L64.5674 77.3538Z" fill="white" stroke="#003F7F" stroke-miterlimit="10"/>
<path d="M34.1821 46.2424L58.9617 41.1837C58.9617 41.1837 67.6495 37.5656 73.2554 50.0391C73.2554 50.0391 77.5882 60.1788 85.539 61.9766L158.437 79.5311L143.429 97.7891L67.281 79.3301C67.281 79.3301 58.0571 77.5211 53.7132 65.5836C53.7132 65.5948 46.477 42.0883 34.1821 46.2424Z" fill="white"/>
<path d="M34.3495 46.4211L46.5327 43.9198C50.7203 43.0711 54.9637 42.3564 59.1179 41.3513H59.2742H59.4194C59.6092 41.2843 59.866 41.2173 59.9554 41.195C60.7195 41.0155 61.5057 40.9478 62.2893 40.994C63.774 41.1554 65.2089 41.6239 66.5028 42.3698C67.7966 43.1158 68.921 44.1228 69.8047 45.3268C71.5355 47.4597 72.4736 49.9723 73.8025 52.3285C75.3884 55.2422 77.5547 57.7999 80.1676 59.8438C81.775 61.0268 83.6063 61.8703 85.5501 62.3229L88.3195 62.9818L100.201 65.8405L117.153 69.8718L135.098 74.1934L149.972 77.7669L157.711 79.6317L158.068 79.7211L157.901 79.5089L144.746 95.5558L142.893 97.7892L143.819 97.6217L139.174 96.505L127.326 93.6351L111.357 89.7602L94.372 85.6507L79.4753 82.0103L69.7488 79.6541L67.7946 79.185H67.6829C67.4038 79.118 67.6829 79.185 67.5378 79.185C67.0064 79.0513 66.4842 78.8835 65.9744 78.6826C60.3909 76.4492 56.1698 71.1672 54.2602 65.539C53.0751 61.9348 51.5222 58.4622 49.6259 55.176C47.0575 50.8321 43.2384 45.9745 37.789 45.6059C36.4677 45.5382 35.1455 45.7201 33.8917 46.142C33.2105 46.3653 34.1597 46.5886 34.4947 46.4881C39.9442 44.6791 44.4668 49.2352 47.2809 53.367C49.7031 57.0106 51.619 60.9664 52.976 65.1258C54.6483 70.5844 58.3007 75.2206 63.2161 78.1242C64.4061 78.7886 65.6791 79.2917 67.0017 79.6206H67.1469L67.9509 79.8216L76.2368 81.8316L90.1509 85.1817L106.901 89.2353L123.227 93.1884L136.203 96.3375L142.781 97.9232L143.071 98.0014C143.228 98.0518 143.395 98.0619 143.557 98.0306C143.719 97.9994 143.871 97.9279 143.998 97.8227L157.153 81.8093L159.018 79.5759C159.096 79.4754 158.917 79.3861 158.85 79.3749L153.367 78.046L139.665 74.6959L121.999 70.4413L104.411 66.209L91.0107 62.9818C89.0007 62.5016 86.9236 62.1331 84.9582 61.4854C81.396 60.3687 78.5819 57.4988 76.4713 54.506C75.3079 52.7642 74.2811 50.9348 73.4004 49.0342C71.7589 45.6841 69.3133 42.4904 65.7175 41.1168C63.7813 40.3842 61.6716 40.2404 59.6539 40.7037C59.397 40.7707 59.1402 40.8265 58.8945 40.9158C58.6489 41.0052 58.3362 41.0052 58.8275 40.9158C58.4367 40.9158 58.0347 41.0722 57.6438 41.1503L50.7315 42.5685L35.0977 45.7735L34.0927 45.9745C33.2663 46.1978 33.8693 46.544 34.3495 46.4211Z" fill="#003F7F"/>
<path d="M208.867 108.643C209.693 121.329 204.925 131.804 190.095 134.696C170.308 138.56 165.595 121.876 164.78 109.191C163.965 96.5051 171.112 86.5776 189.917 85.6731C199.543 85.2152 208.041 95.9578 208.867 108.643Z" fill="#004BA5"/>
<path d="M198.013 111.904C198.839 124.59 191.692 134.875 182.044 134.875C172.396 134.875 163.931 124.59 163.06 111.904C162.189 99.2186 169.381 88.9338 179.018 88.9338C188.655 88.9338 197.187 99.2186 198.013 111.904Z" fill="#004BA5"/>
<path d="M189.626 111.904C190.062 118.493 186.343 123.842 181.329 123.842C176.315 123.842 171.915 118.493 171.491 111.904C171.067 105.316 174.774 100.023 179.777 100.023C184.78 100.023 189.202 105.305 189.626 111.904Z" fill="#EBF4FF"/>
<path d="M189.09 111.793C189.325 115.835 187.973 120.57 184.266 122.703C183.453 123.174 182.546 123.46 181.609 123.539C180.673 123.618 179.731 123.489 178.85 123.16C176.991 122.343 175.43 120.97 174.383 119.23C173.141 117.282 172.364 115.074 172.112 112.777C171.861 110.48 172.141 108.157 172.932 105.986C174.283 102.479 177.711 99.3525 181.72 100.458C186.444 101.742 188.822 107.348 189.135 111.793C189.135 112.094 190.252 112.362 190.252 112.016C189.917 107.404 187.583 102.535 183.216 100.514C181.385 99.6343 179.293 99.4632 177.343 100.034C175.427 100.713 173.819 102.056 172.809 103.819C170.196 108.096 170.575 113.925 172.887 118.236C174.875 121.854 178.839 124.824 183.161 123.976C188.498 122.859 190.531 116.795 190.252 112.016C190.14 111.714 189.079 111.435 189.09 111.793Z" fill="#003F7F"/>
<path d="M157.901 93.8137C159.163 95.6227 159.71 98.3363 160.972 100.324C163.507 104.121 166.22 107.929 169.112 111.547C172.195 114.975 174.182 117.51 179.062 117.331C184.311 117.153 181.776 112.63 181.24 108.643C180.693 103.942 178.884 95.4441 180.871 90.9214C183.406 85.3379 196.07 86.7561 196.07 86.7561C196.07 79.7098 194.953 67.951 189.191 63.071C180.871 56.3708 169.481 60.3574 163.875 68.3083C162.592 69.6244 161.66 71.2406 161.162 73.0096H161.876L157.901 93.8137Z" fill="#EBF4FF"/>
<path d="M157.41 93.8362C158.263 95.3138 158.973 96.8693 159.531 98.4817C160.351 100.183 161.343 101.795 162.491 103.295C164.694 106.61 167.107 109.78 169.716 112.787C171.458 114.73 173.334 116.572 175.947 117.253C177.355 117.616 178.822 117.684 180.257 117.454C180.732 117.419 181.19 117.268 181.593 117.015C181.996 116.762 182.331 116.414 182.569 116.003C182.896 115.083 182.935 114.086 182.681 113.144C182.457 111.916 182.111 110.732 181.877 109.515C181.642 108.297 181.519 106.935 181.329 105.651C181.106 104.11 180.894 102.58 180.738 101.039C180.262 98.0709 180.353 95.0396 181.006 92.1053C181.312 91.1061 181.862 90.1988 182.607 89.4657C183.351 88.7326 184.267 88.1967 185.271 87.9066C188.754 86.8196 192.435 86.5221 196.047 87.0355C196.159 87.0355 196.583 87.0355 196.583 86.868C196.603 83.0367 196.263 79.2119 195.567 75.4442C194.853 71.7256 193.702 67.8395 191.335 64.8356C190.079 63.3413 188.539 62.1111 186.804 61.2159C185.07 60.3208 183.175 59.7785 181.229 59.6206C177.287 59.2513 173.33 60.1428 169.928 62.1667C167.95 63.3321 166.17 64.8061 164.657 66.533C163.887 67.4263 163.15 68.3867 162.424 69.3247C161.557 70.3955 160.932 71.6412 160.592 72.9763C160.592 73.1885 161.139 73.222 161.218 73.222H161.944L161.318 72.9763L157.823 91.212L157.332 93.7804C157.332 94.0372 158.303 94.1601 158.359 93.8586L161.843 75.6229L162.334 73.0545C162.334 72.8312 161.798 72.8088 161.709 72.8088H160.994L161.62 73.0545C162.111 70.8211 163.708 69.1014 165.081 67.3928C166.306 65.8647 167.738 64.5154 169.336 63.3839C172.459 61.0901 176.238 59.8644 180.112 59.8886C182.046 59.9339 183.948 60.3882 185.694 61.2216C187.44 62.055 188.989 63.2487 190.241 64.7239C192.39 67.7057 193.816 71.1464 194.406 74.7742C195.179 78.6943 195.553 82.6827 195.523 86.6782L196.047 86.5107C193.072 86.1663 190.063 86.2566 187.114 86.7787C185.143 87.0336 183.275 87.8041 181.698 89.0121C179.922 90.5643 179.565 93.0769 179.464 95.2991C179.416 98.3846 179.648 101.468 180.157 104.512C180.347 105.852 180.537 107.192 180.715 108.532C180.894 109.872 181.195 110.877 181.452 112.05C181.767 113.075 181.862 114.156 181.731 115.221C181.626 115.714 181.356 116.156 180.967 116.477C180.578 116.797 180.091 116.976 179.587 116.985C178.168 117.145 176.731 116.957 175.4 116.437C174.07 115.918 172.885 115.083 171.949 114.004C169.068 110.953 166.453 107.661 164.132 104.166C162.836 102.512 161.692 100.744 160.715 98.8837C160.073 97.1039 159.289 95.3786 158.37 93.7245C158.225 93.5459 157.265 93.6129 157.41 93.8362Z" fill="#003F7F"/>
<path d="M142.893 96.17C140.536 102.312 146.868 103.585 151.569 103.987C156.818 104.355 157.153 101.999 158.805 97.4765C160.104 92.9201 161.674 88.4453 163.507 84.0762C169.09 72.9092 176.907 64.1878 190.095 64.1878C187.382 56.9516 191.904 45.7399 185.215 40.1341C178.839 34.7293 173.088 40.7818 169.392 45.874C164.751 52.2436 160.489 58.8808 156.628 65.7512C153.881 70.7205 151.714 75.3994 149.068 80.4246C146.421 85.4497 144.914 90.8769 142.893 96.17Z" fill="white"/>
<path d="M142.334 96.0805C141.619 98.0013 141.575 100.101 143.172 101.586C144.736 102.823 146.617 103.596 148.599 103.819C150.702 104.343 152.896 104.389 155.02 103.953C155.792 103.68 156.489 103.228 157.054 102.634C157.619 102.04 158.035 101.321 158.269 100.536C159.386 97.7667 160.179 94.8633 161.095 92.0157C162.09 88.7099 163.38 85.4996 164.947 82.4233C167.241 77.8642 170.356 73.768 174.138 70.3407C178.608 66.4964 184.311 64.3878 190.207 64.3998C190.319 64.3998 190.721 64.3998 190.642 64.1877C189.834 61.554 189.505 58.7968 189.671 56.0469C189.79 53.2536 189.719 50.4554 189.459 47.6717C189.221 45.1331 188.19 42.734 186.511 40.8152C185.541 39.7303 184.325 38.895 182.964 38.3798C181.603 37.8647 180.139 37.685 178.694 37.8559C175.757 38.3361 173.345 40.4243 171.413 42.5572C169.064 45.3315 166.904 48.2601 164.947 51.3233C160.481 57.8743 156.438 64.7038 152.842 71.7701C151.837 73.7689 150.843 75.779 149.827 77.7779C148.811 79.7767 147.75 81.731 146.868 83.7969C145.148 87.817 143.886 92.0046 142.334 96.0805C142.245 96.3262 143.317 96.5831 143.451 96.2592C144.78 92.7751 145.896 89.2129 147.259 85.7511C148.621 82.2893 150.452 78.9504 152.139 75.578C155.543 68.6362 159.323 61.8851 163.462 55.3546C165.528 52.1608 167.683 49.0117 169.916 45.9408C171.572 43.4208 173.695 41.2412 176.17 39.5198C177.317 38.7471 178.644 38.2853 180.023 38.1798C181.773 38.2082 183.45 38.8892 184.724 40.0893C186.618 41.7907 187.855 44.1025 188.219 46.622C189.269 52.3618 187.516 58.5148 189.559 64.076L189.984 63.875C185.045 63.8106 180.194 65.1757 176.014 67.8058C172.027 70.5212 168.671 74.0633 166.176 78.1911C164.734 80.394 163.479 82.7137 162.423 85.1257C161.117 88.3293 159.976 91.5981 159.006 94.9192C158.571 96.2815 158.135 97.6439 157.655 98.9951C157.356 99.9346 156.959 100.84 156.471 101.698C155.355 103.44 153.602 103.786 151.67 103.674C149.342 103.688 147.044 103.144 144.969 102.088C144.091 101.599 143.424 100.804 143.093 99.855C142.781 98.6338 142.891 97.3428 143.406 96.1922C143.54 96.0024 142.457 95.7455 142.334 96.0805Z" fill="#003F7F"/>
<path d="M104.925 88.8669L93.5124 86.2427L93.4678 90.7765H95.7123H102.535H104.78L104.925 88.8669Z" fill="#F3CEE0"/>
<path d="M85.1818 100.291C82.9432 98.9032 81.2755 96.76 80.4805 94.2493L93.2667 87.5491L103.551 90.1733L85.1818 100.291Z" fill="#F3CEE0"/>
<path d="M71.1001 104.489C70.5753 104.318 70.1138 103.994 69.7754 103.558C69.4369 103.122 69.2371 102.595 69.2017 102.044L81.7087 96.0471L83.6182 98.4927L71.1001 104.489Z" fill="#F3CEE0"/>
<path d="M69.6484 101.05C67.2028 102.96 61.8315 99.8105 58.1353 102.714C59.0446 105.481 60.8832 107.848 63.339 109.414L66.1978 108.565C67.8862 108.07 69.4686 107.268 70.8656 106.198L72.6076 104.869C72.9092 103.764 70.8209 101.139 69.6484 101.05Z" fill="#F3CEE0"/>
<path d="M104.88 88.7106L91.9488 85.6396L91.8818 91.5023H94.4391H102.178H104.735L104.88 88.7106Z" fill="#D96098"/>
<path d="M99.4867 105.048C97.0166 105.971 94.2963 105.971 91.8262 105.048L94.4057 90.8545H102.066L99.4867 105.048Z" fill="#D96098"/>
<path d="M94.0595 118.939C93.6036 119.25 93.0646 119.416 92.5129 119.416C91.9612 119.416 91.4223 119.25 90.9663 118.939L93.8921 105.438H96.9853L94.0595 118.939Z" fill="#D96098"/>
<path d="M90.2739 118.035C90.2739 121.139 84.5117 123.418 84.5117 128.152C87.2534 129.124 90.2458 129.124 92.9874 128.152L94.1041 125.372C94.7465 123.735 95.0833 121.993 95.098 120.235V118.001C94.6066 117.376 90.9327 117.309 90.2739 118.035Z" fill="#D96098"/>
<path d="M82.0437 125.115C82.0437 125.115 70.296 125.729 66.1084 114.83" stroke="#004BA5" stroke-width="0.5" stroke-miterlimit="10"/>
<path d="M65.0586 111.044L68.7996 115.701L66.2535 115.087L64.4668 116.985L65.0586 111.044Z" fill="#004BA5"/>
</g>
<defs>
<clipPath id="clip0_860_6240">
<rect width="211" height="137.678" fill="white"/>
</clipPath>
</defs>
</svg>
