<svg width="211" height="185" viewBox="0 0 211 185" fill="none" xmlns="http://www.w3.org/2000/svg">
<g clip-path="url(#clip0_860_6352)">
<path d="M210.991 82.6114C210.417 98.4084 201.843 113.263 189.818 123.518C177.793 133.774 162.599 139.753 147.093 142.844C132.278 145.761 116.16 146.626 104.115 155.744C98.2826 160.197 93.7817 166.35 87.774 170.637C76.3418 178.794 60.5544 178.93 47.5085 173.661C34.4626 168.392 23.9053 158.428 15.0104 147.559C5.71684 136.214 -2.48799 121.895 0.700582 107.566C4.37522 90.8356 21.543 81.1921 31.692 67.3879C44.1352 50.4535 46.1087 26.8405 60.9433 11.9767C75.778 -2.8871 101.773 -4.06337 117.871 9.18671C127.223 16.8957 132.949 28.3084 142.33 35.9688C148.879 41.2163 156.849 44.3851 165.214 45.0679C172.825 45.7387 181.584 41.1794 188.739 43.1236C203.564 47.0996 211.487 69.1572 210.991 82.6114Z" fill="#EBF4FF"/>
<path d="M108.169 171.308C106.468 172.63 104.67 174.088 104.096 176.169C103.124 179.552 106.04 183.051 109.472 183.946C112.904 184.84 116.452 183.771 119.718 182.507C126.786 179.775 133.785 175.702 137.45 169.033C140.94 162.695 141.212 152.507 131.977 154.374C123.694 156.017 114.653 166.263 108.169 171.308Z" fill="#EBF4FF"/>
<path d="M161.344 28.6195C163.981 28.6195 166.118 26.4825 166.118 23.8464C166.118 21.2102 163.981 19.0732 161.344 19.0732C158.708 19.0732 156.571 21.2102 156.571 23.8464C156.571 26.4825 158.708 28.6195 161.344 28.6195Z" fill="#EBF4FF"/>
<path d="M140.638 85.4014C149.038 88.1136 147.589 67.7767 146.772 63.1689C144.605 51.7755 134.942 45.2817 124.637 52.6019L140.638 85.4014Z" fill="#004BA5"/>
<path d="M95.9105 120.213C96.7271 123.732 86.4225 132.413 83.7103 134.037C80.7356 135.66 73.9891 138.645 71.2477 135.981C68.8076 133.813 70.1589 127.845 70.1589 124.87C61.2153 127.582 54.7118 125.949 46.5751 121.885C44.1351 120.262 37.9037 117.822 41.4325 114.031C43.3768 112.086 48.7429 112.67 51.1538 112.397C44.9225 111.581 35.7067 107.537 34.8901 100.197C34.0735 92.8577 47.9069 94.7825 52.787 91.2537C66.6106 80.9589 39.498 56.2571 64.1706 52.7672C69.8575 51.9506 74.7376 50.5994 80.4342 52.2228C75.282 44.6305 84.0311 42.1322 90.8069 40.5087C98.9338 38.6131 97.6117 43.9209 105.71 43.4251C115.499 42.7932 95.9105 120.213 95.9105 120.213Z" fill="#004BA5"/>
<path d="M146.062 148.133L133.639 115.965C138.081 112.215 141.585 107.478 143.869 102.132C146.154 96.786 147.156 90.9796 146.795 85.1772C146.434 79.3748 144.72 73.7374 141.791 68.7157C138.862 63.6939 134.798 59.4273 129.925 56.2569C125.434 55.907 120.904 55.7028 116.51 55.1584C113.525 54.8862 109.19 54.0697 106.215 55.4209C101.879 57.3652 102.686 61.1176 102.686 65.1422C101.871 64.2687 100.848 63.6164 99.7115 63.2465C93.1983 61.6231 82.6313 57.5596 81.2411 67.5822C79.8899 76.798 89.6499 85.2069 89.6499 94.1504C89.4458 106.127 75.8652 100.168 66.4355 96.6488C70.256 111.503 83.1367 122.993 99.2448 125.56C99.4101 137.361 99.6823 157.543 99.6823 158.116" fill="white"/>
<path d="M147.181 148.298L142.991 137.449L136.283 120.097L134.757 116.13L134.689 116.364C139.996 111.783 143.968 105.855 146.189 99.2057C148.382 92.4623 148.588 85.2302 146.782 78.373C145.012 71.7983 141.53 65.8106 136.691 61.0205C135.487 59.8228 134.211 58.6995 132.871 57.657C132.21 57.1418 131.529 56.6071 130.82 56.1502C129.848 55.5378 128.487 55.6544 127.388 55.5767C123.179 55.285 118.979 54.9642 114.75 54.4879C111.358 54.1087 107.576 53.6227 104.465 55.4017C103.246 56.0795 102.334 57.2002 101.918 58.5319C101.58 59.8681 101.459 61.2499 101.559 62.6246C101.559 63.3828 101.559 64.1411 101.559 64.8896L103.649 65.2201C102.927 64.4775 102.09 63.8569 101.17 63.3828C100.441 63.0492 99.6782 62.795 98.895 62.6246C97.7381 62.3135 96.5911 61.9927 95.4342 61.701C92.9635 60.979 90.406 60.5963 87.8322 60.5636C85.5963 60.622 83.2632 61.2053 81.8148 63.0329C80.0455 65.259 79.7831 68.4573 80.1622 71.1695C81.1343 77.8189 85.8394 83.1461 87.8031 89.4552C88.6197 92.0994 88.9891 95.2005 87.8031 97.7961C87.3834 98.6372 86.7467 99.351 85.9589 99.8637C85.171 100.376 84.2606 100.669 83.3216 100.712C81.0123 100.821 78.7033 100.491 76.5167 99.7403C73.892 98.9918 71.3158 98.01 68.7397 97.0281L66.8634 96.3184C66.6496 96.2407 65.2205 95.881 65.3761 96.5032C66.9181 102.371 69.8261 107.791 73.8627 112.32C78.0187 116.94 83.1395 120.591 88.8627 123.013C92.2537 124.457 95.8091 125.479 99.4491 126.056L98.1756 125.268C98.3117 135.145 98.4446 145.022 98.5742 154.899C98.5742 155.871 98.5742 156.843 98.5742 157.815C98.5742 158.535 100.752 158.904 100.752 158.389C100.752 150.437 100.538 142.485 100.431 134.533L100.314 125.784C100.314 125.268 99.4297 125.054 99.0505 124.986C93.2138 124.058 87.6597 121.832 82.7966 118.473C78.0136 115.184 74.0276 110.866 71.1311 105.836C69.5091 102.978 68.2734 99.9187 67.4564 96.7365L65.969 96.9212C71.0241 98.8071 76.1862 101.111 81.6106 101.636C83.7493 101.85 86.1115 101.801 87.978 100.576C89.8445 99.3515 90.5444 97.0087 90.6513 94.8408C90.8069 91.6814 89.6792 88.6192 88.3571 85.8001C86.9281 82.767 85.1977 79.8701 83.8757 76.7787C82.4812 73.8892 81.9383 70.6623 82.3105 67.4755C82.6897 65.1521 83.7882 62.9065 86.0921 62.0024C88.1898 61.3585 90.4258 61.3148 92.5471 61.876C93.6456 62.0802 94.851 62.3815 96.0272 62.6926L99.381 63.587C100.23 63.8795 100.993 64.3809 101.597 65.0452C101.924 65.3408 102.336 65.5246 102.774 65.5701C102.939 65.5701 103.678 65.677 103.678 65.3659C103.548 63.5162 103.584 61.6585 103.785 59.8151C103.935 58.9276 104.308 58.0928 104.869 57.3888C105.43 56.6849 106.161 56.135 106.993 55.7905C109.045 55.0583 111.249 54.8576 113.399 55.2072C115.839 55.4308 118.26 55.7613 120.71 55.9752C123.898 56.2474 127.087 56.4224 130.275 56.6654L128.973 56.2474C136.303 61.2074 141.703 68.5398 144.264 77.012C146.842 85.8403 146.013 95.3145 141.941 103.561C139.644 108.145 136.466 112.231 132.589 115.586C132.553 115.612 132.527 115.649 132.517 115.692C132.506 115.735 132.511 115.78 132.531 115.819L136.711 126.668L143.418 144.021L144.945 147.987C145.11 148.415 145.81 148.59 146.208 148.648C146.393 148.648 147.268 148.735 147.113 148.317L147.181 148.298Z" fill="#003F7F"/>
<path d="M75.0682 101.315C74.4752 92.7897 62.4986 91.7106 61.1376 99.0307C59.5142 109.063 71.8311 121.73 78.4318 114.4" fill="white"/>
<path d="M76.2157 101.169C76.1 99.524 75.477 97.9552 74.4323 96.6789C73.3877 95.4027 71.9728 94.4819 70.3829 94.0435C67.3693 93.188 63.5781 93.6936 61.4102 96.1822C59.0091 99.0014 59.8548 103.531 61.1185 106.652C62.5391 110.306 65.0992 113.404 68.4192 115.489C71.9091 117.559 76.5948 117.656 79.482 114.517C80.0653 113.875 77.9169 113.787 77.5378 114.235C77.0286 114.804 76.4273 115.284 75.7588 115.654C75.3077 115.896 74.8111 116.042 74.3006 116.082C73.9507 116.082 74.4172 116.082 74.213 116.082H73.9895C73.8762 116.09 73.7625 116.09 73.6493 116.082C73.3201 116.045 72.9948 115.98 72.6771 115.887C71.9991 115.697 71.3464 115.426 70.7329 115.08C67.7199 113.288 65.3256 110.619 63.8697 107.43C63.0771 105.809 62.5612 104.068 62.3434 102.277C62.0726 100.666 62.2509 99.0113 62.8587 97.4946C63.3852 96.3684 64.3047 95.4731 65.4446 94.9768C65.5254 94.9362 65.6101 94.9036 65.6973 94.8796L66.0278 94.7726L66.436 94.6754H66.6403C66.4069 94.6754 66.7083 94.6754 66.7569 94.6754C67.3116 94.6118 67.8729 94.638 68.4192 94.7532C69.9658 95.0903 71.3585 95.9268 72.3827 97.1337C73.4069 98.3406 74.0058 99.8509 74.0868 101.432C74.0868 102.064 76.3809 101.879 76.3323 101.228L76.2157 101.169Z" fill="#003F7F"/>
<path d="M109.987 71.7236L105.195 122.702C105.195 122.702 134.601 115.635 134.738 115.897C135.505 117.539 136.177 119.223 136.75 120.942L111.795 126.863C102.831 129.081 93.3777 128.179 84.9939 124.306C83.0834 123.422 81.2798 122.322 79.618 121.03C71.6855 114.701 57.5605 88.6192 57.5605 88.6192L64.7057 87.1027C64.7057 87.1027 78.4903 128.496 97.9329 121.419C97.9329 121.419 99.5369 119.873 99.391 112.504C99.2452 105.136 101.87 75.6705 101.87 75.6705L109.987 71.7236Z" fill="#505151"/>
<path d="M133.406 67.6698C133.406 67.6698 110.075 77.7701 69.2452 88.0844C69.2452 88.0844 34.4529 93.9171 31.8962 84.0889C30.788 79.8116 41.6175 66.5907 52.8941 56.4222C57.6867 52.0866 81.426 33.0912 104.553 35.3563C135.632 38.331 162.968 61.4579 133.406 67.6698Z" fill="#D96098"/>
<g style="mix-blend-mode:multiply">
<path d="M72.7256 47.8482C72.7256 47.8482 82.4468 40.8489 93.8207 38.788C105.195 36.7271 133.872 44.6207 140.288 55.2558C140.288 55.2558 141.426 56.6654 138.937 55.9071C136.448 55.1489 116.734 39.2935 97.3787 42.8126C78.0237 46.3317 72.7256 47.8482 72.7256 47.8482Z" fill="#D96098"/>
</g>
<g style="mix-blend-mode:multiply">
<g style="mix-blend-mode:multiply">
<path d="M56.7729 60.2817C56.7729 60.2817 78.0528 47.6441 93.4027 47.7413C108.753 47.8385 131.87 58.2597 127.777 59.7956C123.684 61.3316 106.332 48.7523 86.9478 54.3809C67.5636 60.0095 56.7729 60.2817 56.7729 60.2817Z" fill="#D96098"/>
</g>
</g>
<g style="mix-blend-mode:multiply">
<g style="mix-blend-mode:multiply">
<path d="M50.3765 69.4682C50.3765 69.4682 76.3127 60.165 89.4364 61.2829C102.56 62.4009 109.472 66.4547 109.472 66.4547C109.472 66.4547 112.602 67.5045 109.56 67.7767C106.517 68.0489 94.2096 62.6925 84.6924 66.4838C75.1753 70.2751 55.4704 72.4527 50.3765 69.4682Z" fill="#D96098"/>
</g>
</g>
</g>
<defs>
<clipPath id="clip0_860_6352">
<rect width="211" height="184.218" fill="white"/>
</clipPath>
</defs>
</svg>
