<svg width="32" height="32" viewBox="0 0 32 32" fill="none" xmlns="http://www.w3.org/2000/svg">
<rect width="32" height="32" rx="8" fill="#004FFE" fill-opacity="0.05"/>
<path fill-rule="evenodd" clip-rule="evenodd" d="M9.75514 14.9152V14.9152C9.10809 14.1856 9.00053 13.1237 9.48811 12.2792L9.52177 12.2208C10.0094 11.3763 10.9827 10.9385 11.9381 11.134H11.9382C12.3298 11.2141 12.7373 11.148 13.0835 10.9481V10.9481C13.4297 10.7482 13.6906 10.4285 13.8171 10.0492V10.0492C14.1254 9.12404 14.9913 8.5 15.9665 8.5H16.0338C17.009 8.5 17.8748 9.12404 18.1832 10.0492V10.0492C18.3096 10.4285 18.5706 10.7482 18.9168 10.9481V10.9481C19.263 11.148 19.6704 11.2141 20.0621 11.134H20.0622C21.0176 10.9385 21.9909 11.3763 22.4785 12.2208L22.5121 12.2792C22.9997 13.1237 22.8922 14.1856 22.2451 14.9152V14.9152C21.9799 15.2143 21.8335 15.6002 21.8335 16V16C21.8335 16.3998 21.9799 16.7857 22.2452 17.0848V17.0848C22.8922 17.8145 22.9998 18.8763 22.5122 19.7209L22.4785 19.7792C21.9909 20.6238 21.0176 21.0615 20.0622 20.8661L20.0619 20.866C19.6703 20.7859 19.263 20.852 18.9168 21.0518V21.0518C18.5706 21.2517 18.3096 21.5715 18.1832 21.9507V21.9507C17.8748 22.8759 17.009 23.5 16.0337 23.5H15.9666C14.9913 23.5 14.1255 22.8759 13.817 21.9507V21.9507C13.6906 21.5715 13.4297 21.2517 13.0835 21.0518V21.0518C12.7373 20.852 12.3299 20.7859 11.9383 20.866L11.9381 20.866C10.9827 21.0615 10.0094 20.6237 9.5218 19.7792L9.48814 19.7208C9.00052 18.8763 9.10807 17.8144 9.75512 17.0847V17.0847C10.0203 16.7857 10.1668 16.3998 10.1668 16V16C10.1668 15.6002 10.0204 15.2143 9.75514 14.9152Z" stroke="#004FFE" stroke-width="1.5" stroke-linecap="round" stroke-linejoin="round"/>
<circle cx="16" cy="16" r="2.5" stroke="#004FFE" stroke-width="1.5" stroke-linecap="round" stroke-linejoin="round"/>
</svg>
