<svg width="19" height="17" viewBox="0 0 19 17" fill="none" xmlns="http://www.w3.org/2000/svg">
<path d="M1.41 2.79004H18.52" stroke="#121212" stroke-width="0.84" stroke-linecap="round" stroke-linejoin="round"/>
<path d="M1.41 8.54004H18.52" stroke="#121212" stroke-width="0.84" stroke-linecap="round" stroke-linejoin="round"/>
<path d="M1.41 14.12H18.52" stroke="#121212" stroke-width="0.84" stroke-linecap="round" stroke-linejoin="round"/>
<path d="M13.15 4.83998C14.2822 4.83998 15.2 3.92216 15.2 2.78998C15.2 1.65779 14.2822 0.73999 13.15 0.73999C12.0178 0.73999 11.1 1.65779 11.1 2.78998C11.1 3.92216 12.0178 4.83998 13.15 4.83998Z" fill="white" stroke="#121212" stroke-width="0.84" stroke-linecap="round" stroke-linejoin="round"/>
<path d="M6.65001 10.59C7.78219 10.59 8.70001 9.67216 8.70001 8.53998C8.70001 7.40779 7.78219 6.48999 6.65001 6.48999C5.51782 6.48999 4.60001 7.40779 4.60001 8.53998C4.60001 9.67216 5.51782 10.59 6.65001 10.59Z" fill="white" stroke="#121212" stroke-width="0.84" stroke-linecap="round" stroke-linejoin="round"/>
<path d="M13.28 16.1701C14.4122 16.1701 15.33 15.2522 15.33 14.1201C15.33 12.9879 14.4122 12.0701 13.28 12.0701C12.1478 12.0701 11.23 12.9879 11.23 14.1201C11.23 15.2522 12.1478 16.1701 13.28 16.1701Z" fill="white" stroke="#121212" stroke-width="0.84" stroke-linecap="round" stroke-linejoin="round"/>
</svg>
