<svg width="16" height="16" viewBox="0 0 16 16" fill="none" xmlns="http://www.w3.org/2000/svg">
<ellipse cx="7.99967" cy="8.33341" rx="1.16715" ry="1.16715" stroke="#004FFE" stroke-linecap="round" stroke-linejoin="round"/>
<path d="M7.99998 4.33301V4.99995" stroke="#004FFE" stroke-linecap="round" stroke-linejoin="round"/>
<path d="M5.16997 5.50542L5.6415 5.97695" stroke="#004FFE" stroke-linecap="round" stroke-linejoin="round"/>
<path d="M8.82617 7.50912L10.8297 5.50562" stroke="#004FFE" stroke-linecap="round" stroke-linejoin="round"/>
<path d="M5.66553 11.3359H10.3341" stroke="#004FFE" stroke-linecap="round" stroke-linejoin="round"/>
<path d="M12.0014 8.33469H11.3345" stroke="#004FFE" stroke-linecap="round" stroke-linejoin="round"/>
<path d="M4.66499 8.33469H3.99805" stroke="#004FFE" stroke-linecap="round" stroke-linejoin="round"/>
<path fill-rule="evenodd" clip-rule="evenodd" d="M7.8127 2.33081C4.5909 2.46558 2.03697 5.09626 1.99759 8.32064C1.99168 10.255 2.92049 12.0731 4.49132 13.202C4.93599 13.5126 5.46691 13.6759 6.00929 13.6689H9.99628C10.5263 13.6768 11.0456 13.5189 11.4816 13.2173C13.6391 11.6845 14.5372 8.91893 13.692 6.41093C12.8468 3.90293 10.4579 2.24511 7.8127 2.33081Z" stroke="#004FFE" stroke-linecap="round" stroke-linejoin="round"/>
</svg>
