<svg width="32" height="32" viewBox="0 0 32 32" fill="none" xmlns="http://www.w3.org/2000/svg">
<rect width="32" height="32" rx="8" fill="#004FFE" fill-opacity="0.05"/>
<path d="M23.5031 16C23.5031 20.1439 20.1439 23.5031 16 23.5031" stroke="#004FFE" stroke-width="1.5" stroke-linecap="round" stroke-linejoin="round"/>
<path d="M8.49707 16.0001C8.49707 11.8562 11.8563 8.49695 16.0002 8.49695" stroke="#004FFE" stroke-width="1.5" stroke-linecap="round" stroke-linejoin="round"/>
<path d="M8.49707 16C8.49719 16.8789 8.6535 17.7508 8.95873 18.5749C9.09832 18.9577 9.49188 19.1857 9.89337 19.1164L10.7155 18.9714C11.38 18.8542 11.8318 18.231 11.7363 17.563L11.4889 15.8309C11.441 15.4955 11.2591 15.194 10.9848 14.9952C10.7105 14.7964 10.3674 14.7174 10.0338 14.7762L8.56602 15.035" stroke="#004FFE" stroke-width="1.5" stroke-linecap="round" stroke-linejoin="round"/>
<path d="M23.5031 16.0001C23.5031 11.8562 20.1439 8.49695 16 8.49695" stroke="#004FFE" stroke-width="1.5" stroke-linecap="round" stroke-linejoin="round"/>
<path d="M23.503 16C23.5028 16.8789 23.3465 17.7508 23.0413 18.5749C22.9017 18.9577 22.5081 19.1857 22.1067 19.1164L21.2845 18.9714C20.62 18.8542 20.1683 18.231 20.2637 17.563L20.5111 15.8309C20.5591 15.4955 20.7409 15.194 21.0152 14.9952C21.2895 14.7964 21.6327 14.7174 21.9662 14.7762L23.434 15.035" stroke="#004FFE" stroke-width="1.5" stroke-linecap="round" stroke-linejoin="round"/>
<path d="M17.245 16.4094C17.2424 16.4094 17.2402 16.4109 17.2392 16.4132C17.2382 16.4156 17.2388 16.4182 17.2406 16.42C17.2423 16.4218 17.245 16.4223 17.2473 16.4214C17.2497 16.4204 17.2512 16.4181 17.2512 16.4156C17.2513 16.4139 17.2507 16.4123 17.2495 16.4111C17.2483 16.4099 17.2466 16.4093 17.245 16.4094" stroke="#004FFE" stroke-width="1.5" stroke-linecap="round" stroke-linejoin="round"/>
<path d="M14.7557 16.4118C14.7532 16.4118 14.7509 16.4134 14.7499 16.4157C14.749 16.418 14.7495 16.4207 14.7513 16.4225C14.7531 16.4243 14.7558 16.4248 14.7581 16.4238C14.7604 16.4229 14.7619 16.4206 14.7619 16.4181C14.762 16.4164 14.7614 16.4147 14.7602 16.4135C14.759 16.4123 14.7574 16.4117 14.7557 16.4118" stroke="#004FFE" stroke-width="1.5" stroke-linecap="round" stroke-linejoin="round"/>
</svg>
