<svg id="Layer_1" data-name="Layer 1" xmlns="http://www.w3.org/2000/svg" viewBox="0 0 64 64"><defs><style>.cls-1{fill:#004ba5;}</style></defs><path class="cls-1" d="M50.8,4.23H41.12a7.71,7.71,0,0,0-7.71,7.71v3h0V34.19H30.58v-19a2.26,2.26,0,0,0,0-.26v-3a7.71,7.71,0,0,0-7.71-7.71H13.2a2.41,2.41,0,0,0-2.41,2.41V15a2.41,2.41,0,0,0,2.41,2.42h7.9a2.42,2.42,0,0,0,0-4.84H15.62V9.11h9.91a.18.18,0,0,1,.18.18v4.93a2.11,2.11,0,0,0,0,.25V36.63A2.43,2.43,0,0,0,28,39.06h8a2.44,2.44,0,0,0,2.29-2.43V9.29a.18.18,0,0,1,.18-.18h9.91v3.44H42.9a2.42,2.42,0,0,0,0,4.84h7.9A2.41,2.41,0,0,0,53.21,15V6.64A2.41,2.41,0,0,0,50.8,4.23Z"/><path class="cls-1" d="M44.74,60.81V58.32A4.76,4.76,0,0,0,40,53.56H34a1.49,1.49,0,0,0-1.49,1.49v5.14A1.49,1.49,0,0,0,34,61.69h5.42a.91.91,0,0,0,.9-.89l0-1.19a.9.9,0,0,0-.9-.91H35.49V56.57h6.12a.11.11,0,0,1,.11.11v4.11a.9.9,0,0,0,.88.9l1.23,0A.9.9,0,0,0,44.74,60.81Z"/><path class="cls-1" d="M55.79,61.72H52A4.76,4.76,0,0,1,47.27,57V48a.89.89,0,0,1,.89-.9h1.23a.89.89,0,0,1,.89.9V58.6a.11.11,0,0,0,.11.11h5.4a.89.89,0,0,1,.89.89v1.23A.89.89,0,0,1,55.79,61.72Z"/><path class="cls-1" d="M18.65,47.3H15.76A4.76,4.76,0,0,0,11,52.06v8.82a.89.89,0,0,0,.89.9h1.22a.9.9,0,0,0,.9-.9V50.43a.11.11,0,0,1,.11-.11h4.53a.89.89,0,0,0,.89-.9V48.2A.89.89,0,0,0,18.65,47.3Z"/><path class="cls-1" d="M6.21,47.3H9.86a1.49,1.49,0,0,1,1.49,1.49v0a1.49,1.49,0,0,1-1.49,1.49H6.21a.9.9,0,0,1-.9-.9V48.2A.9.9,0,0,1,6.21,47.3Z"/><path class="cls-1" d="M30.77,60.81V58.32A4.77,4.77,0,0,0,26,53.56H20a1.5,1.5,0,0,0-1.5,1.49v5.14a1.5,1.5,0,0,0,1.5,1.5h5.42a.91.91,0,0,0,.9-.89l0-1.19a.9.9,0,0,0-.9-.91H21.52V56.57h6.12a.11.11,0,0,1,.11.11v4.11a.9.9,0,0,0,.88.9l1.22,0A.9.9,0,0,0,30.77,60.81Z"/></svg>