<svg width="95" height="28" viewBox="0 0 95 28" fill="none" xmlns="http://www.w3.org/2000/svg">
<path d="M72.5159 26.0117V21.4287C72.5113 19.1083 71.5865 16.8845 69.9443 15.2449C68.3021 13.6054 66.0765 12.684 63.7558 12.6829H52.7661C52.0371 12.6829 51.338 12.9724 50.8226 13.4878C50.3072 14.0031 50.0176 14.7021 50.0176 15.4309V24.8927C50.0176 25.2534 50.0887 25.6106 50.2269 25.9437C50.3651 26.2769 50.5676 26.5796 50.8229 26.8344C51.0781 27.0892 51.3812 27.2913 51.7146 27.4289C52.048 27.5665 52.4053 27.6371 52.7661 27.6365H62.7396C63.173 27.6366 63.589 27.4662 63.8979 27.1622C64.2067 26.8582 64.3837 26.445 64.3904 26.0117L64.4204 23.8167C64.4238 23.5979 64.3836 23.3807 64.3022 23.1778C64.2207 22.9748 64.0995 22.79 63.9459 22.6344C63.7922 22.4787 63.609 22.3552 63.407 22.2711C63.2051 22.1871 62.9884 22.1441 62.7696 22.1447H55.5103V18.2133H66.7659C66.8193 18.2133 66.8706 18.2345 66.9084 18.2723C66.9462 18.3101 66.9674 18.3614 66.9674 18.4148V25.9731C66.9674 26.406 67.1379 26.8215 67.442 27.1297C67.7462 27.4378 68.1595 27.6137 68.5925 27.6194L70.8393 27.658C71.0581 27.6619 71.2754 27.6223 71.4786 27.5414C71.6819 27.4604 71.867 27.3398 72.023 27.1865C72.1791 27.0333 72.3031 26.8504 72.3877 26.6487C72.4723 26.447 72.5159 26.2304 72.5159 26.0117Z" fill="#004BA5"/>
<path d="M92.8408 27.6879H85.9331C83.6116 27.6845 81.3863 26.7603 79.7456 25.1183C78.1049 23.4762 77.1828 21.2503 77.1816 18.9292V2.36785C77.1816 1.93009 77.3556 1.51026 77.6652 1.20072C77.9747 0.891184 78.3946 0.717285 78.8325 0.717285H81.0793C81.5171 0.717285 81.937 0.891184 82.2466 1.20072C82.5562 1.51026 82.7301 1.93009 82.7301 2.36785V21.9388C82.7301 21.9922 82.7513 22.0435 82.7891 22.0813C82.8269 22.1191 82.8782 22.1403 82.9316 22.1403H92.8537C93.2915 22.1403 93.7114 22.3142 94.021 22.6237C94.3306 22.9333 94.5045 23.3531 94.5045 23.7909V26.0373C94.5045 26.2552 94.4614 26.4709 94.3776 26.672C94.2939 26.8731 94.1711 27.0556 94.0165 27.209C93.8618 27.3625 93.6783 27.4838 93.4765 27.566C93.2747 27.6482 93.0587 27.6896 92.8408 27.6879Z" fill="#004BA5"/>
<path d="M24.5219 1.16309H19.2093C16.886 1.16309 14.6578 2.08588 13.015 3.72845C11.3722 5.37102 10.4492 7.59883 10.4492 9.92178V26.1359C10.4492 26.3526 10.4919 26.5673 10.5749 26.7675C10.6578 26.9678 10.7794 27.1497 10.9327 27.303C11.086 27.4563 11.268 27.5779 11.4683 27.6608C11.6686 27.7437 11.8832 27.7864 12.1 27.7864H14.3469C14.5637 27.7864 14.7783 27.7437 14.9786 27.6608C15.1789 27.5779 15.3609 27.4563 15.5142 27.303C15.6675 27.1497 15.7891 26.9678 15.872 26.7675C15.955 26.5673 15.9977 26.3526 15.9977 26.1359V6.91218C15.9977 6.85874 16.0189 6.80749 16.0567 6.7697C16.0945 6.73192 16.1458 6.71069 16.1992 6.71069H24.5219C24.9567 6.70617 25.3722 6.53028 25.6781 6.22123C25.984 5.91217 26.1556 5.49493 26.1556 5.06013V2.82222C26.1573 2.60603 26.1163 2.39162 26.0352 2.19123C25.954 1.99085 25.8341 1.80842 25.6824 1.65435C25.5307 1.50028 25.3502 1.3776 25.151 1.29331C24.9519 1.20901 24.7381 1.16477 24.5219 1.16309Z" fill="#004BA5"/>
<path d="M1.65082 1.16309H8.36128C9.09023 1.16309 9.78932 1.45261 10.3048 1.96798C10.8202 2.48334 11.1098 3.18232 11.1098 3.91116C11.1098 4.64 10.8202 5.33898 10.3048 5.85435C9.78932 6.36971 9.09023 6.65924 8.36128 6.65924H1.65082C1.21299 6.65924 0.793102 6.48534 0.483513 6.1758C0.173925 5.86626 0 5.44644 0 5.00868L0 2.82222C0 2.38446 0.173925 1.96463 0.483513 1.65509C0.793102 1.34555 1.21299 1.17166 1.65082 1.17166V1.16309Z" fill="#004BA5"/>
<path d="M46.819 26.0117V21.4287C46.8144 19.1076 45.889 16.8831 44.2459 15.2434C42.6028 13.6037 40.3761 12.6829 38.0546 12.6829H27.0649C26.336 12.6829 25.6369 12.9724 25.1214 13.4878C24.606 14.0031 24.3164 14.7021 24.3164 15.4309V24.8927C24.3164 25.2534 24.3875 25.6106 24.5257 25.9437C24.6639 26.2769 24.8664 26.5796 25.1217 26.8344C25.377 27.0892 25.68 27.2913 26.0134 27.4289C26.3469 27.5665 26.7042 27.6371 27.0649 27.6365H37.0427C37.4757 27.6366 37.8913 27.4661 38.1995 27.1619C38.5076 26.8578 38.6836 26.4446 38.6892 26.0117L38.7235 23.8167C38.7264 23.5981 38.6858 23.3812 38.6041 23.1784C38.5224 22.9757 38.4012 22.7912 38.2477 22.6357C38.0941 22.4801 37.9111 22.3566 37.7095 22.2723C37.5078 22.188 37.2913 22.1446 37.0727 22.1447H29.8134V18.2133H41.069C41.1224 18.2133 41.1737 18.2345 41.2115 18.2723C41.2493 18.3101 41.2705 18.3614 41.2705 18.4148V25.9731C41.2693 26.4056 41.4389 26.8212 41.7424 27.1294C42.0459 27.4377 42.4587 27.6137 42.8913 27.6194L45.1381 27.658C45.3571 27.6619 45.5746 27.6223 45.7781 27.5414C45.9816 27.4605 46.1669 27.34 46.3234 27.1868C46.4798 27.0335 46.6042 26.8508 46.6893 26.649C46.7743 26.4473 46.8184 26.2306 46.819 26.0117Z" fill="#004BA5"/>
</svg>
