<svg width="59" height="30" viewBox="0 0 59 30" fill="none" xmlns="http://www.w3.org/2000/svg">
<path d="M23.3815 0C22.9763 0 22.5878 0.161341 22.3013 0.448534C22.0148 0.735727 21.8538 1.12522 21.8538 1.53137V15.3332C21.8538 17.7123 22.7966 19.994 24.4748 21.6763C26.153 23.3586 28.4291 24.3037 30.8024 24.3037H49.978C52.3513 24.3037 54.6274 23.3586 56.3056 21.6763C57.9838 19.994 58.9266 17.7123 58.9266 15.3332V13.4333C58.9266 13.0272 58.7659 12.6377 58.4794 12.3505C58.1929 12.0633 57.8044 11.9019 57.3992 11.9019H54.7847C54.3795 11.9019 53.991 12.0633 53.7045 12.3505C53.418 12.6377 53.257 13.0272 53.257 13.4333V18.6427H27.466V1.54099C27.466 1.13484 27.3049 0.745308 27.0184 0.458116C26.732 0.170923 26.3434 0.00958155 25.9383 0.00958155L23.3815 0Z" fill="#004BA5"/>
<path d="M13.6626 1.57305V24.3197H5.67279V13.3949C5.6728 13.1925 5.6329 12.992 5.55513 12.8052C5.47736 12.6183 5.36317 12.4488 5.21962 12.3063C5.07607 12.1639 4.90588 12.0515 4.71869 11.9755C4.5315 11.8995 4.33108 11.8614 4.12913 11.8635L1.51495 11.8924C1.11175 11.8949 0.725854 12.0575 0.441942 12.3445C0.158029 12.6315 -0.000849856 13.0196 3.41925e-06 13.4238V21.0295C3.41925e-06 23.4086 0.942854 25.6903 2.62105 27.3726C4.29924 29.0549 6.57531 30 8.94863 30H10.3453C12.7186 30 14.9947 29.0549 16.6729 27.3726C18.3511 25.6903 19.2939 23.4086 19.2939 21.0295V1.58267C19.2939 1.38157 19.2543 1.18243 19.1775 0.996635C19.1007 0.810838 18.9882 0.642006 18.8464 0.499802C18.7045 0.357599 18.5361 0.24481 18.3507 0.16785C18.1654 0.0908906 17.9668 0.0512684 17.7662 0.0512684H15.2094C15.008 0.0487299 14.808 0.086176 14.6211 0.161398C14.4342 0.236619 14.2639 0.348157 14.1202 0.489595C13.9764 0.631033 13.862 0.799541 13.7834 0.985489C13.7049 1.17144 13.6639 1.37113 13.6626 1.57305Z" fill="#004BA5"/>
<path d="M58.9999 4.1361V1.5634C58.9999 0.717631 58.3159 0.0322266 57.4722 0.0322266L48.0889 0.0322266C47.2452 0.0322266 46.5613 0.717631 46.5613 1.5634V4.1361C46.5613 4.98187 47.2452 5.66759 48.0889 5.66759L57.4722 5.66759C58.3159 5.66759 58.9999 4.98187 58.9999 4.1361Z" fill="#004BA5"/>
</svg>
