<svg width="24" height="24" viewBox="0 0 24 24" fill="none" xmlns="http://www.w3.org/2000/svg">
<rect x="1" y="1" width="22" height="22" rx="11" fill="#009C9A"/>
<path d="M18 7.33582C17.9871 7.68429 17.8581 7.98114 17.6129 8.22636C17.3806 8.47158 17.0903 8.60065 16.7419 8.61355L13.714 8.92287C13.5622 8.93601 13.4179 8.99433 13.2996 9.0903L12.8212 9.47832C12.6602 9.60892 11.3406 9.60795 11.1807 9.47602L10.7236 9.09886C10.6046 9.00066 10.4586 8.94089 10.3049 8.92745L7.25806 8.61355C6.48387 8.53611 6.06452 8.1102 6 7.33582C6 6.97444 6.11613 6.65823 6.34839 6.38719C6.59355 6.12906 6.89677 6 7.25806 6L10.3478 6.42108C10.4745 6.43576 10.5955 6.482 10.6997 6.55557L11.2063 6.91329C11.3559 7.01893 12.6446 7.01968 12.795 6.91516L13.3237 6.54775C13.427 6.47597 13.5465 6.43087 13.6714 6.41648L16.7419 6C17.1032 6.01291 17.4 6.14842 17.6323 6.40655C17.8774 6.66468 18 6.97444 18 7.33582Z" fill="white"/>
<path d="M18 7.33582C17.9871 7.68429 17.8581 7.98114 17.6129 8.22636C17.3806 8.47158 17.0903 8.60065 16.7419 8.61355L13.714 8.92287C13.5622 8.93601 13.4179 8.99433 13.2996 9.0903L12.8212 9.47832C12.6602 9.60892 11.3406 9.60795 11.1807 9.47602L10.7236 9.09886C10.6046 9.00066 10.4586 8.94089 10.3049 8.92745L7.25806 8.61355C6.48387 8.53611 6.06452 8.1102 6 7.33582C6 6.97444 6.11613 6.65823 6.34839 6.38719C6.59355 6.12906 6.89677 6 7.25806 6L10.3478 6.42108C10.4745 6.43576 10.5955 6.482 10.6997 6.55557L11.2063 6.91329C11.3559 7.01893 12.6446 7.01968 12.795 6.91516L13.3237 6.54775C13.427 6.47597 13.5465 6.43087 13.6714 6.41648L16.7419 6C17.1032 6.01291 17.4 6.14842 17.6323 6.40655C17.8774 6.66468 18 6.97444 18 7.33582Z" fill="white"/>
<path d="M18 7.33582C17.9871 7.68429 17.8581 7.98114 17.6129 8.22636C17.3806 8.47158 17.0903 8.60065 16.7419 8.61355L13.714 8.92287C13.5622 8.93601 13.4179 8.99433 13.2996 9.0903L12.8212 9.47832C12.6602 9.60892 11.3406 9.60795 11.1807 9.47602L10.7236 9.09886C10.6046 9.00066 10.4586 8.94089 10.3049 8.92745L7.25806 8.61355C6.48387 8.53611 6.06452 8.1102 6 7.33582C6 6.97444 6.11613 6.65823 6.34839 6.38719C6.59355 6.12906 6.89677 6 7.25806 6L10.3478 6.42108C10.4745 6.43576 10.5955 6.482 10.6997 6.55557L11.2063 6.91329C11.3559 7.01893 12.6446 7.01968 12.795 6.91516L13.3237 6.54775C13.427 6.47597 13.5465 6.43087 13.6714 6.41648L16.7419 6C17.1032 6.01291 17.4 6.14842 17.6323 6.40655C17.8774 6.66468 18 6.97444 18 7.33582Z" fill="white"/>
<path d="M18 7.33582C17.9871 7.68429 17.8581 7.98114 17.6129 8.22636C17.3806 8.47158 17.0903 8.60065 16.7419 8.61355L13.714 8.92287C13.5622 8.93601 13.4179 8.99433 13.2996 9.0903L12.8212 9.47832C12.6602 9.60892 11.3406 9.60795 11.1807 9.47602L10.7236 9.09886C10.6046 9.00066 10.4586 8.94089 10.3049 8.92745L7.25806 8.61355C6.48387 8.53611 6.06452 8.1102 6 7.33582C6 6.97444 6.11613 6.65823 6.34839 6.38719C6.59355 6.12906 6.89677 6 7.25806 6L10.3478 6.42108C10.4745 6.43576 10.5955 6.482 10.6997 6.55557L11.2063 6.91329C11.3559 7.01893 12.6446 7.01968 12.795 6.91516L13.3237 6.54775C13.427 6.47597 13.5465 6.43087 13.6714 6.41648L16.7419 6C17.1032 6.01291 17.4 6.14842 17.6323 6.40655C17.8774 6.66468 18 6.97444 18 7.33582Z" fill="white"/>
<path d="M12.0366 9.97607C12.3297 9.98695 12.5793 10.0957 12.7856 10.3025C12.9918 10.4983 13.1004 10.7431 13.1112 11.0368V16.7704C13.0461 17.4231 12.6879 17.7767 12.0366 17.8311C11.7326 17.8311 11.4667 17.7332 11.2387 17.5374C11.0216 17.3307 10.9131 17.075 10.9131 16.7704V11.0368C10.9239 10.7322 11.0379 10.482 11.255 10.2861C11.4721 10.0794 11.7326 9.97607 12.0366 9.97607Z" fill="white"/>
<rect x="1" y="1" width="22" height="22" rx="11" stroke="#017E7B" stroke-width="2"/>
</svg>
