<svg width="114" height="131" viewBox="0 0 114 131" fill="none" xmlns="http://www.w3.org/2000/svg">
<g clip-path="url(#clip0_4_645)">
<path d="M101.786 -2.80357e-05H80.3126C75.7741 -2.80357e-05 71.4214 1.79382 68.2122 4.98683C65.0029 8.17984 63.2 12.5105 63.2 17.0261V23.6759V66.1485H56.9198V24.2473C56.9405 24.0575 56.9508 23.8668 56.9508 23.6759V17.0261C56.9508 12.5105 55.1479 8.17984 51.9387 4.98683C48.7294 1.79382 44.3768 -2.80357e-05 39.8382 -2.80357e-05H18.3646C17.6597 -0.00070436 16.9615 0.136853 16.3101 0.404779C15.6586 0.672704 15.0666 1.06577 14.5679 1.56146C14.0692 2.05715 13.6736 2.64575 13.4037 3.29365C13.1338 3.94155 12.9949 4.636 12.9949 5.33735V23.7274C12.9949 24.4288 13.1338 25.1232 13.4037 25.7711C13.6736 26.419 14.0692 27.0076 14.5679 27.5033C15.0666 27.999 15.6586 28.3921 16.3101 28.66C16.9615 28.9279 17.6597 29.0655 18.3646 29.0648H35.8756C37.2702 29.0217 38.5932 28.4402 39.5643 27.4435C40.5355 26.4468 41.0786 25.1131 41.0786 23.7249C41.0786 22.3366 40.5355 21.0029 39.5643 20.0062C38.5932 19.0095 37.2702 18.428 35.8756 18.3849H23.7291V10.7829H45.72C45.8243 10.7829 45.9243 10.824 45.998 10.8974C46.0717 10.9708 46.1132 11.0703 46.1132 11.174V22.0547C46.0924 22.2444 46.082 22.4351 46.0821 22.626V71.5219C46.0821 72.9088 46.62 74.2422 47.5838 75.2442C48.5475 76.2462 49.8627 76.8395 51.2552 76.9005H68.9421C70.3159 76.8141 71.6052 76.2106 72.5478 75.2125C73.4905 74.2144 74.0158 72.8967 74.017 71.5271V11.1586C74.017 11.0548 74.0584 10.9554 74.1321 10.882C74.2058 10.8086 74.3059 10.7674 74.4101 10.7674H96.3959V18.3643H84.2545C83.5357 18.3421 82.8197 18.4638 82.149 18.7222C81.4784 18.9805 80.8667 19.3703 80.3503 19.8684C79.834 20.3664 79.4234 20.9626 79.1431 21.6215C78.8627 22.2805 78.7182 22.9887 78.7182 23.7042C78.7182 24.4198 78.8627 25.128 79.1431 25.787C79.4234 26.4459 79.834 27.0421 80.3503 27.5401C80.8667 28.0382 81.4784 28.428 82.149 28.6863C82.8197 28.9447 83.5357 29.0664 84.2545 29.0442H101.766C102.471 29.0449 103.169 28.9073 103.82 28.6394C104.472 28.3715 105.064 27.9784 105.562 27.4827C106.061 26.987 106.456 26.3984 106.726 25.7505C106.996 25.1026 107.135 24.4082 107.135 23.7068V5.3168C107.13 3.90748 106.564 2.55752 105.562 1.56146C104.56 0.565394 103.203 0.00403864 101.786 -2.80357e-05Z" fill="white"/>
<path d="M87.4929 128.864V123.362C87.4915 120.573 86.3769 117.898 84.3941 115.926C82.4113 113.954 79.7226 112.847 76.9191 112.847H63.6604C63.2249 112.848 62.794 112.935 62.3922 113.102C61.9904 113.269 61.6256 113.513 61.3186 113.82C61.0117 114.128 60.7686 114.492 60.6032 114.893C60.4378 115.294 60.3534 115.723 60.3548 116.156V127.479C60.3548 128.354 60.7041 129.194 61.326 129.812C61.9478 130.431 62.7913 130.779 63.6707 130.779H75.7086C76.231 130.779 76.7324 130.574 77.1042 130.209C77.476 129.844 77.6883 129.348 77.6951 128.828L77.7312 126.193C77.7353 125.93 77.6871 125.67 77.5892 125.426C77.4912 125.182 77.3456 124.961 77.1608 124.773C76.976 124.586 76.7557 124.437 76.5126 124.336C76.2695 124.234 76.0085 124.181 75.7448 124.18H66.9764V119.486H80.5558C80.6203 119.486 80.6821 119.512 80.7277 119.557C80.7733 119.602 80.7989 119.664 80.7989 119.728V128.797C80.7975 129.317 81.0019 129.816 81.3679 130.187C81.7339 130.558 82.232 130.771 82.7544 130.779L85.4651 130.825C85.7279 130.83 85.9891 130.783 86.2336 130.687C86.4781 130.59 86.701 130.447 86.8895 130.265C87.078 130.082 87.2284 129.865 87.3319 129.624C87.4355 129.384 87.4902 129.126 87.4929 128.864Z" fill="white"/>
<path d="M112.008 130.882H103.674C100.87 130.882 98.1806 129.773 96.1976 127.8C94.2146 125.827 93.1006 123.151 93.1006 120.361V100.479C93.102 99.9535 93.3122 99.4503 93.6854 99.0789C94.0586 98.7076 94.5644 98.4984 95.0922 98.497H97.8081C98.3354 98.4984 98.8406 98.7078 99.213 99.0792C99.5854 99.4507 99.7946 99.954 99.7946 100.479V123.98C99.7946 124.044 99.8202 124.105 99.8658 124.151C99.9114 124.196 99.9732 124.221 100.038 124.221H112.008C112.537 124.221 113.043 124.43 113.417 124.802C113.79 125.173 114 125.677 114 126.203V128.9C114 129.426 113.79 129.93 113.417 130.301C113.043 130.673 112.537 130.882 112.008 130.882Z" fill="white"/>
<path d="M29.5851 99.0323H23.1756C20.3721 99.0337 17.684 100.143 15.7021 102.115C13.7203 104.088 12.6069 106.763 12.6069 109.553V129.024C12.6069 129.549 12.8168 130.053 13.1903 130.425C13.5638 130.796 14.0704 131.005 14.5986 131.005H17.3093C17.8375 131.005 18.3441 130.796 18.7176 130.425C19.0911 130.053 19.3009 129.549 19.3009 129.024V105.94C19.3009 105.908 19.3072 105.876 19.3195 105.847C19.3317 105.818 19.3496 105.791 19.3721 105.768C19.3947 105.746 19.4215 105.728 19.451 105.716C19.4805 105.704 19.5121 105.698 19.5441 105.698H29.5851C30.1133 105.698 30.6199 105.489 30.9934 105.117C31.3669 104.746 31.5767 104.242 31.5767 103.716V101.019C31.5767 100.493 31.3671 99.9885 30.9937 99.6161C30.6204 99.2436 30.1138 99.0337 29.5851 99.0323Z" fill="white"/>
<path d="M10.0928 105.631H1.99164C1.73009 105.631 1.47111 105.579 1.22947 105.48C0.98783 105.38 0.768275 105.234 0.583333 105.05C0.398392 104.866 0.251678 104.648 0.151588 104.407C0.051498 104.167 0 103.909 0 103.649V101.014C0.00136559 100.489 0.211638 99.9856 0.584849 99.6142C0.95806 99.2429 1.46384 99.0337 1.99164 99.0323H10.0928C10.5282 99.0323 10.9594 99.1176 11.3617 99.2834C11.764 99.4492 12.1296 99.6923 12.4375 99.9986C12.7454 100.305 12.9897 100.669 13.1563 101.069C13.323 101.469 13.4087 101.898 13.4087 102.332C13.4087 103.207 13.0594 104.046 12.4375 104.664C11.8156 105.283 10.9722 105.631 10.0928 105.631Z" fill="white"/>
<path d="M56.4853 128.864V123.362C56.4853 120.573 55.3718 117.899 53.3898 115.927C51.4078 113.955 48.7196 112.847 45.9166 112.847H32.6527C32.2147 112.844 31.7804 112.928 31.375 113.093C30.9696 113.258 30.6012 113.502 30.2909 113.809C29.9807 114.117 29.7348 114.483 29.5675 114.886C29.4001 115.289 29.3147 115.72 29.3161 116.156V127.479C29.3161 128.354 29.6654 129.194 30.2873 129.812C30.9091 130.431 31.7526 130.779 32.632 130.779H44.6699C45.1928 130.779 45.6947 130.574 46.0673 130.209C46.4399 129.844 46.6534 129.348 46.6615 128.828L46.6977 126.193C46.7018 125.93 46.6534 125.669 46.5551 125.425C46.4569 125.181 46.3108 124.959 46.1255 124.772C45.9401 124.584 45.7192 124.436 45.4755 124.334C45.2318 124.232 44.9703 124.18 44.7061 124.18H35.9687V119.486H49.5481C49.6126 119.486 49.6744 119.512 49.72 119.557C49.7656 119.602 49.7913 119.664 49.7913 119.728V128.797C49.7898 129.317 49.9942 129.816 50.3602 130.187C50.7262 130.558 51.2243 130.771 51.7467 130.779L54.4574 130.825C54.7204 130.83 54.9819 130.784 55.2267 130.688C55.4715 130.592 55.6947 130.449 55.8834 130.266C56.072 130.084 56.2224 129.866 56.3257 129.625C56.429 129.384 56.4833 129.126 56.4853 128.864Z" fill="white"/>
</g>
<defs>
<clipPath id="clip0_4_645">
<rect width="114" height="131" fill="white"/>
</clipPath>
</defs>
</svg>
