<svg width="90" height="24" viewBox="0 0 90 24" fill="none" xmlns="http://www.w3.org/2000/svg">
<path d="M47.5534 21.601V12.9719C47.5534 12.3751 47.2438 12.0648 46.6246 12.0409H34.1218C33.6693 12.0648 33.2764 12.2677 32.943 12.6496C32.6096 13.0077 32.3595 13.4373 32.1928 13.9386C32.0499 14.416 31.9785 14.9054 31.9785 15.4067C31.9785 15.8841 32.0499 16.3734 32.1928 16.8747C32.3595 17.3521 32.6096 17.7818 32.943 18.1637C33.2764 18.5217 33.6693 18.7008 34.1218 18.7008H43.2667C43.9335 18.7008 44.4932 18.9395 44.9457 19.4169C45.422 19.8704 45.6601 20.4314 45.6601 21.0997C45.6601 21.7681 45.422 22.3291 44.9457 22.7826C44.4932 23.26 43.9335 23.4987 43.2667 23.4987H34.2647C32.5977 23.4749 31.2164 23.0094 30.1209 22.1023C29.0493 21.1714 28.2753 20.133 27.799 18.9872C27.3465 17.8176 27.1203 16.6121 27.1203 15.3708C27.1203 14.1773 27.3584 13.0077 27.8347 11.8619C28.311 10.6922 29.085 9.65388 30.1567 8.7468C31.2283 7.81586 32.812 7.31458 34.9077 7.24297H49.9111C50.5779 7.24297 51.1494 7.46974 51.6257 7.92327C52.102 8.35294 52.3521 8.90196 52.3759 9.57033V21.601C52.3759 22.2694 52.1258 22.8304 51.6257 23.2839C51.1494 23.7136 50.5779 23.9284 49.9111 23.9284C48.4822 23.809 47.6963 23.0333 47.5534 21.601Z" fill="#002148"/>
<path d="M76.1488 21.601V12.9719C76.1488 12.3751 75.8392 12.0648 75.22 12.0409H62.7173C62.2648 12.0648 61.8718 12.2677 61.5384 12.6496C61.205 13.0077 60.955 13.4373 60.7883 13.9386C60.6454 14.416 60.5739 14.9054 60.5739 15.4067C60.5739 15.8841 60.6454 16.3734 60.7883 16.8747C60.955 17.3521 61.205 17.7818 61.5384 18.1637C61.8718 18.5217 62.2648 18.7008 62.7173 18.7008H71.8622C72.529 18.7008 73.0886 18.9395 73.5411 19.4169C74.0174 19.8704 74.2555 20.4314 74.2555 21.0997C74.2555 21.7681 74.0174 22.3291 73.5411 22.7826C73.0886 23.26 72.529 23.4987 71.8622 23.4987H62.8602C61.1931 23.4749 59.8119 23.0094 58.7164 22.1023C57.6447 21.1714 56.8707 20.133 56.3944 18.9872C55.942 17.8176 55.7157 16.6121 55.7157 15.3708C55.7157 14.1773 55.9539 13.0077 56.4302 11.8619C56.9065 10.6922 57.6804 9.65388 58.7521 8.7468C59.8238 7.81586 61.4075 7.31458 63.5032 7.24297H78.5065C79.1733 7.24297 79.7449 7.46974 80.2211 7.92327C80.6974 8.35294 80.9475 8.90196 80.9713 9.57033V21.601C80.9713 22.2694 80.7213 22.8304 80.2211 23.2839C79.7449 23.7136 79.1733 23.9284 78.5065 23.9284C77.0776 23.809 76.2917 23.0333 76.1488 21.601Z" fill="#002148"/>
<path d="M87.6423 1.80051C88.2853 1.82438 88.8331 2.06309 89.2856 2.51663C89.738 2.94629 89.9762 3.48338 90 4.12788V21.6726C89.8571 23.1049 89.0712 23.8806 87.6423 24C86.9755 24 86.3921 23.7852 85.892 23.3555C85.4157 22.902 85.1775 22.341 85.1775 21.6726V4.12788C85.2013 3.45951 85.4514 2.91049 85.9277 2.48082C86.404 2.02728 86.9755 1.80051 87.6423 1.80051Z" fill="#002148"/>
<path d="M12.7148 8.74C12.3 8.4 11.6668 8.4 11 8.4C10.357 8.42387 9.9 8.4 9.35686 8.7758C8.90438 9.20547 8.66623 9.74255 8.64242 10.3871V13.7021V12.4564V13.6022C8.66623 15.297 8.90438 16.8963 9.35686 18.4002C9.83316 19.904 10.6071 21.1811 11.6788 22.2314C12.7743 23.2578 14.1556 23.8187 15.8226 23.9142H21.5425C22.1855 23.8904 22.7213 23.6636 23.15 23.2339C23.6025 22.7804 23.8406 22.2314 23.8645 21.5869C23.8645 20.9185 23.6382 20.3456 23.1857 19.8682C22.7571 19.3908 22.2093 19.1401 21.5425 19.1163H17.0371C16.1322 19.0685 15.382 18.7224 14.7866 18.0779C14.1913 17.4334 13.8102 16.7054 13.6435 15.8938C13.5006 15.0583 13.4411 14.1512 13.4649 13.1725V13.7021V10.3871C13.4411 9.71869 13.191 9.16967 12.7148 8.74Z" fill="#002148"/>
<path d="M22.1478 2.47059C22.124 3.11509 21.8858 3.66411 21.4333 4.11765C21.0047 4.57119 20.4688 4.80989 19.8258 4.83376L14.2373 5.40584C13.9572 5.43014 13.6908 5.538 13.4724 5.7155L12.5896 6.43315C12.2924 6.67468 9.8568 6.67289 9.5617 6.42888L8.7181 5.73134C8.49844 5.54971 8.22896 5.43916 7.94528 5.41431L2.32194 4.83376C0.893055 4.69054 0.119074 3.90281 0 2.47059C2.91474e-08 1.80222 0.214333 1.21739 0.643 0.716113C1.09548 0.238704 1.65513 -2.92155e-08 2.32194 0L8.02447 0.778781C8.25831 0.805931 8.48161 0.891458 8.67392 1.02753L9.60901 1.68913C9.88515 1.88451 12.2636 1.8859 12.5412 1.69259L13.5171 1.01306C13.7077 0.880302 13.9282 0.796894 14.1588 0.770269L19.8258 7.68493e-07C20.4926 0.0238712 21.0404 0.274511 21.4691 0.751919C21.9215 1.22933 22.1478 1.80222 22.1478 2.47059Z" fill="#002148"/>
<path d="M22.1478 2.47059C22.124 3.11509 21.8858 3.66411 21.4333 4.11765C21.0047 4.57119 20.4688 4.80989 19.8258 4.83376L14.2373 5.40584C13.9572 5.43014 13.6908 5.538 13.4724 5.7155L12.5896 6.43315C12.2924 6.67468 9.8568 6.67289 9.5617 6.42888L8.7181 5.73134C8.49844 5.54971 8.22896 5.43916 7.94528 5.41431L2.32194 4.83376C0.893055 4.69054 0.119074 3.90281 0 2.47059C2.91474e-08 1.80222 0.214333 1.21739 0.643 0.716113C1.09548 0.238704 1.65513 -2.92155e-08 2.32194 0L8.02447 0.778781C8.25831 0.805931 8.48161 0.891458 8.67392 1.02753L9.60901 1.68913C9.88515 1.88451 12.2636 1.8859 12.5412 1.69259L13.5171 1.01306C13.7077 0.880302 13.9282 0.796894 14.1588 0.770269L19.8258 7.68493e-07C20.4926 0.0238712 21.0404 0.274511 21.4691 0.751919C21.9215 1.22933 22.1478 1.80222 22.1478 2.47059Z" fill="#002148"/>
<path d="M22.1478 2.47059C22.124 3.11509 21.8858 3.66411 21.4333 4.11765C21.0047 4.57119 20.4688 4.80989 19.8258 4.83376L14.2373 5.40584C13.9572 5.43014 13.6908 5.538 13.4724 5.7155L12.5896 6.43315C12.2924 6.67468 9.8568 6.67289 9.5617 6.42888L8.7181 5.73134C8.49844 5.54971 8.22896 5.43916 7.94528 5.41431L2.32194 4.83376C0.893055 4.69054 0.119074 3.90281 0 2.47059C2.91474e-08 1.80222 0.214333 1.21739 0.643 0.716113C1.09548 0.238704 1.65513 -2.92155e-08 2.32194 0L8.02447 0.778781C8.25831 0.805931 8.48161 0.891458 8.67392 1.02753L9.60901 1.68913C9.88515 1.88451 12.2636 1.8859 12.5412 1.69259L13.5171 1.01306C13.7077 0.880302 13.9282 0.796894 14.1588 0.770269L19.8258 7.68493e-07C20.4926 0.0238712 21.0404 0.274511 21.4691 0.751919C21.9215 1.22933 22.1478 1.80222 22.1478 2.47059Z" fill="#002148"/>
<path d="M22.1478 2.47059C22.124 3.11509 21.8858 3.66411 21.4333 4.11765C21.0047 4.57119 20.4688 4.80989 19.8258 4.83376L14.2373 5.40584C13.9572 5.43014 13.6908 5.538 13.4724 5.7155L12.5896 6.43315C12.2924 6.67468 9.8568 6.67289 9.5617 6.42888L8.7181 5.73134C8.49844 5.54971 8.22896 5.43916 7.94528 5.41431L2.32194 4.83376C0.893055 4.69054 0.119074 3.90281 0 2.47059C2.91474e-08 1.80222 0.214333 1.21739 0.643 0.716113C1.09548 0.238704 1.65513 -2.92155e-08 2.32194 0L8.02447 0.778781C8.25831 0.805931 8.48161 0.891458 8.67392 1.02753L9.60901 1.68913C9.88515 1.88451 12.2636 1.8859 12.5412 1.69259L13.5171 1.01306C13.7077 0.880302 13.9282 0.796894 14.1588 0.770269L19.8258 7.68493e-07C20.4926 0.0238712 21.0404 0.274511 21.4691 0.751919C21.9215 1.22933 22.1478 1.80222 22.1478 2.47059Z" fill="#002148"/>
</svg>
