<svg width="37" height="30" viewBox="0 0 37 30" fill="none" xmlns="http://www.w3.org/2000/svg">
<path d="M34.2353 0.00199644H25.9562C25.0895 0.00173438 24.2312 0.172256 23.4304 0.503833C22.6295 0.835409 21.9017 1.32155 21.2888 1.93445C20.6759 2.54735 20.1898 3.27499 19.8582 4.07582C19.5266 4.87666 19.3562 5.73499 19.3565 6.60176V9.17665V25.6352H16.9352V9.39604C16.9433 9.32318 16.9472 9.24994 16.9471 9.17665V6.59976C16.9474 5.73316 16.7768 4.875 16.4454 4.07429C16.1139 3.27358 15.628 2.54603 15.0154 1.93316C14.4027 1.32029 13.6752 0.834114 12.8746 0.502421C12.074 0.170727 11.2159 -3.95965e-08 10.3493 0H2.07026C1.52118 0 0.994586 0.218128 0.606333 0.606381C0.21808 0.994634 0 1.52121 0 2.07028V9.19459C0 9.74367 0.21808 10.2703 0.606333 10.6585C0.994586 11.0468 1.52118 11.2649 2.07026 11.2649H8.81958C9.09673 11.2735 9.37282 11.2263 9.6314 11.1262C9.88997 11.0261 10.1257 10.8751 10.3248 10.6821C10.5239 10.4891 10.6822 10.258 10.7903 10.0027C10.8984 9.74734 10.9541 9.47287 10.9541 9.19559C10.9541 8.91831 10.8984 8.64386 10.7903 8.38852C10.6822 8.13318 10.5239 7.90215 10.3248 7.70915C10.1257 7.51614 9.88997 7.36511 9.6314 7.26499C9.37282 7.16487 9.09673 7.1177 8.81958 7.12631H4.13857V4.17845H12.6151C12.6553 4.17845 12.6938 4.19443 12.7223 4.22285C12.7507 4.25128 12.7667 4.28983 12.7667 4.33003V8.54838C12.7587 8.62124 12.7548 8.69447 12.7548 8.76777V27.7154C12.7553 28.2527 12.9628 28.7691 13.3343 29.1573C13.7057 29.5455 14.2126 29.7756 14.7493 29.7997H21.5843C22.114 29.7662 22.611 29.5323 22.9744 29.1456C23.3378 28.7588 23.5404 28.2481 23.5408 27.7174V4.32207C23.5408 4.28187 23.5568 4.2433 23.5852 4.21487C23.6137 4.18644 23.6523 4.17048 23.6926 4.17048H32.1711V7.11835H27.4879C26.9502 7.13504 26.4403 7.36037 26.0659 7.74662C25.6914 8.13286 25.4819 8.64968 25.4819 9.18763C25.4819 9.72558 25.6914 10.2424 26.0659 10.6286C26.4403 11.0149 26.9502 11.2402 27.4879 11.2569H34.2413C34.5131 11.2569 34.7822 11.2033 35.0333 11.0993C35.2844 10.9952 35.5124 10.8427 35.7045 10.6504C35.8966 10.4581 36.049 10.2299 36.1529 9.97873C36.2567 9.72756 36.3099 9.45841 36.3096 9.18663V2.0623C36.3075 1.5141 36.0878 0.989177 35.6988 0.602851C35.3099 0.216525 34.7835 0.000406441 34.2353 0.00199644Z" fill="#004BA5"/>
</svg>
