<svg width="24" height="24" viewBox="0 0 24 24" fill="none" xmlns="http://www.w3.org/2000/svg">
<g clip-path="url(#clip0_1233_5103)">
<path d="M12.0069 21.3218C16.6403 21.3218 20.3964 17.596 20.3964 13C20.3964 8.404 16.6403 4.67822 12.0069 4.67822C7.37353 4.67822 3.61743 8.404 3.61743 13C3.61743 17.596 7.37353 21.3218 12.0069 21.3218Z" fill="white" stroke="#121212" stroke-linecap="round" stroke-linejoin="round"/>
<path d="M1 12.9181H3.6174" stroke="#121212" stroke-linecap="round" stroke-linejoin="round"/>
<path d="M20.3964 12.9181H23" stroke="#121212" stroke-linecap="round" stroke-linejoin="round"/>
<path d="M12.0069 2V4.59628" stroke="#121212" stroke-linecap="round" stroke-linejoin="round"/>
<path d="M12.0069 21.4037V24" stroke="#121212" stroke-linecap="round" stroke-linejoin="round"/>
<path d="M11.9794 16.9902C14.2009 16.9902 16.0019 15.2037 16.0019 13.0001C16.0019 10.7964 14.2009 9.01001 11.9794 9.01001C9.75777 9.01001 7.95682 10.7964 7.95682 13.0001C7.95682 15.2037 9.75777 16.9902 11.9794 16.9902Z" fill="white" stroke="#121212" stroke-linecap="round" stroke-linejoin="round"/>
</g>
<defs>
<clipPath id="clip0_1233_5103">
<rect width="24" height="24" fill="white"/>
</clipPath>
</defs>
</svg>
