<svg width="24" height="24" viewBox="0 0 24 24" fill="none" xmlns="http://www.w3.org/2000/svg">
<g clip-path="url(#clip0_1233_5144)">
<path d="M10.1963 1.13577C7.9786 1.5119 5.929 2.54994 4.32062 4.11156C2.71224 5.67318 1.62146 7.68422 1.19363 9.87675C0.743772 12.2696 1.10715 14.7429 2.22672 16.9086L1.05834 21.0715C0.983667 21.3318 0.980619 21.6071 1.04954 21.8689C1.11845 22.1307 1.25682 22.3694 1.4502 22.5601C1.64358 22.7508 1.88492 22.8866 2.1491 22.9533C2.41329 23.02 2.69066 23.0152 2.95234 22.9394L7.19544 21.7186C9.36399 22.7778 11.8258 23.0912 14.1934 22.6097C16.3865 22.1598 18.3906 21.06 19.9408 19.4558C21.4911 17.8516 22.5147 15.8184 22.8764 13.6246C23.1357 11.9167 22.9857 10.1721 22.4386 8.53253C21.8915 6.89292 20.9626 5.40446 19.7274 4.1879C18.4923 2.97134 16.9855 2.06097 15.3295 1.53067C13.6735 1.00037 11.9149 0.865082 10.1963 1.13577Z" stroke="#121212" stroke-linecap="round" stroke-linejoin="round"/>
<path d="M13.7753 11.9523C13.7753 11.0353 13.0264 10.292 12.1026 10.292C11.1789 10.292 10.43 11.0353 10.43 11.9523V17.4459C10.43 18.3629 11.1789 19.1062 12.1026 19.1062C13.0264 19.1062 13.7753 18.3629 13.7753 17.4459V11.9523Z" stroke="#121212" stroke-linecap="round" stroke-linejoin="round"/>
<path d="M12.1149 8.79034C13.1134 8.79034 13.9229 7.98688 13.9229 6.99576C13.9229 6.00463 13.1134 5.20117 12.1149 5.20117C11.1164 5.20117 10.307 6.00463 10.307 6.99576C10.307 7.98688 11.1164 8.79034 12.1149 8.79034Z" fill="white" stroke="#121212" stroke-linecap="round" stroke-linejoin="round"/>
</g>
<defs>
<clipPath id="clip0_1233_5144">
<rect width="24" height="24" fill="white"/>
</clipPath>
</defs>
</svg>
