<svg width="82" height="65" viewBox="0 0 82 65" fill="none" xmlns="http://www.w3.org/2000/svg">
<mask id="mask0_1287_3180" style="mask-type:luminance" maskUnits="userSpaceOnUse" x="0" y="0" width="82" height="65">
<path d="M78.5833 0H3.41667C1.52969 0 0 1.20297 0 2.68691V61.799C0 63.2829 1.52969 64.4859 3.41667 64.4859H78.5833C80.4703 64.4859 82 63.2829 82 61.799V2.68691C82 1.20297 80.4703 0 78.5833 0Z" fill="white"/>
</mask>
<g mask="url(#mask0_1287_3180)">
<path d="M81.9956 0H-0.00439453V64.4859H81.9956V0Z" fill="#EBF4FF"/>
<path d="M97.7058 19.0576L60.6248 47.9351L61.0815 48.2978L98.1626 19.4204L97.7058 19.0576Z" fill="white"/>
<path d="M98.5436 3.30859L50.9553 40.3687L51.4121 40.7314L99.0004 3.67134L98.5436 3.30859Z" fill="white"/>
<path d="M112.679 14.4233L65.0911 51.4834L65.5479 51.8462L113.136 14.7861L112.679 14.4233Z" fill="white"/>
<path d="M83.652 30.1257L83.6178 30.6362L53.9202 30.9533L53.9543 30.4374L83.652 30.1257Z" fill="white"/>
<path d="M63.6445 14.3756L63.1833 14.7349L87.8106 34.2855L88.2718 33.9262L63.6445 14.3756Z" fill="white"/>
<path d="M41.0263 31.8931L40.5652 32.2524L65.4325 51.9867L65.8936 51.6274L41.0263 31.8931Z" fill="white"/>
<path d="M71.8825 7.91506L71.4214 8.27441L96.053 27.8216L96.5141 27.4623L71.8825 7.91506Z" fill="white"/>
<path d="M87.4883 20.6395L79.2209 27.0801L79.6778 27.4428L87.9452 21.0022L87.4883 20.6395Z" fill="white"/>
<path d="M67.2381 11.4711L66.7769 11.8303L86.9041 27.8141L87.3654 27.4549L67.2381 11.4711Z" fill="white"/>
<path d="M53.9032 21.9543L53.4419 22.3135L73.5691 38.2973L74.0304 37.938L53.9032 21.9543Z" fill="white"/>
<path d="M77.7121 3.1903L77.251 3.54956L101.95 23.1574L102.412 22.7982L77.7121 3.1903Z" fill="white"/>
<path d="M53.9248 29.9645C54.0438 30.0574 54.1382 30.1679 54.2027 30.2897C54.2671 30.4114 54.3003 30.542 54.3003 30.6739C54.3003 30.8057 54.2671 30.9363 54.2027 31.0581C54.1382 31.1798 54.0438 31.2903 53.9248 31.3832C53.6852 31.5709 53.3609 31.6763 53.0227 31.6763C52.6846 31.6763 52.3603 31.5709 52.1207 31.3832C51.8821 31.1949 51.748 30.9398 51.748 30.6739C51.748 30.4079 51.8821 30.1529 52.1207 29.9645C52.2389 29.8709 52.3794 29.7967 52.5342 29.746C52.689 29.6953 52.8551 29.6692 53.0227 29.6692C53.1904 29.6692 53.3565 29.6953 53.5113 29.746C53.6661 29.7967 53.8066 29.8709 53.9248 29.9645ZM52.5581 31.0393C52.6159 31.085 52.6845 31.1212 52.7602 31.1459C52.8358 31.1706 52.9169 31.1833 52.9988 31.1833C53.0807 31.1833 53.1618 31.1706 53.2375 31.1459C53.3131 31.1212 53.3818 31.085 53.4396 31.0393C53.5556 30.9459 53.6206 30.8205 53.6206 30.69C53.6206 30.5594 53.5556 30.4341 53.4396 30.3407C53.3208 30.2494 53.1614 30.1984 52.9954 30.1984C52.8294 30.1984 52.67 30.2494 52.5512 30.3407C52.4438 30.4345 52.3866 30.5574 52.3917 30.6836C52.3968 30.8098 52.4637 30.9295 52.5786 31.0178L52.5581 31.0393Z" fill="white"/>
<path d="M52.2571 31.0293L45.7703 36.0811L46.227 36.4438L52.7139 31.392L52.2571 31.0293Z" fill="white"/>
<path d="M48.2896 26.4613L47.8284 26.8206L52.2519 30.3335L52.7132 29.9743L48.2896 26.4613Z" fill="white"/>
<path d="M54.1151 31.0635L53.6541 31.4229L72.416 46.3069L72.877 45.9475L54.1151 31.0635Z" fill="white"/>
<path d="M68.4083 18.4242L53.582 29.9663L54.0387 30.3291L68.865 18.787L68.4083 18.4242Z" fill="white"/>
<path d="M117.175 17.9693L80.0938 46.8467L80.5505 47.2094L117.632 18.332L117.175 17.9693Z" fill="white"/>
<path d="M126.801 25.5249L79.2129 62.585L79.6697 62.9477L127.258 25.8876L126.801 25.5249Z" fill="white"/>
<path d="M112.699 14.4173L65.1111 51.4773L65.5679 51.84L113.156 14.78L112.699 14.4173Z" fill="white"/>
<path d="M65.5563 51.1724L65.0952 51.5317L89.9673 71.2698L90.4284 70.9105L65.5563 51.1724Z" fill="white"/>
<path d="M82.1144 38.4129L81.6533 38.7722L106.285 58.3195L106.746 57.9601L82.1144 38.4129Z" fill="white"/>
<path d="M76.1907 43.0584L75.7295 43.4177L100.429 63.0256L100.89 62.6663L76.1907 43.0584Z" fill="white"/>
<path d="M79.36 40.6627L78.8987 41.022L93.0733 52.2786L93.5346 51.9194L79.36 40.6627Z" fill="white"/>
<path d="M75.3315 50.8849C75.0928 50.6965 74.9587 50.4415 74.9587 50.1755C74.9587 49.9096 75.0928 49.6545 75.3315 49.4662C75.571 49.2785 75.8953 49.1731 76.2334 49.1731C76.5716 49.1731 76.8959 49.2785 77.1354 49.4662C77.3741 49.6545 77.5082 49.9096 77.5082 50.1755C77.5082 50.4415 77.3741 50.6965 77.1354 50.8849C76.8959 51.0726 76.5716 51.178 76.2334 51.178C75.8953 51.178 75.571 51.0726 75.3315 50.8849ZM76.6981 49.837C76.6404 49.7913 76.5717 49.7551 76.496 49.7304C76.4204 49.7057 76.3393 49.6929 76.2574 49.6929C76.1755 49.6929 76.0944 49.7057 76.0187 49.7304C75.9431 49.7551 75.8744 49.7913 75.8166 49.837C75.7586 49.8824 75.7125 49.9364 75.6811 49.9959C75.6496 50.0554 75.6334 50.1192 75.6334 50.1836C75.6334 50.248 75.6496 50.3118 75.6811 50.3713C75.7125 50.4308 75.7586 50.4848 75.8166 50.5302C75.9354 50.6215 76.0948 50.6725 76.2608 50.6725C76.4268 50.6725 76.5862 50.6215 76.7049 50.5302C76.7612 50.4834 76.8052 50.4282 76.8344 50.368C76.8635 50.3077 76.8771 50.2436 76.8746 50.1791C76.8721 50.1147 76.8534 50.0513 76.8196 49.9926C76.7858 49.9339 76.7375 49.881 76.6776 49.837H76.6981Z" fill="white"/>
<path d="M80.2589 46.6438L76.6465 49.457L77.1033 49.8198L80.7157 47.0065L80.2589 46.6438Z" fill="white"/>
<path d="M77.1236 50.5253L76.6624 50.8845L85.5191 57.918L85.9804 57.5588L77.1236 50.5253Z" fill="white"/>
<path d="M75.3362 49.8262L71.5095 46.7954L71.9742 46.4353L75.8009 49.4661L75.3362 49.8262Z" fill="white"/>
<path d="M70.0394 55.3933L69.5815 55.0333L75.3352 50.5247L75.793 50.8847L70.0394 55.3933Z" fill="white"/>
<path d="M50.4038 55.9426L13.3228 84.8201L13.7795 85.1828L50.8606 56.3054L50.4038 55.9426Z" fill="white"/>
<path d="M51.2235 40.1831L3.63525 77.2432L4.09203 77.6059L51.6803 40.5459L51.2235 40.1831Z" fill="white"/>
<path d="M40.8654 32.0227L-6.7229 69.0828L-6.26611 69.4455L41.3222 32.3854L40.8654 32.0227Z" fill="white"/>
<path d="M65.3932 51.3084L17.8049 88.3684L18.2617 88.7312L65.85 51.6711L65.3932 51.3084Z" fill="white"/>
<path d="M16.3384 51.2516L15.8772 51.6108L40.5045 71.1615L40.9657 70.8022L16.3384 51.2516Z" fill="white"/>
<path d="M41.0324 31.8948L40.5713 32.2542L65.4434 51.9922L65.9045 51.6329L41.0324 31.8948Z" fill="white"/>
<path d="M24.5803 44.7949L24.1191 45.1543L48.7507 64.7015L49.2119 64.3422L24.5803 44.7949Z" fill="white"/>
<path d="M40.0997 57.4797L31.8308 63.9192L32.2876 64.2819L40.5564 57.8424L40.0997 57.4797Z" fill="white"/>
<path d="M19.9359 48.3469L19.4746 48.7061L39.6018 64.6898L40.0631 64.3306L19.9359 48.3469Z" fill="white"/>
<path d="M6.60092 58.8339L6.13965 59.1931L26.2669 75.1769L26.7281 74.8177L6.60092 58.8339Z" fill="white"/>
<path d="M41.344 32.3181L41.2688 48.6707L35.3717 53.2706L34.9138 52.9052L40.6197 48.4611L40.6948 32.3181H41.344Z" fill="white"/>
<path d="M30.4002 40.0755L29.939 40.4348L54.6384 60.0427L55.0995 59.6834L30.4002 40.0755Z" fill="white"/>
<path d="M37.9215 50.8935L37.4602 51.2527L51.6348 62.5093L52.0961 62.1501L37.9215 50.8935Z" fill="white"/>
<path d="M55.6014 52.255C55.8401 52.4434 55.9741 52.6985 55.9741 52.9644C55.9741 53.2303 55.8401 53.4854 55.6014 53.6737C55.3619 53.8614 55.0375 53.9668 54.6994 53.9668C54.3613 53.9668 54.0369 53.8614 53.7974 53.6737C53.6784 53.5808 53.584 53.4703 53.5195 53.3486C53.4551 53.2268 53.4219 53.0963 53.4219 52.9644C53.4219 52.8325 53.4551 52.7019 53.5195 52.5802C53.584 52.4585 53.6784 52.3479 53.7974 52.255C53.9155 52.1615 54.056 52.0872 54.2109 52.0365C54.3657 51.9858 54.5317 51.9597 54.6994 51.9597C54.8671 51.9597 55.0331 51.9858 55.1879 52.0365C55.3427 52.0872 55.4833 52.1615 55.6014 52.255ZM54.2348 53.3298C54.3526 53.4223 54.5123 53.4743 54.6789 53.4743C54.8454 53.4743 55.0052 53.4223 55.1231 53.3298C55.1811 53.2844 55.2272 53.2304 55.2586 53.1709C55.2901 53.1114 55.3063 53.0476 55.3063 52.9832C55.3063 52.9188 55.2901 52.855 55.2586 52.7955C55.2272 52.736 55.1811 52.682 55.1231 52.6366C55.0653 52.5909 54.9966 52.5547 54.921 52.53C54.8453 52.5053 54.7642 52.4925 54.6823 52.4925C54.6004 52.4925 54.5193 52.5053 54.4437 52.53C54.368 52.5547 54.2993 52.5909 54.2415 52.6366C54.1364 52.7292 54.0788 52.8493 54.0801 52.9735C54.0813 53.0977 54.1413 53.217 54.2484 53.3083L54.2348 53.3298Z" fill="white"/>
<path d="M53.747 53.2895L50.1345 56.1028L50.5913 56.4655L54.2038 53.6523L53.747 53.2895Z" fill="white"/>
<path d="M45.3807 45.2089L44.9194 45.5681L53.7762 52.6016L54.2375 52.2424L45.3807 45.2089Z" fill="white"/>
<path d="M55.5921 53.3083L59.4188 56.3446L58.9541 56.6992L55.1274 53.6684L55.5921 53.3083Z" fill="white"/>
<path d="M60.8892 47.741L61.347 48.1064L55.5933 52.615L55.1355 52.2496L60.8892 47.741Z" fill="white"/>
<path d="M0.9935 63.3427L0.532227 63.7019L4.9558 67.2148L5.41707 66.8556L0.9935 63.3427Z" fill="white"/>
<path d="M21.0999 55.3092L6.27368 66.8513L6.73039 67.2141L21.5566 55.672L21.0999 55.3092Z" fill="white"/>
<path d="M69.8787 54.8506L32.7976 83.728L33.2544 84.0908L70.3355 55.2133L69.8787 54.8506Z" fill="white"/>
<path d="M79.527 62.4116L31.9387 99.4717L32.3955 99.8344L79.9838 62.7744L79.527 62.4116Z" fill="white"/>
<path d="M65.4093 51.3025L17.821 88.3625L18.2778 88.7253L65.8661 51.6652L65.4093 51.3025Z" fill="white"/>
<path d="M65.5602 51.1814L65.0991 51.5408L89.9664 71.275L90.4275 70.9157L65.5602 51.1814Z" fill="white"/>
<path d="M58.5914 56.8603L58.1304 57.2197L76.8924 72.1037L77.3534 71.7443L58.5914 56.8603Z" fill="white"/>
<path d="M74.6793 58.5893L61.7078 68.6946L62.1646 69.0573L75.1361 58.952L74.6793 58.5893Z" fill="white"/>
<path d="M48.7722 -19.592L11.6912 9.2854L12.1479 9.64815L49.229 -19.2293L48.7722 -19.592Z" fill="white"/>
<path d="M49.6139 -35.3464L2.02563 1.71362L2.48241 2.07637L50.0707 -34.9837L49.6139 -35.3464Z" fill="white"/>
<path d="M63.7477 -24.2319L16.1594 12.8281L16.6162 13.1909L64.2045 -23.8692L63.7477 -24.2319Z" fill="white"/>
<path d="M-7.89728 -6.75754L-8.3584 -6.39819L16.5089 13.3361L16.97 12.9767L-7.89728 -6.75754Z" fill="white"/>
<path d="M5.1854 -7.59013L4.72437 -7.23071L23.4864 7.65329L23.9474 7.29388L5.1854 -7.59013Z" fill="white"/>
<path d="M19.8758 -4.55718L6.9043 5.5481L7.36116 5.91078L20.3327 -4.19449L19.8758 -4.55718Z" fill="white"/>
<path d="M68.2232 -20.6911L31.1421 8.18628L31.5989 8.54903L68.6799 -20.3284L68.2232 -20.6911Z" fill="white"/>
<path d="M77.8966 -13.1283L41.0098 15.5979L41.4666 15.9607L78.3534 -12.7655L77.8966 -13.1283Z" fill="white"/>
<path d="M88.2725 -4.96012L47.6421 26.6814L48.0989 27.0441L88.7293 -4.59738L88.2725 -4.96012Z" fill="white"/>
<path d="M63.7597 -24.2432L16.1714 12.8169L16.6282 13.1796L64.2165 -23.8804L63.7597 -24.2432Z" fill="white"/>
<path d="M41.4067 -6.71498L40.9456 -6.35571L65.5728 13.1949L66.034 12.8356L41.4067 -6.71498Z" fill="white"/>
<path d="M16.6186 12.52L16.1575 12.8794L41.0296 32.6175L41.4907 32.2581L16.6186 12.52Z" fill="white"/>
<path d="M33.1867 -0.24851L32.7256 0.11084L57.3572 19.6581L57.8183 19.2987L33.1867 -0.24851Z" fill="white"/>
<path d="M49.7154 0.206354L41.448 6.64697L41.9049 7.00966L50.1723 0.569037L49.7154 0.206354Z" fill="white"/>
<path d="M42.3658 -0.223481L41.9045 0.135742L62.0318 16.1195L62.493 15.7603L42.3658 -0.223481Z" fill="white"/>
<path d="M55.6988 -10.7105L55.2375 -10.3513L75.3648 5.63247L75.8261 5.27324L55.6988 -10.7105Z" fill="white"/>
<path d="M40.7234 15.8097L46.6274 11.2151L47.0852 11.5751L41.3726 16.0247" fill="white"/>
<path d="M27.2571 4.40194L26.7959 4.76123L51.4953 24.3691L51.9565 24.0098L27.2571 4.40194Z" fill="white"/>
<path d="M30.4261 2.01309L29.9648 2.37231L44.1395 13.6289L44.6008 13.2697L30.4261 2.01309Z" fill="white"/>
<path d="M26.525 12.4727L26.0671 12.1127L31.363 8.00171L31.8208 8.36713L26.525 12.4727Z" fill="white"/>
<path d="M28.3482 10.6884L27.887 11.0476L52.0002 30.1968L52.4615 29.8376L28.3482 10.6884Z" fill="white"/>
<path d="M24.3502 13.4594L23.8889 13.8186L49.06 33.8079L49.5212 33.4487L24.3502 13.4594Z" fill="white"/>
<path d="M21.1036 16.7395L20.6458 16.3795L26.3994 11.8708L26.8572 12.2309L21.1036 16.7395Z" fill="white"/>
<path d="M77.0116 -2.74838L76.5503 -2.38916L80.9739 1.12376L81.4351 0.764541L77.0116 -2.74838Z" fill="white"/>
<path d="M75.2624 -2.72042L60.4387 8.82373L60.8955 9.18648L75.7192 -2.35768L75.2624 -2.72042Z" fill="white"/>
<path d="M1.47393 17.2876L-35.6072 46.165L-35.1504 46.5278L1.93072 17.6503L1.47393 17.2876Z" fill="white"/>
<path d="M2.33385 1.54934L-45.2544 38.6094L-44.7976 38.9721L2.79063 1.91208L2.33385 1.54934Z" fill="white"/>
<path d="M16.4215 12.6372L-31.1667 49.6973L-30.71 50.06L16.8783 12.9999L16.4215 12.6372Z" fill="white"/>
<path d="M-7.90339 -6.76145L-8.3645 -6.4021L16.5076 13.336L16.9687 12.9766L-7.90339 -6.76145Z" fill="white"/>
<path d="M-24.3514 6.13725L-24.8125 6.49658L-0.180895 26.0438L0.28019 25.6845L-24.3514 6.13725Z" fill="white"/>
<path d="M-18.5276 1.41391L-18.9888 1.77319L5.71062 21.3811L6.17182 21.0218L-18.5276 1.41391Z" fill="white"/>
<path d="M-11.0163 12.2399L-11.4775 12.5991L2.69711 23.8557L3.15838 23.4965L-11.0163 12.2399Z" fill="white"/>
<path d="M6.64082 13.6012C6.8795 13.7896 7.01352 14.0446 7.01352 14.3105C7.01352 14.5765 6.8795 14.8315 6.64082 15.0199C6.40131 15.2076 6.07695 15.313 5.73881 15.313C5.40068 15.313 5.07632 15.2076 4.83681 15.0199C4.59812 14.8315 4.46411 14.5765 4.46411 14.3105C4.46411 14.0446 4.59812 13.7896 4.83681 13.6012C5.07632 13.4135 5.40068 13.3081 5.73881 13.3081C6.07695 13.3081 6.40131 13.4135 6.64082 13.6012ZM5.27415 14.6491C5.39202 14.7416 5.55178 14.7936 5.71833 14.7936C5.88489 14.7936 6.04461 14.7416 6.16248 14.6491C6.22053 14.6037 6.26663 14.5496 6.29807 14.4902C6.3295 14.4307 6.34566 14.3669 6.34566 14.3025C6.34566 14.2381 6.3295 14.1743 6.29807 14.1148C6.26663 14.0553 6.22053 14.0013 6.16248 13.9559C6.1047 13.9102 6.03604 13.874 5.9604 13.8493C5.88477 13.8245 5.80366 13.8118 5.72176 13.8118C5.63985 13.8118 5.55874 13.8245 5.48311 13.8493C5.40747 13.874 5.33877 13.9102 5.28099 13.9559C5.22512 14.0031 5.18166 14.0585 5.15312 14.1189C5.12458 14.1794 5.11153 14.2437 5.1147 14.3081C5.11788 14.3725 5.13723 14.4358 5.17163 14.4943C5.20604 14.5529 5.2548 14.6055 5.31515 14.6491H5.27415Z" fill="white"/>
<path d="M4.83926 14.6396L1.22681 17.4529L1.68359 17.8156L5.29605 15.0024L4.83926 14.6396Z" fill="white"/>
<path d="M-3.55292 6.55389L-4.01416 6.91309L4.84259 13.9466L5.30384 13.5874L-3.55292 6.55389Z" fill="white"/>
<path d="M6.66242 14.6545L10.4891 17.6854L10.0313 18.0454L6.19775 15.0146L6.66242 14.6545Z" fill="white"/>
<path d="M11.9553 9.08716L12.4132 9.45258L6.66633 13.9612L6.20166 13.5958L11.9553 9.08716Z" fill="white"/>
<path d="M20.9129 16.1809L-16.1682 45.0583L-15.7114 45.4211L21.3697 16.5437L20.9129 16.1809Z" fill="white"/>
<path d="M30.5572 23.742L-17.031 60.802L-16.5742 61.1647L31.014 24.1047L30.5572 23.742Z" fill="white"/>
<path d="M41.0016 31.9329L-6.58667 68.9929L-6.1299 69.3557L41.4584 32.2956L41.0016 31.9329Z" fill="white"/>
<path d="M16.4335 12.6272L-31.1548 49.6873L-30.698 50.05L16.8903 12.9899L16.4335 12.6272Z" fill="white"/>
<path d="M-1.65405 34.3603L-1.61988 33.8498L28.0778 33.5327L28.0436 34.0432L-1.65405 34.3603Z" fill="white"/>
<path d="M-5.89745 30.1649L-6.35864 30.5242L18.2686 50.0748L18.7298 49.7155L-5.89745 30.1649Z" fill="white"/>
<path d="M16.6205 12.5293L16.1594 12.8887L41.0267 32.6229L41.4878 32.2636L16.6205 12.5293Z" fill="white"/>
<path d="M-14.1195 36.6367L-14.5806 36.9961L10.051 56.5433L10.5121 56.184L-14.1195 36.6367Z" fill="white"/>
<path d="M2.32668 37.0405L-5.94214 43.48L-5.48537 43.8427L2.78345 37.4033L2.32668 37.0405Z" fill="white"/>
<path d="M-4.94839 36.6579L-5.40967 37.0171L14.7176 53.0009L15.1788 52.6416L-4.94839 36.6579Z" fill="white"/>
<path d="M8.39267 26.1691L7.9314 26.5283L28.0586 42.5121L28.5199 42.1529L8.39267 26.1691Z" fill="white"/>
<path d="M-20.0491 41.2779L-20.5103 41.6372L4.18913 61.2451L4.6503 60.8858L-20.0491 41.2779Z" fill="white"/>
<path d="M28.0682 34.5214C27.9492 34.4285 27.8547 34.3179 27.7903 34.1962C27.7258 34.0745 27.6926 33.9439 27.6926 33.812C27.6926 33.6801 27.7258 33.5496 27.7903 33.4278C27.8547 33.3061 27.9492 33.1956 28.0682 33.1027C28.3077 32.915 28.632 32.8096 28.9702 32.8096C29.3083 32.8096 29.6327 32.915 29.8722 33.1027C30.1109 33.291 30.2449 33.5461 30.2449 33.812C30.2449 34.0779 30.1109 34.333 29.8722 34.5214C29.6327 34.7091 29.3083 34.8145 28.9702 34.8145C28.632 34.8145 28.3077 34.7091 28.0682 34.5214ZM29.4348 33.4466C29.377 33.4009 29.3084 33.3647 29.2328 33.34C29.1571 33.3153 29.076 33.3025 28.9941 33.3025C28.9122 33.3025 28.8311 33.3153 28.7555 33.34C28.6798 33.3647 28.6111 33.4009 28.5533 33.4466C28.4357 33.5393 28.3696 33.6649 28.3696 33.7959C28.3696 33.9269 28.4357 34.0525 28.5533 34.1452C28.6111 34.1909 28.6798 34.2271 28.7555 34.2518C28.8311 34.2765 28.9122 34.2893 28.9941 34.2893C29.076 34.2893 29.1571 34.2765 29.2328 34.2518C29.3084 34.2271 29.377 34.1909 29.4348 34.1452C29.5441 34.0528 29.6037 33.9307 29.6012 33.8045C29.5986 33.6783 29.5341 33.5578 29.4212 33.4681L29.4348 33.4466Z" fill="white"/>
<path d="M35.743 28.0188L29.2561 33.0706L29.7129 33.4333L36.1998 28.3815L35.743 28.0188Z" fill="white"/>
<path d="M29.6935 34.1276L29.2322 34.4868L33.6557 37.9997L34.117 37.6405L29.6935 34.1276Z" fill="white"/>
<path d="M9.66364 18.2121L9.20264 18.5715L27.9646 33.4555L28.4256 33.0962L9.66364 18.2121Z" fill="white"/>
<path d="M27.9682 34.1516L13.1445 45.6958L13.6013 46.0586L28.425 34.5144L27.9682 34.1516Z" fill="white"/>
<path d="M25.7438 19.9384L12.7722 30.0437L13.2291 30.4064L26.2006 20.3011L25.7438 19.9384Z" fill="white"/>
</g>
<path d="M12.1522 50.0867L6.94324 51.9744L11.0568 56.0256L12.8647 50.7884L12.1522 50.0867ZM18.8485 44L19.2128 43.6575L18.8569 43.2789L18.4922 43.6492L18.8485 44ZM29.1894 55L28.8251 55.3425L29.178 55.7178L29.5426 55.3539L29.1894 55ZM58.2424 26L58.5987 25.6492L58.2455 25.2905L57.8892 25.6461L58.2424 26ZM68.0909 36L67.7347 36.3508L68.0909 36.7126L68.4472 36.3508L68.0909 36ZM74 30L74.3562 30.3508L74.6976 30.0042L74.3604 29.6535L74 30ZM51.1439 9C51.1439 10.4728 52.3378 11.6667 53.8106 11.6667C55.2834 11.6667 56.4773 10.4728 56.4773 9C56.4773 7.52724 55.2834 6.33333 53.8106 6.33333C52.3378 6.33333 51.1439 7.52724 51.1439 9ZM9.97177 53.7258C10.1655 53.5291 10.1631 53.2125 9.96637 53.0188C9.76963 52.825 9.45305 52.8274 9.25929 53.0242L9.97177 53.7258ZM10.4903 51.7742C10.2966 51.9709 10.299 52.2875 10.4957 52.4812C10.6925 52.675 11.0091 52.6726 11.2028 52.4758L10.4903 51.7742ZM12.4339 51.2258C12.6277 51.0291 12.6252 50.7125 12.4285 50.5188C12.2317 50.325 11.9152 50.3274 11.7214 50.5242L12.4339 51.2258ZM12.9525 49.2742C12.7587 49.4709 12.7611 49.7875 12.9579 49.9812C13.1546 50.175 13.4712 50.1726 13.665 49.9758L12.9525 49.2742ZM14.896 48.7258C15.0898 48.5291 15.0874 48.2125 14.8906 48.0188C14.6939 47.825 14.3773 47.8274 14.1835 48.0242L14.896 48.7258ZM15.4146 46.7742C15.2208 46.9709 15.2232 47.2875 15.42 47.4812C15.6167 47.675 15.9333 47.6726 16.1271 47.4758L15.4146 46.7742ZM17.3581 46.2258C17.5519 46.0291 17.5495 45.7125 17.3527 45.5188C17.156 45.325 16.8394 45.3274 16.6457 45.5242L17.3581 46.2258ZM17.8767 44.2742C17.6829 44.4709 17.6854 44.7875 17.8821 44.9812C18.0789 45.175 18.3954 45.1726 18.5892 44.9758L17.8767 44.2742ZM19.1305 45.03C19.3196 45.2312 19.6361 45.2409 19.8373 45.0518C20.0385 44.8627 20.0482 44.5462 19.8591 44.345L19.1305 45.03ZM21.1517 45.72C20.9626 45.5188 20.6461 45.5091 20.4449 45.6982C20.2437 45.8873 20.234 46.2038 20.4231 46.405L21.1517 45.72ZM21.7157 47.78C21.9049 47.9812 22.2213 47.9909 22.4225 47.8018C22.6237 47.6127 22.6335 47.2962 22.4443 47.095L21.7157 47.78ZM23.7369 48.47C23.5478 48.2688 23.2314 48.2591 23.0302 48.4482C22.829 48.6373 22.8192 48.9538 23.0083 49.155L23.7369 48.47ZM24.3009 50.53C24.4901 50.7312 24.8065 50.7409 25.0077 50.5518C25.2089 50.3627 25.2187 50.0462 25.0295 49.845L24.3009 50.53ZM26.3222 51.22C26.133 51.0188 25.8166 51.0091 25.6154 51.1982C25.4142 51.3873 25.4044 51.7038 25.5936 51.905L26.3222 51.22ZM26.8862 53.28C27.0753 53.4812 27.3917 53.4909 27.5929 53.3018C27.7941 53.1127 27.8039 52.7962 27.6148 52.595L26.8862 53.28ZM28.9074 53.97C28.7182 53.7688 28.4018 53.7591 28.2006 53.9482C27.9994 54.1373 27.9896 54.4538 28.1788 54.655L28.9074 53.97ZM30.2689 54.6289C30.4644 54.4338 30.4647 54.1172 30.2696 53.9218C30.0745 53.7263 29.7579 53.726 29.5625 53.9211L30.2689 54.6289ZM31.0151 52.4711C30.8197 52.6662 30.8194 52.9828 31.0145 53.1782C31.2096 53.3737 31.5262 53.374 31.7216 53.1789L31.0151 52.4711ZM33.1743 51.7289C33.3697 51.5338 33.37 51.2172 33.1749 51.0218C32.9798 50.8263 32.6632 50.826 32.4678 51.0211L33.1743 51.7289ZM33.9204 49.5711C33.725 49.7662 33.7247 50.0828 33.9198 50.2782C34.1149 50.4737 34.4315 50.474 34.6269 50.2789L33.9204 49.5711ZM36.0796 48.8289C36.275 48.6338 36.2753 48.3172 36.0802 48.1218C35.8851 47.9263 35.5685 47.926 35.3731 48.1211L36.0796 48.8289ZM36.8257 46.6711C36.6303 46.8662 36.63 47.1828 36.8251 47.3782C37.0202 47.5737 37.3368 47.574 37.5322 47.3789L36.8257 46.6711ZM38.9849 45.9289C39.1803 45.7338 39.1806 45.4172 38.9855 45.2218C38.7904 45.0263 38.4738 45.026 38.2784 45.2211L38.9849 45.9289ZM39.7311 43.7711C39.5356 43.9662 39.5353 44.2828 39.7304 44.4782C39.9255 44.6737 40.2421 44.674 40.4375 44.4789L39.7311 43.7711ZM41.8902 43.0289C42.0856 42.8338 42.0859 42.5172 41.8908 42.3218C41.6957 42.1263 41.3791 42.126 41.1837 42.3211L41.8902 43.0289ZM42.6364 40.8711C42.4409 41.0662 42.4406 41.3828 42.6357 41.5782C42.8308 41.7737 43.1474 41.774 43.3428 41.5789L42.6364 40.8711ZM44.7955 40.1289C44.9909 39.9338 44.9912 39.6172 44.7961 39.4218C44.601 39.2263 44.2844 39.226 44.089 39.4211L44.7955 40.1289ZM45.5417 37.9711C45.3462 38.1662 45.3459 38.4828 45.541 38.6782C45.7361 38.8737 46.0527 38.874 46.2481 38.6789L45.5417 37.9711ZM47.7008 37.2289C47.8962 37.0338 47.8965 36.7172 47.7014 36.5218C47.5063 36.3263 47.1898 36.326 46.9943 36.5211L47.7008 37.2289ZM48.447 35.0711C48.2515 35.2662 48.2512 35.5828 48.4463 35.7782C48.6414 35.9737 48.958 35.974 49.1534 35.7789L48.447 35.0711ZM50.6061 34.3289C50.8015 34.1338 50.8018 33.8172 50.6067 33.6218C50.4116 33.4263 50.0951 33.426 49.8996 33.6211L50.6061 34.3289ZM51.3523 32.1711C51.1568 32.3662 51.1565 32.6828 51.3516 32.8782C51.5467 33.0737 51.8633 33.074 52.0587 32.8789L51.3523 32.1711ZM53.5114 31.4289C53.7068 31.2338 53.7071 30.9172 53.512 30.7218C53.3169 30.5263 53.0004 30.526 52.8049 30.7211L53.5114 31.4289ZM54.2576 29.2711C54.0621 29.4662 54.0618 29.7828 54.2569 29.9782C54.452 30.1737 54.7686 30.174 54.964 29.9789L54.2576 29.2711ZM56.4167 28.5289C56.6121 28.3338 56.6124 28.0172 56.4173 27.8218C56.2222 27.6263 55.9057 27.626 55.7102 27.8211L56.4167 28.5289ZM57.1629 26.3711C56.9674 26.5662 56.9671 26.8828 57.1622 27.0782C57.3573 27.2737 57.6739 27.274 57.8693 27.0789L57.1629 26.3711ZM58.5017 26.9758C58.6955 27.1726 59.0121 27.175 59.2088 26.9812C59.4055 26.7875 59.408 26.4709 59.2142 26.2742L58.5017 26.9758ZM60.4453 27.5242C60.2515 27.3274 59.9349 27.325 59.7382 27.5188C59.5414 27.7125 59.539 28.0291 59.7328 28.2258L60.4453 27.5242ZM60.9638 29.4758C61.1576 29.6726 61.4742 29.675 61.6709 29.4812C61.8677 29.2875 61.8701 28.9709 61.6763 28.7742L60.9638 29.4758ZM62.9074 30.0242C62.7136 29.8274 62.397 29.825 62.2003 30.0188C62.0035 30.2125 62.0011 30.5291 62.1949 30.7258L62.9074 30.0242ZM63.426 31.9758C63.6197 32.1726 63.9363 32.175 64.133 31.9812C64.3298 31.7875 64.3322 31.4709 64.1384 31.2742L63.426 31.9758ZM65.3695 32.5242C65.1757 32.3274 64.8592 32.325 64.6624 32.5188C64.4657 32.7125 64.4632 33.0291 64.657 33.2258L65.3695 32.5242ZM65.8881 34.4758C66.0818 34.6726 66.3984 34.675 66.5952 34.4812C66.7919 34.2875 66.7943 33.9709 66.6006 33.7742L65.8881 34.4758ZM67.8316 35.0242C67.6379 34.8274 67.3213 34.825 67.1245 35.0188C66.9278 35.2125 66.9254 35.5291 67.1191 35.7258L67.8316 35.0242ZM69.1858 35.6008C69.3796 35.4041 69.3771 35.0875 69.1804 34.8938C68.9836 34.7 68.6671 34.7024 68.4733 34.8992L69.1858 35.6008ZM69.9506 33.3992C69.7568 33.5959 69.7592 33.9125 69.956 34.1062C70.1527 34.3 70.4693 34.2976 70.6631 34.1008L69.9506 33.3992ZM72.1403 32.6008C72.3341 32.4041 72.3317 32.0875 72.1349 31.8938C71.9382 31.7 71.6216 31.7024 71.4278 31.8992L72.1403 32.6008ZM72.9051 30.3992C72.7114 30.5959 72.7138 30.9125 72.9105 31.1062C73.1073 31.3 73.4238 31.2976 73.6176 31.1008L72.9051 30.3992ZM73.6394 28.9035C73.448 28.7044 73.1315 28.6982 72.9324 28.8896C72.7334 29.0809 72.7271 29.3975 72.9185 29.5965L73.6394 28.9035ZM71.4764 28.0965C71.6678 28.2956 71.9843 28.3018 72.1834 28.1104C72.3824 27.9191 72.3887 27.6025 72.1973 27.4035L71.4764 28.0965ZM70.7552 25.9035C70.5638 25.7044 70.2473 25.6982 70.0482 25.8896C69.8492 26.0809 69.8429 26.3975 70.0343 26.5965L70.7552 25.9035ZM68.5922 25.0965C68.7836 25.2956 69.1001 25.3018 69.2992 25.1104C69.4982 24.9191 69.5045 24.6025 69.3131 24.4035L68.5922 25.0965ZM67.871 22.9035C67.6796 22.7044 67.3631 22.6982 67.164 22.8896C66.965 23.0809 66.9587 23.3975 67.1501 23.5965L67.871 22.9035ZM65.708 22.0965C65.8994 22.2956 66.2159 22.3018 66.415 22.1104C66.614 21.9191 66.6203 21.6025 66.4289 21.4035L65.708 22.0965ZM64.9868 19.9035C64.7954 19.7044 64.4789 19.6982 64.2798 19.8896C64.0808 20.0809 64.0745 20.3975 64.2659 20.5965L64.9868 19.9035ZM62.8238 19.0965C63.0152 19.2956 63.3317 19.3018 63.5308 19.1104C63.7298 18.9191 63.7361 18.6025 63.5447 18.4035L62.8238 19.0965ZM62.1026 16.9035C61.9112 16.7044 61.5947 16.6982 61.3956 16.8896C61.1966 17.0809 61.1903 17.3975 61.3817 17.5965L62.1026 16.9035ZM59.9396 16.0965C60.131 16.2956 60.4475 16.3018 60.6466 16.1104C60.8456 15.9191 60.8519 15.6025 60.6605 15.4035L59.9396 16.0965ZM59.2184 13.9035C59.027 13.7044 58.7105 13.6982 58.5114 13.8896C58.3124 14.0809 58.3061 14.3975 58.4975 14.5965L59.2184 13.9035ZM57.0554 13.0965C57.2468 13.2956 57.5633 13.3018 57.7624 13.1104C57.9614 12.9191 57.9677 12.6025 57.7763 12.4035L57.0554 13.0965ZM56.3342 10.9035C56.1428 10.7044 55.8263 10.6982 55.6272 10.8896C55.4282 11.0809 55.4219 11.3975 55.6133 11.5965L56.3342 10.9035ZM54.1712 10.0965C54.3626 10.2956 54.6791 10.3018 54.8782 10.1104C55.0772 9.91906 55.0835 9.60254 54.8921 9.40347L54.1712 10.0965ZM11.2028 52.4758L12.4339 51.2258L11.7214 50.5242L10.4903 51.7742L11.2028 52.4758ZM13.665 49.9758L14.896 48.7258L14.1835 48.0242L12.9525 49.2742L13.665 49.9758ZM16.1271 47.4758L17.3581 46.2258L16.6457 45.5242L15.4146 46.7742L16.1271 47.4758ZM18.5892 44.9758L19.2047 44.3508L18.4922 43.6492L17.8767 44.2742L18.5892 44.9758ZM18.4842 44.3425L19.1305 45.03L19.8591 44.345L19.2128 43.6575L18.4842 44.3425ZM20.4231 46.405L21.7157 47.78L22.4443 47.095L21.1517 45.72L20.4231 46.405ZM23.0083 49.155L24.3009 50.53L25.0295 49.845L23.7369 48.47L23.0083 49.155ZM25.5936 51.905L26.8862 53.28L27.6148 52.595L26.3222 51.22L25.5936 51.905ZM28.1788 54.655L28.8251 55.3425L29.5537 54.6575L28.9074 53.97L28.1788 54.655ZM29.5426 55.3539L30.2689 54.6289L29.5625 53.9211L28.8362 54.6461L29.5426 55.3539ZM31.7216 53.1789L33.1743 51.7289L32.4678 51.0211L31.0151 52.4711L31.7216 53.1789ZM34.6269 50.2789L36.0796 48.8289L35.3731 48.1211L33.9204 49.5711L34.6269 50.2789ZM37.5322 47.3789L38.9849 45.9289L38.2784 45.2211L36.8257 46.6711L37.5322 47.3789ZM40.4375 44.4789L41.8902 43.0289L41.1837 42.3211L39.7311 43.7711L40.4375 44.4789ZM43.3428 41.5789L44.7955 40.1289L44.089 39.4211L42.6364 40.8711L43.3428 41.5789ZM46.2481 38.6789L47.7008 37.2289L46.9943 36.5211L45.5417 37.9711L46.2481 38.6789ZM49.1534 35.7789L50.6061 34.3289L49.8996 33.6211L48.447 35.0711L49.1534 35.7789ZM52.0587 32.8789L53.5114 31.4289L52.8049 30.7211L51.3523 32.1711L52.0587 32.8789ZM54.964 29.9789L56.4167 28.5289L55.7102 27.8211L54.2576 29.2711L54.964 29.9789ZM57.8693 27.0789L58.5957 26.3539L57.8892 25.6461L57.1629 26.3711L57.8693 27.0789ZM57.8862 26.3508L58.5017 26.9758L59.2142 26.2742L58.5987 25.6492L57.8862 26.3508ZM59.7328 28.2258L60.9638 29.4758L61.6763 28.7742L60.4453 27.5242L59.7328 28.2258ZM62.1949 30.7258L63.426 31.9758L64.1384 31.2742L62.9074 30.0242L62.1949 30.7258ZM64.657 33.2258L65.8881 34.4758L66.6006 33.7742L65.3695 32.5242L64.657 33.2258ZM67.1191 35.7258L67.7347 36.3508L68.4472 35.6492L67.8316 35.0242L67.1191 35.7258ZM68.4472 36.3508L69.1858 35.6008L68.4733 34.8992L67.7347 35.6492L68.4472 36.3508ZM70.6631 34.1008L72.1403 32.6008L71.4278 31.8992L69.9506 33.3992L70.6631 34.1008ZM73.6176 31.1008L74.3562 30.3508L73.6438 29.6492L72.9051 30.3992L73.6176 31.1008ZM74.3604 29.6535L73.6394 28.9035L72.9185 29.5965L73.6396 30.3465L74.3604 29.6535ZM72.1973 27.4035L70.7552 25.9035L70.0343 26.5965L71.4764 28.0965L72.1973 27.4035ZM69.3131 24.4035L67.871 22.9035L67.1501 23.5965L68.5922 25.0965L69.3131 24.4035ZM66.4289 21.4035L64.9868 19.9035L64.2659 20.5965L65.708 22.0965L66.4289 21.4035ZM63.5447 18.4035L62.1026 16.9035L61.3817 17.5965L62.8238 19.0965L63.5447 18.4035ZM60.6605 15.4035L59.2184 13.9035L58.4975 14.5965L59.9396 16.0965L60.6605 15.4035ZM57.7763 12.4035L56.3342 10.9035L55.6133 11.5965L57.0554 13.0965L57.7763 12.4035ZM54.8921 9.40347L54.171 8.65347L53.4502 9.34653L54.1712 10.0965L54.8921 9.40347Z" fill="#004BA5"/>
</svg>
