<svg width="48" height="48" viewBox="0 0 48 48" fill="none" xmlns="http://www.w3.org/2000/svg">
<g clip-path="url(#clip0_1504_984)">
<path d="M24 0C10.7452 0 0 10.7452 0 24C0 37.2548 10.7452 48 24 48C37.2548 48 48 37.2548 48 24C47.9857 10.7511 37.2489 0.0143437 24 0ZM32 29.174C32.8127 29.922 32.8652 31.1873 32.1172 32C31.3691 32.8127 30.1039 32.8652 29.2912 32.1172C29.2505 32.0798 29.2115 32.0407 29.174 32L24 26.828L18.828 32C18.0335 32.7673 16.7674 32.7453 16 31.9508C15.2515 31.1757 15.2515 29.947 16 29.172L21.172 24L16 18.828C15.2327 18.0335 15.2547 16.7674 16.0492 16C16.8243 15.2515 18.053 15.2515 18.828 16L24 21.172L29.174 16C29.922 15.1873 31.1873 15.1348 32 15.8828C32.8127 16.6309 32.8652 17.8961 32.1172 18.7088C32.0798 18.7495 32.0407 18.7885 32 18.826L26.828 24L32 29.174Z" fill="#FF5C5C"/>
</g>
<defs>
<clipPath id="clip0_1504_984">
<rect width="48" height="48" fill="white"/>
</clipPath>
</defs>
</svg>
