<svg width="36" height="36" viewBox="0 0 36 36" fill="none" xmlns="http://www.w3.org/2000/svg">
<rect x="1" y="1" width="34" height="34" rx="17" fill="#004BA5"/>
<path d="M13.3335 13.3264C13.3335 12.679 13.3335 12.3553 13.4685 12.1768C13.5861 12.0214 13.7658 11.9252 13.9604 11.9135C14.1838 11.9002 14.4531 12.0798 14.9918 12.4389L22.0022 17.1125C22.4473 17.4092 22.6699 17.5576 22.7475 17.7446C22.8153 17.9081 22.8153 18.0919 22.7475 18.2554C22.6699 18.4424 22.4473 18.5908 22.0022 18.8875L14.9918 23.5611C14.4531 23.9202 14.1838 24.0998 13.9604 24.0865C13.7658 24.0749 13.5861 23.9787 13.4685 23.8232C13.3335 23.6447 13.3335 23.321 13.3335 22.6736V13.3264Z" stroke="white" stroke-width="2" stroke-linecap="round" stroke-linejoin="round"/>
<rect x="1" y="1" width="34" height="34" rx="17" stroke="white" stroke-width="2"/>
</svg>
